<svg version="1.1" id="Layer_1" xmlns="http://www.w3.org/2000/svg" xmlns:xlink="http://www.w3.org/1999/xlink" x="0px" y="0px"
	 width="100%" viewBox="0 0 512 512" enable-background="new 0 0 512 512" xml:space="preserve">
<path fill="#000000" opacity="1.000000" stroke="none" 
	d="
M1.000000,190.000000 
	C1.000000,126.666664 1.000000,63.833332 1.000000,1.000000 
	C171.666672,1.000000 342.333344,1.000000 513.000000,1.000000 
	C513.000000,171.666672 513.000000,342.333344 513.000000,513.000000 
	C342.333344,513.000000 171.666672,513.000000 1.000000,513.000000 
	C1.000000,405.500000 1.000000,298.000000 1.000000,190.000000 
M52.485287,475.147339 
	C58.454605,476.994385 64.356949,479.105469 70.405602,480.639740 
	C89.726997,485.540710 109.002632,490.699310 128.492050,494.833984 
	C141.851669,497.668213 155.504456,499.248932 169.090775,500.837738 
	C177.131027,501.778015 185.344376,502.302643 193.386993,501.723785 
	C197.615051,501.419434 202.848129,499.382660 205.516785,496.300659 
	C211.497665,489.393372 212.411865,480.266693 211.761520,471.452637 
	C211.157959,463.272705 208.825058,455.224182 208.160400,447.044128 
	C206.499481,426.602844 205.219681,406.127289 204.054184,385.650299 
	C203.422821,374.557831 203.441345,363.429993 202.985321,352.325562 
	C202.130341,331.505920 204.315628,311.022919 209.567398,290.873962 
	C214.543915,271.781067 219.928574,252.788940 224.572525,233.616577 
	C228.972092,215.453125 232.410446,196.988586 231.836182,178.241867 
	C231.274780,159.914764 229.870239,141.575378 227.912735,123.340485 
	C226.155304,106.969582 223.340149,90.700562 220.629501,74.446991 
	C217.975281,58.531769 214.638184,42.729931 212.018982,26.809532 
	C209.573349,11.944009 207.563217,9.998916 192.095306,10.000286 
	C171.597198,10.002104 151.099106,9.993190 130.600998,10.003591 
	C122.136917,10.007886 118.984619,12.481408 117.033386,20.740166 
	C115.100594,28.920872 113.236404,37.117897 111.366234,45.313267 
	C105.762207,69.870964 102.723900,94.773239 102.065926,119.924500 
	C101.501511,141.499390 102.109108,163.055725 104.949844,184.504333 
	C106.531456,196.446045 107.429558,208.492661 109.400322,220.365051 
	C112.232376,237.426178 115.839058,254.357300 118.971245,271.370392 
	C122.012756,287.890900 125.100952,304.408600 127.733704,320.996582 
	C129.542206,332.391174 130.640015,343.899902 131.994476,355.364838 
	C133.019089,364.037720 133.998718,372.716675 134.902618,381.402863 
	C135.671844,388.794861 136.992874,396.216125 136.831711,403.597382 
	C136.605438,413.960663 133.777374,420.291809 122.680992,423.323242 
	C102.988167,428.703156 83.568611,435.075958 63.976261,440.834442 
	C55.389965,443.358124 47.967979,450.953003 47.158150,459.699310 
	C46.650623,465.180664 45.592834,471.251831 52.485287,475.147339 
M376.981323,347.323364 
	C378.107300,337.996948 378.899841,328.615326 380.433685,319.356476 
	C383.042114,303.611115 386.290436,287.972412 388.957184,272.235901 
	C393.472229,245.592621 398.082672,218.957504 401.980042,192.220856 
	C404.049835,178.021683 405.332275,163.639679 405.865204,149.299149 
	C406.882080,121.937103 405.699127,94.593216 400.866974,67.597321 
	C397.882141,50.921791 393.724274,34.455551 390.059082,17.902868 
	C388.865479,12.512328 384.874451,10.130953 379.909485,10.091578 
	C356.584320,9.906608 333.256042,9.898031 309.930695,10.071832 
	C302.201233,10.129425 298.341736,13.520839 297.086090,20.523499 
	C293.308655,41.589268 289.149414,62.601055 286.011292,83.763229 
	C282.213989,109.370735 278.620728,135.046982 276.241150,160.813721 
	C274.424286,180.487549 276.172241,200.327255 280.509247,219.618896 
	C286.030701,244.178879 292.995422,268.412109 298.678955,292.938904 
	C301.534485,305.261597 303.701080,317.856018 304.784729,330.447540 
	C306.007446,344.654663 305.855560,358.995300 305.955902,373.280273 
	C306.118561,396.439178 306.184570,419.602203 305.907715,442.758942 
	C305.798187,451.920685 303.975250,461.081665 304.128906,470.222900 
	C304.506775,492.698639 323.971985,503.841339 342.485168,501.568756 
	C361.194733,499.272095 379.596100,494.286194 398.044617,490.091980 
	C416.213715,485.961304 434.337219,481.584808 452.319702,476.720795 
	C455.509460,475.858002 459.594666,472.529633 460.381714,469.572144 
	C463.583618,457.540527 456.680176,444.449402 445.466766,441.177856 
	C429.963165,436.654633 414.175476,433.113739 398.584534,428.875854 
	C394.381561,427.733429 389.929871,426.299896 386.492462,423.774719 
	C376.464630,416.407990 373.767334,405.227814 373.141785,393.649353 
	C372.741333,386.238098 373.450531,378.733093 374.099121,371.308289 
	C374.773010,363.593506 375.972961,355.924683 376.981323,347.323364 
z"/>
<path fill="#494F69" opacity="1.000000" stroke="none" 
	d="
M52.123333,475.021973 
	C45.592834,471.251831 46.650623,465.180664 47.158150,459.699310 
	C47.967979,450.953003 55.389965,443.358124 63.976261,440.834442 
	C83.568611,435.075958 102.988167,428.703156 122.680992,423.323242 
	C133.777374,420.291809 136.605438,413.960663 136.831711,403.597382 
	C136.992874,396.216125 135.671844,388.794861 134.902618,381.402863 
	C133.998718,372.716675 133.019089,364.037720 131.994476,355.364838 
	C130.640015,343.899902 129.542206,332.391174 127.733704,320.996582 
	C125.100952,304.408600 122.012756,287.890900 118.971245,271.370392 
	C115.839058,254.357300 112.232376,237.426178 109.400322,220.365051 
	C107.429558,208.492661 106.531456,196.446045 104.949844,184.504333 
	C102.109108,163.055725 101.501511,141.499390 102.065926,119.924500 
	C102.723900,94.773239 105.762207,69.870964 111.366234,45.313267 
	C113.236404,37.117897 115.100594,28.920872 117.033386,20.740166 
	C118.984619,12.481408 122.136917,10.007886 130.600998,10.003591 
	C151.099106,9.993190 171.597198,10.002104 192.095306,10.000286 
	C207.563217,9.998916 209.573349,11.944009 212.018982,26.809532 
	C214.638184,42.729931 217.975281,58.531769 220.629501,74.446991 
	C223.340149,90.700562 226.155304,106.969582 227.912735,123.340485 
	C229.870239,141.575378 231.274780,159.914764 231.836182,178.241867 
	C232.410446,196.988586 228.972092,215.453125 224.572525,233.616577 
	C219.928574,252.788940 214.543915,271.781067 209.567398,290.873962 
	C204.315628,311.022919 202.130341,331.505920 202.985321,352.325562 
	C203.441345,363.429993 203.422821,374.557831 204.054184,385.650299 
	C205.219681,406.127289 206.499481,426.602844 208.160400,447.044128 
	C208.825058,455.224182 211.157959,463.272705 211.761520,471.452637 
	C212.411865,480.266693 211.497665,489.393372 205.516785,496.300659 
	C202.848129,499.382660 197.615051,501.419434 193.386993,501.723785 
	C185.344376,502.302643 177.131027,501.778015 169.090775,500.837738 
	C155.504456,499.248932 141.851669,497.668213 128.492050,494.833984 
	C109.002632,490.699310 89.726997,485.540710 70.405602,480.639740 
	C64.356949,479.105469 58.454605,476.994385 52.123333,475.021973 
M202.510330,261.958008 
	C203.346069,257.884766 204.410904,253.843384 204.982437,249.733398 
	C211.341507,204.004944 212.405106,158.511078 199.264450,113.569290 
	C191.986038,88.676781 185.186356,63.644238 177.896240,38.755260 
	C176.753464,34.853806 174.477341,31.150810 172.126862,27.772385 
	C169.533173,24.044405 166.805984,24.327850 165.190460,28.517193 
	C163.653580,32.502590 162.382599,36.790222 162.082047,41.022194 
	C158.574417,90.411278 157.293991,139.852219 160.091599,189.318192 
	C161.408432,212.602112 163.489868,235.868530 170.809357,258.210175 
	C172.858261,264.464172 175.647034,270.698669 179.267197,276.167023 
	C186.072128,286.446106 193.116501,285.665161 198.185654,274.509094 
	C199.895355,270.746429 200.918274,266.671661 202.510330,261.958008 
M111.050850,141.673798 
	C108.908890,174.223221 112.397141,206.205704 121.146248,237.583237 
	C124.590385,249.935165 128.531372,262.203644 137.080566,272.245697 
	C140.302719,276.030518 144.488266,278.207306 149.503799,276.872498 
	C154.256088,275.607788 155.747574,271.245300 155.975327,267.101471 
	C156.503571,257.490234 157.171600,247.778717 156.387115,238.222427 
	C153.374313,201.521851 150.496841,164.826385 151.141434,127.965927 
	C151.639511,99.484512 152.455826,71.008743 153.016068,42.528221 
	C153.084061,39.071854 152.818787,35.511303 152.024612,32.161030 
	C151.092087,28.227133 148.509079,27.564281 146.076721,30.726311 
	C143.261719,34.385784 140.717834,38.403107 138.847885,42.616417 
	C124.923721,73.989761 115.566887,106.682167 111.050850,141.673798 
z"/>
<path fill="#494F69" opacity="1.000000" stroke="none" 
	d="
M376.962097,347.779541 
	C375.972961,355.924683 374.773010,363.593506 374.099121,371.308289 
	C373.450531,378.733093 372.741333,386.238098 373.141785,393.649353 
	C373.767334,405.227814 376.464630,416.407990 386.492462,423.774719 
	C389.929871,426.299896 394.381561,427.733429 398.584534,428.875854 
	C414.175476,433.113739 429.963165,436.654633 445.466766,441.177856 
	C456.680176,444.449402 463.583618,457.540527 460.381714,469.572144 
	C459.594666,472.529633 455.509460,475.858002 452.319702,476.720795 
	C434.337219,481.584808 416.213715,485.961304 398.044617,490.091980 
	C379.596100,494.286194 361.194733,499.272095 342.485168,501.568756 
	C323.971985,503.841339 304.506775,492.698639 304.128906,470.222900 
	C303.975250,461.081665 305.798187,451.920685 305.907715,442.758942 
	C306.184570,419.602203 306.118561,396.439178 305.955902,373.280273 
	C305.855560,358.995300 306.007446,344.654663 304.784729,330.447540 
	C303.701080,317.856018 301.534485,305.261597 298.678955,292.938904 
	C292.995422,268.412109 286.030701,244.178879 280.509247,219.618896 
	C276.172241,200.327255 274.424286,180.487549 276.241150,160.813721 
	C278.620728,135.046982 282.213989,109.370735 286.011292,83.763229 
	C289.149414,62.601055 293.308655,41.589268 297.086090,20.523499 
	C298.341736,13.520839 302.201233,10.129425 309.930695,10.071832 
	C333.256042,9.898031 356.584320,9.906608 379.909485,10.091578 
	C384.874451,10.130953 388.865479,12.512328 390.059082,17.902868 
	C393.724274,34.455551 397.882141,50.921791 400.866974,67.597321 
	C405.699127,94.593216 406.882080,121.937103 405.865204,149.299149 
	C405.332275,163.639679 404.049835,178.021683 401.980042,192.220856 
	C398.082672,218.957504 393.472229,245.592621 388.957184,272.235901 
	C386.290436,287.972412 383.042114,303.611115 380.433685,319.356476 
	C378.899841,328.615326 378.107300,337.996948 376.962097,347.779541 
M344.844513,50.707005 
	C343.727783,43.672108 342.795013,36.599281 341.357941,29.630434 
	C341.021759,28.000103 339.079681,25.706100 337.689423,25.565418 
	C336.275696,25.422359 334.145294,27.253193 333.188110,28.764114 
	C331.155090,31.973101 329.163361,35.377651 328.062592,38.979496 
	C322.185394,58.210896 316.160370,77.414726 311.021332,96.848854 
	C306.433868,114.197350 301.749084,131.663300 299.209076,149.378769 
	C294.597198,181.544113 296.389252,213.862335 301.282166,245.906204 
	C302.774323,255.678452 305.509003,265.455414 309.130157,274.657440 
	C313.372955,285.439270 320.452332,285.952057 326.817596,276.182648 
	C330.665741,270.276489 333.758484,263.606506 335.829651,256.861816 
	C344.212891,229.561737 346.614136,201.259750 346.763489,172.971771 
	C346.976898,132.536804 345.591034,92.093391 344.844513,50.707005 
M354.194733,172.580734 
	C352.612366,194.167358 350.782379,215.739944 349.556946,237.346802 
	C348.984375,247.442139 349.328308,257.614929 349.773560,267.729858 
	C349.948975,271.714661 351.541443,275.831970 356.174530,276.933380 
	C360.787415,278.030090 365.053772,276.422760 367.755219,272.721649 
	C371.455292,267.652283 375.349213,262.430573 377.632996,256.668854 
	C392.875427,218.213776 398.453003,178.124084 394.288055,137.115921 
	C391.161743,106.333893 381.607422,76.931206 369.859314,48.351189 
	C367.412811,42.399521 363.863129,36.878067 360.534485,31.330797 
	C359.823456,30.145893 357.702972,28.919537 356.524963,29.158382 
	C355.407776,29.384905 353.968567,31.467522 353.891876,32.803982 
	C353.492889,39.756809 353.323395,46.732998 353.365845,53.699280 
	C353.605316,93.002869 353.928345,132.305939 354.194733,172.580734 
z"/>
<path fill="#FE004F" opacity="1.000000" stroke="none" 
	d="
M202.382706,262.348755 
	C200.918274,266.671661 199.895355,270.746429 198.185654,274.509094 
	C193.116501,285.665161 186.072128,286.446106 179.267197,276.167023 
	C175.647034,270.698669 172.858261,264.464172 170.809357,258.210175 
	C163.489868,235.868530 161.408432,212.602112 160.091599,189.318192 
	C157.293991,139.852219 158.574417,90.411278 162.082047,41.022194 
	C162.382599,36.790222 163.653580,32.502590 165.190460,28.517193 
	C166.805984,24.327850 169.533173,24.044405 172.126862,27.772385 
	C174.477341,31.150810 176.753464,34.853806 177.896240,38.755260 
	C185.186356,63.644238 191.986038,88.676781 199.264450,113.569290 
	C212.405106,158.511078 211.341507,204.004944 204.982437,249.733398 
	C204.410904,253.843384 203.346069,257.884766 202.382706,262.348755 
z"/>
<path fill="#FE014F" opacity="1.000000" stroke="none" 
	d="
M111.079849,141.209534 
	C115.566887,106.682167 124.923721,73.989761 138.847885,42.616417 
	C140.717834,38.403107 143.261719,34.385784 146.076721,30.726311 
	C148.509079,27.564281 151.092087,28.227133 152.024612,32.161030 
	C152.818787,35.511303 153.084061,39.071854 153.016068,42.528221 
	C152.455826,71.008743 151.639511,99.484512 151.141434,127.965927 
	C150.496841,164.826385 153.374313,201.521851 156.387115,238.222427 
	C157.171600,247.778717 156.503571,257.490234 155.975327,267.101471 
	C155.747574,271.245300 154.256088,275.607788 149.503799,276.872498 
	C144.488266,278.207306 140.302719,276.030518 137.080566,272.245697 
	C128.531372,262.203644 124.590385,249.935165 121.146248,237.583237 
	C112.397141,206.205704 108.908890,174.223221 111.079849,141.209534 
z"/>
<path fill="#FE014F" opacity="1.000000" stroke="none" 
	d="
M344.866333,51.180298 
	C345.591034,92.093391 346.976898,132.536804 346.763489,172.971771 
	C346.614136,201.259750 344.212891,229.561737 335.829651,256.861816 
	C333.758484,263.606506 330.665741,270.276489 326.817596,276.182648 
	C320.452332,285.952057 313.372955,285.439270 309.130157,274.657440 
	C305.509003,265.455414 302.774323,255.678452 301.282166,245.906204 
	C296.389252,213.862335 294.597198,181.544113 299.209076,149.378769 
	C301.749084,131.663300 306.433868,114.197350 311.021332,96.848854 
	C316.160370,77.414726 322.185394,58.210896 328.062592,38.979496 
	C329.163361,35.377651 331.155090,31.973101 333.188110,28.764114 
	C334.145294,27.253193 336.275696,25.422359 337.689423,25.565418 
	C339.079681,25.706100 341.021759,28.000103 341.357941,29.630434 
	C342.795013,36.599281 343.727783,43.672108 344.866333,51.180298 
z"/>
<path fill="#FE014F" opacity="1.000000" stroke="none" 
	d="
M354.208801,172.094971 
	C353.928345,132.305939 353.605316,93.002869 353.365845,53.699280 
	C353.323395,46.732998 353.492889,39.756809 353.891876,32.803982 
	C353.968567,31.467522 355.407776,29.384905 356.524963,29.158382 
	C357.702972,28.919537 359.823456,30.145893 360.534485,31.330797 
	C363.863129,36.878067 367.412811,42.399521 369.859314,48.351189 
	C381.607422,76.931206 391.161743,106.333893 394.288055,137.115921 
	C398.453003,178.124084 392.875427,218.213776 377.632996,256.668854 
	C375.349213,262.430573 371.455292,267.652283 367.755219,272.721649 
	C365.053772,276.422760 360.787415,278.030090 356.174530,276.933380 
	C351.541443,275.831970 349.948975,271.714661 349.773560,267.729858 
	C349.328308,257.614929 348.984375,247.442139 349.556946,237.346802 
	C350.782379,215.739944 352.612366,194.167358 354.208801,172.094971 
z"/>
</svg>