<svg version="1.1" id="Layer_1" xmlns="http://www.w3.org/2000/svg" xmlns:xlink="http://www.w3.org/1999/xlink" x="0px" y="0px"
	 width="100%" viewBox="0 0 512 512" enable-background="new 0 0 512 512" xml:space="preserve">
<path fill="#000000" opacity="1.000000" stroke="none" 
	d="
M1.000000,187.000000 
	C1.000000,124.666664 1.000000,62.833332 1.000000,1.000000 
	C171.666672,1.000000 342.333344,1.000000 513.000000,1.000000 
	C513.000000,171.666672 513.000000,342.333344 513.000000,513.000000 
	C342.333344,513.000000 171.666672,513.000000 1.000000,513.000000 
	C1.000000,404.500000 1.000000,296.000000 1.000000,187.000000 
M184.500000,499.995789 
	C193.664246,499.994629 202.829071,499.933899 211.992493,500.020508 
	C215.853607,500.057007 218.683914,498.756531 220.434967,495.145844 
	C223.453659,488.921265 227.053833,482.944611 229.650467,476.555237 
	C241.885422,446.449432 249.029144,414.985199 254.050705,382.978485 
	C254.810638,378.134796 255.791702,373.325806 256.568451,369.061005 
	C261.689331,392.609924 265.953918,416.634308 272.332703,440.083588 
	C276.988403,457.198639 284.346558,473.587402 290.667267,490.236420 
	C293.325500,497.238312 297.932037,500.391479 306.196136,500.217377 
	C334.012024,499.631317 361.847900,500.009064 389.676086,499.980530 
	C396.070984,499.973999 399.188385,496.684357 400.034607,490.407196 
	C402.038391,475.543549 404.241760,460.704315 406.570679,445.887634 
	C409.255829,428.804688 412.457855,411.798523 414.889923,394.681519 
	C417.302216,377.703766 419.365143,360.660675 420.977173,343.589203 
	C422.687134,325.480438 424.282745,307.322205 424.819122,289.152832 
	C425.304016,272.726837 425.187500,256.174530 423.686890,239.829346 
	C422.214630,223.792419 419.098724,207.859116 415.924377,192.036758 
	C411.082245,167.901611 403.815033,144.435654 393.423523,122.081696 
	C388.619751,111.747925 384.793396,101.596626 385.836823,89.790947 
	C386.887360,77.905266 386.772614,65.908134 386.953522,53.956573 
	C387.117401,43.127693 387.020935,32.294327 386.983002,21.463133 
	C386.958862,14.562591 384.322784,12.008188 377.339905,12.007830 
	C297.187988,12.003719 217.036087,12.003942 136.884171,12.007222 
	C129.595642,12.007521 126.918182,14.516792 127.038452,21.738819 
	C127.251396,34.525856 127.808884,47.307934 127.953362,60.095127 
	C128.119019,74.757187 128.045746,89.423012 127.920349,104.085869 
	C127.905678,105.800842 127.014015,107.552818 126.339668,109.210655 
	C120.568184,123.399429 113.739738,137.254852 109.201897,151.824936 
	C103.238853,170.971100 97.897652,190.471939 94.465424,210.198914 
	C91.192047,229.012863 89.568268,248.297119 89.305237,267.403351 
	C89.002289,289.409058 90.814301,311.455963 92.050423,333.465729 
	C92.670120,344.499634 93.764809,355.527191 95.160965,366.491852 
	C96.804939,379.402710 98.946953,392.252014 100.984703,405.110352 
	C103.483109,420.875336 106.194138,436.606995 108.630470,452.381317 
	C110.568169,464.927155 112.402710,477.494385 113.946083,490.093414 
	C114.753799,496.687042 117.807655,499.972931 124.510880,499.982849 
	C144.173874,500.011963 163.836960,499.994812 184.500000,499.995789 
z"/>
<path fill="#49506A" opacity="1.000000" stroke="none" 
	d="
M184.000000,499.995789 
	C163.836960,499.994812 144.173874,500.011963 124.510880,499.982849 
	C117.807655,499.972931 114.753799,496.687042 113.946083,490.093414 
	C112.402710,477.494385 110.568169,464.927155 108.630470,452.381317 
	C106.194138,436.606995 103.483109,420.875336 100.984703,405.110352 
	C98.946953,392.252014 96.804939,379.402710 95.160965,366.491852 
	C93.764809,355.527191 92.670120,344.499634 92.050423,333.465729 
	C90.814301,311.455963 89.002289,289.409058 89.305237,267.403351 
	C89.568268,248.297119 91.192047,229.012863 94.465424,210.198914 
	C97.897652,190.471939 103.238853,170.971100 109.201897,151.824936 
	C113.739738,137.254852 120.568184,123.399429 126.339668,109.210655 
	C127.014015,107.552818 127.905678,105.800842 127.920349,104.085869 
	C128.045746,89.423012 128.119019,74.757187 127.953362,60.095127 
	C127.808884,47.307934 127.251396,34.525856 127.038452,21.738819 
	C126.918182,14.516792 129.595642,12.007521 136.884171,12.007222 
	C217.036087,12.003942 297.187988,12.003719 377.339905,12.007830 
	C384.322784,12.008188 386.958862,14.562591 386.983002,21.463133 
	C387.020935,32.294327 387.117401,43.127693 386.953522,53.956573 
	C386.772614,65.908134 386.887360,77.905266 385.836823,89.790947 
	C384.793396,101.596626 388.619751,111.747925 393.423523,122.081696 
	C403.815033,144.435654 411.082245,167.901611 415.924377,192.036758 
	C419.098724,207.859116 422.214630,223.792419 423.686890,239.829346 
	C425.187500,256.174530 425.304016,272.726837 424.819122,289.152832 
	C424.282745,307.322205 422.687134,325.480438 420.977173,343.589203 
	C419.365143,360.660675 417.302216,377.703766 414.889923,394.681519 
	C412.457855,411.798523 409.255829,428.804688 406.570679,445.887634 
	C404.241760,460.704315 402.038391,475.543549 400.034607,490.407196 
	C399.188385,496.684357 396.070984,499.973999 389.676086,499.980530 
	C361.847900,500.009064 334.012024,499.631317 306.196136,500.217377 
	C297.932037,500.391479 293.325500,497.238312 290.667267,490.236420 
	C284.346558,473.587402 276.988403,457.198639 272.332703,440.083588 
	C265.953918,416.634308 261.689331,392.609924 256.568451,369.061005 
	C255.791702,373.325806 254.810638,378.134796 254.050705,382.978485 
	C249.029144,414.985199 241.885422,446.449432 229.650467,476.555237 
	C227.053833,482.944611 223.453659,488.921265 220.434967,495.145844 
	C218.683914,498.756531 215.853607,500.057007 211.992493,500.020508 
	C202.829071,499.933899 193.664246,499.994629 184.000000,499.995789 
M336.804077,68.194077 
	C334.993011,68.466522 333.177307,68.711182 331.371613,69.015572 
	C303.225708,73.760315 279.858948,86.486649 263.260742,110.229248 
	C261.671173,112.502998 260.628235,115.680740 260.607544,118.448364 
	C260.410950,144.768036 260.457153,171.089905 260.549835,197.410721 
	C260.557709,199.647736 260.846863,202.216644 261.954010,204.062286 
	C268.583038,215.113266 277.234406,224.205597 288.869995,230.116241 
	C313.114349,242.431931 341.682953,232.973740 352.683807,208.230438 
	C356.900299,198.746628 359.861511,188.487976 361.877991,178.282700 
	C368.384094,145.355850 367.861603,112.038673 365.866364,78.722115 
	C365.459564,71.929527 361.065796,67.677856 354.169403,67.461937 
	C348.693970,67.290497 343.195129,67.864861 336.804077,68.194077 
M251.693130,150.500214 
	C251.693130,140.672119 251.426971,130.833878 251.801208,121.020058 
	C251.999405,115.822838 250.360016,111.780739 247.286835,107.778076 
	C225.341766,79.195770 195.337402,68.011292 160.452774,67.368874 
	C150.708984,67.189438 146.595322,71.437798 146.036148,81.191902 
	C144.585159,106.501549 144.300308,131.793640 146.998993,157.043106 
	C148.969177,175.476578 152.179779,193.572784 160.295456,210.536987 
	C171.076355,233.072296 193.708344,237.656723 210.973175,234.279083 
	C229.267181,230.700073 241.337021,218.536865 250.659485,203.246887 
	C251.607742,201.691635 251.640274,199.418182 251.649887,197.475784 
	C251.725723,182.150909 251.692673,166.825485 251.693130,150.500214 
M221.213379,419.597137 
	C221.589111,411.667084 223.407608,403.491119 222.104660,395.847198 
	C214.106384,348.924194 205.417801,302.118713 196.914276,255.282211 
	C195.772980,248.996109 191.643356,245.403275 186.114471,245.535522 
	C180.550003,245.668610 176.476898,249.432770 175.944870,255.813141 
	C174.520386,272.896545 172.778198,289.984772 172.243729,307.104828 
	C170.957886,348.293701 173.727264,389.341278 178.236954,430.263092 
	C180.077972,446.968842 182.476379,463.620605 185.070023,480.226807 
	C185.400574,482.343109 188.223282,485.142731 190.320938,485.583954 
	C192.120972,485.962585 195.743515,483.915649 196.493576,482.091553 
	C204.908478,461.627563 212.923065,440.998932 221.213379,419.597137 
M290.862732,419.495117 
	C299.067841,440.398590 307.188507,461.335907 315.549683,482.176758 
	C317.210693,486.317078 322.249359,487.470886 324.962860,484.455078 
	C326.488586,482.759338 327.320129,480.084015 327.664825,477.732788 
	C335.330688,425.446655 340.737030,372.945953 339.912170,320.034485 
	C339.577881,298.591888 337.625214,277.167572 336.130829,255.754333 
	C335.695374,249.514313 331.773010,245.914932 326.432373,245.555054 
	C320.588593,245.161285 316.344635,248.957474 315.089172,255.836365 
	C307.409027,297.915100 299.775848,340.002472 292.068634,382.076233 
	C289.843506,394.223328 287.450531,406.336121 290.862732,419.495117 
M395.169586,384.766571 
	C394.620239,375.674530 395.235718,366.328888 393.321014,357.534088 
	C384.769958,318.256561 370.890594,280.569519 357.771179,242.671463 
	C356.348663,238.562347 353.519653,236.324326 348.997559,237.018707 
	C344.997192,237.632980 342.708618,240.993744 343.094757,246.046936 
	C343.754333,254.677856 344.880249,263.277618 345.382141,271.915344 
	C347.690033,311.632324 349.827057,351.359192 352.079468,391.079468 
	C352.606598,400.375183 352.805054,409.734924 354.098755,418.932404 
	C356.758575,437.841827 362.778351,455.852509 370.742767,473.153992 
	C371.726440,475.290802 375.082123,477.292633 377.534882,477.560577 
	C380.801422,477.917480 382.671326,475.073395 383.172760,471.715698 
	C383.565887,469.083099 384.172546,466.481262 384.531342,463.844910 
	C388.076843,437.796082 391.590332,411.742950 395.169586,384.766571 
M159.997070,384.500336 
	C161.208878,359.728027 162.133377,334.937256 163.719955,310.188995 
	C165.082748,288.931366 167.251282,267.726166 168.953293,246.488983 
	C169.397659,240.944077 167.212585,237.632370 163.047638,237.016464 
	C158.218399,236.302292 155.526550,238.925537 154.153336,243.203995 
	C143.223618,277.257385 131.959854,311.210480 121.627525,345.444519 
	C118.542152,355.667267 115.848862,366.897247 116.842804,377.296143 
	C119.863541,408.900055 124.709602,440.332397 129.098877,471.796112 
	C129.383011,473.832855 131.440872,476.250427 133.333679,477.296478 
	C136.699326,479.156372 139.880753,477.076874 141.987076,472.229309 
	C154.004562,444.572174 161.376526,415.942810 159.997070,384.500336 
M137.134491,174.345474 
	C136.484222,172.282288 136.105713,170.075089 135.109528,168.195206 
	C134.051620,166.198883 132.407730,164.513092 131.019745,162.691681 
	C129.626328,164.359650 127.719955,165.813004 126.918465,167.728638 
	C118.511749,187.821381 113.620262,208.855103 110.593895,230.361511 
	C105.999779,263.009033 105.706047,295.742462 108.865288,328.520294 
	C109.021515,330.141205 110.602295,331.624817 111.519753,333.172363 
	C112.798676,331.892365 114.635437,330.835846 115.254288,329.291382 
	C117.293961,324.200836 118.836960,318.913940 120.670532,313.737793 
	C129.839066,287.855011 139.268204,262.060547 148.032196,236.041870 
	C149.749557,230.943344 150.199966,224.713531 149.048645,219.487045 
	C145.760605,204.560791 141.346832,189.882523 137.134491,174.345474 
M387.639618,302.879181 
	C390.250031,310.429504 392.694214,318.043671 395.556122,325.497437 
	C396.637390,328.313538 396.040924,333.467560 400.535034,332.940887 
	C404.951050,332.423401 403.479034,327.536530 403.713440,324.567108 
	C406.117767,294.107849 406.012573,263.670959 401.961182,233.333054 
	C398.909454,210.480713 393.804230,188.129730 384.839478,166.802032 
	C384.162170,165.190643 382.360718,164.051773 381.081818,162.693253 
	C379.834198,164.035049 377.906464,165.176758 377.443756,166.749481 
	C372.607635,183.187836 367.958435,199.681961 363.361816,216.189682 
	C361.292969,223.619461 361.782684,230.899872 364.458130,238.227631 
	C372.220428,259.487976 379.726562,280.841858 387.639618,302.879181 
M224.043472,73.447235 
	C229.753128,78.291626 235.313721,83.331207 241.256897,87.869797 
	C243.218475,89.367760 246.834885,90.868576 248.485611,90.018982 
	C250.286942,89.091888 251.516312,85.454422 251.560196,82.973030 
	C251.830948,67.667786 251.569305,52.353634 251.779587,37.046494 
	C251.837860,32.805191 250.310867,31.710705 246.282135,31.743254 
	C225.981033,31.907261 205.677887,31.817106 185.375458,31.816572 
	C172.146255,31.816223 172.146271,31.816540 173.360962,45.333580 
	C174.284088,55.605953 177.766159,59.155430 188.147171,59.664417 
	C201.403290,60.314373 213.115646,64.817696 224.043472,73.447235 
M321.498535,31.821186 
	C303.032257,31.822435 284.564423,31.953363 266.100830,31.731136 
	C261.645172,31.677505 260.379547,33.177704 260.449951,37.459431 
	C260.663300,50.432213 260.520752,63.410797 260.524017,76.387123 
	C260.524750,79.215073 260.152313,82.124939 260.704834,84.844055 
	C261.117859,86.876602 262.326263,89.456619 263.956848,90.310791 
	C265.287720,91.007935 268.184814,90.047318 269.663422,88.893684 
	C275.298035,84.497322 280.543549,79.605370 286.124664,75.136108 
	C289.745789,72.236351 293.524689,69.449974 297.535675,67.138138 
	C305.887817,62.324230 315.000000,60.068756 324.658508,59.597694 
	C334.196045,59.132534 338.014740,55.159496 338.735107,45.634613 
	C338.985901,42.319138 338.926331,38.980106 339.179993,35.664955 
	C339.394531,32.861397 338.259247,31.745892 335.473206,31.813448 
	C331.150574,31.918259 326.823151,31.828451 321.498535,31.821186 
M270.876282,270.694733 
	C273.685272,302.186584 276.492096,333.678619 279.313232,365.169403 
	C279.402008,366.160553 279.358185,367.333099 279.873352,368.076630 
	C280.633759,369.174072 281.841217,370.681213 282.858063,370.681030 
	C283.894043,370.680847 285.445038,369.253143 285.851868,368.120483 
	C286.568512,366.125275 286.639954,363.885284 286.889038,361.737061 
	C290.818268,327.853546 294.798462,293.982910 302.933990,260.762360 
	C304.952698,252.519180 302.160919,247.618408 294.257202,244.095215 
	C288.182526,241.387344 282.144806,238.589218 276.163452,235.681458 
	C270.232300,232.798096 267.595886,234.365570 268.118103,240.942490 
	C268.881927,250.562897 269.894257,260.163574 270.876282,270.694733 
M217.738358,244.165436 
	C209.473511,248.149048 207.241302,252.675705 209.269684,261.420624 
	C210.172073,265.311005 211.417526,269.145233 212.012222,273.079773 
	C216.587738,303.352448 221.008438,333.648560 225.591293,363.920074 
	C225.992569,366.570496 224.952301,370.999451 229.451401,370.704926 
	C233.572113,370.435242 232.640381,366.236450 232.902725,363.464355 
	C234.894836,342.414032 236.770020,321.352661 238.679077,300.294495 
	C240.422806,281.059998 242.254059,261.832458 243.795700,242.581772 
	C243.998810,240.045349 243.457657,236.620987 241.850372,235.068710 
	C240.834625,234.087723 237.047852,235.455948 234.768997,236.406097 
	C229.244873,238.709335 223.875748,241.384384 217.738358,244.165436 
M370.006317,40.531647 
	C370.248138,37.818027 370.489990,35.104404 370.779663,31.854134 
	C362.730530,31.854134 355.450043,31.711561 348.186829,32.001732 
	C347.045197,32.047344 345.240082,33.920559 345.012756,35.178444 
	C344.099762,40.230072 343.360413,45.364544 343.242950,50.484127 
	C343.193298,52.649223 344.521179,56.517548 345.770477,56.757183 
	C351.818451,57.917267 358.055542,58.436554 364.218109,58.379032 
	C365.538727,58.366703 367.441010,55.190071 368.000244,53.173054 
	C369.056396,49.363571 369.331787,45.337627 370.006317,40.531647 
M160.885727,58.737267 
	C165.319901,58.155983 169.320709,56.859287 168.959671,51.326328 
	C168.593140,45.709259 167.830811,40.113045 167.064804,34.531990 
	C166.939529,33.619373 165.915634,32.110317 165.281036,32.096767 
	C157.412994,31.928841 149.540161,31.987064 141.164032,31.987064 
	C141.752899,36.777851 142.344315,40.694576 142.699417,44.632610 
	C144.262360,61.965771 147.562271,59.456932 160.885727,58.737267 
z"/>
<path fill="#FE004F" opacity="1.000000" stroke="none" 
	d="
M337.255371,68.151085 
	C343.195129,67.864861 348.693970,67.290497 354.169403,67.461937 
	C361.065796,67.677856 365.459564,71.929527 365.866364,78.722115 
	C367.861603,112.038673 368.384094,145.355850 361.877991,178.282700 
	C359.861511,188.487976 356.900299,198.746628 352.683807,208.230438 
	C341.682953,232.973740 313.114349,242.431931 288.869995,230.116241 
	C277.234406,224.205597 268.583038,215.113266 261.954010,204.062286 
	C260.846863,202.216644 260.557709,199.647736 260.549835,197.410721 
	C260.457153,171.089905 260.410950,144.768036 260.607544,118.448364 
	C260.628235,115.680740 261.671173,112.502998 263.260742,110.229248 
	C279.858948,86.486649 303.225708,73.760315 331.371613,69.015572 
	C333.177307,68.711182 334.993011,68.466522 337.255371,68.151085 
z"/>
<path fill="#FE004F" opacity="1.000000" stroke="none" 
	d="
M251.693115,151.000214 
	C251.692673,166.825485 251.725723,182.150909 251.649887,197.475784 
	C251.640274,199.418182 251.607742,201.691635 250.659485,203.246887 
	C241.337021,218.536865 229.267181,230.700073 210.973175,234.279083 
	C193.708344,237.656723 171.076355,233.072296 160.295456,210.536987 
	C152.179779,193.572784 148.969177,175.476578 146.998993,157.043106 
	C144.300308,131.793640 144.585159,106.501549 146.036148,81.191902 
	C146.595322,71.437798 150.708984,67.189438 160.452774,67.368874 
	C195.337402,68.011292 225.341766,79.195770 247.286835,107.778076 
	C250.360016,111.780739 251.999405,115.822838 251.801208,121.020058 
	C251.426971,130.833878 251.693130,140.672119 251.693115,151.000214 
z"/>
<path fill="#9EAACD" opacity="1.000000" stroke="none" 
	d="
M221.129349,420.005859 
	C212.923065,440.998932 204.908478,461.627563 196.493576,482.091553 
	C195.743515,483.915649 192.120972,485.962585 190.320938,485.583954 
	C188.223282,485.142731 185.400574,482.343109 185.070023,480.226807 
	C182.476379,463.620605 180.077972,446.968842 178.236954,430.263092 
	C173.727264,389.341278 170.957886,348.293701 172.243729,307.104828 
	C172.778198,289.984772 174.520386,272.896545 175.944870,255.813141 
	C176.476898,249.432770 180.550003,245.668610 186.114471,245.535522 
	C191.643356,245.403275 195.772980,248.996109 196.914276,255.282211 
	C205.417801,302.118713 214.106384,348.924194 222.104660,395.847198 
	C223.407608,403.491119 221.589111,411.667084 221.129349,420.005859 
z"/>
<path fill="#9EAACD" opacity="1.000000" stroke="none" 
	d="
M290.773071,419.086090 
	C287.450531,406.336121 289.843506,394.223328 292.068634,382.076233 
	C299.775848,340.002472 307.409027,297.915100 315.089172,255.836365 
	C316.344635,248.957474 320.588593,245.161285 326.432373,245.555054 
	C331.773010,245.914932 335.695374,249.514313 336.130829,255.754333 
	C337.625214,277.167572 339.577881,298.591888 339.912170,320.034485 
	C340.737030,372.945953 335.330688,425.446655 327.664825,477.732788 
	C327.320129,480.084015 326.488586,482.759338 324.962860,484.455078 
	C322.249359,487.470886 317.210693,486.317078 315.549683,482.176758 
	C307.188507,461.335907 299.067841,440.398590 290.773071,419.086090 
z"/>
<path fill="#9EAACD" opacity="1.000000" stroke="none" 
	d="
M395.141235,385.228790 
	C391.590332,411.742950 388.076843,437.796082 384.531342,463.844910 
	C384.172546,466.481262 383.565887,469.083099 383.172760,471.715698 
	C382.671326,475.073395 380.801422,477.917480 377.534882,477.560577 
	C375.082123,477.292633 371.726440,475.290802 370.742767,473.153992 
	C362.778351,455.852509 356.758575,437.841827 354.098755,418.932404 
	C352.805054,409.734924 352.606598,400.375183 352.079468,391.079468 
	C349.827057,351.359192 347.690033,311.632324 345.382141,271.915344 
	C344.880249,263.277618 343.754333,254.677856 343.094757,246.046936 
	C342.708618,240.993744 344.997192,237.632980 348.997559,237.018707 
	C353.519653,236.324326 356.348663,238.562347 357.771179,242.671463 
	C370.890594,280.569519 384.769958,318.256561 393.321014,357.534088 
	C395.235718,366.328888 394.620239,375.674530 395.141235,385.228790 
z"/>
<path fill="#9EAACD" opacity="1.000000" stroke="none" 
	d="
M159.996613,385.000244 
	C161.376526,415.942810 154.004562,444.572174 141.987076,472.229309 
	C139.880753,477.076874 136.699326,479.156372 133.333679,477.296478 
	C131.440872,476.250427 129.383011,473.832855 129.098877,471.796112 
	C124.709602,440.332397 119.863541,408.900055 116.842804,377.296143 
	C115.848862,366.897247 118.542152,355.667267 121.627525,345.444519 
	C131.959854,311.210480 143.223618,277.257385 154.153336,243.203995 
	C155.526550,238.925537 158.218399,236.302292 163.047638,237.016464 
	C167.212585,237.632370 169.397659,240.944077 168.953293,246.488983 
	C167.251282,267.726166 165.082748,288.931366 163.719955,310.188995 
	C162.133377,334.937256 161.208878,359.728027 159.996613,385.000244 
z"/>
<path fill="#9EAACD" opacity="1.000000" stroke="none" 
	d="
M137.255188,174.726089 
	C141.346832,189.882523 145.760605,204.560791 149.048645,219.487045 
	C150.199966,224.713531 149.749557,230.943344 148.032196,236.041870 
	C139.268204,262.060547 129.839066,287.855011 120.670532,313.737793 
	C118.836960,318.913940 117.293961,324.200836 115.254288,329.291382 
	C114.635437,330.835846 112.798676,331.892365 111.519745,333.172363 
	C110.602295,331.624817 109.021515,330.141205 108.865288,328.520294 
	C105.706047,295.742462 105.999779,263.009033 110.593895,230.361511 
	C113.620262,208.855103 118.511749,187.821381 126.918465,167.728638 
	C127.719955,165.813004 129.626328,164.359650 131.019745,162.691681 
	C132.407730,164.513092 134.051620,166.198883 135.109528,168.195206 
	C136.105713,170.075089 136.484222,172.282288 137.255188,174.726089 
z"/>
<path fill="#9EAACD" opacity="1.000000" stroke="none" 
	d="
M387.486389,302.519104 
	C379.726562,280.841858 372.220428,259.487976 364.458130,238.227631 
	C361.782684,230.899872 361.292969,223.619461 363.361816,216.189682 
	C367.958435,199.681961 372.607635,183.187836 377.443756,166.749481 
	C377.906464,165.176758 379.834198,164.035049 381.081818,162.693253 
	C382.360718,164.051773 384.162170,165.190643 384.839478,166.802032 
	C393.804230,188.129730 398.909454,210.480713 401.961182,233.333054 
	C406.012573,263.670959 406.117767,294.107849 403.713440,324.567108 
	C403.479034,327.536530 404.951050,332.423401 400.535034,332.940887 
	C396.040924,333.467560 396.637390,328.313538 395.556122,325.497437 
	C392.694214,318.043671 390.250031,310.429504 387.486389,302.519104 
z"/>
<path fill="#9EAACD" opacity="1.000000" stroke="none" 
	d="
M223.763153,73.224915 
	C213.115646,64.817696 201.403290,60.314373 188.147171,59.664417 
	C177.766159,59.155430 174.284088,55.605953 173.360962,45.333580 
	C172.146271,31.816540 172.146255,31.816223 185.375458,31.816572 
	C205.677887,31.817106 225.981033,31.907261 246.282135,31.743254 
	C250.310867,31.710705 251.837860,32.805191 251.779587,37.046494 
	C251.569305,52.353634 251.830948,67.667786 251.560196,82.973030 
	C251.516312,85.454422 250.286942,89.091888 248.485611,90.018982 
	C246.834885,90.868576 243.218475,89.367760 241.256897,87.869797 
	C235.313721,83.331207 229.753128,78.291626 223.763153,73.224915 
z"/>
<path fill="#9FABCE" opacity="1.000000" stroke="none" 
	d="
M321.998169,31.821167 
	C326.823151,31.828451 331.150574,31.918259 335.473206,31.813448 
	C338.259247,31.745892 339.394531,32.861397 339.179993,35.664955 
	C338.926331,38.980106 338.985901,42.319138 338.735107,45.634613 
	C338.014740,55.159496 334.196045,59.132534 324.658508,59.597694 
	C315.000000,60.068756 305.887817,62.324230 297.535675,67.138138 
	C293.524689,69.449974 289.745789,72.236351 286.124664,75.136108 
	C280.543549,79.605370 275.298035,84.497322 269.663422,88.893684 
	C268.184814,90.047318 265.287720,91.007935 263.956848,90.310791 
	C262.326263,89.456619 261.117859,86.876602 260.704834,84.844055 
	C260.152313,82.124939 260.524750,79.215073 260.524017,76.387123 
	C260.520752,63.410797 260.663300,50.432213 260.449951,37.459431 
	C260.379547,33.177704 261.645172,31.677505 266.100830,31.731136 
	C284.564423,31.953363 303.032257,31.822435 321.998169,31.821167 
z"/>
<path fill="#9EAACD" opacity="1.000000" stroke="none" 
	d="
M270.838470,270.233704 
	C269.894257,260.163574 268.881927,250.562897 268.118103,240.942490 
	C267.595886,234.365570 270.232300,232.798096 276.163452,235.681458 
	C282.144806,238.589218 288.182526,241.387344 294.257202,244.095215 
	C302.160919,247.618408 304.952698,252.519180 302.933990,260.762360 
	C294.798462,293.982910 290.818268,327.853546 286.889038,361.737061 
	C286.639954,363.885284 286.568512,366.125275 285.851868,368.120483 
	C285.445038,369.253143 283.894043,370.680847 282.858063,370.681030 
	C281.841217,370.681213 280.633759,369.174072 279.873352,368.076630 
	C279.358185,367.333099 279.402008,366.160553 279.313232,365.169403 
	C276.492096,333.678619 273.685272,302.186584 270.838470,270.233704 
z"/>
<path fill="#9EAACD" opacity="1.000000" stroke="none" 
	d="
M218.091263,244.037506 
	C223.875748,241.384384 229.244873,238.709335 234.768997,236.406097 
	C237.047852,235.455948 240.834625,234.087723 241.850372,235.068710 
	C243.457657,236.620987 243.998810,240.045349 243.795700,242.581772 
	C242.254059,261.832458 240.422806,281.059998 238.679077,300.294495 
	C236.770020,321.352661 234.894836,342.414032 232.902725,363.464355 
	C232.640381,366.236450 233.572113,370.435242 229.451401,370.704926 
	C224.952301,370.999451 225.992569,366.570496 225.591293,363.920074 
	C221.008438,333.648560 216.587738,303.352448 212.012222,273.079773 
	C211.417526,269.145233 210.172073,265.311005 209.269684,261.420624 
	C207.241302,252.675705 209.473511,248.149048 218.091263,244.037506 
z"/>
<path fill="#9EAACD" opacity="1.000000" stroke="none" 
	d="
M369.968994,40.966644 
	C369.331787,45.337627 369.056396,49.363571 368.000244,53.173054 
	C367.441010,55.190071 365.538727,58.366703 364.218109,58.379032 
	C358.055542,58.436554 351.818451,57.917267 345.770477,56.757183 
	C344.521179,56.517548 343.193298,52.649223 343.242950,50.484127 
	C343.360413,45.364544 344.099762,40.230072 345.012756,35.178444 
	C345.240082,33.920559 347.045197,32.047344 348.186829,32.001732 
	C355.450043,31.711561 362.730530,31.854134 370.779663,31.854134 
	C370.489990,35.104404 370.248138,37.818027 369.968994,40.966644 
z"/>
<path fill="#9EAACD" opacity="1.000000" stroke="none" 
	d="
M160.445831,58.776848 
	C147.562271,59.456932 144.262360,61.965771 142.699417,44.632610 
	C142.344315,40.694576 141.752899,36.777851 141.164032,31.987064 
	C149.540161,31.987064 157.412994,31.928841 165.281036,32.096767 
	C165.915634,32.110317 166.939529,33.619373 167.064804,34.531990 
	C167.830811,40.113045 168.593140,45.709259 168.959671,51.326328 
	C169.320709,56.859287 165.319901,58.155983 160.445831,58.776848 
z"/>
</svg>