<svg version="1.1" id="Layer_1" xmlns="http://www.w3.org/2000/svg" xmlns:xlink="http://www.w3.org/1999/xlink" x="0px" y="0px"
	 width="100%" viewBox="0 0 512 512" enable-background="new 0 0 512 512" xml:space="preserve">
<path fill="#000000" opacity="1.000000" stroke="none" 
	d="
M513.000000,185.000000 
	C513.000000,294.640015 513.000000,403.780029 513.000000,512.960022 
	C342.401642,512.960022 171.803268,512.960022 1.102453,512.960022 
	C1.102453,342.443359 1.102453,171.886612 1.102453,1.164938 
	C171.666534,1.164938 342.333252,1.164938 513.000000,1.164938 
	C513.000000,62.196690 513.000000,123.348343 513.000000,185.000000 
M257.006958,372.728912 
	C261.029205,393.579834 264.264099,414.622955 269.294708,435.227692 
	C274.347534,455.923370 281.596832,476.047424 292.033203,494.773682 
	C293.335327,497.110138 296.718506,499.737732 299.164948,499.765015 
	C329.487457,500.103302 359.815094,500.013000 390.141235,499.945892 
	C393.911987,499.937561 396.884186,498.106445 397.915833,494.315704 
	C398.601685,491.795471 398.572235,489.088745 398.986511,486.485168 
	C401.835632,468.580414 404.711182,450.679871 407.590424,432.779938 
	C410.047668,417.503754 412.826263,402.271545 414.901825,386.943909 
	C416.982880,371.575623 418.594666,356.133789 420.000824,340.686768 
	C421.573486,323.410706 423.149109,306.111053 423.837708,288.786438 
	C424.324677,276.533875 423.923706,264.172272 422.869629,251.949829 
	C421.368835,234.547211 420.034546,217.000732 416.602417,199.923004 
	C410.716736,170.636917 402.104065,142.077072 389.217804,114.910995 
	C387.091736,110.428917 384.388428,106.134933 384.648987,99.999771 
	C385.770477,73.594856 385.699646,47.137878 385.957214,20.698830 
	C386.014740,14.794246 383.002533,12.010912 377.067413,12.010271 
	C296.419403,12.001566 215.771408,12.001558 135.123398,12.009281 
	C128.360046,12.009929 125.936836,14.426539 126.021545,21.341909 
	C126.308792,44.789150 126.411263,68.243431 127.129509,91.678307 
	C127.422974,101.253380 126.068695,110.023331 121.013603,118.275391 
	C118.875740,121.765282 117.539780,125.767113 116.005981,129.602890 
	C107.658028,150.479767 100.842484,171.845688 96.187668,193.851425 
	C91.462685,216.188873 87.952904,238.714478 88.053528,261.621185 
	C88.123604,277.572662 88.494949,293.527985 89.053169,309.470367 
	C89.435326,320.384705 89.953369,331.325745 91.152649,342.172852 
	C93.127724,360.036713 95.504395,377.863007 98.086067,395.650848 
	C100.356606,411.294861 103.225975,426.850983 105.673210,442.470612 
	C108.220024,458.725739 110.662979,474.998444 112.967232,491.289490 
	C113.668678,496.248718 116.737137,499.952301 121.367668,499.960663 
	C151.527237,500.015045 181.687546,500.063843 211.845428,499.830200 
	C214.019058,499.813385 217.110809,498.078979 218.173080,496.224945 
	C222.183746,489.224915 226.319763,482.121033 228.967636,474.551849 
	C234.776184,457.947632 240.542694,441.243317 244.768280,424.193756 
	C249.365555,405.644470 252.198318,386.657898 255.900436,367.339996 
	C256.330872,369.137421 256.664856,370.531952 257.006958,372.728912 
z"/>
<path fill="#4A4F69" opacity="1.000000" stroke="none" 
	d="
M257.002869,372.327698 
	C256.664856,370.531952 256.330872,369.137421 255.900436,367.339996 
	C252.198318,386.657898 249.365555,405.644470 244.768280,424.193756 
	C240.542694,441.243317 234.776184,457.947632 228.967636,474.551849 
	C226.319763,482.121033 222.183746,489.224915 218.173080,496.224945 
	C217.110809,498.078979 214.019058,499.813385 211.845428,499.830200 
	C181.687546,500.063843 151.527237,500.015045 121.367668,499.960663 
	C116.737137,499.952301 113.668678,496.248718 112.967232,491.289490 
	C110.662979,474.998444 108.220024,458.725739 105.673210,442.470612 
	C103.225975,426.850983 100.356606,411.294861 98.086067,395.650848 
	C95.504395,377.863007 93.127724,360.036713 91.152649,342.172852 
	C89.953369,331.325745 89.435326,320.384705 89.053169,309.470367 
	C88.494949,293.527985 88.123604,277.572662 88.053528,261.621185 
	C87.952904,238.714478 91.462685,216.188873 96.187668,193.851425 
	C100.842484,171.845688 107.658028,150.479767 116.005981,129.602890 
	C117.539780,125.767113 118.875740,121.765282 121.013603,118.275391 
	C126.068695,110.023331 127.422974,101.253380 127.129509,91.678307 
	C126.411263,68.243431 126.308792,44.789150 126.021545,21.341909 
	C125.936836,14.426539 128.360046,12.009929 135.123398,12.009281 
	C215.771408,12.001558 296.419403,12.001566 377.067413,12.010271 
	C383.002533,12.010912 386.014740,14.794246 385.957214,20.698830 
	C385.699646,47.137878 385.770477,73.594856 384.648987,99.999771 
	C384.388428,106.134933 387.091736,110.428917 389.217804,114.910995 
	C402.104065,142.077072 410.716736,170.636917 416.602417,199.923004 
	C420.034546,217.000732 421.368835,234.547211 422.869629,251.949829 
	C423.923706,264.172272 424.324677,276.533875 423.837708,288.786438 
	C423.149109,306.111053 421.573486,323.410706 420.000824,340.686768 
	C418.594666,356.133789 416.982880,371.575623 414.901825,386.943909 
	C412.826263,402.271545 410.047668,417.503754 407.590424,432.779938 
	C404.711182,450.679871 401.835632,468.580414 398.986511,486.485168 
	C398.572235,489.088745 398.601685,491.795471 397.915833,494.315704 
	C396.884186,498.106445 393.911987,499.937561 390.141235,499.945892 
	C359.815094,500.013000 329.487457,500.103302 299.164948,499.765015 
	C296.718506,499.737732 293.335327,497.110138 292.033203,494.773682 
	C281.596832,476.047424 274.347534,455.923370 269.294708,435.227692 
	C264.264099,414.622955 261.029205,393.579834 257.002869,372.327698 
M273.255981,96.754478 
	C270.388458,99.997528 267.105164,102.970078 264.770020,106.559464 
	C262.418060,110.174706 259.500580,114.376091 259.429626,118.366875 
	C258.958740,144.852127 259.154999,171.349915 259.246796,197.843231 
	C259.253967,199.914856 259.623627,202.282867 260.665039,204.005035 
	C267.517731,215.337341 276.502350,224.476486 288.452820,230.580505 
	C305.970398,239.528107 336.585724,236.335526 347.913757,214.837387 
	C351.994049,207.093857 355.643097,198.867599 357.841858,190.432312 
	C367.420135,153.686279 366.866669,116.203728 364.585724,78.694496 
	C364.136017,71.298477 359.539581,67.375565 351.872528,67.402206 
	C322.354889,67.504753 295.645569,75.399429 273.255981,96.754478 
M239.532761,99.977150 
	C217.401154,76.501930 189.411514,67.582001 158.009521,67.397606 
	C149.635056,67.348434 145.483673,71.709923 144.970352,79.950356 
	C143.321075,106.426064 143.077759,132.888290 146.015594,159.294189 
	C147.973694,176.893997 151.294266,194.126892 158.969147,210.352173 
	C169.824280,233.300781 193.010040,237.612854 210.049911,234.229630 
	C226.420914,230.979172 237.926300,220.543610 246.896896,207.154129 
	C248.879410,204.195023 250.122650,200.146469 250.167770,196.580124 
	C250.456406,173.760422 249.687073,150.910583 250.582733,128.122421 
	C251.026306,116.836777 247.923782,108.032578 239.532761,99.977150 
M298.041046,442.484619 
	C303.115570,454.978210 308.205505,467.465637 313.254547,479.969513 
	C314.634460,483.386810 316.251801,486.510529 320.701172,485.912354 
	C324.809540,485.359955 325.859619,482.333313 326.261749,478.733734 
	C329.588928,448.949249 333.573792,419.223236 336.177094,389.376373 
	C340.035126,345.144623 340.441406,300.851837 335.105103,256.649597 
	C334.274811,249.772232 330.825348,245.870010 325.136993,245.524323 
	C319.279327,245.168335 315.199707,248.886368 313.915771,255.888779 
	C307.309784,291.915955 300.678162,327.938538 294.164551,363.982422 
	C291.945190,376.263550 289.571411,388.546722 288.119293,400.928772 
	C286.404663,415.549133 292.070557,428.731110 298.041046,442.484619 
M173.046051,269.665619 
	C172.736969,273.483734 172.362869,277.297821 172.128433,281.120514 
	C168.060532,347.454010 173.743362,413.238281 183.301407,478.802368 
	C183.808182,482.278595 184.843597,485.449188 189.005035,485.929993 
	C193.119400,486.405365 194.853073,483.724030 196.205658,480.374268 
	C203.059738,463.399567 210.054291,446.481506 216.884277,429.497192 
	C221.856552,417.132538 222.917511,404.411896 220.455139,391.263580 
	C215.492050,364.762360 210.780853,338.213959 205.965973,311.684967 
	C202.577682,293.016174 199.220322,274.341675 195.785217,255.681503 
	C194.562729,249.040726 190.460449,245.336639 184.815659,245.503159 
	C179.336868,245.664764 175.631454,249.343292 174.653427,255.855682 
	C174.010880,260.134308 173.616867,264.450287 173.046051,269.665619 
M115.165909,371.779877 
	C115.777931,381.080048 115.859604,390.451935 117.105301,399.666443 
	C120.338737,423.584381 124.096687,447.431213 127.611397,471.311462 
	C128.127197,474.815918 129.807587,477.930054 133.391830,477.590942 
	C135.819626,477.361237 139.183685,475.282440 140.148804,473.139008 
	C150.828613,449.419952 158.616440,424.746063 158.695541,398.536377 
	C158.848145,347.975983 163.084351,297.701324 167.733551,247.432541 
	C168.269394,241.638687 166.422424,238.026077 162.310806,237.044281 
	C157.809677,235.969437 154.673828,238.146683 152.637253,244.140747 
	C145.141479,266.202515 137.094284,288.103912 130.465393,310.425201 
	C124.556030,330.323730 120.247925,350.697784 115.165909,371.779877 
M389.959625,421.425934 
	C390.831757,414.487305 391.828888,407.561676 392.549927,400.607361 
	C394.026703,386.363831 395.672455,372.160980 392.380676,357.866302 
	C383.320435,318.521484 369.658447,280.625214 356.493866,242.567688 
	C355.056824,238.413345 352.150330,236.145325 347.689240,237.054932 
	C343.184967,237.973358 341.540833,241.249222 341.910736,245.624557 
	C343.061157,259.233063 344.551453,272.820648 345.356293,286.449036 
	C347.378876,320.696777 350.122681,354.947449 350.625427,389.225555 
	C351.054657,418.491730 357.578430,445.885681 368.967041,472.476624 
	C370.399689,475.821716 372.401123,478.374695 376.402527,477.769470 
	C380.322662,477.176544 381.601318,474.283356 382.162994,470.640137 
	C384.648651,454.516815 387.285004,438.416748 389.959625,421.425934 
M383.700989,166.765793 
	C382.260468,165.410858 380.819946,164.055939 379.379425,162.700989 
	C378.249725,164.189606 376.569977,165.516052 376.075897,167.192047 
	C371.423431,182.973984 366.922455,198.801331 362.486481,214.646027 
	C360.283112,222.516174 360.322021,230.268936 363.159698,238.151642 
	C374.140137,268.653564 384.847504,299.253723 395.791382,329.768921 
	C396.291840,331.164337 398.099182,332.091095 399.297791,333.236115 
	C400.236359,331.718842 401.846619,330.271515 402.013031,328.673859 
	C404.622650,303.614380 404.830963,278.496704 402.840759,253.396683 
	C400.503387,223.918594 395.242035,195.034790 383.700989,166.765793 
M114.068588,204.604858 
	C108.258118,230.022690 105.614151,255.812042 105.701950,281.840668 
	C105.751877,296.638977 106.535858,311.441345 107.325272,326.223938 
	C107.453064,328.617188 109.335587,330.916779 110.407036,333.259644 
	C111.877502,331.307556 113.761749,329.538635 114.725372,327.362122 
	C116.333633,323.729553 117.297867,319.816742 118.629143,316.055878 
	C128.115540,289.256439 137.789841,262.521454 146.968994,235.617401 
	C148.506516,231.110962 149.202637,225.576614 148.108398,221.043213 
	C143.705582,202.802673 138.507080,184.751724 133.399796,166.688065 
	C132.957687,165.124435 131.030548,163.980667 129.793228,162.641876 
	C128.583466,163.853699 126.746994,164.856567 126.262344,166.310165 
	C122.112976,178.755371 118.208443,191.282196 114.068588,204.604858 
M259.179871,43.532471 
	C259.179840,49.031837 259.176697,54.531212 259.180481,60.030575 
	C259.186096,68.196251 259.002075,76.370087 259.344147,84.521759 
	C259.427887,86.517670 260.794556,89.367012 262.385193,90.132050 
	C263.913879,90.867310 266.751465,89.849869 268.554657,88.807884 
	C270.968109,87.413269 273.040771,85.359276 275.083984,83.404678 
	C289.564423,69.552322 305.659271,59.423038 326.651764,59.164772 
	C332.745575,59.089794 336.394897,54.573593 337.131165,48.338264 
	C337.560577,44.701912 337.496887,41.002304 338.015564,37.382805 
	C338.653687,32.929440 336.989288,31.681286 332.571167,31.725496 
	C311.742310,31.933926 290.910156,31.816704 270.079193,31.816122 
	C259.180664,31.815817 259.180664,31.816269 259.179871,43.532471 
M229.468872,79.032852 
	C233.268616,82.278305 236.912796,85.737930 240.943329,88.665657 
	C242.596085,89.866219 245.504486,90.895454 247.071716,90.218918 
	C248.642166,89.540993 250.118622,86.651886 250.147491,84.709824 
	C250.390030,68.388680 250.245071,52.062206 250.332718,35.737965 
	C250.349564,32.599155 248.929962,31.708416 246.070679,31.799665 
	C242.076981,31.927120 238.075943,31.820089 234.078033,31.820038 
	C215.087906,31.819798 196.096359,31.947460 177.108719,31.730963 
	C172.599136,31.679546 171.130997,33.119286 171.752182,37.493958 
	C172.194946,40.612080 171.942139,43.822521 172.242233,46.968636 
	C172.981842,54.722679 176.912170,59.183041 184.595474,59.411758 
	C202.016586,59.930347 216.453125,66.865150 229.468872,79.032852 
M227.611206,370.926239 
	C233.394821,369.864777 231.453415,364.944946 231.778488,361.670776 
	C234.260376,336.673035 236.422775,311.643524 238.687790,286.624237 
	C240.067825,271.380127 241.547485,256.143799 242.723053,240.884018 
	C242.877533,238.878693 242.055008,236.027161 240.632477,234.920746 
	C239.539078,234.070282 236.625992,234.965408 234.807785,235.747971 
	C228.398697,238.506378 222.126328,241.580566 215.776382,244.478638 
	C208.795090,247.664871 206.204330,252.696732 207.814087,260.166931 
	C209.564850,268.291656 211.786636,276.344849 213.010986,284.547455 
	C216.913864,310.695068 220.403793,336.904114 224.195480,363.068817 
	C224.576309,365.696777 225.924362,368.184509 227.611206,370.926239 
M302.044922,259.211029 
	C302.725647,251.209747 300.536285,247.432388 293.369598,244.246872 
	C288.502991,242.083694 283.693848,239.775635 278.747955,237.812042 
	C275.526154,236.532959 272.105072,235.755814 268.773254,234.753815 
	C268.276245,238.514618 267.090179,242.331955 267.393433,246.027084 
	C269.450439,271.090088 271.823792,296.127106 274.090881,321.172913 
	C275.442169,336.101074 276.679016,351.041351 278.275665,365.943176 
	C278.464905,367.709351 280.604767,369.266602 281.840424,370.920685 
	C282.916992,369.296906 284.632996,367.788574 284.950867,366.027832 
	C285.925323,360.630035 286.156250,355.101440 287.044403,349.684052 
	C291.942719,319.806305 296.950592,289.946533 302.044922,259.211029 
M146.636978,31.813623 
	C144.547745,31.928484 142.458496,32.043343 139.915878,32.183132 
	C140.490311,36.863682 141.060867,40.949230 141.482727,45.050076 
	C143.102676,60.797554 144.865936,59.907356 160.680511,58.600445 
	C161.009323,58.573277 161.333923,58.486282 161.658417,58.417423 
	C166.048721,57.485786 168.327332,54.946289 167.795822,50.301838 
	C167.230179,45.359123 166.500336,40.429848 166.119751,35.473392 
	C165.906586,32.697281 164.696259,31.742115 162.041580,31.799032 
	C157.232132,31.902151 152.418701,31.818741 146.636978,31.813623 
M346.745026,58.105305 
	C351.050751,58.492115 355.405823,59.429310 359.642731,59.049160 
	C361.998993,58.837749 365.682251,56.803955 366.137451,54.946835 
	C367.931671,47.626991 368.683868,40.051731 369.927582,31.882183 
	C361.355377,31.882183 353.896393,31.760420 346.451477,32.029480 
	C345.472107,32.064869 343.933258,33.996635 343.734619,35.224918 
	C342.911591,40.314545 342.511719,45.472202 341.940613,50.603107 
	C341.565002,53.977566 342.773712,56.459389 346.745026,58.105305 
z"/>
<path fill="#9FABCE" opacity="1.000000" stroke="none" 
	d="
M273.508972,96.505989 
	C295.645569,75.399429 322.354889,67.504753 351.872528,67.402206 
	C359.539581,67.375565 364.136017,71.298477 364.585724,78.694496 
	C366.866669,116.203728 367.420135,153.686279 357.841858,190.432312 
	C355.643097,198.867599 351.994049,207.093857 347.913757,214.837387 
	C336.585724,236.335526 305.970398,239.528107 288.452820,230.580505 
	C276.502350,224.476486 267.517731,215.337341 260.665039,204.005035 
	C259.623627,202.282867 259.253967,199.914856 259.246796,197.843231 
	C259.154999,171.349915 258.958740,144.852127 259.429626,118.366875 
	C259.500580,114.376091 262.418060,110.174706 264.770020,106.559464 
	C267.105164,102.970078 270.388458,99.997528 273.508972,96.505989 
z"/>
<path fill="#9FABCE" opacity="1.000000" stroke="none" 
	d="
M239.770035,100.239609 
	C247.923782,108.032578 251.026306,116.836777 250.582733,128.122421 
	C249.687073,150.910583 250.456406,173.760422 250.167770,196.580124 
	C250.122650,200.146469 248.879410,204.195023 246.896896,207.154129 
	C237.926300,220.543610 226.420914,230.979172 210.049911,234.229630 
	C193.010040,237.612854 169.824280,233.300781 158.969147,210.352173 
	C151.294266,194.126892 147.973694,176.893997 146.015594,159.294189 
	C143.077759,132.888290 143.321075,106.426064 144.970352,79.950356 
	C145.483673,71.709923 149.635056,67.348434 158.009521,67.397606 
	C189.411514,67.582001 217.401154,76.501930 239.770035,100.239609 
z"/>
<path fill="#FE014F" opacity="1.000000" stroke="none" 
	d="
M297.909729,442.122498 
	C292.070557,428.731110 286.404663,415.549133 288.119293,400.928772 
	C289.571411,388.546722 291.945190,376.263550 294.164551,363.982422 
	C300.678162,327.938538 307.309784,291.915955 313.915771,255.888779 
	C315.199707,248.886368 319.279327,245.168335 325.136993,245.524323 
	C330.825348,245.870010 334.274811,249.772232 335.105103,256.649597 
	C340.441406,300.851837 340.035126,345.144623 336.177094,389.376373 
	C333.573792,419.223236 329.588928,448.949249 326.261749,478.733734 
	C325.859619,482.333313 324.809540,485.359955 320.701172,485.912354 
	C316.251801,486.510529 314.634460,483.386810 313.254547,479.969513 
	C308.205505,467.465637 303.115570,454.978210 297.909729,442.122498 
z"/>
<path fill="#FE014F" opacity="1.000000" stroke="none" 
	d="
M173.078796,269.207581 
	C173.616867,264.450287 174.010880,260.134308 174.653427,255.855682 
	C175.631454,249.343292 179.336868,245.664764 184.815659,245.503159 
	C190.460449,245.336639 194.562729,249.040726 195.785217,255.681503 
	C199.220322,274.341675 202.577682,293.016174 205.965973,311.684967 
	C210.780853,338.213959 215.492050,364.762360 220.455139,391.263580 
	C222.917511,404.411896 221.856552,417.132538 216.884277,429.497192 
	C210.054291,446.481506 203.059738,463.399567 196.205658,480.374268 
	C194.853073,483.724030 193.119400,486.405365 189.005035,485.929993 
	C184.843597,485.449188 183.808182,482.278595 183.301407,478.802368 
	C173.743362,413.238281 168.060532,347.454010 172.128433,281.120514 
	C172.362869,277.297821 172.736969,273.483734 173.078796,269.207581 
z"/>
<path fill="#FD014F" opacity="1.000000" stroke="none" 
	d="
M115.199539,371.320923 
	C120.247925,350.697784 124.556030,330.323730 130.465393,310.425201 
	C137.094284,288.103912 145.141479,266.202515 152.637253,244.140747 
	C154.673828,238.146683 157.809677,235.969437 162.310806,237.044281 
	C166.422424,238.026077 168.269394,241.638687 167.733551,247.432541 
	C163.084351,297.701324 158.848145,347.975983 158.695541,398.536377 
	C158.616440,424.746063 150.828613,449.419952 140.148804,473.139008 
	C139.183685,475.282440 135.819626,477.361237 133.391830,477.590942 
	C129.807587,477.930054 128.127197,474.815918 127.611397,471.311462 
	C124.096687,447.431213 120.338737,423.584381 117.105301,399.666443 
	C115.859604,390.451935 115.777931,381.080048 115.199539,371.320923 
z"/>
<path fill="#FE014F" opacity="1.000000" stroke="none" 
	d="
M389.913208,421.867096 
	C387.285004,438.416748 384.648651,454.516815 382.162994,470.640137 
	C381.601318,474.283356 380.322662,477.176544 376.402527,477.769470 
	C372.401123,478.374695 370.399689,475.821716 368.967041,472.476624 
	C357.578430,445.885681 351.054657,418.491730 350.625427,389.225555 
	C350.122681,354.947449 347.378876,320.696777 345.356293,286.449036 
	C344.551453,272.820648 343.061157,259.233063 341.910736,245.624557 
	C341.540833,241.249222 343.184967,237.973358 347.689240,237.054932 
	C352.150330,236.145325 355.056824,238.413345 356.493866,242.567688 
	C369.658447,280.625214 383.320435,318.521484 392.380676,357.866302 
	C395.672455,372.160980 394.026703,386.363831 392.549927,400.607361 
	C391.828888,407.561676 390.831757,414.487305 389.913208,421.867096 
z"/>
<path fill="#FD8464" opacity="1.000000" stroke="none" 
	d="
M383.837891,167.130280 
	C395.242035,195.034790 400.503387,223.918594 402.840759,253.396683 
	C404.830963,278.496704 404.622650,303.614380 402.013031,328.673859 
	C401.846619,330.271515 400.236359,331.718842 399.297791,333.236115 
	C398.099182,332.091095 396.291840,331.164337 395.791382,329.768921 
	C384.847504,299.253723 374.140137,268.653564 363.159698,238.151642 
	C360.322021,230.268936 360.283112,222.516174 362.486481,214.646027 
	C366.922455,198.801331 371.423431,182.973984 376.075897,167.192047 
	C376.569977,165.516052 378.249725,164.189606 379.379425,162.700989 
	C380.819946,164.055939 382.260468,165.410858 383.837891,167.130280 
z"/>
<path fill="#FD8464" opacity="1.000000" stroke="none" 
	d="
M114.149643,204.194733 
	C118.208443,191.282196 122.112976,178.755371 126.262344,166.310165 
	C126.746994,164.856567 128.583466,163.853699 129.793228,162.641876 
	C131.030548,163.980667 132.957687,165.124435 133.399796,166.688065 
	C138.507080,184.751724 143.705582,202.802673 148.108398,221.043213 
	C149.202637,225.576614 148.506516,231.110962 146.968994,235.617401 
	C137.789841,262.521454 128.115540,289.256439 118.629143,316.055878 
	C117.297867,319.816742 116.333633,323.729553 114.725372,327.362122 
	C113.761749,329.538635 111.877502,331.307556 110.407028,333.259644 
	C109.335587,330.916779 107.453064,328.617188 107.325272,326.223938 
	C106.535858,311.441345 105.751877,296.638977 105.701950,281.840668 
	C105.614151,255.812042 108.258118,230.022690 114.149643,204.194733 
z"/>
<path fill="#9EAACD" opacity="1.000000" stroke="none" 
	d="
M259.179901,43.039127 
	C259.180664,31.816269 259.180664,31.815817 270.079193,31.816122 
	C290.910156,31.816704 311.742310,31.933926 332.571167,31.725496 
	C336.989288,31.681286 338.653687,32.929440 338.015564,37.382805 
	C337.496887,41.002304 337.560577,44.701912 337.131165,48.338264 
	C336.394897,54.573593 332.745575,59.089794 326.651764,59.164772 
	C305.659271,59.423038 289.564423,69.552322 275.083984,83.404678 
	C273.040771,85.359276 270.968109,87.413269 268.554657,88.807884 
	C266.751465,89.849869 263.913879,90.867310 262.385193,90.132050 
	C260.794556,89.367012 259.427887,86.517670 259.344147,84.521759 
	C259.002075,76.370087 259.186096,68.196251 259.180481,60.030575 
	C259.176697,54.531212 259.179840,49.031837 259.179901,43.039127 
z"/>
<path fill="#9FABCE" opacity="1.000000" stroke="none" 
	d="
M229.199432,78.803452 
	C216.453125,66.865150 202.016586,59.930347 184.595474,59.411758 
	C176.912170,59.183041 172.981842,54.722679 172.242233,46.968636 
	C171.942139,43.822521 172.194946,40.612080 171.752182,37.493958 
	C171.130997,33.119286 172.599136,31.679546 177.108719,31.730963 
	C196.096359,31.947460 215.087906,31.819798 234.078033,31.820038 
	C238.075943,31.820089 242.076981,31.927120 246.070679,31.799665 
	C248.929962,31.708416 250.349564,32.599155 250.332718,35.737965 
	C250.245071,52.062206 250.390030,68.388680 250.147491,84.709824 
	C250.118622,86.651886 248.642166,89.540993 247.071716,90.218918 
	C245.504486,90.895454 242.596085,89.866219 240.943329,88.665657 
	C236.912796,85.737930 233.268616,82.278305 229.199432,78.803452 
z"/>
<path fill="#FC014F" opacity="1.000000" stroke="none" 
	d="
M227.217377,370.831787 
	C225.924362,368.184509 224.576309,365.696777 224.195480,363.068817 
	C220.403793,336.904114 216.913864,310.695068 213.010986,284.547455 
	C211.786636,276.344849 209.564850,268.291656 207.814087,260.166931 
	C206.204330,252.696732 208.795090,247.664871 215.776382,244.478638 
	C222.126328,241.580566 228.398697,238.506378 234.807785,235.747971 
	C236.625992,234.965408 239.539078,234.070282 240.632477,234.920746 
	C242.055008,236.027161 242.877533,238.878693 242.723053,240.884018 
	C241.547485,256.143799 240.067825,271.380127 238.687790,286.624237 
	C236.422775,311.643524 234.260376,336.673035 231.778488,361.670776 
	C231.453415,364.944946 233.394821,369.864777 227.217377,370.831787 
z"/>
<path fill="#FD014F" opacity="1.000000" stroke="none" 
	d="
M301.982910,259.645813 
	C296.950592,289.946533 291.942719,319.806305 287.044403,349.684052 
	C286.156250,355.101440 285.925323,360.630035 284.950867,366.027832 
	C284.632996,367.788574 282.916992,369.296906 281.840424,370.920685 
	C280.604767,369.266602 278.464905,367.709351 278.275665,365.943176 
	C276.679016,351.041351 275.442169,336.101074 274.090881,321.172913 
	C271.823792,296.127106 269.450439,271.090088 267.393433,246.027084 
	C267.090179,242.331955 268.276245,238.514618 268.773254,234.753815 
	C272.105072,235.755814 275.526154,236.532959 278.747955,237.812042 
	C283.693848,239.775635 288.502991,242.083694 293.369598,244.246872 
	C300.536285,247.432388 302.725647,251.209747 301.982910,259.645813 
z"/>
<path fill="#9EAACD" opacity="1.000000" stroke="none" 
	d="
M147.121948,31.813412 
	C152.418701,31.818741 157.232132,31.902151 162.041580,31.799032 
	C164.696259,31.742115 165.906586,32.697281 166.119751,35.473392 
	C166.500336,40.429848 167.230179,45.359123 167.795822,50.301838 
	C168.327332,54.946289 166.048721,57.485786 161.658417,58.417423 
	C161.333923,58.486282 161.009323,58.573277 160.680511,58.600445 
	C144.865936,59.907356 143.102676,60.797554 141.482727,45.050076 
	C141.060867,40.949230 140.490311,36.863682 139.915878,32.183132 
	C142.458496,32.043343 144.547745,31.928484 147.121948,31.813412 
z"/>
<path fill="#9EAACD" opacity="1.000000" stroke="none" 
	d="
M346.348022,57.983856 
	C342.773712,56.459389 341.565002,53.977566 341.940613,50.603107 
	C342.511719,45.472202 342.911591,40.314545 343.734619,35.224918 
	C343.933258,33.996635 345.472107,32.064869 346.451477,32.029480 
	C353.896393,31.760420 361.355377,31.882183 369.927582,31.882183 
	C368.683868,40.051731 367.931671,47.626991 366.137451,54.946835 
	C365.682251,56.803955 361.998993,58.837749 359.642731,59.049160 
	C355.405823,59.429310 351.050751,58.492115 346.348022,57.983856 
z"/>
</svg>