<svg version="1.1" id="Layer_1" xmlns="http://www.w3.org/2000/svg" xmlns:xlink="http://www.w3.org/1999/xlink" x="0px" y="0px"
	 width="100%" viewBox="0 0 512 512" enable-background="new 0 0 512 512" xml:space="preserve">
<path fill="#000000" opacity="1.000000" stroke="none" 
	d="
M282.000000,513.000000 
	C188.022812,513.000000 94.545624,513.000000 1.034216,513.000000 
	C1.034216,342.397797 1.034216,171.795563 1.034216,1.096670 
	C171.560532,1.096670 342.121155,1.096670 512.840881,1.096670 
	C512.840881,171.666550 512.840881,342.333252 512.840881,513.000000 
	C436.128876,513.000000 359.314423,513.000000 282.000000,513.000000 
M386.838440,444.850464 
	C386.604797,444.229126 386.259277,443.626129 386.153931,442.983765 
	C383.779785,428.506073 381.115265,414.065430 379.214447,399.525146 
	C378.280304,392.379517 378.057220,384.976410 378.772461,377.815704 
	C380.058746,364.937500 389.629944,356.448456 397.009399,345.912567 
	C401.548248,351.991333 405.826233,357.607239 409.940887,363.340363 
	C410.647949,364.325500 410.832489,365.792328 410.960571,367.066620 
	C411.373688,371.176849 411.730042,375.296478 411.961517,379.420715 
	C413.114380,399.964050 419.798401,418.723358 429.746338,436.572083 
	C433.760712,443.774719 442.249481,444.008850 446.121857,436.746338 
	C453.651398,422.624817 461.427063,408.634155 469.139130,394.610382 
	C476.309479,381.571625 483.731323,368.666199 490.650604,355.496185 
	C494.645447,347.892517 500.834015,340.940796 499.025360,331.214417 
	C498.122131,326.357025 498.240967,321.246429 496.866394,316.552307 
	C493.496796,305.045319 490.433990,293.306671 485.544006,282.426941 
	C480.733276,271.723480 472.981201,262.648071 464.252899,254.566544 
	C462.942322,253.353073 461.994690,250.677795 462.311523,248.939850 
	C465.981415,228.807388 467.144989,208.745911 464.199554,188.307571 
	C460.252136,160.916748 447.503204,139.206924 424.042267,124.771164 
	C410.909058,116.690155 396.473083,110.721222 382.600311,103.848625 
	C359.888428,92.597107 337.184204,81.329216 314.398102,70.229675 
	C311.706116,68.918358 310.861450,67.344498 310.945190,64.530289 
	C311.113586,58.870102 311.084930,53.199219 310.964172,47.536446 
	C310.803223,39.990559 305.054443,36.133755 298.174957,38.984428 
	C292.391418,41.380978 286.704132,44.009392 280.968781,46.522762 
	C269.985992,51.335701 258.473145,54.217930 246.756012,50.897961 
	C236.678360,48.042522 226.968826,43.750286 217.309723,39.597466 
	C209.054031,36.048019 203.071869,39.594757 203.009903,48.706024 
	C202.973648,54.037830 202.900757,59.372677 203.041260,64.700966 
	C203.109329,67.281898 202.491760,68.910812 199.910110,70.121208 
	C187.779022,75.808838 175.771042,81.758240 163.687973,87.549232 
	C142.818817,97.551079 121.705627,107.073700 101.119759,117.626335 
	C86.754494,124.990196 74.271240,135.046890 64.755951,148.464920 
	C52.898243,165.186142 49.278324,184.371582 48.115410,204.152161 
	C47.248680,218.894852 48.588768,233.574432 51.715622,248.084839 
	C52.145016,250.077454 51.022350,252.995193 49.637913,254.678223 
	C45.327919,259.917816 39.930634,264.337433 36.060932,269.851166 
	C23.260775,288.089417 17.101833,308.804047 15.116033,330.809052 
	C14.782308,334.507111 14.730255,338.788971 16.257818,341.983551 
	C19.731831,349.248627 24.188631,356.054169 28.388168,362.960022 
	C42.260967,385.772888 56.259716,408.509491 70.043907,431.375580 
	C72.225410,434.994385 74.669319,437.022858 79.073746,437.085541 
	C83.574852,437.149597 85.669518,434.404236 87.370529,431.114136 
	C96.755043,412.962555 102.532501,393.545776 102.616493,373.243225 
	C102.668350,360.709198 111.508766,355.003754 116.989296,346.093903 
	C119.931984,349.952271 122.233330,353.181458 124.751434,356.231659 
	C132.270569,365.339661 137.092484,375.522949 135.908447,387.551727 
	C134.876221,398.038452 133.105743,408.456726 131.517014,418.883209 
	C130.128693,427.994324 128.376038,437.051849 127.092224,446.176331 
	C126.130714,453.010040 128.472275,455.635345 135.419113,457.072510 
	C152.039520,460.510956 168.579071,464.364349 185.251556,467.520386 
	C203.524689,470.979431 221.808655,474.915009 240.275375,476.668518 
	C259.075043,478.453583 278.130035,477.369537 296.773193,473.785248 
	C323.759216,468.597015 350.635742,462.835541 377.538422,457.220062 
	C386.272797,455.396881 387.048279,454.268585 386.838440,444.850464 
z"/>
<path fill="#49506A" opacity="1.000000" stroke="none" 
	d="
M386.891632,445.284760 
	C387.048279,454.268585 386.272797,455.396881 377.538422,457.220062 
	C350.635742,462.835541 323.759216,468.597015 296.773193,473.785248 
	C278.130035,477.369537 259.075043,478.453583 240.275375,476.668518 
	C221.808655,474.915009 203.524689,470.979431 185.251556,467.520386 
	C168.579071,464.364349 152.039520,460.510956 135.419113,457.072510 
	C128.472275,455.635345 126.130714,453.010040 127.092224,446.176331 
	C128.376038,437.051849 130.128693,427.994324 131.517014,418.883209 
	C133.105743,408.456726 134.876221,398.038452 135.908447,387.551727 
	C137.092484,375.522949 132.270569,365.339661 124.751434,356.231659 
	C122.233330,353.181458 119.931984,349.952271 116.989296,346.093903 
	C111.508766,355.003754 102.668350,360.709198 102.616493,373.243225 
	C102.532501,393.545776 96.755043,412.962555 87.370529,431.114136 
	C85.669518,434.404236 83.574852,437.149597 79.073746,437.085541 
	C74.669319,437.022858 72.225410,434.994385 70.043907,431.375580 
	C56.259716,408.509491 42.260967,385.772888 28.388168,362.960022 
	C24.188631,356.054169 19.731831,349.248627 16.257818,341.983551 
	C14.730255,338.788971 14.782308,334.507111 15.116033,330.809052 
	C17.101833,308.804047 23.260775,288.089417 36.060932,269.851166 
	C39.930634,264.337433 45.327919,259.917816 49.637913,254.678223 
	C51.022350,252.995193 52.145016,250.077454 51.715622,248.084839 
	C48.588768,233.574432 47.248680,218.894852 48.115410,204.152161 
	C49.278324,184.371582 52.898243,165.186142 64.755951,148.464920 
	C74.271240,135.046890 86.754494,124.990196 101.119759,117.626335 
	C121.705627,107.073700 142.818817,97.551079 163.687973,87.549232 
	C175.771042,81.758240 187.779022,75.808838 199.910110,70.121208 
	C202.491760,68.910812 203.109329,67.281898 203.041260,64.700966 
	C202.900757,59.372677 202.973648,54.037830 203.009903,48.706024 
	C203.071869,39.594757 209.054031,36.048019 217.309723,39.597466 
	C226.968826,43.750286 236.678360,48.042522 246.756012,50.897961 
	C258.473145,54.217930 269.985992,51.335701 280.968781,46.522762 
	C286.704132,44.009392 292.391418,41.380978 298.174957,38.984428 
	C305.054443,36.133755 310.803223,39.990559 310.964172,47.536446 
	C311.084930,53.199219 311.113586,58.870102 310.945190,64.530289 
	C310.861450,67.344498 311.706116,68.918358 314.398102,70.229675 
	C337.184204,81.329216 359.888428,92.597107 382.600311,103.848625 
	C396.473083,110.721222 410.909058,116.690155 424.042267,124.771164 
	C447.503204,139.206924 460.252136,160.916748 464.199554,188.307571 
	C467.144989,208.745911 465.981415,228.807388 462.311523,248.939850 
	C461.994690,250.677795 462.942322,253.353073 464.252899,254.566544 
	C472.981201,262.648071 480.733276,271.723480 485.544006,282.426941 
	C490.433990,293.306671 493.496796,305.045319 496.866394,316.552307 
	C498.240967,321.246429 498.122131,326.357025 499.025360,331.214417 
	C500.834015,340.940796 494.645447,347.892517 490.650604,355.496185 
	C483.731323,368.666199 476.309479,381.571625 469.139130,394.610382 
	C461.427063,408.634155 453.651398,422.624817 446.121857,436.746338 
	C442.249481,444.008850 433.760712,443.774719 429.746338,436.572083 
	C419.798401,418.723358 413.114380,399.964050 411.961517,379.420715 
	C411.730042,375.296478 411.373688,371.176849 410.960571,367.066620 
	C410.832489,365.792328 410.647949,364.325500 409.940887,363.340363 
	C405.826233,357.607239 401.548248,351.991333 397.009399,345.912567 
	C389.629944,356.448456 380.058746,364.937500 378.772461,377.815704 
	C378.057220,384.976410 378.280304,392.379517 379.214447,399.525146 
	C381.115265,414.065430 383.779785,428.506073 386.153931,442.983765 
	C386.259277,443.626129 386.604797,444.229126 386.891632,445.284760 
M228.285034,149.223450 
	C222.973984,146.838867 217.623444,144.537964 212.358948,142.054703 
	C193.379562,133.102097 175.836121,135.924255 159.417603,148.355942 
	C158.355972,149.159775 157.235443,149.887863 156.194687,150.716919 
	C145.310837,159.387085 134.552399,168.478561 129.777405,181.959198 
	C125.666847,193.564056 120.228447,204.225464 113.158600,214.198578 
	C109.469307,219.402893 110.885170,221.670334 116.944702,223.820435 
	C124.220757,226.402206 131.528076,229.368668 138.065765,233.395996 
	C142.587677,236.181595 145.968063,240.921570 149.615372,245.005386 
	C158.181396,254.596497 168.399597,257.320465 180.512741,253.363953 
	C199.325745,247.219040 218.188843,241.226517 237.051910,235.236160 
	C245.682068,232.495468 250.828491,226.233246 250.929291,217.259811 
	C251.101349,201.943329 251.005951,186.623520 250.971832,171.305237 
	C250.958099,165.140396 248.270508,160.381577 242.930176,157.289520 
	C238.323166,154.622086 233.605438,152.145859 228.285034,149.223450 
M339.464569,139.899078 
	C331.234650,136.206131 322.754913,135.711151 314.093048,138.018982 
	C298.175720,142.259949 283.694519,149.721115 269.729340,158.218262 
	C265.167328,160.994003 263.060699,165.593765 263.041931,170.938522 
	C262.987518,186.422073 262.899933,201.907455 263.080658,217.389145 
	C263.182678,226.128265 268.299500,232.469498 276.605988,235.122101 
	C296.249359,241.395035 315.961700,247.467300 335.477417,254.116028 
	C342.215637,256.411621 348.465912,256.025391 354.164429,252.642578 
	C358.772156,249.907288 363.002472,246.154602 366.563843,242.115723 
	C374.636810,232.960403 384.033752,226.338547 396.137482,223.840820 
	C403.737946,222.272354 404.307739,219.953384 400.318054,213.211639 
	C395.174591,204.520325 390.678223,195.445633 385.917938,186.528168 
	C382.730713,180.557495 380.307831,174.007202 376.248077,168.708328 
	C366.703766,156.250992 354.552185,146.719727 339.464569,139.899078 
M103.153175,130.617722 
	C80.663490,140.794174 68.184120,158.501465 64.125130,182.529526 
	C61.552738,197.757339 61.813492,213.036728 63.507378,228.315506 
	C64.268478,235.180588 65.331848,242.012146 66.333588,249.417221 
	C67.771225,248.682465 68.599487,248.470291 69.135132,247.954315 
	C80.739105,236.776627 92.725601,225.951370 103.686882,214.172729 
	C108.167862,209.357605 111.348869,202.778992 113.479538,196.449951 
	C117.458626,184.630280 122.776062,173.642471 130.225128,163.735474 
	C139.558960,151.321823 150.276505,140.541458 165.891037,136.174637 
	C166.887863,135.895874 167.843063,135.468262 170.081329,134.645218 
	C147.538055,125.974785 126.267570,119.480156 103.153175,130.617722 
M451.653076,213.170090 
	C450.739838,201.410355 450.957092,189.428207 448.695770,177.933670 
	C442.558746,146.738403 415.597992,124.541016 385.557739,124.713310 
	C371.998657,124.791077 359.264160,128.464981 346.876190,133.618317 
	C346.243713,133.881424 345.748169,134.473694 346.072754,134.218903 
	C353.224243,138.277222 361.025940,141.495468 367.371521,146.543961 
	C383.145294,159.093399 393.379150,175.683640 399.966644,194.703705 
	C401.956177,200.448120 404.553772,206.208908 408.002502,211.178192 
	C418.168152,225.825912 431.539948,237.405899 445.483032,248.330200 
	C445.933380,248.683060 446.614258,248.741714 448.123199,249.256973 
	C449.311829,237.195831 450.449524,225.651306 451.653076,213.170090 
M60.933334,274.406586 
	C56.825905,284.775513 52.749691,295.156921 48.601032,305.509308 
	C45.371120,313.569122 44.318005,321.899292 45.304184,330.497284 
	C46.537216,341.247498 47.854656,351.988159 49.051426,362.742310 
	C49.482330,366.614349 50.656967,369.999542 54.546078,371.546387 
	C58.396332,373.077698 61.599110,371.596527 64.612900,369.056061 
	C73.397255,361.651276 80.150139,352.628357 85.840012,342.753326 
	C95.974174,325.165039 102.369453,306.127380 108.029083,286.727570 
	C112.193184,272.454071 110.681999,258.001953 110.866371,243.578003 
	C110.884583,242.153595 110.292732,240.615234 109.633324,239.306488 
	C106.617889,233.321762 101.140511,232.194077 95.890625,236.245361 
	C91.804695,239.398422 87.908318,242.986664 83.388702,245.351303 
	C71.608185,251.514832 64.317024,260.888855 60.933334,274.406586 
M422.461060,332.007263 
	C429.283295,345.848114 437.307343,358.802521 449.259949,368.937531 
	C452.251495,371.474152 455.414795,373.083466 459.292999,371.606201 
	C463.424866,370.032288 464.556335,366.466187 464.985870,362.414062 
	C466.038879,352.480591 467.059753,342.538300 468.420441,332.644470 
	C469.746857,322.999878 468.737610,313.758545 465.107239,304.724823 
	C459.148163,289.896545 453.441864,274.964966 447.314728,260.207458 
	C446.190063,257.498688 443.942413,254.923538 441.576202,253.124374 
	C434.024689,247.382553 426.082031,242.157944 418.465546,236.497986 
	C411.963043,231.665848 403.911682,234.422241 403.380524,242.660690 
	C402.676025,253.587662 401.995789,264.828857 403.752045,275.533569 
	C406.938538,294.955994 413.622162,313.515839 422.461060,332.007263 
M237.035782,247.578262 
	C219.844452,253.324966 202.724915,259.300659 185.431976,264.723328 
	C176.573914,267.500977 174.399658,269.655914 176.179092,278.269470 
	C178.382355,288.934662 183.612106,298.131866 191.051468,306.081757 
	C193.537003,308.737854 196.092422,309.292206 199.451782,307.396698 
	C202.473267,305.691895 205.755646,304.299683 209.084488,303.316559 
	C220.708450,299.883850 232.382416,296.614410 244.081863,293.447144 
	C247.591812,292.496948 250.612976,291.077271 250.668137,287.089569 
	C250.833878,275.110077 250.908997,263.122406 250.626068,251.147186 
	C250.519318,246.627945 246.898300,244.567474 242.524094,245.772385 
	C240.922012,246.213669 239.354340,246.779892 237.035782,247.578262 
M276.779266,247.689590 
	C275.832489,247.372742 274.826172,247.171844 273.948334,246.720795 
	C266.632751,242.961731 262.359711,247.056534 262.748077,254.558685 
	C263.246796,264.192261 262.857452,273.871185 262.873138,283.530518 
	C262.885498,291.156281 263.705414,292.304718 271.341980,293.852966 
	C286.070679,296.839020 300.541229,300.669891 314.042542,307.396301 
	C317.760925,309.248810 320.277618,308.518463 322.850037,305.811646 
	C330.113892,298.168304 335.250305,289.281067 337.723480,279.053253 
	C339.849152,270.262299 337.468567,266.905060 328.685364,264.949707 
	C327.552826,264.697601 326.453369,264.287262 325.349243,263.918365 
	C309.408447,258.592529 293.469513,253.261200 276.779266,247.689590 
M246.491684,428.490936 
	C247.988831,426.137268 250.733231,423.810059 250.783783,421.425781 
	C251.154327,403.947021 251.040268,386.456604 250.951981,368.970490 
	C250.926376,363.898315 248.682526,361.608063 243.608871,361.502472 
	C235.785492,361.339661 227.948669,361.268799 220.131134,361.544495 
	C213.103333,361.792328 208.932327,366.019806 208.858627,372.969452 
	C208.701462,387.789490 208.700943,402.613647 208.867371,417.433502 
	C208.944061,424.262573 213.351624,428.687103 220.200073,428.841003 
	C228.684753,429.031647 237.179108,428.791870 246.491684,428.490936 
M305.220551,416.238037 
	C305.218842,402.086334 305.298767,387.933960 305.183258,373.783203 
	C305.119110,365.923767 301.011841,361.717163 293.188873,361.499695 
	C285.868866,361.296234 278.537781,361.357117 271.213989,361.464386 
	C265.192780,361.552521 263.052734,363.685181 263.031128,369.639679 
	C262.969452,386.621521 262.972626,403.603851 263.028961,420.585754 
	C263.048676,426.524200 265.299500,428.821625 271.108704,428.897675 
	C278.266541,428.991364 285.427612,428.994446 292.585419,428.898865 
	C300.501160,428.793182 304.363251,425.124420 305.220551,416.238037 
M286.499756,352.032227 
	C290.330811,352.032196 294.161896,352.033722 297.992950,352.031860 
	C308.833160,352.026550 317.531525,343.482300 316.913300,332.586853 
	C316.713043,329.057739 315.242310,324.644592 312.763153,322.362946 
	C300.674957,311.237610 286.207947,304.806061 269.795197,303.072845 
	C265.524078,302.621857 263.077118,304.787567 263.050323,309.122559 
	C262.975098,321.281525 263.007629,333.441315 263.027252,345.600708 
	C263.034180,349.873505 265.171783,352.049408 269.509918,352.027252 
	C274.839935,352.000061 280.170227,352.028107 286.499756,352.032227 
M214.359833,312.776550 
	C210.506317,315.382324 206.451569,317.738617 202.843613,320.648834 
	C196.467697,325.791718 195.132492,333.086792 198.863510,340.337799 
	C199.927536,342.405640 201.150818,344.391541 202.301132,346.415009 
	C204.462906,350.217682 207.644638,352.089355 212.104645,352.051361 
	C222.582901,351.962067 233.062653,352.063690 243.541428,352.012878 
	C249.298019,351.984955 250.944519,350.346466 250.974030,344.564911 
	C251.031769,333.254517 251.029984,321.943390 250.976700,310.632935 
	C250.946487,304.217468 248.568192,301.719299 242.284119,303.368927 
	C233.033401,305.797272 224.072220,309.328552 214.359833,312.776550 
M358.650055,106.856979 
	C344.770508,100.023949 330.920288,93.130371 316.999664,86.382103 
	C309.436768,82.715843 304.334717,85.257210 301.677826,93.228981 
	C298.895782,101.576294 295.844147,109.844109 292.587219,118.017921 
	C291.182770,121.542496 289.618103,124.820457 292.138916,128.341385 
	C294.742188,131.977417 298.496643,131.400635 302.151367,130.756561 
	C310.995789,129.197845 319.826141,127.559502 328.662292,125.953934 
	C339.953430,123.902283 351.278992,122.014908 362.506805,119.661186 
	C364.736145,119.193848 366.590912,116.939758 368.618408,115.509598 
	C367.014709,113.460190 365.589325,111.227547 363.741425,109.429100 
	C362.606628,108.324677 360.825104,107.884743 358.650055,106.856979 
M196.577789,127.950302 
	C202.303894,128.976562 207.999161,130.405609 213.770004,130.847122 
	C216.379150,131.046722 220.300415,130.052261 221.523132,128.206314 
	C222.917847,126.100746 222.759644,122.186768 221.892548,119.506317 
	C219.086380,110.831627 215.383041,102.448944 212.522980,93.789413 
	C209.618073,84.994194 204.688766,82.639763 196.205917,86.783859 
	C186.198105,91.672943 176.216339,96.615349 166.224335,101.536789 
	C160.556335,104.328499 154.776459,106.923615 149.290405,110.036331 
	C147.560028,111.018127 145.280716,113.763817 145.635590,115.039177 
	C146.147736,116.879791 148.773300,118.197090 150.626083,119.562653 
	C151.224457,120.003677 152.230209,119.887474 153.047745,120.036339 
	C167.274780,122.626892 181.501541,125.219032 196.577789,127.950302 
M353.420929,333.845428 
	C348.698792,339.219238 343.947449,344.567688 339.261963,349.973236 
	C333.410095,356.724426 329.930573,364.626953 329.351990,373.481476 
	C328.832306,381.435303 329.080780,389.443848 329.154694,397.426758 
	C329.165131,398.555786 329.851044,400.018250 330.717804,400.666840 
	C331.204712,401.031128 332.922791,400.299774 333.710114,399.623932 
	C339.009033,395.075409 344.481323,390.679260 349.368744,385.713379 
	C355.549561,379.433380 358.634949,371.509491 358.894684,362.723846 
	C359.164978,353.581055 359.037018,344.424133 358.933105,335.275116 
	C358.917969,333.944183 358.067688,332.622772 357.603882,331.296936 
	C356.373138,331.964630 355.142426,332.632324 353.420929,333.845428 
M179.577423,399.070709 
	C180.877670,399.640900 182.177902,400.211060 183.478149,400.781219 
	C183.962250,399.465027 184.842468,398.155365 184.864410,396.831512 
	C184.983047,389.680328 185.105728,382.516724 184.813782,375.374298 
	C184.443512,366.315796 181.431229,358.076935 175.611710,351.070984 
	C170.617569,345.058685 165.389847,339.236938 160.147354,333.437653 
	C159.247314,332.442017 157.756042,331.980835 156.537888,331.272736 
	C156.026688,332.725952 155.097275,334.172272 155.073257,335.633484 
	C154.933792,344.115936 154.936401,352.602661 155.026443,361.086487 
	C155.144104,372.173492 159.411789,381.437195 167.680176,388.814545 
	C171.403427,392.136566 175.235260,395.336914 179.577423,399.070709 
M235.492050,79.075813 
	C231.461060,73.785034 227.493835,68.443344 223.344666,63.246910 
	C222.525970,62.221581 221.006577,61.755741 219.810303,61.031876 
	C219.185349,62.253578 218.029770,63.474186 218.027252,64.697182 
	C218.016281,70.000374 217.808121,75.389412 218.638290,80.593025 
	C222.073090,102.122963 232.487213,120.623680 244.460098,138.388763 
	C246.399094,141.265854 248.505463,144.069778 252.520752,142.197983 
	C256.783966,140.210632 255.911072,136.689957 254.763077,133.193542 
	C249.941650,118.509209 245.209061,103.795090 240.273926,89.149162 
	C239.170090,85.873375 237.379257,82.829079 235.492050,79.075813 
M270.077026,137.587250 
	C279.994720,122.916939 288.978455,107.673622 293.120911,90.323387 
	C295.137878,81.875526 295.192810,72.948677 295.936096,64.221626 
	C296.021667,63.216969 295.041870,61.749897 294.129364,61.178127 
	C293.621735,60.860054 291.858337,61.677109 291.298187,62.446522 
	C285.831055,69.956490 278.898987,76.909233 275.468536,85.284103 
	C268.808624,101.543152 264.004150,118.575851 258.834015,135.411804 
	C258.274506,137.233780 259.795868,141.003677 261.393219,141.811676 
	C262.996948,142.622910 265.941406,140.966644 268.214081,140.155594 
	C268.855621,139.926636 269.201355,138.868759 270.077026,137.587250 
M158.299362,422.990601 
	C164.905746,430.440430 171.443527,437.953674 178.201523,445.263336 
	C179.089554,446.223816 181.413498,446.839386 182.512360,446.352020 
	C183.661957,445.842163 184.749115,443.830170 184.798508,442.436981 
	C185.010361,436.460358 185.378357,430.397766 184.605194,424.508881 
	C184.063141,420.380219 182.692719,415.684631 180.068314,412.643646 
	C174.342529,406.009003 167.709915,400.125305 161.179001,394.232697 
	C158.562500,391.871887 155.217834,393.317566 155.169098,396.848022 
	C155.050766,405.420471 153.665222,414.203125 158.299362,422.990601 
M341.223999,439.727692 
	C344.644073,436.093323 348.093353,432.485870 351.477173,428.818054 
	C356.040680,423.871429 358.657318,418.035553 358.933380,411.291077 
	C359.110107,406.972839 359.219604,402.623291 358.875824,398.326447 
	C358.739044,396.617462 357.673553,394.351532 356.323120,393.583527 
	C355.356506,393.033813 352.864227,394.157867 351.653870,395.220123 
	C346.405457,399.826355 340.941376,404.310150 336.423370,409.582001 
	C333.409973,413.098206 330.707855,417.664490 329.921295,422.123352 
	C328.723602,428.913147 329.192780,436.017670 329.239868,442.986603 
	C329.247986,444.185333 330.477997,446.107788 331.497864,446.383057 
	C332.782532,446.729736 334.703857,446.090546 335.860657,445.223328 
	C337.697418,443.846466 339.128479,441.928406 341.223999,439.727692 
M38.798752,339.499695 
	C39.530205,328.912903 39.098400,318.073853 41.323708,307.810974 
	C43.503712,297.756958 48.389141,288.289581 52.087154,278.564728 
	C51.685513,278.266388 51.283871,277.968048 50.882225,277.669678 
	C49.249790,278.853851 47.447990,279.862823 46.012451,281.250610 
	C36.840988,290.117279 31.943895,301.309357 29.120216,313.476257 
	C25.720655,328.124573 23.702158,342.750366 33.220932,356.173340 
	C34.268608,357.650726 35.825104,358.767273 37.145622,360.051147 
	C37.759335,358.355438 38.831413,356.677856 38.899300,354.960571 
	C39.089500,350.148956 38.865059,345.320953 38.798752,339.499695 
M469.624023,282.858582 
	C467.480072,281.088745 465.336151,279.318878 463.192200,277.549011 
	C462.712524,277.928650 462.232849,278.308289 461.753143,278.687897 
	C462.328461,280.434631 462.647949,282.321960 463.518829,283.906189 
	C471.640656,298.680603 475.794861,314.370209 475.168610,331.317505 
	C474.861267,339.634644 474.974091,347.970825 475.082642,356.295959 
	C475.098907,357.544159 476.135529,358.779022 476.700165,360.020050 
	C477.649933,359.520538 479.143494,359.249634 479.464539,358.485840 
	C482.343292,351.637115 487.137726,344.764832 487.345337,337.779846 
	C487.934753,317.952698 483.589813,299.052643 469.624023,282.858582 
M106.291222,310.724030 
	C101.060196,323.145447 95.829163,335.566864 90.218849,348.888916 
	C104.175003,342.043915 116.826225,311.542999 111.551102,296.794952 
	C109.616302,301.956940 108.107742,305.981750 106.291222,310.724030 
M400.878937,301.091980 
	C399.721222,320.698853 409.078644,335.446381 422.515076,348.356689 
	C422.740204,346.257019 422.235901,344.453552 421.507202,342.745789 
	C416.740997,331.576263 411.880707,320.446686 407.157257,309.259216 
	C405.865417,306.199554 405.113251,302.909363 403.782959,299.869568 
	C402.797516,297.617767 401.518829,297.375916 400.878937,301.091980 
z"/>
<path fill="#9FABCE" opacity="1.000000" stroke="none" 
	d="
M228.610840,149.404266 
	C233.605438,152.145859 238.323166,154.622086 242.930176,157.289520 
	C248.270508,160.381577 250.958099,165.140396 250.971832,171.305237 
	C251.005951,186.623520 251.101349,201.943329 250.929291,217.259811 
	C250.828491,226.233246 245.682068,232.495468 237.051910,235.236160 
	C218.188843,241.226517 199.325745,247.219040 180.512741,253.363953 
	C168.399597,257.320465 158.181396,254.596497 149.615372,245.005386 
	C145.968063,240.921570 142.587677,236.181595 138.065765,233.395996 
	C131.528076,229.368668 124.220757,226.402206 116.944702,223.820435 
	C110.885170,221.670334 109.469307,219.402893 113.158600,214.198578 
	C120.228447,204.225464 125.666847,193.564056 129.777405,181.959198 
	C134.552399,168.478561 145.310837,159.387085 156.194687,150.716919 
	C157.235443,149.887863 158.355972,149.159775 159.417603,148.355942 
	C175.836121,135.924255 193.379562,133.102097 212.358948,142.054703 
	C217.623444,144.537964 222.973984,146.838867 228.610840,149.404266 
z"/>
<path fill="#9FABCE" opacity="1.000000" stroke="none" 
	d="
M339.827881,140.030106 
	C354.552185,146.719727 366.703766,156.250992 376.248077,168.708328 
	C380.307831,174.007202 382.730713,180.557495 385.917938,186.528168 
	C390.678223,195.445633 395.174591,204.520325 400.318054,213.211639 
	C404.307739,219.953384 403.737946,222.272354 396.137482,223.840820 
	C384.033752,226.338547 374.636810,232.960403 366.563843,242.115723 
	C363.002472,246.154602 358.772156,249.907288 354.164429,252.642578 
	C348.465912,256.025391 342.215637,256.411621 335.477417,254.116028 
	C315.961700,247.467300 296.249359,241.395035 276.605988,235.122101 
	C268.299500,232.469498 263.182678,226.128265 263.080658,217.389145 
	C262.899933,201.907455 262.987518,186.422073 263.041931,170.938522 
	C263.060699,165.593765 265.167328,160.994003 269.729340,158.218262 
	C283.694519,149.721115 298.175720,142.259949 314.093048,138.018982 
	C322.754913,135.711151 331.234650,136.206131 339.827881,140.030106 
z"/>
<path fill="#FE014F" opacity="1.000000" stroke="none" 
	d="
M103.485321,130.435577 
	C126.267570,119.480156 147.538055,125.974785 170.081329,134.645218 
	C167.843063,135.468262 166.887863,135.895874 165.891037,136.174637 
	C150.276505,140.541458 139.558960,151.321823 130.225128,163.735474 
	C122.776062,173.642471 117.458626,184.630280 113.479538,196.449951 
	C111.348869,202.778992 108.167862,209.357605 103.686882,214.172729 
	C92.725601,225.951370 80.739105,236.776627 69.135132,247.954315 
	C68.599487,248.470291 67.771225,248.682465 66.333588,249.417221 
	C65.331848,242.012146 64.268478,235.180588 63.507378,228.315506 
	C61.813492,213.036728 61.552738,197.757339 64.125130,182.529526 
	C68.184120,158.501465 80.663490,140.794174 103.485321,130.435577 
z"/>
<path fill="#FE014F" opacity="1.000000" stroke="none" 
	d="
M451.620178,213.638443 
	C450.449524,225.651306 449.311829,237.195831 448.123199,249.256973 
	C446.614258,248.741714 445.933380,248.683060 445.483032,248.330200 
	C431.539948,237.405899 418.168152,225.825912 408.002502,211.178192 
	C404.553772,206.208908 401.956177,200.448120 399.966644,194.703705 
	C393.379150,175.683640 383.145294,159.093399 367.371521,146.543961 
	C361.025940,141.495468 353.224243,138.277222 346.072754,134.218903 
	C345.748169,134.473694 346.243713,133.881424 346.876190,133.618317 
	C359.264160,128.464981 371.998657,124.791077 385.557739,124.713310 
	C415.597992,124.541016 442.558746,146.738403 448.695770,177.933670 
	C450.957092,189.428207 450.739838,201.410355 451.620178,213.638443 
z"/>
<path fill="#9EAACD" opacity="1.000000" stroke="none" 
	d="
M61.058922,274.041992 
	C64.317024,260.888855 71.608185,251.514832 83.388702,245.351303 
	C87.908318,242.986664 91.804695,239.398422 95.890625,236.245361 
	C101.140511,232.194077 106.617889,233.321762 109.633324,239.306488 
	C110.292732,240.615234 110.884583,242.153595 110.866371,243.578003 
	C110.681999,258.001953 112.193184,272.454071 108.029083,286.727570 
	C102.369453,306.127380 95.974174,325.165039 85.840012,342.753326 
	C80.150139,352.628357 73.397255,361.651276 64.612900,369.056061 
	C61.599110,371.596527 58.396332,373.077698 54.546078,371.546387 
	C50.656967,369.999542 49.482330,366.614349 49.051426,362.742310 
	C47.854656,351.988159 46.537216,341.247498 45.304184,330.497284 
	C44.318005,321.899292 45.371120,313.569122 48.601032,305.509308 
	C52.749691,295.156921 56.825905,284.775513 61.058922,274.041992 
z"/>
<path fill="#9EAACD" opacity="1.000000" stroke="none" 
	d="
M422.293457,331.672302 
	C413.622162,313.515839 406.938538,294.955994 403.752045,275.533569 
	C401.995789,264.828857 402.676025,253.587662 403.380524,242.660690 
	C403.911682,234.422241 411.963043,231.665848 418.465546,236.497986 
	C426.082031,242.157944 434.024689,247.382553 441.576202,253.124374 
	C443.942413,254.923538 446.190063,257.498688 447.314728,260.207458 
	C453.441864,274.964966 459.148163,289.896545 465.107239,304.724823 
	C468.737610,313.758545 469.746857,322.999878 468.420441,332.644470 
	C467.059753,342.538300 466.038879,352.480591 464.985870,362.414062 
	C464.556335,366.466187 463.424866,370.032288 459.292999,371.606201 
	C455.414795,373.083466 452.251495,371.474152 449.259949,368.937531 
	C437.307343,358.802521 429.283295,345.848114 422.293457,331.672302 
z"/>
<path fill="#9EAACD" opacity="1.000000" stroke="none" 
	d="
M237.403381,247.433685 
	C239.354340,246.779892 240.922012,246.213669 242.524094,245.772385 
	C246.898300,244.567474 250.519318,246.627945 250.626068,251.147186 
	C250.908997,263.122406 250.833878,275.110077 250.668137,287.089569 
	C250.612976,291.077271 247.591812,292.496948 244.081863,293.447144 
	C232.382416,296.614410 220.708450,299.883850 209.084488,303.316559 
	C205.755646,304.299683 202.473267,305.691895 199.451782,307.396698 
	C196.092422,309.292206 193.537003,308.737854 191.051468,306.081757 
	C183.612106,298.131866 178.382355,288.934662 176.179092,278.269470 
	C174.399658,269.655914 176.573914,267.500977 185.431976,264.723328 
	C202.724915,259.300659 219.844452,253.324966 237.403381,247.433685 
z"/>
<path fill="#9FAACD" opacity="1.000000" stroke="none" 
	d="
M277.154694,247.810394 
	C293.469513,253.261200 309.408447,258.592529 325.349243,263.918365 
	C326.453369,264.287262 327.552826,264.697601 328.685364,264.949707 
	C337.468567,266.905060 339.849152,270.262299 337.723480,279.053253 
	C335.250305,289.281067 330.113892,298.168304 322.850037,305.811646 
	C320.277618,308.518463 317.760925,309.248810 314.042542,307.396301 
	C300.541229,300.669891 286.070679,296.839020 271.341980,293.852966 
	C263.705414,292.304718 262.885498,291.156281 262.873138,283.530518 
	C262.857452,273.871185 263.246796,264.192261 262.748077,254.558685 
	C262.359711,247.056534 266.632751,242.961731 273.948334,246.720795 
	C274.826172,247.171844 275.832489,247.372742 277.154694,247.810394 
z"/>
<path fill="#9EAACD" opacity="1.000000" stroke="none" 
	d="
M246.080475,428.614502 
	C237.179108,428.791870 228.684753,429.031647 220.200073,428.841003 
	C213.351624,428.687103 208.944061,424.262573 208.867371,417.433502 
	C208.700943,402.613647 208.701462,387.789490 208.858627,372.969452 
	C208.932327,366.019806 213.103333,361.792328 220.131134,361.544495 
	C227.948669,361.268799 235.785492,361.339661 243.608871,361.502472 
	C248.682526,361.608063 250.926376,363.898315 250.951981,368.970490 
	C251.040268,386.456604 251.154327,403.947021 250.783783,421.425781 
	C250.733231,423.810059 247.988831,426.137268 246.080475,428.614502 
z"/>
<path fill="#9EAACD" opacity="1.000000" stroke="none" 
	d="
M305.211823,416.697968 
	C304.363251,425.124420 300.501160,428.793182 292.585419,428.898865 
	C285.427612,428.994446 278.266541,428.991364 271.108704,428.897675 
	C265.299500,428.821625 263.048676,426.524200 263.028961,420.585754 
	C262.972626,403.603851 262.969452,386.621521 263.031128,369.639679 
	C263.052734,363.685181 265.192780,361.552521 271.213989,361.464386 
	C278.537781,361.357117 285.868866,361.296234 293.188873,361.499695 
	C301.011841,361.717163 305.119110,365.923767 305.183258,373.783203 
	C305.298767,387.933960 305.218842,402.086334 305.211823,416.697968 
z"/>
<path fill="#9FAACD" opacity="1.000000" stroke="none" 
	d="
M286.000061,352.032227 
	C280.170227,352.028107 274.839935,352.000061 269.509918,352.027252 
	C265.171783,352.049408 263.034180,349.873505 263.027252,345.600708 
	C263.007629,333.441315 262.975098,321.281525 263.050323,309.122559 
	C263.077118,304.787567 265.524078,302.621857 269.795197,303.072845 
	C286.207947,304.806061 300.674957,311.237610 312.763153,322.362946 
	C315.242310,324.644592 316.713043,329.057739 316.913300,332.586853 
	C317.531525,343.482300 308.833160,352.026550 297.992950,352.031860 
	C294.161896,352.033722 290.330811,352.032196 286.000061,352.032227 
z"/>
<path fill="#9FABCD" opacity="1.000000" stroke="none" 
	d="
M214.673767,312.583313 
	C224.072220,309.328552 233.033401,305.797272 242.284119,303.368927 
	C248.568192,301.719299 250.946487,304.217468 250.976700,310.632935 
	C251.029984,321.943390 251.031769,333.254517 250.974030,344.564911 
	C250.944519,350.346466 249.298019,351.984955 243.541428,352.012878 
	C233.062653,352.063690 222.582901,351.962067 212.104645,352.051361 
	C207.644638,352.089355 204.462906,350.217682 202.301132,346.415009 
	C201.150818,344.391541 199.927536,342.405640 198.863510,340.337799 
	C195.132492,333.086792 196.467697,325.791718 202.843613,320.648834 
	C206.451569,317.738617 210.506317,315.382324 214.673767,312.583313 
z"/>
<path fill="#9EAACD" opacity="1.000000" stroke="none" 
	d="
M358.992035,107.001709 
	C360.825104,107.884743 362.606628,108.324677 363.741425,109.429100 
	C365.589325,111.227547 367.014709,113.460190 368.618408,115.509598 
	C366.590912,116.939758 364.736145,119.193848 362.506805,119.661186 
	C351.278992,122.014908 339.953430,123.902283 328.662292,125.953934 
	C319.826141,127.559502 310.995789,129.197845 302.151367,130.756561 
	C298.496643,131.400635 294.742188,131.977417 292.138916,128.341385 
	C289.618103,124.820457 291.182770,121.542496 292.587219,118.017921 
	C295.844147,109.844109 298.895782,101.576294 301.677826,93.228981 
	C304.334717,85.257210 309.436768,82.715843 316.999664,86.382103 
	C330.920288,93.130371 344.770508,100.023949 358.992035,107.001709 
z"/>
<path fill="#9EAACD" opacity="1.000000" stroke="none" 
	d="
M196.153076,127.880569 
	C181.501541,125.219032 167.274780,122.626892 153.047745,120.036339 
	C152.230209,119.887474 151.224457,120.003677 150.626083,119.562653 
	C148.773300,118.197090 146.147736,116.879791 145.635590,115.039177 
	C145.280716,113.763817 147.560028,111.018127 149.290405,110.036331 
	C154.776459,106.923615 160.556335,104.328499 166.224335,101.536789 
	C176.216339,96.615349 186.198105,91.672943 196.205917,86.783859 
	C204.688766,82.639763 209.618073,84.994194 212.522980,93.789413 
	C215.383041,102.448944 219.086380,110.831627 221.892548,119.506317 
	C222.759644,122.186768 222.917847,126.100746 221.523132,128.206314 
	C220.300415,130.052261 216.379150,131.046722 213.770004,130.847122 
	C207.999161,130.405609 202.303894,128.976562 196.153076,127.880569 
z"/>
<path fill="#9EAACD" opacity="1.000000" stroke="none" 
	d="
M353.666321,333.572723 
	C355.142426,332.632324 356.373138,331.964630 357.603882,331.296936 
	C358.067688,332.622772 358.917969,333.944183 358.933105,335.275116 
	C359.037018,344.424133 359.164978,353.581055 358.894684,362.723846 
	C358.634949,371.509491 355.549561,379.433380 349.368744,385.713379 
	C344.481323,390.679260 339.009033,395.075409 333.710114,399.623932 
	C332.922791,400.299774 331.204712,401.031128 330.717804,400.666840 
	C329.851044,400.018250 329.165131,398.555786 329.154694,397.426758 
	C329.080780,389.443848 328.832306,381.435303 329.351990,373.481476 
	C329.930573,364.626953 333.410095,356.724426 339.261963,349.973236 
	C343.947449,344.567688 348.698792,339.219238 353.666321,333.572723 
z"/>
<path fill="#9EAACD" opacity="1.000000" stroke="none" 
	d="
M179.297623,398.831604 
	C175.235260,395.336914 171.403427,392.136566 167.680176,388.814545 
	C159.411789,381.437195 155.144104,372.173492 155.026443,361.086487 
	C154.936401,352.602661 154.933792,344.115936 155.073257,335.633484 
	C155.097275,334.172272 156.026688,332.725952 156.537872,331.272736 
	C157.756042,331.980835 159.247314,332.442017 160.147354,333.437653 
	C165.389847,339.236938 170.617569,345.058685 175.611710,351.070984 
	C181.431229,358.076935 184.443512,366.315796 184.813782,375.374298 
	C185.105728,382.516724 184.983047,389.680328 184.864410,396.831512 
	C184.842468,398.155365 183.962250,399.465027 183.478149,400.781219 
	C182.177902,400.211060 180.877670,399.640900 179.297623,398.831604 
z"/>
<path fill="#9EAACC" opacity="1.000000" stroke="none" 
	d="
M235.698380,79.377014 
	C237.379257,82.829079 239.170090,85.873375 240.273926,89.149162 
	C245.209061,103.795090 249.941650,118.509209 254.763077,133.193542 
	C255.911072,136.689957 256.783966,140.210632 252.520752,142.197983 
	C248.505463,144.069778 246.399094,141.265854 244.460098,138.388763 
	C232.487213,120.623680 222.073090,102.122963 218.638290,80.593025 
	C217.808121,75.389412 218.016281,70.000374 218.027252,64.697182 
	C218.029770,63.474186 219.185349,62.253578 219.810303,61.031876 
	C221.006577,61.755741 222.525970,62.221581 223.344666,63.246910 
	C227.493835,68.443344 231.461060,73.785034 235.698380,79.377014 
z"/>
<path fill="#9EAACC" opacity="1.000000" stroke="none" 
	d="
M269.879883,137.889160 
	C269.201355,138.868759 268.855621,139.926636 268.214081,140.155594 
	C265.941406,140.966644 262.996948,142.622910 261.393219,141.811676 
	C259.795868,141.003677 258.274506,137.233780 258.834015,135.411804 
	C264.004150,118.575851 268.808624,101.543152 275.468536,85.284103 
	C278.898987,76.909233 285.831055,69.956490 291.298187,62.446522 
	C291.858337,61.677109 293.621735,60.860054 294.129364,61.178127 
	C295.041870,61.749897 296.021667,63.216969 295.936096,64.221626 
	C295.192810,72.948677 295.137878,81.875526 293.120911,90.323387 
	C288.978455,107.673622 279.994720,122.916939 269.879883,137.889160 
z"/>
<path fill="#9EAACC" opacity="1.000000" stroke="none" 
	d="
M158.135773,422.650452 
	C153.665222,414.203125 155.050766,405.420471 155.169098,396.848022 
	C155.217834,393.317566 158.562500,391.871887 161.179001,394.232697 
	C167.709915,400.125305 174.342529,406.009003 180.068314,412.643646 
	C182.692719,415.684631 184.063141,420.380219 184.605194,424.508881 
	C185.378357,430.397766 185.010361,436.460358 184.798508,442.436981 
	C184.749115,443.830170 183.661957,445.842163 182.512360,446.352020 
	C181.413498,446.839386 179.089554,446.223816 178.201523,445.263336 
	C171.443527,437.953674 164.905746,430.440430 158.135773,422.650452 
z"/>
<path fill="#9EAACC" opacity="1.000000" stroke="none" 
	d="
M340.977600,439.983490 
	C339.128479,441.928406 337.697418,443.846466 335.860657,445.223328 
	C334.703857,446.090546 332.782532,446.729736 331.497864,446.383057 
	C330.477997,446.107788 329.247986,444.185333 329.239868,442.986603 
	C329.192780,436.017670 328.723602,428.913147 329.921295,422.123352 
	C330.707855,417.664490 333.409973,413.098206 336.423370,409.582001 
	C340.941376,404.310150 346.405457,399.826355 351.653870,395.220123 
	C352.864227,394.157867 355.356506,393.033813 356.323120,393.583527 
	C357.673553,394.351532 358.739044,396.617462 358.875824,398.326447 
	C359.219604,402.623291 359.110107,406.972839 358.933380,411.291077 
	C358.657318,418.035553 356.040680,423.871429 351.477173,428.818054 
	C348.093353,432.485870 344.644073,436.093323 340.977600,439.983490 
z"/>
<path fill="#9CA8CB" opacity="1.000000" stroke="none" 
	d="
M38.801483,339.999573 
	C38.865059,345.320953 39.089500,350.148956 38.899300,354.960571 
	C38.831413,356.677856 37.759335,358.355438 37.145615,360.051147 
	C35.825104,358.767273 34.268608,357.650726 33.220932,356.173340 
	C23.702158,342.750366 25.720655,328.124573 29.120216,313.476257 
	C31.943895,301.309357 36.840988,290.117279 46.012451,281.250610 
	C47.447990,279.862823 49.249790,278.853851 50.882225,277.669678 
	C51.283871,277.968048 51.685513,278.266388 52.087154,278.564728 
	C48.389141,288.289581 43.503712,297.756958 41.323708,307.810974 
	C39.098400,318.073853 39.530205,328.912903 38.801483,339.999573 
z"/>
<path fill="#9CA8CB" opacity="1.000000" stroke="none" 
	d="
M469.871094,283.116272 
	C483.589813,299.052643 487.934753,317.952698 487.345337,337.779846 
	C487.137726,344.764832 482.343292,351.637115 479.464539,358.485840 
	C479.143494,359.249634 477.649933,359.520538 476.700165,360.020050 
	C476.135529,358.779022 475.098907,357.544159 475.082642,356.295959 
	C474.974091,347.970825 474.861267,339.634644 475.168610,331.317505 
	C475.794861,314.370209 471.640656,298.680603 463.518829,283.906189 
	C462.647949,282.321960 462.328461,280.434631 461.753143,278.687897 
	C462.232849,278.308289 462.712524,277.928650 463.192200,277.549011 
	C465.336151,279.318878 467.480072,281.088745 469.871094,283.116272 
z"/>
<path fill="#9CA7CA" opacity="1.000000" stroke="none" 
	d="
M106.445206,310.365295 
	C108.107742,305.981750 109.616302,301.956940 111.551102,296.794952 
	C116.826225,311.542999 104.175003,342.043915 90.218849,348.888916 
	C95.829163,335.566864 101.060196,323.145447 106.445206,310.365295 
z"/>
<path fill="#9CA7CA" opacity="1.000000" stroke="none" 
	d="
M400.897522,300.667206 
	C401.518829,297.375916 402.797516,297.617767 403.782959,299.869568 
	C405.113251,302.909363 405.865417,306.199554 407.157257,309.259216 
	C411.880707,320.446686 416.740997,331.576263 421.507202,342.745789 
	C422.235901,344.453552 422.740204,346.257019 422.515076,348.356689 
	C409.078644,335.446381 399.721222,320.698853 400.897522,300.667206 
z"/>
</svg>