<svg version="1.1" id="Layer_1" xmlns="http://www.w3.org/2000/svg" xmlns:xlink="http://www.w3.org/1999/xlink" x="0px" y="0px"
	 width="100%" viewBox="0 0 512 512" enable-background="new 0 0 512 512" xml:space="preserve">
<path fill="#000000" opacity="1.000000" stroke="none" 
	d="
M513.000000,198.000000 
	C513.000000,303.307739 513.000000,408.115479 513.000000,512.961609 
	C342.400574,512.961609 171.801163,512.961609 1.100867,512.961609 
	C1.100867,342.442291 1.100867,171.884491 1.100867,1.163351 
	C171.666534,1.163351 342.333252,1.163351 513.000000,1.163351 
	C513.000000,66.532135 513.000000,132.016068 513.000000,198.000000 
M473.507568,271.025330 
	C467.173798,260.993256 461.139038,250.752930 454.365936,241.026794 
	C451.465942,236.862442 449.859375,233.180527 451.029633,228.098099 
	C452.096313,223.465424 452.727173,218.662323 452.911804,213.909546 
	C453.505219,198.633820 452.315521,183.508408 449.011536,168.517929 
	C443.838470,145.047684 429.908295,128.112366 409.797485,116.072853 
	C400.786499,110.678345 390.669830,107.149284 381.560394,101.896988 
	C359.534698,89.197449 337.769012,76.044029 316.011566,62.886620 
	C313.656586,61.462479 311.334412,59.116440 310.274536,56.649235 
	C309.087738,53.886562 309.453613,50.483772 308.972626,47.386120 
	C307.354034,36.963436 305.779114,26.530437 303.863251,16.161306 
	C303.579437,14.625247 301.738342,12.495171 300.294800,12.195482 
	C289.340332,9.921253 278.378662,7.299218 267.278992,6.192667 
	C248.795319,4.349989 230.659149,7.745553 212.766098,12.169845 
	C211.289856,12.534861 209.431900,14.587905 209.167145,16.103888 
	C207.239136,27.143934 205.377792,38.213402 204.102020,49.343109 
	C203.296753,56.367958 201.424622,62.076778 194.255707,64.978271 
	C190.757797,66.393990 187.452362,68.350685 184.200165,70.297035 
	C167.378204,80.364517 150.751266,90.768875 133.747025,100.516182 
	C125.051804,105.500526 115.421082,108.851913 106.721230,113.829361 
	C90.470177,123.127052 76.756317,135.286285 69.196068,152.909927 
	C61.732121,170.309052 59.898525,188.945541 59.168762,207.597275 
	C58.848118,215.792496 60.434509,224.049011 60.791630,232.293427 
	C60.881100,234.358887 60.089890,236.915817 58.790100,238.495239 
	C55.946339,241.950729 52.113945,244.613770 49.392883,248.145599 
	C32.975636,269.454468 25.597385,293.900909 25.038912,320.562347 
	C24.847002,329.724091 25.843287,338.990845 24.785755,348.032928 
	C23.608423,358.099304 27.643744,364.855560 35.059677,370.536865 
	C36.763992,371.842499 38.510368,373.118073 40.066639,374.588226 
	C53.229816,387.022919 66.342690,399.510803 79.495811,411.956177 
	C83.127029,415.392029 86.809715,414.856964 89.174950,410.492706 
	C99.825485,390.840668 106.329140,370.073425 106.021309,347.478607 
	C105.996933,345.689331 105.742905,343.430145 106.665901,342.178802 
	C112.090836,334.824249 117.833618,327.704163 123.739876,320.159363 
	C126.727631,324.684296 128.764374,328.954742 131.851837,332.236786 
	C144.320724,345.491394 146.776978,360.985992 143.888290,378.317474 
	C140.351135,399.539703 134.292206,420.497864 136.894745,442.458954 
	C137.634842,448.704224 136.752563,455.125549 137.106384,461.438538 
	C137.339508,465.598145 137.173584,470.280609 141.644073,472.823914 
	C146.082062,475.348755 150.485870,477.990784 155.126862,480.090240 
	C165.781326,484.910065 176.456985,489.719910 187.330368,494.011047 
	C207.849075,502.108673 229.052856,508.040771 251.165070,508.732819 
	C262.470001,509.086609 274.039520,507.809387 285.169128,505.631989 
	C315.576874,499.682983 343.717041,487.408234 371.027710,473.057648 
	C374.872528,471.037384 375.780731,467.904968 375.928497,464.292175 
	C376.389862,453.010864 377.649994,441.641327 376.752045,430.454376 
	C375.489349,414.723877 372.538544,399.130554 370.367065,383.470612 
	C369.125397,374.516052 367.012787,365.744110 368.638824,356.443665 
	C371.210327,341.735779 382.169312,332.226685 389.334900,319.981659 
	C394.741852,326.864105 399.981171,333.235046 404.825317,339.893494 
	C406.158508,341.726013 406.709015,344.379578 406.929962,346.721436 
	C407.536499,353.150269 407.280548,359.690216 408.260986,366.048157 
	C410.671783,381.682007 416.179718,396.324432 423.637970,410.254608 
	C425.950684,414.574219 429.723999,415.464813 433.232666,412.203827 
	C439.544495,406.337494 445.782715,400.391510 452.020172,394.445740 
	C461.271606,385.626892 470.589600,376.874176 479.669769,367.881775 
	C482.155365,365.420166 485.631775,362.234589 485.684387,359.327484 
	C485.972748,343.399994 485.900391,327.418549 484.848938,311.528564 
	C483.930176,297.643555 479.859894,284.328125 473.507568,271.025330 
z"/>
<path fill="#4A506A" opacity="1.000000" stroke="none" 
	d="
M473.695923,271.354065 
	C479.859894,284.328125 483.930176,297.643555 484.848938,311.528564 
	C485.900391,327.418549 485.972748,343.399994 485.684387,359.327484 
	C485.631775,362.234589 482.155365,365.420166 479.669769,367.881775 
	C470.589600,376.874176 461.271606,385.626892 452.020172,394.445740 
	C445.782715,400.391510 439.544495,406.337494 433.232666,412.203827 
	C429.723999,415.464813 425.950684,414.574219 423.637970,410.254608 
	C416.179718,396.324432 410.671783,381.682007 408.260986,366.048157 
	C407.280548,359.690216 407.536499,353.150269 406.929962,346.721436 
	C406.709015,344.379578 406.158508,341.726013 404.825317,339.893494 
	C399.981171,333.235046 394.741852,326.864105 389.334900,319.981659 
	C382.169312,332.226685 371.210327,341.735779 368.638824,356.443665 
	C367.012787,365.744110 369.125397,374.516052 370.367065,383.470612 
	C372.538544,399.130554 375.489349,414.723877 376.752045,430.454376 
	C377.649994,441.641327 376.389862,453.010864 375.928497,464.292175 
	C375.780731,467.904968 374.872528,471.037384 371.027710,473.057648 
	C343.717041,487.408234 315.576874,499.682983 285.169128,505.631989 
	C274.039520,507.809387 262.470001,509.086609 251.165070,508.732819 
	C229.052856,508.040771 207.849075,502.108673 187.330368,494.011047 
	C176.456985,489.719910 165.781326,484.910065 155.126862,480.090240 
	C150.485870,477.990784 146.082062,475.348755 141.644073,472.823914 
	C137.173584,470.280609 137.339508,465.598145 137.106384,461.438538 
	C136.752563,455.125549 137.634842,448.704224 136.894745,442.458954 
	C134.292206,420.497864 140.351135,399.539703 143.888290,378.317474 
	C146.776978,360.985992 144.320724,345.491394 131.851837,332.236786 
	C128.764374,328.954742 126.727631,324.684296 123.739876,320.159363 
	C117.833618,327.704163 112.090836,334.824249 106.665901,342.178802 
	C105.742905,343.430145 105.996933,345.689331 106.021309,347.478607 
	C106.329140,370.073425 99.825485,390.840668 89.174950,410.492706 
	C86.809715,414.856964 83.127029,415.392029 79.495811,411.956177 
	C66.342690,399.510803 53.229816,387.022919 40.066639,374.588226 
	C38.510368,373.118073 36.763992,371.842499 35.059677,370.536865 
	C27.643744,364.855560 23.608423,358.099304 24.785755,348.032928 
	C25.843287,338.990845 24.847002,329.724091 25.038912,320.562347 
	C25.597385,293.900909 32.975636,269.454468 49.392883,248.145599 
	C52.113945,244.613770 55.946339,241.950729 58.790100,238.495239 
	C60.089890,236.915817 60.881100,234.358887 60.791630,232.293427 
	C60.434509,224.049011 58.848118,215.792496 59.168762,207.597275 
	C59.898525,188.945541 61.732121,170.309052 69.196068,152.909927 
	C76.756317,135.286285 90.470177,123.127052 106.721230,113.829361 
	C115.421082,108.851913 125.051804,105.500526 133.747025,100.516182 
	C150.751266,90.768875 167.378204,80.364517 184.200165,70.297035 
	C187.452362,68.350685 190.757797,66.393990 194.255707,64.978271 
	C201.424622,62.076778 203.296753,56.367958 204.102020,49.343109 
	C205.377792,38.213402 207.239136,27.143934 209.167145,16.103888 
	C209.431900,14.587905 211.289856,12.534861 212.766098,12.169845 
	C230.659149,7.745553 248.795319,4.349989 267.278992,6.192667 
	C278.378662,7.299218 289.340332,9.921253 300.294800,12.195482 
	C301.738342,12.495171 303.579437,14.625247 303.863251,16.161306 
	C305.779114,26.530437 307.354034,36.963436 308.972626,47.386120 
	C309.453613,50.483772 309.087738,53.886562 310.274536,56.649235 
	C311.334412,59.116440 313.656586,61.462479 316.011566,62.886620 
	C337.769012,76.044029 359.534698,89.197449 381.560394,101.896988 
	C390.669830,107.149284 400.786499,110.678345 409.797485,116.072853 
	C429.908295,128.112366 443.838470,145.047684 449.011536,168.517929 
	C452.315521,183.508408 453.505219,198.633820 452.911804,213.909546 
	C452.727173,218.662323 452.096313,223.465424 451.029633,228.098099 
	C449.859375,233.180527 451.465942,236.862442 454.365936,241.026794 
	C461.139038,250.752930 467.173798,260.993256 473.695923,271.354065 
M259.988098,303.928436 
	C262.113800,308.317505 263.559479,308.373749 266.678070,303.867767 
	C283.548096,279.492432 300.567841,255.215485 316.997314,230.545883 
	C319.612915,226.618439 320.727448,220.793701 320.422058,215.980240 
	C319.337616,198.888794 319.908020,181.993027 324.160889,165.390259 
	C329.528320,144.436508 339.661591,126.891289 359.945801,116.726624 
	C362.596802,115.398186 365.611542,112.700165 366.314789,110.064682 
	C367.407288,105.970551 363.209229,104.396988 360.127777,102.752785 
	C342.794678,93.504196 325.413483,84.343849 308.169067,74.932785 
	C305.518768,73.486382 303.037598,71.228294 301.252716,68.780777 
	C290.949432,54.652626 280.981415,40.279213 270.609467,26.202820 
	C269.191010,24.277727 266.064270,22.367838 263.883728,22.530664 
	C260.353455,22.794277 259.896881,26.300903 259.913452,29.524691 
	C259.981079,42.683399 259.855194,55.843731 260.003235,69.001190 
	C260.120819,79.452789 263.983154,88.481926 271.265808,95.973785 
	C273.687195,98.464737 276.366364,100.705162 279.165710,103.278969 
	C277.439819,104.869194 276.309662,106.087715 275.008087,107.081848 
	C264.259003,115.291954 259.778046,126.126366 259.837036,139.630997 
	C260.075012,194.098694 259.946106,248.567978 259.988098,303.928436 
M196.835007,234.663589 
	C212.631500,257.564697 228.396255,280.487915 244.294067,303.318512 
	C245.383987,304.883728 247.469254,305.755829 249.091629,306.950256 
	C249.837494,305.117065 251.231308,303.285187 251.235046,301.450500 
	C251.346863,246.631561 251.304916,191.812332 251.330048,136.993164 
	C251.335449,125.212471 246.740158,115.701988 237.681534,108.254845 
	C235.947754,106.829491 234.322952,105.271591 232.208588,103.382332 
	C235.026825,100.758827 237.402618,98.683403 239.623520,96.453682 
	C245.815430,90.237236 250.318039,82.770164 250.738403,74.074982 
	C251.485825,58.614735 251.271667,43.100586 251.094986,27.613148 
	C251.074631,25.829090 249.066071,23.245251 247.364578,22.561068 
	C245.984283,22.006044 243.514297,23.488005 241.842972,24.558731 
	C240.666321,25.312551 240.006454,26.883247 239.136398,28.103863 
	C229.466568,41.669868 219.906036,55.316086 210.045151,68.741722 
	C208.067139,71.434814 205.249695,73.840134 202.309677,75.443878 
	C184.765640,85.013939 167.015533,94.207039 149.503616,103.834091 
	C147.413803,104.982941 145.395660,107.882050 145.123764,110.180389 
	C144.923798,111.870697 147.225891,114.799225 149.103546,115.647507 
	C168.115341,124.236588 178.933563,139.546066 185.185669,158.719940 
	C191.064850,176.750092 192.162430,195.334122 190.778671,214.055878 
	C190.217667,221.646011 191.477768,228.257172 196.835007,234.663589 
M279.474640,326.013947 
	C280.701904,327.375671 281.930084,328.736511 283.156219,330.099243 
	C300.099487,348.929291 317.026489,367.774078 334.024963,386.554108 
	C335.051056,387.687744 336.646576,388.305969 337.977081,389.164001 
	C338.688934,387.792419 339.561890,386.479340 340.084900,385.039185 
	C342.350708,378.799988 343.801605,372.147217 346.868042,366.341644 
	C352.695190,355.309296 359.152954,344.581268 365.836426,334.035919 
	C380.332672,311.163513 387.446045,286.246796 387.612457,259.244751 
	C387.652557,252.740036 385.138855,249.135757 379.188507,247.323425 
	C365.017883,243.007385 350.856567,238.660599 336.702759,234.289627 
	C330.218414,232.287140 326.186279,233.441483 322.382477,238.947525 
	C306.565704,261.842285 290.793121,284.767761 275.074066,307.729675 
	C271.193756,313.397858 271.768738,317.910614 276.605988,322.928955 
	C277.415344,323.768585 278.204773,324.627411 279.474640,326.013947 
M187.064804,375.565430 
	C203.234955,357.388824 219.400330,339.207977 235.578613,321.038574 
	C239.577057,316.548035 239.994354,312.182251 236.367004,306.956940 
	C220.499557,284.099426 204.571640,261.283691 188.583206,238.510651 
	C185.159332,233.633865 181.072403,232.340881 175.503906,234.033447 
	C160.854752,238.486084 146.221115,242.989960 131.592361,247.509277 
	C126.358696,249.126144 123.804497,252.337128 123.820457,257.785339 
	C123.881172,278.507416 126.794327,298.703583 136.490128,317.323151 
	C141.561111,327.061340 147.282227,336.467010 152.865372,345.931030 
	C160.472473,358.825836 169.018311,371.248566 171.418610,386.548126 
	C171.960754,390.003845 174.097000,390.057556 176.283264,387.664062 
	C179.766907,383.850189 183.163742,379.957031 187.064804,375.565430 
M262.847595,491.018738 
	C264.959808,490.435028 267.425262,490.352722 269.111694,489.164673 
	C272.771210,486.586609 276.152985,483.572357 279.435272,480.508240 
	C291.657837,469.098267 305.581543,461.915466 322.731903,461.531738 
	C329.813965,461.373291 333.634735,457.052216 334.113525,450.026245 
	C335.075500,435.910278 336.182953,421.790253 336.519531,407.654938 
	C336.610352,403.841797 335.168060,399.071991 332.698669,396.262878 
	C311.926270,372.633240 290.798676,349.314209 269.596283,326.067505 
	C268.096771,324.423462 264.937469,323.082397 262.956482,323.505219 
	C261.588074,323.797241 260.070648,327.370361 260.064178,329.481659 
	C259.905243,381.262451 259.916718,433.043854 260.031067,484.824860 
	C260.035339,486.764038 261.376160,488.700287 262.847595,491.018738 
M251.338730,366.500122 
	C251.338379,355.171112 251.410629,343.841309 251.292740,332.513519 
	C251.258102,329.185181 252.564926,324.981659 248.341812,323.252289 
	C243.740631,321.368103 241.909393,325.692383 239.601120,328.249969 
	C219.845505,350.139557 200.285263,372.206573 180.399597,393.976654 
	C176.382217,398.374695 174.351288,402.879913 174.727539,408.760406 
	C175.578400,422.058319 176.262512,435.367035 176.989883,448.672668 
	C177.449310,457.076294 181.271057,461.380280 189.675781,461.661377 
	C204.894775,462.170410 217.734924,467.973053 228.932922,477.995300 
	C233.276474,481.882812 237.628967,485.793457 242.290237,489.274689 
	C243.897263,490.474915 246.752869,491.253906 248.481232,490.644897 
	C249.861084,490.158661 250.670975,487.353058 251.219193,485.430176 
	C251.659256,483.886658 251.336868,482.123077 251.336945,480.457153 
	C251.338928,442.804840 251.338715,405.152496 251.338730,366.500122 
M67.867630,175.495300 
	C64.959740,190.806534 65.983879,206.011414 69.289078,221.113968 
	C70.943741,228.674667 75.498077,229.950424 81.510559,224.761002 
	C89.704796,217.688446 97.789398,210.482239 106.146881,203.607941 
	C111.150032,199.492706 114.440262,194.650711 115.380882,188.185226 
	C117.441658,174.020050 125.316223,163.937088 138.028458,157.929321 
	C146.277557,154.030823 155.034378,151.217545 163.502655,147.768143 
	C169.228897,145.435638 169.894394,143.559402 166.656464,138.404968 
	C157.528687,123.874550 143.580353,116.630249 127.279221,113.781937 
	C123.346367,113.094734 118.535843,114.404007 114.786575,116.181961 
	C89.783722,128.038742 73.470245,147.059387 67.867630,175.495300 
M355.792999,150.703247 
	C362.254883,153.354614 368.946472,155.560913 375.129669,158.752228 
	C387.114136,164.937653 394.185364,174.665787 396.395905,188.357773 
	C397.181213,193.222076 400.135925,198.506500 403.677338,202.000870 
	C411.959106,210.172623 421.179779,217.395401 430.051086,224.966278 
	C435.995789,230.039459 440.424194,228.536209 441.994537,220.733124 
	C443.110016,215.190125 444.132019,209.587006 444.597443,203.961212 
	C447.734833,166.038422 433.699493,134.336670 397.377625,116.436142 
	C391.267426,113.424835 384.826355,112.203201 378.514038,114.668968 
	C371.267914,117.499535 363.849152,120.518066 357.546082,124.938782 
	C352.268890,128.639999 348.280426,134.306976 344.120789,139.428009 
	C341.379120,142.803360 342.707184,145.650665 346.668762,147.215027 
	C349.454681,148.315155 352.266144,149.350555 355.792999,150.703247 
M182.750763,208.097107 
	C183.773865,192.172302 182.134766,176.490051 178.324280,161.027390 
	C176.633087,154.164734 173.074478,152.202744 166.598862,154.472427 
	C159.844589,156.839767 152.990814,159.006851 146.443176,161.863510 
	C130.219040,168.941925 121.698730,181.618881 121.074799,199.250595 
	C120.668503,210.732010 120.928123,222.237915 120.937996,233.732819 
	C120.944702,241.552078 124.237419,243.928772 131.720093,241.442673 
	C142.935272,237.716431 153.932709,233.142593 165.365799,230.317734 
	C177.084320,227.422333 183.647934,221.614380 182.750763,208.097107 
M329.364594,180.000275 
	C329.327240,191.964355 329.184967,203.929398 329.296844,215.892090 
	C329.352875,221.883789 332.378021,225.627701 338.309967,227.536011 
	C352.251862,232.021103 366.050568,236.949310 379.943695,241.588974 
	C386.848511,243.894867 390.277466,241.469452 390.301239,234.299377 
	C390.340424,222.472382 390.398590,210.641434 390.149811,198.818451 
	C389.790253,181.731827 379.548615,167.337677 363.553802,161.196854 
	C357.183960,158.751282 350.730774,156.515610 344.273987,154.305679 
	C338.412262,152.299408 334.509003,154.354034 333.091370,160.488403 
	C331.668640,166.644958 330.690765,172.904343 329.364594,180.000275 
M429.762695,293.565216 
	C429.610718,266.616516 421.831238,242.140976 405.980988,220.289566 
	C404.613708,218.404587 403.360077,216.359848 401.664520,214.816940 
	C400.500214,213.757462 398.661865,213.438766 397.124817,212.788940 
	C396.490265,214.358276 395.781158,215.903442 395.260468,217.509659 
	C395.071014,218.094070 395.340668,218.823364 395.383759,219.487656 
	C396.633789,238.770569 397.543945,258.031128 394.223541,277.244507 
	C393.672729,280.431671 393.956207,283.949432 394.660706,287.136139 
	C398.600372,304.957550 408.971283,319.168762 420.942871,332.317474 
	C425.065125,336.845001 429.792847,340.878723 434.603882,344.682800 
	C435.865662,345.680511 438.918884,345.694885 440.321991,344.825470 
	C441.442139,344.131439 441.674530,341.396362 441.614716,339.589996 
	C441.562653,338.016693 440.581543,336.462738 439.958405,334.921509 
	C434.701630,321.919403 430.154236,308.740540 429.762695,293.565216 
M106.770561,218.290176 
	C92.653809,237.114960 83.367355,258.118774 82.319702,281.655914 
	C81.454895,301.085266 78.243324,319.632843 70.387276,337.391388 
	C69.243805,339.976166 67.922935,342.802460 70.919594,345.081970 
	C73.911133,347.357544 76.260498,345.369690 78.456207,343.544586 
	C93.818871,330.775299 106.146141,315.556793 113.542557,296.946899 
	C115.978493,290.817902 117.549332,283.509369 116.745941,277.086670 
	C114.414108,258.444855 114.601852,239.899673 115.693527,221.251862 
	C115.858131,218.440109 114.530724,215.541016 113.893486,212.682312 
	C111.659752,214.360397 109.426025,216.038483 106.770561,218.290176 
M68.188568,297.588043 
	C73.129211,290.262665 73.038757,281.498291 75.308693,273.400635 
	C78.797363,260.955322 83.461258,248.842712 87.411934,236.520157 
	C87.987823,234.723938 87.377220,232.547333 87.315620,230.546738 
	C85.221283,230.868820 82.751564,230.597443 81.110229,231.635666 
	C77.619370,233.843842 74.413589,236.572952 71.345062,239.367569 
	C42.988605,265.192657 31.571009,297.533447 34.906147,335.356873 
	C35.097965,337.532257 37.031258,340.520874 38.903309,341.277679 
	C40.421841,341.891632 43.921417,340.313843 45.061279,338.676819 
	C49.483459,332.325989 53.532593,325.685059 57.303291,318.919495 
	C61.068230,312.164307 64.333817,305.130768 68.188568,297.588043 
M425.536163,229.789795 
	C421.206451,231.528397 422.924927,234.544113 424.101074,237.248383 
	C430.366516,251.654022 435.492615,266.388977 437.528381,282.059448 
	C438.497162,289.516754 441.773041,295.901428 446.066223,302.032837 
	C448.883423,306.056305 451.348419,310.618530 452.709351,315.305817 
	C455.189636,323.848206 459.171417,331.399841 465.293823,337.694580 
	C467.123169,339.575409 470.650238,341.715332 472.539642,341.099304 
	C474.494324,340.461975 476.448730,336.688782 476.615143,334.169189 
	C479.398834,292.024536 464.957764,257.483093 430.707001,231.920380 
	C429.418274,230.958557 427.803711,230.433289 425.536163,229.789795 
M148.386017,452.923889 
	C149.880814,460.612000 151.448334,461.815948 159.109543,461.176788 
	C160.602158,461.052277 162.107452,461.030670 163.588730,460.828522 
	C169.325363,460.045502 171.396851,457.425842 170.540009,451.627777 
	C167.744492,432.711395 165.006699,413.784149 161.928360,394.912994 
	C160.499954,386.156433 158.336594,377.519745 156.506409,368.828735 
	C154.370071,374.397797 153.385849,379.875000 152.492081,385.366913 
	C148.895157,407.468445 142.943054,429.423065 148.386017,452.923889 
M349.108002,395.661926 
	C346.331909,414.404572 343.470856,433.135254 340.829529,451.896881 
	C339.996735,457.812439 342.076904,460.127319 347.974609,460.862976 
	C349.293457,461.027466 350.629700,461.047302 351.955933,461.158081 
	C360.029510,461.832245 361.554047,460.186005 363.051849,452.146362 
	C366.153046,435.500397 365.205933,419.093719 361.799866,402.616669 
	C359.472534,391.358185 357.849243,379.954163 355.911163,368.615204 
	C355.547546,368.609009 355.183929,368.602844 354.820312,368.596680 
	C352.965179,377.339020 351.110046,386.081360 349.108002,395.661926 
z"/>
<path fill="#9FABCE" opacity="1.000000" stroke="none" 
	d="
M259.970398,303.482544 
	C259.946106,248.567978 260.075012,194.098694 259.837036,139.630997 
	C259.778046,126.126366 264.259003,115.291954 275.008087,107.081848 
	C276.309662,106.087715 277.439819,104.869194 279.165710,103.278969 
	C276.366364,100.705162 273.687195,98.464737 271.265808,95.973785 
	C263.983154,88.481926 260.120819,79.452789 260.003235,69.001190 
	C259.855194,55.843731 259.981079,42.683399 259.913452,29.524691 
	C259.896881,26.300903 260.353455,22.794277 263.883728,22.530664 
	C266.064270,22.367838 269.191010,24.277727 270.609467,26.202820 
	C280.981415,40.279213 290.949432,54.652626 301.252716,68.780777 
	C303.037598,71.228294 305.518768,73.486382 308.169067,74.932785 
	C325.413483,84.343849 342.794678,93.504196 360.127777,102.752785 
	C363.209229,104.396988 367.407288,105.970551 366.314789,110.064682 
	C365.611542,112.700165 362.596802,115.398186 359.945801,116.726624 
	C339.661591,126.891289 329.528320,144.436508 324.160889,165.390259 
	C319.908020,181.993027 319.337616,198.888794 320.422058,215.980240 
	C320.727448,220.793701 319.612915,226.618439 316.997314,230.545883 
	C300.567841,255.215485 283.548096,279.492432 266.678070,303.867767 
	C263.559479,308.373749 262.113800,308.317505 259.970398,303.482544 
z"/>
<path fill="#9FABCE" opacity="1.000000" stroke="none" 
	d="
M196.623871,234.368454 
	C191.477768,228.257172 190.217667,221.646011 190.778671,214.055878 
	C192.162430,195.334122 191.064850,176.750092 185.185669,158.719940 
	C178.933563,139.546066 168.115341,124.236588 149.103546,115.647507 
	C147.225891,114.799225 144.923798,111.870697 145.123764,110.180389 
	C145.395660,107.882050 147.413803,104.982941 149.503616,103.834091 
	C167.015533,94.207039 184.765640,85.013939 202.309677,75.443878 
	C205.249695,73.840134 208.067139,71.434814 210.045151,68.741722 
	C219.906036,55.316086 229.466568,41.669868 239.136398,28.103863 
	C240.006454,26.883247 240.666321,25.312551 241.842972,24.558731 
	C243.514297,23.488005 245.984283,22.006044 247.364578,22.561068 
	C249.066071,23.245251 251.074631,25.829090 251.094986,27.613148 
	C251.271667,43.100586 251.485825,58.614735 250.738403,74.074982 
	C250.318039,82.770164 245.815430,90.237236 239.623520,96.453682 
	C237.402618,98.683403 235.026825,100.758827 232.208588,103.382332 
	C234.322952,105.271591 235.947754,106.829491 237.681534,108.254845 
	C246.740158,115.701988 251.335449,125.212471 251.330048,136.993164 
	C251.304916,191.812332 251.346863,246.631561 251.235046,301.450500 
	C251.231308,303.285187 249.837494,305.117065 249.091629,306.950256 
	C247.469254,305.755829 245.383987,304.883728 244.294067,303.318512 
	C228.396255,280.487915 212.631500,257.564697 196.623871,234.368454 
z"/>
<path fill="#9FABCE" opacity="1.000000" stroke="none" 
	d="
M279.239014,325.745667 
	C278.204773,324.627411 277.415344,323.768585 276.605988,322.928955 
	C271.768738,317.910614 271.193756,313.397858 275.074066,307.729675 
	C290.793121,284.767761 306.565704,261.842285 322.382477,238.947525 
	C326.186279,233.441483 330.218414,232.287140 336.702759,234.289627 
	C350.856567,238.660599 365.017883,243.007385 379.188507,247.323425 
	C385.138855,249.135757 387.652557,252.740036 387.612457,259.244751 
	C387.446045,286.246796 380.332672,311.163513 365.836426,334.035919 
	C359.152954,344.581268 352.695190,355.309296 346.868042,366.341644 
	C343.801605,372.147217 342.350708,378.799988 340.084900,385.039185 
	C339.561890,386.479340 338.688934,387.792419 337.977112,389.164001 
	C336.646576,388.305969 335.051056,387.687744 334.024963,386.554108 
	C317.026489,367.774078 300.099487,348.929291 283.156219,330.099243 
	C281.930084,328.736511 280.701904,327.375671 279.239014,325.745667 
z"/>
<path fill="#9FABCE" opacity="1.000000" stroke="none" 
	d="
M186.831055,375.831421 
	C183.163742,379.957031 179.766907,383.850189 176.283264,387.664062 
	C174.097000,390.057556 171.960754,390.003845 171.418610,386.548126 
	C169.018311,371.248566 160.472473,358.825836 152.865372,345.931030 
	C147.282227,336.467010 141.561111,327.061340 136.490128,317.323151 
	C126.794327,298.703583 123.881172,278.507416 123.820457,257.785339 
	C123.804497,252.337128 126.358696,249.126144 131.592361,247.509277 
	C146.221115,242.989960 160.854752,238.486084 175.503906,234.033447 
	C181.072403,232.340881 185.159332,233.633865 188.583206,238.510651 
	C204.571640,261.283691 220.499557,284.099426 236.367004,306.956940 
	C239.994354,312.182251 239.577057,316.548035 235.578613,321.038574 
	C219.400330,339.207977 203.234955,357.388824 186.831055,375.831421 
z"/>
<path fill="#9FABCE" opacity="1.000000" stroke="none" 
	d="
M262.470886,490.828308 
	C261.376160,488.700287 260.035339,486.764038 260.031067,484.824860 
	C259.916718,433.043854 259.905243,381.262451 260.064178,329.481659 
	C260.070648,327.370361 261.588074,323.797241 262.956482,323.505219 
	C264.937469,323.082397 268.096771,324.423462 269.596283,326.067505 
	C290.798676,349.314209 311.926270,372.633240 332.698669,396.262878 
	C335.168060,399.071991 336.610352,403.841797 336.519531,407.654938 
	C336.182953,421.790253 335.075500,435.910278 334.113525,450.026245 
	C333.634735,457.052216 329.813965,461.373291 322.731903,461.531738 
	C305.581543,461.915466 291.657837,469.098267 279.435272,480.508240 
	C276.152985,483.572357 272.771210,486.586609 269.111694,489.164673 
	C267.425262,490.352722 264.959808,490.435028 262.470886,490.828308 
z"/>
<path fill="#9FABCE" opacity="1.000000" stroke="none" 
	d="
M251.338806,367.000153 
	C251.338715,405.152496 251.338928,442.804840 251.336945,480.457153 
	C251.336868,482.123077 251.659256,483.886658 251.219193,485.430176 
	C250.670975,487.353058 249.861084,490.158661 248.481232,490.644897 
	C246.752869,491.253906 243.897263,490.474915 242.290237,489.274689 
	C237.628967,485.793457 233.276474,481.882812 228.932922,477.995300 
	C217.734924,467.973053 204.894775,462.170410 189.675781,461.661377 
	C181.271057,461.380280 177.449310,457.076294 176.989883,448.672668 
	C176.262512,435.367035 175.578400,422.058319 174.727539,408.760406 
	C174.351288,402.879913 176.382217,398.374695 180.399597,393.976654 
	C200.285263,372.206573 219.845505,350.139557 239.601120,328.249969 
	C241.909393,325.692383 243.740631,321.368103 248.341812,323.252289 
	C252.564926,324.981659 251.258102,329.185181 251.292740,332.513519 
	C251.410629,343.841309 251.338379,355.171112 251.338806,367.000153 
z"/>
<path fill="#9EAACD" opacity="1.000000" stroke="none" 
	d="
M67.930191,175.070633 
	C73.470245,147.059387 89.783722,128.038742 114.786575,116.181961 
	C118.535843,114.404007 123.346367,113.094734 127.279221,113.781937 
	C143.580353,116.630249 157.528687,123.874550 166.656464,138.404968 
	C169.894394,143.559402 169.228897,145.435638 163.502655,147.768143 
	C155.034378,151.217545 146.277557,154.030823 138.028458,157.929321 
	C125.316223,163.937088 117.441658,174.020050 115.380882,188.185226 
	C114.440262,194.650711 111.150032,199.492706 106.146881,203.607941 
	C97.789398,210.482239 89.704796,217.688446 81.510559,224.761002 
	C75.498077,229.950424 70.943741,228.674667 69.289078,221.113968 
	C65.983879,206.011414 64.959740,190.806534 67.930191,175.070633 
z"/>
<path fill="#9EAACD" opacity="1.000000" stroke="none" 
	d="
M355.429626,150.559052 
	C352.266144,149.350555 349.454681,148.315155 346.668762,147.215027 
	C342.707184,145.650665 341.379120,142.803360 344.120789,139.428009 
	C348.280426,134.306976 352.268890,128.639999 357.546082,124.938782 
	C363.849152,120.518066 371.267914,117.499535 378.514038,114.668968 
	C384.826355,112.203201 391.267426,113.424835 397.377625,116.436142 
	C433.699493,134.336670 447.734833,166.038422 444.597443,203.961212 
	C444.132019,209.587006 443.110016,215.190125 441.994537,220.733124 
	C440.424194,228.536209 435.995789,230.039459 430.051086,224.966278 
	C421.179779,217.395401 411.959106,210.172623 403.677338,202.000870 
	C400.135925,198.506500 397.181213,193.222076 396.395905,188.357773 
	C394.185364,174.665787 387.114136,164.937653 375.129669,158.752228 
	C368.946472,155.560913 362.254883,153.354614 355.429626,150.559052 
z"/>
<path fill="#9EAACD" opacity="1.000000" stroke="none" 
	d="
M182.712906,208.558533 
	C183.647934,221.614380 177.084320,227.422333 165.365799,230.317734 
	C153.932709,233.142593 142.935272,237.716431 131.720093,241.442673 
	C124.237419,243.928772 120.944702,241.552078 120.937996,233.732819 
	C120.928123,222.237915 120.668503,210.732010 121.074799,199.250595 
	C121.698730,181.618881 130.219040,168.941925 146.443176,161.863510 
	C152.990814,159.006851 159.844589,156.839767 166.598862,154.472427 
	C173.074478,152.202744 176.633087,154.164734 178.324280,161.027390 
	C182.134766,176.490051 183.773865,192.172302 182.712906,208.558533 
z"/>
<path fill="#9EAACD" opacity="1.000000" stroke="none" 
	d="
M329.441223,179.559464 
	C330.690765,172.904343 331.668640,166.644958 333.091370,160.488403 
	C334.509003,154.354034 338.412262,152.299408 344.273987,154.305679 
	C350.730774,156.515610 357.183960,158.751282 363.553802,161.196854 
	C379.548615,167.337677 389.790253,181.731827 390.149811,198.818451 
	C390.398590,210.641434 390.340424,222.472382 390.301239,234.299377 
	C390.277466,241.469452 386.848511,243.894867 379.943695,241.588974 
	C366.050568,236.949310 352.251862,232.021103 338.309967,227.536011 
	C332.378021,225.627701 329.352875,221.883789 329.296844,215.892090 
	C329.184967,203.929398 329.327240,191.964355 329.441223,179.559464 
z"/>
<path fill="#FD014F" opacity="1.000000" stroke="none" 
	d="
M429.775879,294.036713 
	C430.154236,308.740540 434.701630,321.919403 439.958405,334.921509 
	C440.581543,336.462738 441.562653,338.016693 441.614716,339.589996 
	C441.674530,341.396362 441.442139,344.131439 440.321991,344.825470 
	C438.918884,345.694885 435.865662,345.680511 434.603882,344.682800 
	C429.792847,340.878723 425.065125,336.845001 420.942871,332.317474 
	C408.971283,319.168762 398.600372,304.957550 394.660706,287.136139 
	C393.956207,283.949432 393.672729,280.431671 394.223541,277.244507 
	C397.543945,258.031128 396.633789,238.770569 395.383759,219.487656 
	C395.340668,218.823364 395.071014,218.094070 395.260468,217.509659 
	C395.781158,215.903442 396.490265,214.358276 397.124817,212.788940 
	C398.661865,213.438766 400.500214,213.757462 401.664520,214.816940 
	C403.360077,216.359848 404.613708,218.404587 405.980988,220.289566 
	C421.831238,242.140976 429.610718,266.616516 429.775879,294.036713 
z"/>
<path fill="#FD014F" opacity="1.000000" stroke="none" 
	d="
M106.981430,218.003372 
	C109.426025,216.038483 111.659752,214.360397 113.893478,212.682312 
	C114.530724,215.541016 115.858131,218.440109 115.693527,221.251862 
	C114.601852,239.899673 114.414108,258.444855 116.745941,277.086670 
	C117.549332,283.509369 115.978493,290.817902 113.542557,296.946899 
	C106.146141,315.556793 93.818871,330.775299 78.456207,343.544586 
	C76.260498,345.369690 73.911133,347.357544 70.919594,345.081970 
	C67.922935,342.802460 69.243805,339.976166 70.387276,337.391388 
	C78.243324,319.632843 81.454895,301.085266 82.319702,281.655914 
	C83.367355,258.118774 92.653809,237.114960 106.981430,218.003372 
z"/>
<path fill="#FD014F" opacity="1.000000" stroke="none" 
	d="
M68.003433,297.903656 
	C64.333817,305.130768 61.068230,312.164307 57.303291,318.919495 
	C53.532593,325.685059 49.483459,332.325989 45.061279,338.676819 
	C43.921417,340.313843 40.421841,341.891632 38.903309,341.277679 
	C37.031258,340.520874 35.097965,337.532257 34.906147,335.356873 
	C31.571009,297.533447 42.988605,265.192657 71.345062,239.367569 
	C74.413589,236.572952 77.619370,233.843842 81.110229,231.635666 
	C82.751564,230.597443 85.221283,230.868820 87.315620,230.546738 
	C87.377220,232.547333 87.987823,234.723938 87.411934,236.520157 
	C83.461258,248.842712 78.797363,260.955322 75.308693,273.400635 
	C73.038757,281.498291 73.129211,290.262665 68.003433,297.903656 
z"/>
<path fill="#FD014F" opacity="1.000000" stroke="none" 
	d="
M425.938599,229.747192 
	C427.803711,230.433289 429.418274,230.958557 430.707001,231.920380 
	C464.957764,257.483093 479.398834,292.024536 476.615143,334.169189 
	C476.448730,336.688782 474.494324,340.461975 472.539642,341.099304 
	C470.650238,341.715332 467.123169,339.575409 465.293823,337.694580 
	C459.171417,331.399841 455.189636,323.848206 452.709351,315.305817 
	C451.348419,310.618530 448.883423,306.056305 446.066223,302.032837 
	C441.773041,295.901428 438.497162,289.516754 437.528381,282.059448 
	C435.492615,266.388977 430.366516,251.654022 424.101074,237.248383 
	C422.924927,234.544113 421.206451,231.528397 425.938599,229.747192 
z"/>
<path fill="#9DA9CC" opacity="1.000000" stroke="none" 
	d="
M148.314911,452.507874 
	C142.943054,429.423065 148.895157,407.468445 152.492081,385.366913 
	C153.385849,379.875000 154.370071,374.397797 156.506409,368.828735 
	C158.336594,377.519745 160.499954,386.156433 161.928360,394.912994 
	C165.006699,413.784149 167.744492,432.711395 170.540009,451.627777 
	C171.396851,457.425842 169.325363,460.045502 163.588730,460.828522 
	C162.107452,461.030670 160.602158,461.052277 159.109543,461.176788 
	C151.448334,461.815948 149.880814,460.612000 148.314911,452.507874 
z"/>
<path fill="#9EA9CC" opacity="1.000000" stroke="none" 
	d="
M349.181458,395.242798 
	C351.110046,386.081360 352.965179,377.339020 354.820312,368.596680 
	C355.183929,368.602844 355.547546,368.609009 355.911163,368.615204 
	C357.849243,379.954163 359.472534,391.358185 361.799866,402.616669 
	C365.205933,419.093719 366.153046,435.500397 363.051849,452.146362 
	C361.554047,460.186005 360.029510,461.832245 351.955933,461.158081 
	C350.629700,461.047302 349.293457,461.027466 347.974609,460.862976 
	C342.076904,460.127319 339.996735,457.812439 340.829529,451.896881 
	C343.470856,433.135254 346.331909,414.404572 349.181458,395.242798 
z"/>
</svg>