<svg version="1.1" id="Layer_1" xmlns="http://www.w3.org/2000/svg" xmlns:xlink="http://www.w3.org/1999/xlink" x="0px" y="0px"
	 width="100%" viewBox="0 0 512 512" enable-background="new 0 0 512 512" xml:space="preserve">
<path fill="#000000" opacity="1.000000" stroke="none" 
	d="
M1.000000,167.000000 
	C1.000000,111.333336 1.000000,56.166668 1.000000,1.000000 
	C171.666672,1.000000 342.333344,1.000000 513.000000,1.000000 
	C513.000000,171.666672 513.000000,342.333344 513.000000,513.000000 
	C342.333344,513.000000 171.666672,513.000000 1.000000,513.000000 
	C1.000000,397.833344 1.000000,282.666656 1.000000,167.000000 
M21.470190,197.055511 
	C19.326506,207.370224 16.900181,217.637375 15.152999,228.018814 
	C14.216121,233.585571 15.064111,239.069870 18.017170,244.327362 
	C28.206333,262.467682 38.032051,280.811829 48.057869,299.044403 
	C54.590034,310.923584 61.126579,322.802582 67.855797,334.570374 
	C72.478729,342.654785 80.549080,342.651794 84.904518,334.414276 
	C96.027748,313.376678 102.592628,291.050354 103.028107,267.095917 
	C103.060318,265.323853 102.971481,263.173737 103.886307,261.858124 
	C108.012009,255.925034 112.479195,250.229401 117.072716,244.116257 
	C119.657127,247.615417 121.757401,250.733566 124.132736,253.625809 
	C132.653351,264.000580 137.585312,275.585266 135.948822,289.243744 
	C135.027634,296.932007 133.551315,304.552216 132.428879,312.218292 
	C130.037659,328.549866 126.232315,344.659821 126.886826,361.413849 
	C127.704498,382.344055 127.541710,403.311218 128.132950,424.253082 
	C128.230408,427.705139 129.234955,431.653931 131.164322,434.443634 
	C140.777435,448.343231 152.579239,460.265503 165.538406,471.105896 
	C184.584457,487.037964 205.781876,498.553253 230.268036,503.625275 
	C244.873642,506.650665 259.625366,507.125946 274.242218,504.682617 
	C291.767975,501.753052 308.295410,495.758728 323.784302,486.735596 
	C347.151978,473.122559 366.552612,455.159576 383.156067,434.046997 
	C384.923218,431.799988 385.772736,428.319092 385.883026,425.367096 
	C386.459564,409.933960 386.231873,394.463043 387.085632,379.049683 
	C388.583252,352.012817 384.563538,325.533539 379.446228,299.215485 
	C375.308563,277.935547 380.790527,259.442383 397.160248,244.768646 
	C401.295288,249.908249 405.494263,254.991241 409.503326,260.219849 
	C410.351349,261.325836 410.775940,262.935394 410.928101,264.362762 
	C411.401215,268.800751 411.706512,273.259308 411.975494,277.716003 
	C413.257172,298.951324 420.060211,318.413025 430.892975,336.565460 
	C434.042084,341.842346 442.134003,341.855713 445.148529,336.475830 
	C454.183441,320.351685 463.053284,304.135040 471.981537,287.951202 
	C477.564240,277.831665 483.425568,267.852386 488.632355,257.542755 
	C493.954895,247.003998 500.610046,237.596100 498.483582,223.811661 
	C494.219055,196.167679 484.443054,171.997787 464.103302,152.427505 
	C462.786957,151.160965 462.128906,148.411255 462.347473,146.485748 
	C463.329895,137.830658 465.302795,129.260651 465.865753,120.591591 
	C466.747467,107.013062 465.693085,93.487747 463.030090,80.071129 
	C459.630005,62.940800 452.518341,47.789715 439.918732,35.569798 
	C426.076447,22.144678 409.697845,12.698026 391.653503,6.091318 
	C389.833405,5.424902 387.703979,4.857620 385.854492,5.139452 
	C374.777649,6.827397 363.750885,8.840642 352.687988,10.624694 
	C337.063934,13.144298 321.456268,15.803788 305.777924,17.934965 
	C294.980682,19.402641 284.092926,20.628836 273.214447,20.969942 
	C258.496826,21.431431 243.698227,21.671415 229.029694,20.644653 
	C215.576828,19.702988 202.229370,17.087095 188.873871,14.966974 
	C173.428329,12.515067 158.063980,9.525821 142.587799,7.302999 
	C133.792023,6.039676 124.835373,3.252206 116.081108,8.424906 
	C110.426773,11.765934 104.173912,14.081991 98.444069,17.309675 
	C84.444977,25.195511 72.090073,35.276787 63.166294,48.652496 
	C52.410141,64.774727 49.317219,83.487236 48.096245,102.407944 
	C47.111359,117.670189 48.865723,132.812424 51.894897,147.807770 
	C52.154930,149.095016 51.707752,151.162109 50.796116,151.953613 
	C36.905037,164.014236 27.982536,179.263611 21.470190,197.055511 
z"/>
<path fill="#494F69" opacity="1.000000" stroke="none" 
	d="
M21.655220,196.702454 
	C27.982536,179.263611 36.905037,164.014236 50.796116,151.953613 
	C51.707752,151.162109 52.154930,149.095016 51.894897,147.807770 
	C48.865723,132.812424 47.111359,117.670189 48.096245,102.407944 
	C49.317219,83.487236 52.410141,64.774727 63.166294,48.652496 
	C72.090073,35.276787 84.444977,25.195511 98.444069,17.309675 
	C104.173912,14.081991 110.426773,11.765934 116.081108,8.424906 
	C124.835373,3.252206 133.792023,6.039676 142.587799,7.302999 
	C158.063980,9.525821 173.428329,12.515067 188.873871,14.966974 
	C202.229370,17.087095 215.576828,19.702988 229.029694,20.644653 
	C243.698227,21.671415 258.496826,21.431431 273.214447,20.969942 
	C284.092926,20.628836 294.980682,19.402641 305.777924,17.934965 
	C321.456268,15.803788 337.063934,13.144298 352.687988,10.624694 
	C363.750885,8.840642 374.777649,6.827397 385.854492,5.139452 
	C387.703979,4.857620 389.833405,5.424902 391.653503,6.091318 
	C409.697845,12.698026 426.076447,22.144678 439.918732,35.569798 
	C452.518341,47.789715 459.630005,62.940800 463.030090,80.071129 
	C465.693085,93.487747 466.747467,107.013062 465.865753,120.591591 
	C465.302795,129.260651 463.329895,137.830658 462.347473,146.485748 
	C462.128906,148.411255 462.786957,151.160965 464.103302,152.427505 
	C484.443054,171.997787 494.219055,196.167679 498.483582,223.811661 
	C500.610046,237.596100 493.954895,247.003998 488.632355,257.542755 
	C483.425568,267.852386 477.564240,277.831665 471.981537,287.951202 
	C463.053284,304.135040 454.183441,320.351685 445.148529,336.475830 
	C442.134003,341.855713 434.042084,341.842346 430.892975,336.565460 
	C420.060211,318.413025 413.257172,298.951324 411.975494,277.716003 
	C411.706512,273.259308 411.401215,268.800751 410.928101,264.362762 
	C410.775940,262.935394 410.351349,261.325836 409.503326,260.219849 
	C405.494263,254.991241 401.295288,249.908249 397.160248,244.768646 
	C380.790527,259.442383 375.308563,277.935547 379.446228,299.215485 
	C384.563538,325.533539 388.583252,352.012817 387.085632,379.049683 
	C386.231873,394.463043 386.459564,409.933960 385.883026,425.367096 
	C385.772736,428.319092 384.923218,431.799988 383.156067,434.046997 
	C366.552612,455.159576 347.151978,473.122559 323.784302,486.735596 
	C308.295410,495.758728 291.767975,501.753052 274.242218,504.682617 
	C259.625366,507.125946 244.873642,506.650665 230.268036,503.625275 
	C205.781876,498.553253 184.584457,487.037964 165.538406,471.105896 
	C152.579239,460.265503 140.777435,448.343231 131.164322,434.443634 
	C129.234955,431.653931 128.230408,427.705139 128.132950,424.253082 
	C127.541710,403.311218 127.704498,382.344055 126.886826,361.413849 
	C126.232315,344.659821 130.037659,328.549866 132.428879,312.218292 
	C133.551315,304.552216 135.027634,296.932007 135.948822,289.243744 
	C137.585312,275.585266 132.653351,264.000580 124.132736,253.625809 
	C121.757401,250.733566 119.657127,247.615417 117.072716,244.116257 
	C112.479195,250.229401 108.012009,255.925034 103.886307,261.858124 
	C102.971481,263.173737 103.060318,265.323853 103.028107,267.095917 
	C102.592628,291.050354 96.027748,313.376678 84.904518,334.414276 
	C80.549080,342.651794 72.478729,342.654785 67.855797,334.570374 
	C61.126579,322.802582 54.590034,310.923584 48.057869,299.044403 
	C38.032051,280.811829 28.206333,262.467682 18.017170,244.327362 
	C15.064111,239.069870 14.216121,233.585571 15.152999,228.018814 
	C16.900181,217.637375 19.326506,207.370224 21.655220,196.702454 
M178.418411,36.727165 
	C159.430740,43.939026 144.662354,56.433479 133.223129,73.019249 
	C131.729126,75.185387 130.396484,77.628067 129.683975,80.139778 
	C126.315422,92.014526 120.230713,102.440529 113.199493,112.432228 
	C109.471680,117.729637 110.644569,120.673584 116.954987,121.897408 
	C127.973572,124.034325 137.161423,129.343750 144.763626,137.497482 
	C146.463928,139.321121 147.972778,141.321732 149.614502,143.201813 
	C158.181290,153.012421 168.188263,155.665344 180.481750,151.673157 
	C199.300369,145.562027 218.154236,139.558792 237.010559,133.564545 
	C246.026962,130.698318 250.897461,124.325821 250.962402,114.593231 
	C251.061234,99.777756 250.976807,84.961128 250.995560,70.145020 
	C251.003311,64.021553 248.902267,58.698452 243.374329,55.945900 
	C230.448471,49.509678 217.438995,43.179207 204.134094,37.589779 
	C196.225876,34.267502 187.645065,33.640667 178.418411,36.727165 
M368.619965,138.130280 
	C376.134979,129.901627 385.213470,124.360977 396.185791,122.052269 
	C403.725769,120.465759 404.700439,117.953072 400.177521,111.484741 
	C393.563049,102.025185 387.794891,92.179749 384.618439,80.938263 
	C383.776031,77.957047 382.174408,75.070450 380.410919,72.489166 
	C370.128204,57.438099 356.652496,46.071476 340.107483,38.419228 
	C332.142487,34.735329 323.839935,33.837688 315.258026,36.013920 
	C298.775940,40.193481 283.846313,47.847034 269.486664,56.678585 
	C265.093658,59.380417 263.079926,63.886631 263.054932,69.018532 
	C262.978638,84.670517 262.881195,100.325424 263.106415,115.974663 
	C263.231476,124.662254 268.497559,130.868423 276.887604,133.527756 
	C296.229095,139.658279 315.648499,145.569153 334.823456,152.186035 
	C342.686737,154.899475 349.756165,154.087677 356.214508,149.802536 
	C360.687988,146.834351 364.202728,142.421219 368.619965,138.130280 
M135.659836,55.179039 
	C144.753510,44.905319 155.100510,36.547508 169.150986,32.988419 
	C162.248291,30.090773 155.275482,27.680285 148.208344,25.588472 
	C109.421127,14.107756 70.865227,40.810574 64.596794,78.116814 
	C61.377045,97.279030 62.025406,116.259315 64.567802,135.325836 
	C65.100914,139.323883 65.828125,143.296051 66.627167,148.287613 
	C81.931023,136.034012 95.831680,124.149834 106.405289,108.961525 
	C109.316101,104.780334 111.879196,100.079002 113.366592,95.236893 
	C117.899300,80.481026 125.341431,67.465157 135.659836,55.179039 
M390.479584,72.065720 
	C393.388245,78.403252 397.003235,84.522850 399.041504,91.128929 
	C402.167267,101.259308 407.132019,110.220337 414.401947,117.651833 
	C423.577576,127.031448 433.412445,135.768021 443.019409,144.721390 
	C444.125397,145.752136 445.592346,146.395554 447.090607,147.344376 
	C452.360992,124.735138 454.228546,89.113777 446.393311,67.236938 
	C442.004395,54.982681 435.001587,44.853821 424.576477,36.932526 
	C399.092255,17.568882 372.537689,20.502195 345.442657,32.728058 
	C345.254883,32.812778 345.240356,33.281403 345.082611,33.759689 
	C353.991058,35.459404 362.171875,39.181438 368.339874,45.594200 
	C376.129211,53.692600 382.892548,62.777863 390.479584,72.065720 
M446.828094,156.818359 
	C445.315826,155.129318 444.038391,153.120911 442.250702,151.806473 
	C434.472778,146.087601 426.457031,140.691269 418.700653,134.944321 
	C411.879608,129.890442 403.703430,132.715225 403.330872,141.216187 
	C402.822968,152.805847 401.895203,164.854233 404.377258,175.985764 
	C408.083923,192.609497 413.880310,208.890717 420.131622,224.789246 
	C426.501831,240.990250 435.716064,255.694672 449.269012,267.208344 
	C452.415100,269.881073 455.728668,271.454803 459.763031,269.678925 
	C463.604919,267.987732 464.577911,264.518982 464.988983,260.683868 
	C466.053436,250.754272 467.058228,240.812836 468.421356,230.922241 
	C469.750397,221.279099 468.737152,212.039597 465.114136,203.009048 
	C459.041382,187.872467 453.083038,172.689987 446.828094,156.818359 
M90.299927,232.732925 
	C95.899170,217.799530 101.562691,202.889832 107.079552,187.926071 
	C112.593140,172.971237 110.886543,157.367645 110.856514,141.938248 
	C110.853165,140.216599 110.057129,138.335678 109.156868,136.806381 
	C106.325249,131.996216 101.216919,130.551666 97.446945,133.263062 
	C88.663788,139.580017 79.815292,145.809143 71.143166,152.274918 
	C69.395515,153.577927 67.818878,155.570023 66.998924,157.584503 
	C60.725014,172.998398 54.658939,188.496887 48.526253,203.968277 
	C45.134357,212.525299 44.310360,221.334457 45.520832,230.450638 
	C46.835175,240.349075 47.915424,250.280319 48.965916,260.211212 
	C49.387722,264.198792 50.192402,267.898102 54.257504,269.688599 
	C58.536598,271.573364 61.917454,269.653625 65.140198,266.884918 
	C75.955864,257.593140 83.526695,245.918777 90.299927,232.732925 
M210.677170,344.506073 
	C211.295654,361.788361 210.942551,379.173187 212.753235,396.329651 
	C215.698318,424.234833 226.743210,449.601654 240.228485,473.953125 
	C241.726364,476.657959 243.167648,479.528564 246.930405,478.626007 
	C250.880432,477.678528 251.031174,474.425049 251.020462,471.082245 
	C250.969681,455.256042 250.998215,439.429596 250.998138,423.603241 
	C250.998016,396.448547 250.953232,369.293671 251.041550,342.139282 
	C251.056061,337.676575 249.932770,334.451569 244.867996,334.388855 
	C237.373505,334.296082 229.869339,334.200958 222.383072,334.478424 
	C216.462753,334.697784 212.360153,337.711456 210.677170,344.506073 
M290.022461,334.341248 
	C283.360016,334.340240 276.695953,334.247620 270.035675,334.367279 
	C264.715393,334.462860 263.033966,336.096527 263.029541,341.231354 
	C262.991943,384.870331 263.018219,428.509338 262.984100,472.148315 
	C262.981659,475.301941 263.817139,478.391998 267.124481,478.442139 
	C269.163605,478.473022 272.043823,476.546783 273.152924,474.673981 
	C276.962524,468.241211 280.252167,461.491272 283.571472,454.778900 
	C300.488831,420.568085 305.147308,384.065918 303.535919,346.447906 
	C303.215210,338.960388 299.338928,335.539551 290.022461,334.341248 
M337.727539,168.400665 
	C335.439331,166.707108 333.314575,164.693253 330.813416,163.417053 
	C328.646423,162.311325 326.011261,162.166443 323.654083,161.383148 
	C306.594177,155.714142 289.557495,149.975281 272.502014,144.292862 
	C266.082092,142.153900 262.925201,144.376495 262.882050,151.136383 
	C262.816101,161.469055 262.850983,171.802475 262.867584,182.135544 
	C262.878448,188.921295 263.903290,190.439728 270.362061,191.732162 
	C285.926971,194.846771 301.085571,199.142258 315.504761,205.926758 
	C316.935242,206.599823 319.798645,206.419098 320.822845,205.424988 
	C331.012512,195.534439 338.529144,184.252884 337.727539,168.400665 
M248.905731,189.330780 
	C249.516098,187.993164 250.640289,186.661728 250.656464,185.316971 
	C250.800797,173.325500 250.931534,161.327637 250.665405,149.340576 
	C250.560364,144.608810 246.857452,142.535324 242.177872,143.964661 
	C238.678497,145.033524 235.237076,146.291016 231.761902,147.440445 
	C215.967560,152.664429 200.245041,158.123947 184.340210,162.987061 
	C177.245758,165.156296 174.870621,167.145905 175.959122,174.463364 
	C177.729782,186.366760 183.363968,196.496246 191.997269,204.777313 
	C193.312820,206.039185 196.576736,206.292023 198.537674,205.694016 
	C211.866241,201.629242 225.083511,197.200134 238.345200,192.914948 
	C241.651642,191.846542 244.989182,190.874329 248.905731,189.330780 
M220.817657,259.771362 
	C212.412033,260.505371 208.849655,264.176849 208.804138,272.528748 
	C208.726974,286.685211 208.700821,300.843140 208.824432,314.998962 
	C208.892776,322.825500 213.167175,326.960907 220.986877,327.051056 
	C228.314209,327.135559 235.643646,327.119659 242.971375,327.057007 
	C248.674332,327.008240 250.941559,324.879578 250.964859,319.287720 
	C251.036346,302.133179 251.030411,284.978058 250.971375,267.823395 
	C250.950943,261.885925 248.823196,259.848633 242.732574,259.779572 
	C235.738297,259.700256 228.742432,259.758942 220.817657,259.771362 
M279.515320,259.751862 
	C276.518280,259.758423 273.518433,259.685242 270.524780,259.789307 
	C265.376434,259.968262 263.076324,262.053497 263.050232,267.061310 
	C262.958191,284.710297 262.953217,302.360413 263.058533,320.009277 
	C263.086700,324.734650 265.475983,326.971039 270.243866,327.036835 
	C278.068054,327.144867 285.896759,327.169586 293.719940,327.029297 
	C300.631439,326.905334 305.053070,322.698944 305.132935,315.794220 
	C305.306274,300.811279 305.311096,285.823303 305.123840,270.840668 
	C305.040985,264.209503 300.731415,260.147461 293.992615,259.846558 
	C289.505432,259.646179 285.003662,259.772034 279.515320,259.751862 
M360.408783,385.828156 
	C364.685059,378.050293 366.621765,369.723602 366.027954,360.871429 
	C365.493713,352.907990 364.920227,344.941345 364.047272,337.011017 
	C363.860718,335.316559 362.604889,332.825897 361.304932,332.419647 
	C359.950531,331.996429 357.529297,333.235168 356.300568,334.469818 
	C351.375275,339.418854 346.563843,344.503967 342.013367,349.799133 
	C323.240479,371.644226 315.158081,397.240784 315.973419,425.790741 
	C316.023407,427.541779 317.534760,430.198883 318.971893,430.701141 
	C320.467499,431.223816 323.139130,430.128387 324.515350,428.879547 
	C327.328125,426.327271 329.671326,423.242737 332.112274,420.298157 
	C341.445618,409.039215 350.741028,397.748810 360.408783,385.828156 
M183.902817,422.606110 
	C185.750214,424.747131 187.357483,427.188293 189.528336,428.924988 
	C191.007904,430.108612 193.615814,431.229095 195.093475,430.683411 
	C196.529419,430.153137 198.049515,427.440063 198.005386,425.724762 
	C197.800522,417.761017 197.583176,409.734711 196.426117,401.869690 
	C192.323288,373.980804 176.675430,352.598785 156.956680,333.684998 
	C155.940613,332.710388 153.622009,331.879059 152.636551,332.388062 
	C151.341461,333.056915 150.148926,335.058075 149.987442,336.598999 
	C149.121063,344.865967 148.439011,353.159607 147.976212,361.459808 
	C147.285385,373.849060 151.351761,384.669891 159.381531,394.047211 
	C167.388962,403.398407 175.419708,412.729614 183.902817,422.606110 
M317.012665,228.887482 
	C315.187286,225.627411 314.082642,221.516937 311.412323,219.253922 
	C299.612549,209.254074 285.896637,203.154800 270.428802,201.337280 
	C265.557800,200.764923 263.089447,202.797897 263.046570,207.663071 
	C262.940948,219.642242 263.037689,231.623062 262.995209,243.603027 
	C262.979034,248.167496 265.118195,250.293335 269.700867,250.264160 
	C280.682190,250.194290 291.667603,250.376404 302.643127,250.113617 
	C304.935669,250.058731 307.992218,249.176712 309.318085,247.551285 
	C313.498138,242.426956 317.540649,236.987671 317.012665,228.887482 
M217.551849,250.251724 
	C226.363617,250.249741 235.175842,250.301743 243.986954,250.225479 
	C249.253555,250.179886 250.936600,248.565460 250.969421,243.422729 
	C251.044769,231.618774 251.050385,219.813583 250.967484,208.009720 
	C250.930893,202.798859 248.533417,200.750061 243.428665,201.354874 
	C227.966049,203.186920 214.424545,209.508133 202.411148,219.226959 
	C197.740616,223.005386 196.087616,228.122925 197.114807,233.965561 
	C199.003723,244.709732 205.708694,250.240555 217.551849,250.251724 
M329.688721,298.481293 
	C331.014099,298.319122 332.746063,298.637817 333.598907,297.916748 
	C339.185638,293.192993 344.888855,288.540588 349.959839,283.290924 
	C355.695679,277.352966 358.577515,269.804016 358.858978,261.570831 
	C359.183014,252.092209 359.018738,242.595062 358.943329,233.106949 
	C358.933838,231.913361 358.175903,230.725739 357.764740,229.535370 
	C356.532104,230.145782 354.976837,230.464737 354.119324,231.414001 
	C348.652557,237.465744 342.693848,243.222015 338.177216,249.936661 
	C334.469940,255.448074 331.126862,261.939117 330.149323,268.379486 
	C328.691284,277.985168 329.455902,287.928162 329.688721,298.481293 
M154.998550,236.713348 
	C155.003143,244.367813 154.919769,252.023575 155.034088,259.676392 
	C155.185226,269.794586 158.796890,278.552765 166.137024,285.551819 
	C170.587296,289.795258 175.330612,293.738129 180.052933,297.683594 
	C180.959885,298.441345 182.633560,299.188049 183.493134,298.831116 
	C184.291290,298.499695 184.854019,296.691162 184.866760,295.525818 
	C184.950409,287.873413 185.771347,280.070190 184.556305,272.608521 
	C183.410370,265.571136 181.176987,258.184753 177.402893,252.231949 
	C172.467789,244.447815 165.577957,237.895691 159.438492,230.892914 
	C158.771835,230.132523 157.357742,229.357590 156.564148,229.577484 
	C155.851929,229.774857 155.307266,231.285110 155.072144,232.304626 
	C154.816803,233.411819 155.004227,234.621109 154.998550,236.713348 
M182.732407,315.019745 
	C175.418747,307.387085 168.237442,299.619873 160.703705,292.210999 
	C158.673462,290.214417 155.498306,291.436310 155.361038,294.139465 
	C154.859116,304.024231 152.971634,314.496155 159.586472,323.074158 
	C165.249283,330.417603 171.892365,337.029785 178.358994,343.716736 
	C181.006470,346.454407 184.818985,345.130554 184.732208,341.443787 
	C184.530426,332.870331 183.626221,324.313416 182.732407,315.019745 
M350.730194,294.208984 
	C346.220367,298.400757 341.699097,302.580261 337.203796,306.787537 
	C332.235443,311.437469 329.477356,317.205414 329.158508,323.969147 
	C328.908051,329.282928 328.883331,334.628418 329.187836,339.935181 
	C329.285187,341.632050 330.380432,343.890961 331.729340,344.682739 
	C332.655640,345.226501 335.240570,344.110352 336.338898,342.999390 
	C341.951508,337.322083 347.454071,331.521912 352.735046,325.535309 
	C356.951111,320.755920 358.890198,314.943207 358.980835,308.561737 
	C359.035217,304.734985 359.209137,300.890137 358.907227,297.086914 
	C358.765778,295.305298 357.947540,292.439484 356.862396,292.139404 
	C355.264954,291.697693 353.154449,293.111328 350.730194,294.208984 
M45.995918,191.567871 
	C47.383801,186.405014 52.192814,182.392639 51.726078,175.071625 
	C49.072876,177.129562 47.301701,178.234314 45.856033,179.667419 
	C34.699467,190.727097 30.301237,204.825256 27.461287,219.791367 
	C25.020899,232.651825 26.305252,244.611969 33.848667,255.536652 
	C34.678177,256.738007 36.150951,257.495178 37.325371,258.458374 
	C37.882473,257.034424 38.903614,255.616486 38.922215,254.185532 
	C39.054066,244.039230 39.003181,233.890167 38.966385,223.742142 
	C38.926556,212.757965 41.255322,202.292053 45.995918,191.567871 
M465.462463,186.040070 
	C472.184479,199.175140 475.533112,213.063965 475.138062,227.871979 
	C474.911835,236.351593 474.943176,244.842499 475.094513,253.324112 
	C475.125397,255.054718 476.210510,256.766510 476.809662,258.487000 
	C478.128235,257.187103 479.732788,256.073181 480.718811,254.557007 
	C486.871063,245.097046 488.882874,234.890411 487.084930,223.608627 
	C484.474243,207.227219 480.268219,191.697296 468.046906,179.568497 
	C466.614075,178.146545 464.819122,177.089493 463.192017,175.863281 
	C462.652527,176.223221 462.113037,176.583160 461.573547,176.943100 
	C462.752777,179.750427 463.932007,182.557755 465.462463,186.040070 
M106.446259,227.937256 
	C111.744461,218.042068 114.960571,207.799393 111.452843,196.381073 
	C104.510628,213.036652 97.568405,229.692245 90.626190,246.347824 
	C91.056831,246.610001 91.487480,246.872177 91.918129,247.134354 
	C98.046974,242.106689 102.324425,235.556305 106.446259,227.937256 
M418.290070,234.163666 
	C413.035583,221.528519 407.781067,208.893356 402.361115,195.860367 
	C396.612518,208.308136 409.911224,240.648682 424.118591,247.265991 
	C421.990540,242.444992 420.311859,238.641968 418.290070,234.163666 
z"/>
<path fill="#9FABCE" opacity="1.000000" stroke="none" 
	d="
M178.800598,36.588821 
	C187.645065,33.640667 196.225876,34.267502 204.134094,37.589779 
	C217.438995,43.179207 230.448471,49.509678 243.374329,55.945900 
	C248.902267,58.698452 251.003311,64.021553 250.995560,70.145020 
	C250.976807,84.961128 251.061234,99.777756 250.962402,114.593231 
	C250.897461,124.325821 246.026962,130.698318 237.010559,133.564545 
	C218.154236,139.558792 199.300369,145.562027 180.481750,151.673157 
	C168.188263,155.665344 158.181290,153.012421 149.614502,143.201813 
	C147.972778,141.321732 146.463928,139.321121 144.763626,137.497482 
	C137.161423,129.343750 127.973572,124.034325 116.954987,121.897408 
	C110.644569,120.673584 109.471680,117.729637 113.199493,112.432228 
	C120.230713,102.440529 126.315422,92.014526 129.683975,80.139778 
	C130.396484,77.628067 131.729126,75.185387 133.223129,73.019249 
	C144.662354,56.433479 159.430740,43.939026 178.800598,36.588821 
z"/>
<path fill="#9FABCE" opacity="1.000000" stroke="none" 
	d="
M368.382904,138.391998 
	C364.202728,142.421219 360.687988,146.834351 356.214508,149.802536 
	C349.756165,154.087677 342.686737,154.899475 334.823456,152.186035 
	C315.648499,145.569153 296.229095,139.658279 276.887604,133.527756 
	C268.497559,130.868423 263.231476,124.662254 263.106415,115.974663 
	C262.881195,100.325424 262.978638,84.670517 263.054932,69.018532 
	C263.079926,63.886631 265.093658,59.380417 269.486664,56.678585 
	C283.846313,47.847034 298.775940,40.193481 315.258026,36.013920 
	C323.839935,33.837688 332.142487,34.735329 340.107483,38.419228 
	C356.652496,46.071476 370.128204,57.438099 380.410919,72.489166 
	C382.174408,75.070450 383.776031,77.957047 384.618439,80.938263 
	C387.794891,92.179749 393.563049,102.025185 400.177521,111.484741 
	C404.700439,117.953072 403.725769,120.465759 396.185791,122.052269 
	C385.213470,124.360977 376.134979,129.901627 368.382904,138.391998 
z"/>
<path fill="#9EAACD" opacity="1.000000" stroke="none" 
	d="
M135.424103,55.444984 
	C125.341431,67.465157 117.899300,80.481026 113.366592,95.236893 
	C111.879196,100.079002 109.316101,104.780334 106.405289,108.961525 
	C95.831680,124.149834 81.931023,136.034012 66.627167,148.287613 
	C65.828125,143.296051 65.100914,139.323883 64.567802,135.325836 
	C62.025406,116.259315 61.377045,97.279030 64.596794,78.116814 
	C70.865227,40.810574 109.421127,14.107756 148.208344,25.588472 
	C155.275482,27.680285 162.248291,30.090773 169.150986,32.988419 
	C155.100510,36.547508 144.753510,44.905319 135.424103,55.444984 
z"/>
<path fill="#9EAACD" opacity="1.000000" stroke="none" 
	d="
M390.289062,71.751572 
	C382.892548,62.777863 376.129211,53.692600 368.339874,45.594200 
	C362.171875,39.181438 353.991058,35.459404 345.082611,33.759689 
	C345.240356,33.281403 345.254883,32.812778 345.442657,32.728058 
	C372.537689,20.502195 399.092255,17.568882 424.576477,36.932526 
	C435.001587,44.853821 442.004395,54.982681 446.393311,67.236938 
	C454.228546,89.113777 452.360992,124.735138 447.090607,147.344376 
	C445.592346,146.395554 444.125397,145.752136 443.019409,144.721390 
	C433.412445,135.768021 423.577576,127.031448 414.401947,117.651833 
	C407.132019,110.220337 402.167267,101.259308 399.041504,91.128929 
	C397.003235,84.522850 393.388245,78.403252 390.289062,71.751572 
z"/>
<path fill="#9EAACD" opacity="1.000000" stroke="none" 
	d="
M446.952332,157.172592 
	C453.083038,172.689987 459.041382,187.872467 465.114136,203.009048 
	C468.737152,212.039597 469.750397,221.279099 468.421356,230.922241 
	C467.058228,240.812836 466.053436,250.754272 464.988983,260.683868 
	C464.577911,264.518982 463.604919,267.987732 459.763031,269.678925 
	C455.728668,271.454803 452.415100,269.881073 449.269012,267.208344 
	C435.716064,255.694672 426.501831,240.990250 420.131622,224.789246 
	C413.880310,208.890717 408.083923,192.609497 404.377258,175.985764 
	C401.895203,164.854233 402.822968,152.805847 403.330872,141.216187 
	C403.703430,132.715225 411.879608,129.890442 418.700653,134.944321 
	C426.457031,140.691269 434.472778,146.087601 442.250702,151.806473 
	C444.038391,153.120911 445.315826,155.129318 446.952332,157.172592 
z"/>
<path fill="#9EAACD" opacity="1.000000" stroke="none" 
	d="
M90.144707,233.071350 
	C83.526695,245.918777 75.955864,257.593140 65.140198,266.884918 
	C61.917454,269.653625 58.536598,271.573364 54.257504,269.688599 
	C50.192402,267.898102 49.387722,264.198792 48.965916,260.211212 
	C47.915424,250.280319 46.835175,240.349075 45.520832,230.450638 
	C44.310360,221.334457 45.134357,212.525299 48.526253,203.968277 
	C54.658939,188.496887 60.725014,172.998398 66.998924,157.584503 
	C67.818878,155.570023 69.395515,153.577927 71.143166,152.274918 
	C79.815292,145.809143 88.663788,139.580017 97.446945,133.263062 
	C101.216919,130.551666 106.325249,131.996216 109.156868,136.806381 
	C110.057129,138.335678 110.853165,140.216599 110.856514,141.938248 
	C110.886543,157.367645 112.593140,172.971237 107.079552,187.926071 
	C101.562691,202.889832 95.899170,217.799530 90.144707,233.071350 
z"/>
<path fill="#FD014F" opacity="1.000000" stroke="none" 
	d="
M210.756836,344.101227 
	C212.360153,337.711456 216.462753,334.697784 222.383072,334.478424 
	C229.869339,334.200958 237.373505,334.296082 244.867996,334.388855 
	C249.932770,334.451569 251.056061,337.676575 251.041550,342.139282 
	C250.953232,369.293671 250.998016,396.448547 250.998138,423.603241 
	C250.998215,439.429596 250.969681,455.256042 251.020462,471.082245 
	C251.031174,474.425049 250.880432,477.678528 246.930405,478.626007 
	C243.167648,479.528564 241.726364,476.657959 240.228485,473.953125 
	C226.743210,449.601654 215.698318,424.234833 212.753235,396.329651 
	C210.942551,379.173187 211.295654,361.788361 210.756836,344.101227 
z"/>
<path fill="#FD014F" opacity="1.000000" stroke="none" 
	d="
M290.466858,334.351868 
	C299.338928,335.539551 303.215210,338.960388 303.535919,346.447906 
	C305.147308,384.065918 300.488831,420.568085 283.571472,454.778900 
	C280.252167,461.491272 276.962524,468.241211 273.152924,474.673981 
	C272.043823,476.546783 269.163605,478.473022 267.124481,478.442139 
	C263.817139,478.391998 262.981659,475.301941 262.984100,472.148315 
	C263.018219,428.509338 262.991943,384.870331 263.029541,341.231354 
	C263.033966,336.096527 264.715393,334.462860 270.035675,334.367279 
	C276.695953,334.247620 283.360016,334.340240 290.466858,334.351868 
z"/>
<path fill="#FE014F" opacity="1.000000" stroke="none" 
	d="
M337.836060,168.808090 
	C338.529144,184.252884 331.012512,195.534439 320.822845,205.424988 
	C319.798645,206.419098 316.935242,206.599823 315.504761,205.926758 
	C301.085571,199.142258 285.926971,194.846771 270.362061,191.732162 
	C263.903290,190.439728 262.878448,188.921295 262.867584,182.135544 
	C262.850983,171.802475 262.816101,161.469055 262.882050,151.136383 
	C262.925201,144.376495 266.082092,142.153900 272.502014,144.292862 
	C289.557495,149.975281 306.594177,155.714142 323.654083,161.383148 
	C326.011261,162.166443 328.646423,162.311325 330.813416,163.417053 
	C333.314575,164.693253 335.439331,166.707108 337.836060,168.808090 
z"/>
<path fill="#FD014F" opacity="1.000000" stroke="none" 
	d="
M248.609070,189.594360 
	C244.989182,190.874329 241.651642,191.846542 238.345200,192.914948 
	C225.083511,197.200134 211.866241,201.629242 198.537674,205.694016 
	C196.576736,206.292023 193.312820,206.039185 191.997269,204.777313 
	C183.363968,196.496246 177.729782,186.366760 175.959122,174.463364 
	C174.870621,167.145905 177.245758,165.156296 184.340210,162.987061 
	C200.245041,158.123947 215.967560,152.664429 231.761902,147.440445 
	C235.237076,146.291016 238.678497,145.033524 242.177872,143.964661 
	C246.857452,142.535324 250.560364,144.608810 250.665405,149.340576 
	C250.931534,161.327637 250.800797,173.325500 250.656464,185.316971 
	C250.640289,186.661728 249.516098,187.993164 248.609070,189.594360 
z"/>
<path fill="#FF004F" opacity="1.000000" stroke="none" 
	d="
M221.282471,259.764526 
	C228.742432,259.758942 235.738297,259.700256 242.732574,259.779572 
	C248.823196,259.848633 250.950943,261.885925 250.971375,267.823395 
	C251.030411,284.978058 251.036346,302.133179 250.964859,319.287720 
	C250.941559,324.879578 248.674332,327.008240 242.971375,327.057007 
	C235.643646,327.119659 228.314209,327.135559 220.986877,327.051056 
	C213.167175,326.960907 208.892776,322.825500 208.824432,314.998962 
	C208.700821,300.843140 208.726974,286.685211 208.804138,272.528748 
	C208.849655,264.176849 212.412033,260.505371 221.282471,259.764526 
z"/>
<path fill="#FF004F" opacity="1.000000" stroke="none" 
	d="
M280.011871,259.751862 
	C285.003662,259.772034 289.505432,259.646179 293.992615,259.846558 
	C300.731415,260.147461 305.040985,264.209503 305.123840,270.840668 
	C305.311096,285.823303 305.306274,300.811279 305.132935,315.794220 
	C305.053070,322.698944 300.631439,326.905334 293.719940,327.029297 
	C285.896759,327.169586 278.068054,327.144867 270.243866,327.036835 
	C265.475983,326.971039 263.086700,324.734650 263.058533,320.009277 
	C262.953217,302.360413 262.958191,284.710297 263.050232,267.061310 
	C263.076324,262.053497 265.376434,259.968262 270.524780,259.789307 
	C273.518433,259.685242 276.518280,259.758423 280.011871,259.751862 
z"/>
<path fill="#FD8464" opacity="1.000000" stroke="none" 
	d="
M360.229675,386.149170 
	C350.741028,397.748810 341.445618,409.039215 332.112274,420.298157 
	C329.671326,423.242737 327.328125,426.327271 324.515350,428.879547 
	C323.139130,430.128387 320.467499,431.223816 318.971893,430.701141 
	C317.534760,430.198883 316.023407,427.541779 315.973419,425.790741 
	C315.158081,397.240784 323.240479,371.644226 342.013367,349.799133 
	C346.563843,344.503967 351.375275,339.418854 356.300568,334.469818 
	C357.529297,333.235168 359.950531,331.996429 361.304932,332.419647 
	C362.604889,332.825897 363.860718,335.316559 364.047272,337.011017 
	C364.920227,344.941345 365.493713,352.907990 366.027954,360.871429 
	C366.621765,369.723602 364.685059,378.050293 360.229675,386.149170 
z"/>
<path fill="#FD8464" opacity="1.000000" stroke="none" 
	d="
M183.671524,422.337830 
	C175.419708,412.729614 167.388962,403.398407 159.381531,394.047211 
	C151.351761,384.669891 147.285385,373.849060 147.976212,361.459808 
	C148.439011,353.159607 149.121063,344.865967 149.987442,336.598999 
	C150.148926,335.058075 151.341461,333.056915 152.636551,332.388062 
	C153.622009,331.879059 155.940613,332.710388 156.956680,333.684998 
	C176.675430,352.598785 192.323288,373.980804 196.426117,401.869690 
	C197.583176,409.734711 197.800522,417.761017 198.005386,425.724762 
	C198.049515,427.440063 196.529419,430.153137 195.093475,430.683411 
	C193.615814,431.229095 191.007904,430.108612 189.528336,428.924988 
	C187.357483,427.188293 185.750214,424.747131 183.671524,422.337830 
z"/>
<path fill="#FE014F" opacity="1.000000" stroke="none" 
	d="
M317.042847,229.311249 
	C317.540649,236.987671 313.498138,242.426956 309.318085,247.551285 
	C307.992218,249.176712 304.935669,250.058731 302.643127,250.113617 
	C291.667603,250.376404 280.682190,250.194290 269.700867,250.264160 
	C265.118195,250.293335 262.979034,248.167496 262.995209,243.603027 
	C263.037689,231.623062 262.940948,219.642242 263.046570,207.663071 
	C263.089447,202.797897 265.557800,200.764923 270.428802,201.337280 
	C285.896637,203.154800 299.612549,209.254074 311.412323,219.253922 
	C314.082642,221.516937 315.187286,225.627411 317.042847,229.311249 
z"/>
<path fill="#FE014F" opacity="1.000000" stroke="none" 
	d="
M217.063019,250.251709 
	C205.708694,250.240555 199.003723,244.709732 197.114807,233.965561 
	C196.087616,228.122925 197.740616,223.005386 202.411148,219.226959 
	C214.424545,209.508133 227.966049,203.186920 243.428665,201.354874 
	C248.533417,200.750061 250.930893,202.798859 250.967484,208.009720 
	C251.050385,219.813583 251.044769,231.618774 250.969421,243.422729 
	C250.936600,248.565460 249.253555,250.179886 243.986954,250.225479 
	C235.175842,250.301743 226.363617,250.249741 217.063019,250.251709 
z"/>
<path fill="#FD8464" opacity="1.000000" stroke="none" 
	d="
M329.481781,298.104492 
	C329.455902,287.928162 328.691284,277.985168 330.149323,268.379486 
	C331.126862,261.939117 334.469940,255.448074 338.177216,249.936661 
	C342.693848,243.222015 348.652557,237.465744 354.119324,231.414001 
	C354.976837,230.464737 356.532104,230.145782 357.764740,229.535370 
	C358.175903,230.725739 358.933838,231.913361 358.943329,233.106949 
	C359.018738,242.595062 359.183014,252.092209 358.858978,261.570831 
	C358.577515,269.804016 355.695679,277.352966 349.959839,283.290924 
	C344.888855,288.540588 339.185638,293.192993 333.598907,297.916748 
	C332.746063,298.637817 331.014099,298.319122 329.481781,298.104492 
z"/>
<path fill="#FD8464" opacity="1.000000" stroke="none" 
	d="
M154.998566,236.249619 
	C155.004227,234.621109 154.816803,233.411819 155.072144,232.304626 
	C155.307266,231.285110 155.851929,229.774857 156.564148,229.577484 
	C157.357742,229.357590 158.771835,230.132523 159.438492,230.892914 
	C165.577957,237.895691 172.467789,244.447815 177.402893,252.231949 
	C181.176987,258.184753 183.410370,265.571136 184.556305,272.608521 
	C185.771347,280.070190 184.950409,287.873413 184.866760,295.525818 
	C184.854019,296.691162 184.291290,298.499695 183.493134,298.831116 
	C182.633560,299.188049 180.959885,298.441345 180.052933,297.683594 
	C175.330612,293.738129 170.587296,289.795258 166.137024,285.551819 
	C158.796890,278.552765 155.185226,269.794586 155.034088,259.676392 
	C154.919769,252.023575 155.003143,244.367813 154.998566,236.249619 
z"/>
<path fill="#FC8464" opacity="1.000000" stroke="none" 
	d="
M182.869537,315.384766 
	C183.626221,324.313416 184.530426,332.870331 184.732208,341.443787 
	C184.818985,345.130554 181.006470,346.454407 178.358994,343.716736 
	C171.892365,337.029785 165.249283,330.417603 159.586472,323.074158 
	C152.971634,314.496155 154.859116,304.024231 155.361038,294.139465 
	C155.498306,291.436310 158.673462,290.214417 160.703705,292.210999 
	C168.237442,299.619873 175.418747,307.387085 182.869537,315.384766 
z"/>
<path fill="#FC8464" opacity="1.000000" stroke="none" 
	d="
M350.996338,293.971802 
	C353.154449,293.111328 355.264954,291.697693 356.862396,292.139404 
	C357.947540,292.439484 358.765778,295.305298 358.907227,297.086914 
	C359.209137,300.890137 359.035217,304.734985 358.980835,308.561737 
	C358.890198,314.943207 356.951111,320.755920 352.735046,325.535309 
	C347.454071,331.521912 341.951508,337.322083 336.338898,342.999390 
	C335.240570,344.110352 332.655640,345.226501 331.729340,344.682739 
	C330.380432,343.890961 329.285187,341.632050 329.187836,339.935181 
	C328.883331,334.628418 328.908051,329.282928 329.158508,323.969147 
	C329.477356,317.205414 332.235443,311.437469 337.203796,306.787537 
	C341.699097,302.580261 346.220367,298.400757 350.996338,293.971802 
z"/>
<path fill="#9CA8CB" opacity="1.000000" stroke="none" 
	d="
M45.857033,191.923492 
	C41.255322,202.292053 38.926556,212.757965 38.966385,223.742142 
	C39.003181,233.890167 39.054066,244.039230 38.922215,254.185532 
	C38.903614,255.616486 37.882473,257.034424 37.325371,258.458374 
	C36.150951,257.495178 34.678177,256.738007 33.848667,255.536652 
	C26.305252,244.611969 25.020899,232.651825 27.461287,219.791367 
	C30.301237,204.825256 34.699467,190.727097 45.856033,179.667419 
	C47.301701,178.234314 49.072876,177.129562 51.726078,175.071625 
	C52.192814,182.392639 47.383801,186.405014 45.857033,191.923492 
z"/>
<path fill="#9CA8CB" opacity="1.000000" stroke="none" 
	d="
M465.286865,185.702576 
	C463.932007,182.557755 462.752777,179.750427 461.573547,176.943100 
	C462.113037,176.583160 462.652527,176.223221 463.192017,175.863281 
	C464.819122,177.089493 466.614075,178.146545 468.046906,179.568497 
	C480.268219,191.697296 484.474243,207.227219 487.084930,223.608627 
	C488.882874,234.890411 486.871063,245.097046 480.718811,254.557007 
	C479.732788,256.073181 478.128235,257.187103 476.809662,258.487000 
	C476.210510,256.766510 475.125397,255.054718 475.094513,253.324112 
	C474.943176,244.842499 474.911835,236.351593 475.138062,227.871979 
	C475.533112,213.063965 472.184479,199.175140 465.286865,185.702576 
z"/>
<path fill="#9BA7CA" opacity="1.000000" stroke="none" 
	d="
M106.273018,228.265106 
	C102.324425,235.556305 98.046974,242.106689 91.918129,247.134354 
	C91.487480,246.872177 91.056831,246.610001 90.626190,246.347824 
	C97.568405,229.692245 104.510628,213.036652 111.452843,196.381073 
	C114.960571,207.799393 111.744461,218.042068 106.273018,228.265106 
z"/>
<path fill="#9CA7CA" opacity="1.000000" stroke="none" 
	d="
M418.461609,234.501312 
	C420.311859,238.641968 421.990540,242.444992 424.118591,247.265991 
	C409.911224,240.648682 396.612518,208.308136 402.361115,195.860367 
	C407.781067,208.893356 413.035583,221.528519 418.461609,234.501312 
z"/>
</svg>