<svg version="1.1" id="Layer_1" xmlns="http://www.w3.org/2000/svg" xmlns:xlink="http://www.w3.org/1999/xlink" x="0px" y="0px"
	 width="100%" viewBox="0 0 512 512" enable-background="new 0 0 512 512" xml:space="preserve">
<path fill="#000000" opacity="1.000000" stroke="none" 
	d="
M282.000000,513.000000 
	C188.022812,513.000000 94.545624,513.000000 1.034216,513.000000 
	C1.034216,342.397797 1.034216,171.795563 1.034216,1.096670 
	C171.560532,1.096670 342.121155,1.096670 512.840881,1.096670 
	C512.840881,171.666550 512.840881,342.333252 512.840881,513.000000 
	C436.128876,513.000000 359.314423,513.000000 282.000000,513.000000 
M28.883055,282.371277 
	C25.567646,291.127441 21.465460,299.679108 19.124008,308.688385 
	C15.739966,321.709259 13.887034,335.119232 10.924362,348.260284 
	C5.368679,372.902710 11.250167,394.232361 29.381996,411.733551 
	C42.504215,424.399414 58.809132,431.724030 76.108589,436.795166 
	C81.669655,438.425354 84.821617,436.224487 87.247765,430.519226 
	C93.886482,414.907806 97.322617,398.462830 99.991402,381.818390 
	C100.877876,376.289703 100.310028,370.035645 102.779404,365.368378 
	C106.474831,358.383820 112.267120,352.508667 117.308784,345.978699 
	C120.356819,350.063629 122.933456,353.676331 125.675087,357.159180 
	C132.193207,365.439514 137.203125,374.501678 135.884079,385.322021 
	C133.451202,405.279266 130.457275,425.172241 127.411858,445.048309 
	C126.382812,451.764435 128.275162,455.481079 135.163452,456.976288 
	C150.617935,460.330933 166.060715,463.775452 181.600204,466.693726 
	C201.195999,470.373749 220.771866,474.714905 240.563538,476.636658 
	C259.324738,478.458313 278.378479,477.485077 297.033112,473.769562 
	C324.159363,468.366638 351.222900,462.649200 378.317383,457.086304 
	C385.801971,455.549652 387.992218,453.064911 386.890900,445.408112 
	C384.992126,432.207336 382.287354,419.119202 380.525360,405.903198 
	C379.333038,396.959778 378.212677,387.816772 378.783569,378.873047 
	C379.627533,365.650146 389.406860,356.759827 396.984741,346.039032 
	C400.957855,351.146301 404.634521,355.770721 408.186157,360.489258 
	C409.556732,362.310150 411.539185,364.271301 411.705017,366.294647 
	C412.440338,375.265503 412.418884,384.295929 413.042816,393.278992 
	C413.959198,406.472321 417.130615,419.336029 424.409668,430.301361 
	C432.991974,443.229797 434.761841,444.721008 448.545502,439.223145 
	C450.537415,438.428650 452.591644,437.785828 454.565338,436.950623 
	C475.582764,428.057007 490.634644,413.454987 497.996368,391.501038 
	C503.035095,376.474609 503.994446,361.232330 501.156769,345.608246 
	C498.949554,333.455353 498.027832,321.041046 495.341583,309.009308 
	C490.741516,288.405609 481.260986,270.248474 465.358124,255.874298 
	C463.059631,253.796753 461.546356,251.788361 462.326202,248.151840 
	C466.741302,227.564240 467.426025,206.825409 463.964600,186.007370 
	C461.921204,173.718063 458.562714,161.695541 451.629761,151.350769 
	C441.707245,136.545258 428.322205,125.078606 412.339874,117.236237 
	C380.097992,101.415512 347.607483,86.100677 315.173950,70.672974 
	C312.120117,69.220337 310.703369,67.480362 310.908112,63.918552 
	C311.232727,58.272049 311.151733,52.586643 310.941559,46.928875 
	C310.672913,39.697483 304.679291,36.088776 298.078644,38.989563 
	C291.874237,41.716209 285.704376,44.523281 279.471100,47.181984 
	C268.880432,51.699280 257.773926,54.149662 246.573059,50.885685 
	C236.652496,47.994781 227.083725,43.793522 217.538284,39.749130 
	C209.010544,36.135933 203.165436,39.627060 203.021973,49.002319 
	C202.937851,54.499882 203.156433,60.007195 202.893219,65.493546 
	C202.821396,66.990486 201.877243,69.189011 200.693054,69.777916 
	C182.199158,78.975250 163.616333,87.994736 145.020218,96.985344 
	C129.267883,104.601089 113.198151,111.613472 97.775345,119.842133 
	C83.346481,127.540466 71.160591,138.174210 62.323372,152.265015 
	C51.965019,168.781250 48.876251,187.354858 48.260963,206.216507 
	C47.870243,218.193985 49.415211,230.325409 51.101360,242.245026 
	C52.076164,249.136078 51.188370,253.836426 45.909279,259.100952 
	C39.342293,265.649780 34.629448,274.057892 28.883055,282.371277 
z"/>
<path fill="#49506A" opacity="1.000000" stroke="none" 
	d="
M28.999466,282.017151 
	C34.629448,274.057892 39.342293,265.649780 45.909279,259.100952 
	C51.188370,253.836426 52.076164,249.136078 51.101360,242.245026 
	C49.415211,230.325409 47.870243,218.193985 48.260963,206.216507 
	C48.876251,187.354858 51.965019,168.781250 62.323372,152.265015 
	C71.160591,138.174210 83.346481,127.540466 97.775345,119.842133 
	C113.198151,111.613472 129.267883,104.601089 145.020218,96.985344 
	C163.616333,87.994736 182.199158,78.975250 200.693054,69.777916 
	C201.877243,69.189011 202.821396,66.990486 202.893219,65.493546 
	C203.156433,60.007195 202.937851,54.499882 203.021973,49.002319 
	C203.165436,39.627060 209.010544,36.135933 217.538284,39.749130 
	C227.083725,43.793522 236.652496,47.994781 246.573059,50.885685 
	C257.773926,54.149662 268.880432,51.699280 279.471100,47.181984 
	C285.704376,44.523281 291.874237,41.716209 298.078644,38.989563 
	C304.679291,36.088776 310.672913,39.697483 310.941559,46.928875 
	C311.151733,52.586643 311.232727,58.272049 310.908112,63.918552 
	C310.703369,67.480362 312.120117,69.220337 315.173950,70.672974 
	C347.607483,86.100677 380.097992,101.415512 412.339874,117.236237 
	C428.322205,125.078606 441.707245,136.545258 451.629761,151.350769 
	C458.562714,161.695541 461.921204,173.718063 463.964600,186.007370 
	C467.426025,206.825409 466.741302,227.564240 462.326202,248.151840 
	C461.546356,251.788361 463.059631,253.796753 465.358124,255.874298 
	C481.260986,270.248474 490.741516,288.405609 495.341583,309.009308 
	C498.027832,321.041046 498.949554,333.455353 501.156769,345.608246 
	C503.994446,361.232330 503.035095,376.474609 497.996368,391.501038 
	C490.634644,413.454987 475.582764,428.057007 454.565338,436.950623 
	C452.591644,437.785828 450.537415,438.428650 448.545502,439.223145 
	C434.761841,444.721008 432.991974,443.229797 424.409668,430.301361 
	C417.130615,419.336029 413.959198,406.472321 413.042816,393.278992 
	C412.418884,384.295929 412.440338,375.265503 411.705017,366.294647 
	C411.539185,364.271301 409.556732,362.310150 408.186157,360.489258 
	C404.634521,355.770721 400.957855,351.146301 396.984741,346.039032 
	C389.406860,356.759827 379.627533,365.650146 378.783569,378.873047 
	C378.212677,387.816772 379.333038,396.959778 380.525360,405.903198 
	C382.287354,419.119202 384.992126,432.207336 386.890900,445.408112 
	C387.992218,453.064911 385.801971,455.549652 378.317383,457.086304 
	C351.222900,462.649200 324.159363,468.366638 297.033112,473.769562 
	C278.378479,477.485077 259.324738,478.458313 240.563538,476.636658 
	C220.771866,474.714905 201.195999,470.373749 181.600204,466.693726 
	C166.060715,463.775452 150.617935,460.330933 135.163452,456.976288 
	C128.275162,455.481079 126.382812,451.764435 127.411858,445.048309 
	C130.457275,425.172241 133.451202,405.279266 135.884079,385.322021 
	C137.203125,374.501678 132.193207,365.439514 125.675087,357.159180 
	C122.933456,353.676331 120.356819,350.063629 117.308784,345.978699 
	C112.267120,352.508667 106.474831,358.383820 102.779404,365.368378 
	C100.310028,370.035645 100.877876,376.289703 99.991402,381.818390 
	C97.322617,398.462830 93.886482,414.907806 87.247765,430.519226 
	C84.821617,436.224487 81.669655,438.425354 76.108589,436.795166 
	C58.809132,431.724030 42.504215,424.399414 29.381996,411.733551 
	C11.250167,394.232361 5.368679,372.902710 10.924362,348.260284 
	C13.887034,335.119232 15.739966,321.709259 19.124008,308.688385 
	C21.465460,299.679108 25.567646,291.127441 28.999466,282.017151 
M263.116028,213.366379 
	C263.183289,225.813065 267.394226,232.179810 277.222504,235.282410 
	C296.740997,241.444031 316.304260,247.485519 335.663910,254.117081 
	C342.625153,256.501617 348.974945,255.880814 354.808136,252.401108 
	C359.271973,249.738266 363.314056,246.012283 366.762543,242.074951 
	C374.815216,232.880692 384.257477,226.308853 396.373688,223.827194 
	C403.690643,222.328537 404.811005,219.607010 400.574890,213.584137 
	C393.733307,203.856888 387.850037,193.697510 384.574829,182.128204 
	C383.732574,179.153046 382.041656,176.299850 380.252350,173.730698 
	C370.140747,159.212021 357.049347,148.139450 341.079346,140.495285 
	C331.777557,136.042938 321.923218,134.880157 312.437927,138.653702 
	C298.873230,144.050171 285.700073,150.449768 272.460754,156.637283 
	C265.694763,159.799423 263.023773,165.560089 263.086945,172.914764 
	C263.199982,186.075699 263.116852,199.238327 263.116028,213.366379 
M245.284622,230.798218 
	C249.515182,226.736267 251.127960,221.715469 251.092834,215.926025 
	C251.004929,201.441055 250.950226,186.953873 251.112885,172.470169 
	C251.194305,165.219437 248.334595,159.859024 241.927277,156.609665 
	C232.142395,151.647461 222.306198,146.779739 212.399490,142.065903 
	C194.092392,133.354965 176.879288,135.613663 160.734390,147.572601 
	C159.263199,148.662354 157.709381,149.644501 156.273865,150.777878 
	C145.611053,159.196350 135.043854,168.091324 130.280228,181.124496 
	C125.885124,193.149353 120.331169,204.298584 113.001884,214.705154 
	C109.689003,219.408981 111.074539,221.904785 116.742729,223.663269 
	C122.420685,225.424789 128.511032,226.883316 133.338577,230.099045 
	C139.323822,234.085968 144.576111,239.396698 149.466675,244.754761 
	C158.319977,254.454361 168.454956,257.378357 180.770920,253.339722 
	C199.417114,247.225296 218.153137,241.384811 236.801849,235.277893 
	C239.585785,234.366241 242.102081,232.637222 245.284622,230.798218 
M426.511078,231.988602 
	C433.212494,237.814926 439.913940,243.641251 447.037750,249.834793 
	C452.650421,226.057236 454.410370,190.012299 446.124268,167.736465 
	C437.418335,144.332108 419.772919,131.250809 396.482849,125.717880 
	C382.036865,122.286011 367.682373,125.967834 353.873962,130.963593 
	C351.034729,131.990814 348.268463,133.219772 346.403992,133.976212 
	C354.201691,138.700638 362.623199,142.516418 369.473907,148.219208 
	C384.124542,160.414963 393.662018,176.325928 400.005829,194.319305 
	C402.244354,200.668488 405.226593,207.016617 409.142151,212.447495 
	C414.077576,219.292908 420.316498,225.198486 426.511078,231.988602 
M140.613281,125.761681 
	C109.034470,119.049332 73.431816,141.935913 65.923203,174.810425 
	C61.280544,195.137054 61.974556,215.435471 64.552574,235.841446 
	C65.103241,240.200104 65.888084,244.529190 66.648941,249.410049 
	C68.324638,248.420090 69.298790,248.064850 69.982803,247.407623 
	C81.122276,236.704697 92.605309,226.319855 103.154671,215.061050 
	C107.566055,210.352997 110.989197,204.122620 113.124870,197.980499 
	C123.070656,169.376755 138.268539,145.683731 169.109955,134.633469 
	C160.051498,130.155548 150.920761,127.568520 140.613281,125.761681 
M469.116455,323.568970 
	C467.938660,317.564148 467.513245,311.284332 465.438416,305.607330 
	C459.785736,290.140747 453.522095,274.893585 447.270020,259.654022 
	C446.330872,257.364868 444.485870,255.141464 442.491852,253.644058 
	C433.973907,247.247482 425.326202,241.011871 416.513000,235.031143 
	C414.924255,233.953003 411.522766,233.338272 410.369263,234.265320 
	C407.574158,236.511703 403.840912,239.669830 403.631195,242.679733 
	C402.881775,253.433441 402.035095,264.514709 403.803009,275.039032 
	C407.342346,296.108582 414.538269,316.234222 424.256958,335.335724 
	C430.872345,348.337921 438.815948,360.420044 450.376129,369.670441 
	C456.392761,374.484924 463.827271,372.054474 464.767426,364.729889 
	C466.483215,351.362183 467.694824,337.929779 469.116455,323.568970 
M65.677864,368.282501 
	C71.534416,361.292816 78.485588,354.948700 83.055649,347.200226 
	C101.595192,315.766571 113.932602,282.422333 111.121445,245.010544 
	C110.701393,239.420349 108.269119,235.277908 103.468063,233.989563 
	C101.823738,233.548325 99.427513,233.825241 98.061218,234.768402 
	C88.892143,241.097839 79.865189,247.637283 70.906105,254.262726 
	C69.400536,255.376114 68.005005,257.058319 67.308929,258.780884 
	C60.893696,274.656647 54.077354,290.407745 48.601067,306.608643 
	C46.121536,313.944000 45.446651,322.237091 45.658436,330.049469 
	C45.945786,340.649170 47.907486,351.200317 49.072659,361.780884 
	C49.527092,365.907471 50.320400,369.821564 54.686478,371.571106 
	C58.779690,373.211304 62.126869,371.505768 65.677864,368.282501 
M273.293427,246.250275 
	C266.379272,244.278702 263.467987,246.302658 263.390442,253.421600 
	C263.283417,263.249329 263.341522,273.079071 263.359650,282.907898 
	C263.374786,291.107849 264.262512,292.301544 272.336578,293.934875 
	C287.237793,296.949280 301.816132,300.968445 315.483795,307.760071 
	C318.405426,309.211884 320.606445,308.624023 322.661407,306.563263 
	C330.987946,298.213318 336.666473,288.342682 338.776154,276.703552 
	C340.023712,269.820923 337.343079,266.517395 330.460297,265.081268 
	C328.675964,264.708954 326.917328,264.173004 325.185272,263.596924 
	C308.125366,257.922791 291.073578,252.224319 273.293427,246.250275 
M178.588150,284.774414 
	C182.898560,291.820770 186.967941,299.036011 191.699265,305.787415 
	C192.797409,307.354431 196.743820,308.613068 198.376068,307.854431 
	C213.125885,300.998840 228.636688,296.746002 244.471603,293.504486 
	C249.383667,292.498932 251.430450,289.829620 251.327423,284.798462 
	C251.123047,274.818268 250.932068,264.815582 251.381439,254.851349 
	C251.733398,247.047668 248.084839,243.685165 239.945480,246.650436 
	C221.986938,253.192963 203.798615,259.141632 185.544281,264.818878 
	C177.193390,267.416077 175.172684,269.644745 176.825104,278.252563 
	C177.200058,280.205780 177.793640,282.117004 178.588150,284.774414 
M263.111267,384.501221 
	C263.114929,396.650696 263.048523,408.800751 263.153442,420.949341 
	C263.201752,426.544128 265.530029,428.820221 271.113556,428.895142 
	C278.601532,428.995636 286.095184,429.049438 293.580353,428.870636 
	C300.756409,428.699249 305.195435,424.501617 305.301025,417.315460 
	C305.518646,402.506866 305.517426,387.690552 305.297760,372.881958 
	C305.193848,365.874115 301.002991,361.785461 293.939117,361.541016 
	C286.126373,361.270660 278.294586,361.333282 270.476746,361.506348 
	C265.448700,361.617676 263.305176,363.928802 263.156464,369.023651 
	C263.015686,373.846161 263.116669,378.675751 263.111267,384.501221 
M213.414719,363.766418 
	C211.917725,366.953918 209.230499,370.103668 209.128036,373.335419 
	C208.663635,387.981110 208.832520,402.650848 208.974197,417.309967 
	C209.039902,424.108887 213.442993,428.628387 220.225449,428.839386 
	C228.048004,429.082764 235.885529,429.010406 243.712967,428.872345 
	C248.716751,428.784058 251.001740,426.455872 251.025742,421.388641 
	C251.108597,403.896301 251.106461,386.403137 251.029221,368.910736 
	C251.006760,363.823212 248.829956,361.607269 243.677917,361.499603 
	C236.018127,361.339478 228.348419,361.330078 220.691559,361.552979 
	C218.454758,361.618042 216.247269,362.691101 213.414719,363.766418 
M286.647705,306.786987 
	C281.316406,305.552399 276.034790,303.986176 270.639618,303.178070 
	C265.420197,302.396301 263.204407,304.547943 263.155945,309.878204 
	C263.050049,321.520355 263.065674,333.164520 263.144867,344.807129 
	C263.182037,350.269287 264.924530,351.971649 270.328339,352.011719 
	C279.143402,352.077087 288.005676,351.469177 296.761871,352.190704 
	C305.717834,352.928680 311.067230,349.489410 314.818878,341.534882 
	C318.881805,332.920471 318.131409,325.287415 310.304138,319.959503 
	C303.078857,315.041321 295.063171,311.284302 286.647705,306.786987 
M248.470230,303.831268 
	C246.695541,303.594818 244.873260,302.971130 243.153595,303.182465 
	C227.716019,305.079376 214.137939,311.360443 202.269943,321.278412 
	C197.542236,325.229309 195.793564,330.621582 197.578995,336.563416 
	C198.565399,339.846100 200.571274,342.828735 202.169327,345.919891 
	C204.366150,350.169220 207.802292,352.133331 212.671326,352.067780 
	C222.974228,351.929047 233.280533,352.063263 243.585083,352.013306 
	C249.463501,351.984833 251.016068,350.472900 251.046295,344.657654 
	C251.105911,333.189728 251.153610,321.719879 250.977905,310.254333 
	C250.947449,308.266388 249.793732,306.295715 248.470230,303.831268 
M317.501923,127.997131 
	C332.549408,125.267891 347.621704,122.663048 362.617523,119.674423 
	C364.851166,119.229271 366.725006,116.978683 368.765320,115.563324 
	C367.326447,113.584373 366.322815,110.752457 364.380005,109.761147 
	C348.534760,101.676094 332.551636,93.857018 316.528961,86.125923 
	C309.754547,82.857185 304.469116,85.448288 302.028870,92.422142 
	C298.795898,101.661392 295.395966,110.847015 291.840179,119.966934 
	C289.199341,126.740166 292.722748,131.896713 299.949280,131.013718 
	C305.550507,130.329330 311.083954,129.090515 317.501923,127.997131 
M161.879013,121.652519 
	C165.480072,122.290230 169.083542,122.914635 172.681763,123.568016 
	C186.257004,126.033104 199.806671,128.650467 213.414001,130.922852 
	C221.075592,132.202301 225.229858,127.173584 222.648834,120.385902 
	C219.051544,110.925629 215.520096,101.439262 212.074173,91.922890 
	C209.805283,85.657051 204.654480,82.913887 198.671082,85.769234 
	C181.867691,93.788017 165.185104,102.063721 148.565170,110.456551 
	C147.132828,111.179871 145.503601,113.728592 145.778351,115.053543 
	C146.117981,116.691513 148.120239,118.646477 149.818100,119.204124 
	C153.417770,120.386375 157.285690,120.751801 161.879013,121.652519 
M176.538910,351.992798 
	C171.187119,345.843842 165.893295,339.642548 160.429840,333.594452 
	C159.451248,332.511139 157.771500,332.061249 156.415482,331.318909 
	C155.979492,332.674927 155.181107,334.026947 155.166183,335.387573 
	C155.067734,344.371124 154.927811,353.363129 155.209702,362.339569 
	C155.514557,372.046997 159.162964,380.514343 166.234924,387.249451 
	C170.687943,391.490356 175.432617,395.431488 180.152969,399.379669 
	C181.067215,400.144348 182.717957,400.930603 183.582565,400.586182 
	C184.369339,400.272766 184.910736,398.443665 184.936157,397.269196 
	C185.069290,391.115601 184.919281,384.956207 185.027023,378.801636 
	C185.195786,369.161621 182.595169,360.412231 176.538910,351.992798 
M329.182922,393.304077 
	C329.184448,394.137238 329.038239,395.003967 329.218109,395.796661 
	C329.600067,397.479767 330.151733,399.124390 330.633850,400.784790 
	C332.193787,400.011505 333.966827,399.496521 335.274719,398.417664 
	C339.642426,394.814911 344.002777,391.175201 348.073517,387.246613 
	C355.236420,380.333679 358.926361,371.772125 359.039246,361.788910 
	C359.137207,353.124969 359.138428,344.458374 359.019562,335.795166 
	C358.998901,334.288177 358.169556,332.792297 357.713745,331.291290 
	C356.376862,332.096222 354.766327,332.646027 353.743256,333.743500 
	C330.028748,359.182343 329.181396,361.248230 329.182922,393.304077 
M224.262466,64.125420 
	C222.721359,63.122040 221.180267,62.118664 219.639160,61.115284 
	C219.079376,62.748413 218.061005,64.377632 218.047058,66.015411 
	C218.007538,70.654984 217.951904,75.364449 218.661240,79.928474 
	C222.065842,101.834290 232.604095,120.624763 244.805145,138.651794 
	C246.804977,141.606537 249.051224,144.113266 252.963058,142.059250 
	C256.829559,140.029037 256.072754,136.716476 254.963394,133.366150 
	C251.671967,123.425728 247.957916,113.592926 245.293381,103.484932 
	C241.439713,88.865807 234.827759,75.905334 224.262466,64.125420 
M280.293488,76.831245 
	C278.476257,79.988876 276.097900,82.953995 274.937408,86.336906 
	C269.438690,102.366386 264.263855,118.507095 258.994995,134.615158 
	C257.958496,137.783936 258.238892,140.620285 261.630920,142.217285 
	C264.825165,143.721191 267.063934,142.141983 268.827026,139.599167 
	C279.395630,124.356628 288.841980,108.439117 293.306061,90.296043 
	C295.340027,82.029472 295.379120,73.258423 296.095001,64.697121 
	C296.192780,63.527782 294.963165,62.247444 294.348145,61.018486 
	C293.152222,61.747036 291.648987,62.224792 290.813965,63.247902 
	C287.346191,67.496910 284.080078,71.910446 280.293488,76.831245 
M344.682922,436.192017 
	C350.354401,430.150787 357.121979,424.681335 358.367249,415.867462 
	C359.175323,410.148163 359.065125,404.269196 358.958405,398.469238 
	C358.927246,396.773743 357.858978,394.168030 356.605225,393.681213 
	C355.307098,393.177094 352.847260,394.324310 351.520660,395.471893 
	C346.492706,399.821350 341.304657,404.107635 336.989746,409.117950 
	C333.953369,412.643616 331.020111,417.079559 330.204926,421.507477 
	C328.927612,428.445679 329.340668,435.721222 329.380615,442.851959 
	C329.387878,444.145477 330.785095,445.963684 332.011749,446.544312 
	C332.941467,446.984344 334.961761,446.208740 335.902435,445.334564 
	C338.820282,442.622986 341.454559,439.606293 344.682922,436.192017 
M183.478271,418.319458 
	C178.846390,407.369659 168.784592,401.424927 160.593735,393.805145 
	C158.458374,391.818726 155.557404,393.544067 155.426071,396.193176 
	C154.927017,406.259064 153.286255,416.823822 160.173615,425.485840 
	C165.741562,432.488403 172.160889,438.823273 178.358109,445.305634 
	C179.227478,446.214966 181.313049,446.985718 182.248825,446.552643 
	C183.464005,445.990265 184.868668,444.143219 184.844971,442.874329 
	C184.696747,434.935822 184.173264,427.004333 183.478271,418.319458 
M485.919708,346.274353 
	C489.666443,336.758972 487.584534,327.192230 485.875885,317.732239 
	C483.378693,303.906616 478.374969,291.161591 468.024170,281.126007 
	C466.597137,279.742401 464.777039,278.764191 463.138916,277.598297 
	C462.646851,277.947998 462.154785,278.297668 461.662750,278.647339 
	C462.429047,280.627777 463.017578,282.700592 463.990417,284.573761 
	C470.504517,297.116577 475.229675,310.122009 475.106262,324.522339 
	C475.016418,335.003754 475.033447,345.487610 475.185211,355.967743 
	C475.205383,357.362183 476.301270,358.741089 476.899017,360.127167 
	C478.072693,359.160309 479.619141,358.414246 480.348022,357.183868 
	C482.293121,353.900543 483.886810,350.408966 485.919708,346.274353 
M44.011108,298.631317 
	C46.285999,293.638519 48.673294,288.692230 50.770695,283.625946 
	C51.443771,282.000122 51.351151,280.057343 51.608826,278.259552 
	C49.942776,279.092285 47.986469,279.605652 46.659611,280.811584 
	C39.986172,286.876862 35.286980,294.405945 32.541603,302.885345 
	C26.616493,321.185638 21.770260,339.626740 34.087124,357.444244 
	C34.893486,358.610718 36.449604,359.258881 37.656975,360.148132 
	C38.130070,358.847504 39.000000,357.550781 39.012924,356.245575 
	C39.108578,346.587555 38.407013,336.876678 39.190666,327.283234 
	C39.955681,317.917969 42.182823,308.672089 44.011108,298.631317 
M108.028053,306.474335 
	C102.277870,320.372131 96.527695,334.269958 90.370598,349.151215 
	C104.767067,341.146301 117.350166,310.373901 111.657051,297.026123 
	C110.321526,300.455658 109.294022,303.094269 108.028053,306.474335 
M400.962830,303.718719 
	C400.993042,320.152252 413.595001,345.407013 423.693054,348.350952 
	C416.563232,331.346649 409.571198,314.670898 402.579132,297.995148 
	C402.164001,298.061798 401.748901,298.128418 401.333771,298.195038 
	C401.210266,299.733307 401.086761,301.271545 400.962830,303.718719 
z"/>
<path fill="#9FABCE" opacity="1.000000" stroke="none" 
	d="
M263.115875,212.883301 
	C263.116852,199.238327 263.199982,186.075699 263.086945,172.914764 
	C263.023773,165.560089 265.694763,159.799423 272.460754,156.637283 
	C285.700073,150.449768 298.873230,144.050171 312.437927,138.653702 
	C321.923218,134.880157 331.777557,136.042938 341.079346,140.495285 
	C357.049347,148.139450 370.140747,159.212021 380.252350,173.730698 
	C382.041656,176.299850 383.732574,179.153046 384.574829,182.128204 
	C387.850037,193.697510 393.733307,203.856888 400.574890,213.584137 
	C404.811005,219.607010 403.690643,222.328537 396.373688,223.827194 
	C384.257477,226.308853 374.815216,232.880692 366.762543,242.074951 
	C363.314056,246.012283 359.271973,249.738266 354.808136,252.401108 
	C348.974945,255.880814 342.625153,256.501617 335.663910,254.117081 
	C316.304260,247.485519 296.740997,241.444031 277.222504,235.282410 
	C267.394226,232.179810 263.183289,225.813065 263.115875,212.883301 
z"/>
<path fill="#9FABCE" opacity="1.000000" stroke="none" 
	d="
M245.013412,231.042282 
	C242.102081,232.637222 239.585785,234.366241 236.801849,235.277893 
	C218.153137,241.384811 199.417114,247.225296 180.770920,253.339722 
	C168.454956,257.378357 158.319977,254.454361 149.466675,244.754761 
	C144.576111,239.396698 139.323822,234.085968 133.338577,230.099045 
	C128.511032,226.883316 122.420685,225.424789 116.742729,223.663269 
	C111.074539,221.904785 109.689003,219.408981 113.001884,214.705154 
	C120.331169,204.298584 125.885124,193.149353 130.280228,181.124496 
	C135.043854,168.091324 145.611053,159.196350 156.273865,150.777878 
	C157.709381,149.644501 159.263199,148.662354 160.734390,147.572601 
	C176.879288,135.613663 194.092392,133.354965 212.399490,142.065903 
	C222.306198,146.779739 232.142395,151.647461 241.927277,156.609665 
	C248.334595,159.859024 251.194305,165.219437 251.112885,172.470169 
	C250.950226,186.953873 251.004929,201.441055 251.092834,215.926025 
	C251.127960,221.715469 249.515182,226.736267 245.013412,231.042282 
z"/>
<path fill="#9EAACD" opacity="1.000000" stroke="none" 
	d="
M426.252075,231.749084 
	C420.316498,225.198486 414.077576,219.292908 409.142151,212.447495 
	C405.226593,207.016617 402.244354,200.668488 400.005829,194.319305 
	C393.662018,176.325928 384.124542,160.414963 369.473907,148.219208 
	C362.623199,142.516418 354.201691,138.700638 346.403992,133.976212 
	C348.268463,133.219772 351.034729,131.990814 353.873962,130.963593 
	C367.682373,125.967834 382.036865,122.286011 396.482849,125.717880 
	C419.772919,131.250809 437.418335,144.332108 446.124268,167.736465 
	C454.410370,190.012299 452.650421,226.057236 447.037750,249.834793 
	C439.913940,243.641251 433.212494,237.814926 426.252075,231.749084 
z"/>
<path fill="#9EAACD" opacity="1.000000" stroke="none" 
	d="
M141.047638,125.829628 
	C150.920761,127.568520 160.051498,130.155548 169.109955,134.633469 
	C138.268539,145.683731 123.070656,169.376755 113.124870,197.980499 
	C110.989197,204.122620 107.566055,210.352997 103.154671,215.061050 
	C92.605309,226.319855 81.122276,236.704697 69.982803,247.407623 
	C69.298790,248.064850 68.324638,248.420090 66.648941,249.410049 
	C65.888084,244.529190 65.103241,240.200104 64.552574,235.841446 
	C61.974556,215.435471 61.280544,195.137054 65.923203,174.810425 
	C73.431816,141.935913 109.034470,119.049332 141.047638,125.829628 
z"/>
<path fill="#FE014F" opacity="1.000000" stroke="none" 
	d="
M469.116608,324.046661 
	C467.694824,337.929779 466.483215,351.362183 464.767426,364.729889 
	C463.827271,372.054474 456.392761,374.484924 450.376129,369.670441 
	C438.815948,360.420044 430.872345,348.337921 424.256958,335.335724 
	C414.538269,316.234222 407.342346,296.108582 403.803009,275.039032 
	C402.035095,264.514709 402.881775,253.433441 403.631195,242.679733 
	C403.840912,239.669830 407.574158,236.511703 410.369263,234.265320 
	C411.522766,233.338272 414.924255,233.953003 416.513000,235.031143 
	C425.326202,241.011871 433.973907,247.247482 442.491852,253.644058 
	C444.485870,255.141464 446.330872,257.364868 447.270020,259.654022 
	C453.522095,274.893585 459.785736,290.140747 465.438416,305.607330 
	C467.513245,311.284332 467.938660,317.564148 469.116608,324.046661 
z"/>
<path fill="#FE014F" opacity="1.000000" stroke="none" 
	d="
M65.398239,368.520874 
	C62.126869,371.505768 58.779690,373.211304 54.686478,371.571106 
	C50.320400,369.821564 49.527092,365.907471 49.072659,361.780884 
	C47.907486,351.200317 45.945786,340.649170 45.658436,330.049469 
	C45.446651,322.237091 46.121536,313.944000 48.601067,306.608643 
	C54.077354,290.407745 60.893696,274.656647 67.308929,258.780884 
	C68.005005,257.058319 69.400536,255.376114 70.906105,254.262726 
	C79.865189,247.637283 88.892143,241.097839 98.061218,234.768402 
	C99.427513,233.825241 101.823738,233.548325 103.468063,233.989563 
	C108.269119,235.277908 110.701393,239.420349 111.121445,245.010544 
	C113.932602,282.422333 101.595192,315.766571 83.055649,347.200226 
	C78.485588,354.948700 71.534416,361.292816 65.398239,368.520874 
z"/>
<path fill="#9EAACD" opacity="1.000000" stroke="none" 
	d="
M273.656433,246.391510 
	C291.073578,252.224319 308.125366,257.922791 325.185272,263.596924 
	C326.917328,264.173004 328.675964,264.708954 330.460297,265.081268 
	C337.343079,266.517395 340.023712,269.820923 338.776154,276.703552 
	C336.666473,288.342682 330.987946,298.213318 322.661407,306.563263 
	C320.606445,308.624023 318.405426,309.211884 315.483795,307.760071 
	C301.816132,300.968445 287.237793,296.949280 272.336578,293.934875 
	C264.262512,292.301544 263.374786,291.107849 263.359650,282.907898 
	C263.341522,273.079071 263.283417,263.249329 263.390442,253.421600 
	C263.467987,246.302658 266.379272,244.278702 273.656433,246.391510 
z"/>
<path fill="#9EAACD" opacity="1.000000" stroke="none" 
	d="
M178.437378,284.411011 
	C177.793640,282.117004 177.200058,280.205780 176.825104,278.252563 
	C175.172684,269.644745 177.193390,267.416077 185.544281,264.818878 
	C203.798615,259.141632 221.986938,253.192963 239.945480,246.650436 
	C248.084839,243.685165 251.733398,247.047668 251.381439,254.851349 
	C250.932068,264.815582 251.123047,274.818268 251.327423,284.798462 
	C251.430450,289.829620 249.383667,292.498932 244.471603,293.504486 
	C228.636688,296.746002 213.125885,300.998840 198.376068,307.854431 
	C196.743820,308.613068 192.797409,307.354431 191.699265,305.787415 
	C186.967941,299.036011 182.898560,291.820770 178.437378,284.411011 
z"/>
<path fill="#9EAACD" opacity="1.000000" stroke="none" 
	d="
M263.111267,384.001709 
	C263.116669,378.675751 263.015686,373.846161 263.156464,369.023651 
	C263.305176,363.928802 265.448700,361.617676 270.476746,361.506348 
	C278.294586,361.333282 286.126373,361.270660 293.939117,361.541016 
	C301.002991,361.785461 305.193848,365.874115 305.297760,372.881958 
	C305.517426,387.690552 305.518646,402.506866 305.301025,417.315460 
	C305.195435,424.501617 300.756409,428.699249 293.580353,428.870636 
	C286.095184,429.049438 278.601532,428.995636 271.113556,428.895142 
	C265.530029,428.820221 263.201752,426.544128 263.153442,420.949341 
	C263.048523,408.800751 263.114929,396.650696 263.111267,384.001709 
z"/>
<path fill="#9EAACD" opacity="1.000000" stroke="none" 
	d="
M213.720535,363.534271 
	C216.247269,362.691101 218.454758,361.618042 220.691559,361.552979 
	C228.348419,361.330078 236.018127,361.339478 243.677917,361.499603 
	C248.829956,361.607269 251.006760,363.823212 251.029221,368.910736 
	C251.106461,386.403137 251.108597,403.896301 251.025742,421.388641 
	C251.001740,426.455872 248.716751,428.784058 243.712967,428.872345 
	C235.885529,429.010406 228.048004,429.082764 220.225449,428.839386 
	C213.442993,428.628387 209.039902,424.108887 208.974197,417.309967 
	C208.832520,402.650848 208.663635,387.981110 209.128036,373.335419 
	C209.230499,370.103668 211.917725,366.953918 213.720535,363.534271 
z"/>
<path fill="#9EAACD" opacity="1.000000" stroke="none" 
	d="
M287.021667,306.901428 
	C295.063171,311.284302 303.078857,315.041321 310.304138,319.959503 
	C318.131409,325.287415 318.881805,332.920471 314.818878,341.534882 
	C311.067230,349.489410 305.717834,352.928680 296.761871,352.190704 
	C288.005676,351.469177 279.143402,352.077087 270.328339,352.011719 
	C264.924530,351.971649 263.182037,350.269287 263.144867,344.807129 
	C263.065674,333.164520 263.050049,321.520355 263.155945,309.878204 
	C263.204407,304.547943 265.420197,302.396301 270.639618,303.178070 
	C276.034790,303.986176 281.316406,305.552399 287.021667,306.901428 
z"/>
<path fill="#9FABCE" opacity="1.000000" stroke="none" 
	d="
M248.814529,304.074158 
	C249.793732,306.295715 250.947449,308.266388 250.977905,310.254333 
	C251.153610,321.719879 251.105911,333.189728 251.046295,344.657654 
	C251.016068,350.472900 249.463501,351.984833 243.585083,352.013306 
	C233.280533,352.063263 222.974228,351.929047 212.671326,352.067780 
	C207.802292,352.133331 204.366150,350.169220 202.169327,345.919891 
	C200.571274,342.828735 198.565399,339.846100 197.578995,336.563416 
	C195.793564,330.621582 197.542236,325.229309 202.269943,321.278412 
	C214.137939,311.360443 227.716019,305.079376 243.153595,303.182465 
	C244.873260,302.971130 246.695541,303.594818 248.814529,304.074158 
z"/>
<path fill="#9EAACD" opacity="1.000000" stroke="none" 
	d="
M317.074738,128.047638 
	C311.083954,129.090515 305.550507,130.329330 299.949280,131.013718 
	C292.722748,131.896713 289.199341,126.740166 291.840179,119.966934 
	C295.395966,110.847015 298.795898,101.661392 302.028870,92.422142 
	C304.469116,85.448288 309.754547,82.857185 316.528961,86.125923 
	C332.551636,93.857018 348.534760,101.676094 364.380005,109.761147 
	C366.322815,110.752457 367.326447,113.584373 368.765320,115.563324 
	C366.725006,116.978683 364.851166,119.229271 362.617523,119.674423 
	C347.621704,122.663048 332.549408,125.267891 317.074738,128.047638 
z"/>
<path fill="#9EAACD" opacity="1.000000" stroke="none" 
	d="
M161.461319,121.552345 
	C157.285690,120.751801 153.417770,120.386375 149.818100,119.204124 
	C148.120239,118.646477 146.117981,116.691513 145.778351,115.053543 
	C145.503601,113.728592 147.132828,111.179871 148.565170,110.456551 
	C165.185104,102.063721 181.867691,93.788017 198.671082,85.769234 
	C204.654480,82.913887 209.805283,85.657051 212.074173,91.922890 
	C215.520096,101.439262 219.051544,110.925629 222.648834,120.385902 
	C225.229858,127.173584 221.075592,132.202301 213.414001,130.922852 
	C199.806671,128.650467 186.257004,126.033104 172.681763,123.568016 
	C169.083542,122.914635 165.480072,122.290230 161.461319,121.552345 
z"/>
<path fill="#9EAACC" opacity="1.000000" stroke="none" 
	d="
M176.751709,352.283691 
	C182.595169,360.412231 185.195786,369.161621 185.027023,378.801636 
	C184.919281,384.956207 185.069290,391.115601 184.936157,397.269196 
	C184.910736,398.443665 184.369339,400.272766 183.582565,400.586182 
	C182.717957,400.930603 181.067215,400.144348 180.152969,399.379669 
	C175.432617,395.431488 170.687943,391.490356 166.234924,387.249451 
	C159.162964,380.514343 155.514557,372.046997 155.209702,362.339569 
	C154.927811,353.363129 155.067734,344.371124 155.166183,335.387573 
	C155.181107,334.026947 155.979492,332.674927 156.415482,331.318909 
	C157.771500,332.061249 159.451248,332.511139 160.429840,333.594452 
	C165.893295,339.642548 171.187119,345.843842 176.751709,352.283691 
z"/>
<path fill="#9EAACC" opacity="1.000000" stroke="none" 
	d="
M329.182861,392.826874 
	C329.181396,361.248230 330.028748,359.182343 353.743256,333.743500 
	C354.766327,332.646027 356.376862,332.096222 357.713745,331.291290 
	C358.169556,332.792297 358.998901,334.288177 359.019562,335.795166 
	C359.138428,344.458374 359.137207,353.124969 359.039246,361.788910 
	C358.926361,371.772125 355.236420,380.333679 348.073517,387.246613 
	C344.002777,391.175201 339.642426,394.814911 335.274719,398.417664 
	C333.966827,399.496521 332.193787,400.011505 330.633850,400.784790 
	C330.151733,399.124390 329.600067,397.479767 329.218109,395.796661 
	C329.038239,395.003967 329.184448,394.137238 329.182861,392.826874 
z"/>
<path fill="#9EA9CC" opacity="1.000000" stroke="none" 
	d="
M224.490067,64.413605 
	C234.827759,75.905334 241.439713,88.865807 245.293381,103.484932 
	C247.957916,113.592926 251.671967,123.425728 254.963394,133.366150 
	C256.072754,136.716476 256.829559,140.029037 252.963058,142.059250 
	C249.051224,144.113266 246.804977,141.606537 244.805145,138.651794 
	C232.604095,120.624763 222.065842,101.834290 218.661240,79.928474 
	C217.951904,75.364449 218.007538,70.654984 218.047058,66.015411 
	C218.061005,64.377632 219.079376,62.748413 219.639160,61.115288 
	C221.180267,62.118664 222.721359,63.122040 224.490067,64.413605 
z"/>
<path fill="#9EAACC" opacity="1.000000" stroke="none" 
	d="
M280.516724,76.547424 
	C284.080078,71.910446 287.346191,67.496910 290.813965,63.247902 
	C291.648987,62.224792 293.152222,61.747036 294.348145,61.018490 
	C294.963165,62.247444 296.192780,63.527782 296.095001,64.697121 
	C295.379120,73.258423 295.340027,82.029472 293.306061,90.296043 
	C288.841980,108.439117 279.395630,124.356628 268.827026,139.599167 
	C267.063934,142.141983 264.825165,143.721191 261.630920,142.217285 
	C258.238892,140.620285 257.958496,137.783936 258.994995,134.615158 
	C264.263855,118.507095 269.438690,102.366386 274.937408,86.336906 
	C276.097900,82.953995 278.476257,79.988876 280.516724,76.547424 
z"/>
<path fill="#9DA9CC" opacity="1.000000" stroke="none" 
	d="
M344.440918,436.450012 
	C341.454559,439.606293 338.820282,442.622986 335.902435,445.334564 
	C334.961761,446.208740 332.941467,446.984344 332.011749,446.544312 
	C330.785095,445.963684 329.387878,444.145477 329.380615,442.851959 
	C329.340668,435.721222 328.927612,428.445679 330.204926,421.507477 
	C331.020111,417.079559 333.953369,412.643616 336.989746,409.117950 
	C341.304657,404.107635 346.492706,399.821350 351.520660,395.471893 
	C352.847260,394.324310 355.307098,393.177094 356.605225,393.681213 
	C357.858978,394.168030 358.927246,396.773743 358.958405,398.469238 
	C359.065125,404.269196 359.175323,410.148163 358.367249,415.867462 
	C357.121979,424.681335 350.354401,430.150787 344.440918,436.450012 
z"/>
<path fill="#9EAACC" opacity="1.000000" stroke="none" 
	d="
M183.626160,418.695007 
	C184.173264,427.004333 184.696747,434.935822 184.844971,442.874329 
	C184.868668,444.143219 183.464005,445.990265 182.248825,446.552643 
	C181.313049,446.985718 179.227478,446.214966 178.358109,445.305634 
	C172.160889,438.823273 165.741562,432.488403 160.173615,425.485840 
	C153.286255,416.823822 154.927017,406.259064 155.426071,396.193176 
	C155.557404,393.544067 158.458374,391.818726 160.593735,393.805145 
	C168.784592,401.424927 178.846390,407.369659 183.626160,418.695007 
z"/>
<path fill="#F98364" opacity="1.000000" stroke="none" 
	d="
M485.769958,346.637268 
	C483.886810,350.408966 482.293121,353.900543 480.348022,357.183868 
	C479.619141,358.414246 478.072693,359.160309 476.899017,360.127167 
	C476.301270,358.741089 475.205383,357.362183 475.185211,355.967743 
	C475.033447,345.487610 475.016418,335.003754 475.106262,324.522339 
	C475.229675,310.122009 470.504517,297.116577 463.990417,284.573761 
	C463.017578,282.700592 462.429047,280.627777 461.662750,278.647339 
	C462.154785,278.297668 462.646851,277.947998 463.138916,277.598297 
	C464.777039,278.764191 466.597137,279.742401 468.024170,281.126007 
	C478.374969,291.161591 483.378693,303.906616 485.875885,317.732239 
	C487.584534,327.192230 489.666443,336.758972 485.769958,346.637268 
z"/>
<path fill="#FA8464" opacity="1.000000" stroke="none" 
	d="
M43.889603,299.002563 
	C42.182823,308.672089 39.955681,317.917969 39.190666,327.283234 
	C38.407013,336.876678 39.108578,346.587555 39.012924,356.245575 
	C39.000000,357.550781 38.130070,358.847504 37.656975,360.148132 
	C36.449604,359.258881 34.893486,358.610718 34.087124,357.444244 
	C21.770260,339.626740 26.616493,321.185638 32.541603,302.885345 
	C35.286980,294.405945 39.986172,286.876862 46.659611,280.811584 
	C47.986469,279.605652 49.942776,279.092285 51.608829,278.259552 
	C51.351151,280.057343 51.443771,282.000122 50.770695,283.625946 
	C48.673294,288.692230 46.285999,293.638519 43.889603,299.002563 
z"/>
<path fill="#F88364" opacity="1.000000" stroke="none" 
	d="
M108.147278,306.103577 
	C109.294022,303.094269 110.321526,300.455658 111.657051,297.026123 
	C117.350166,310.373901 104.767067,341.146301 90.370598,349.151215 
	C96.527695,334.269958 102.277870,320.372131 108.147278,306.103577 
z"/>
<path fill="#F88364" opacity="1.000000" stroke="none" 
	d="
M400.963074,303.264282 
	C401.086761,301.271545 401.210266,299.733307 401.333771,298.195038 
	C401.748901,298.128418 402.164001,298.061798 402.579132,297.995148 
	C409.571198,314.670898 416.563232,331.346649 423.693054,348.350952 
	C413.595001,345.407013 400.993042,320.152252 400.963074,303.264282 
z"/>
</svg>