<svg version="1.1" id="Layer_1" xmlns="http://www.w3.org/2000/svg" xmlns:xlink="http://www.w3.org/1999/xlink" x="0px" y="0px"
	 width="100%" viewBox="0 0 512 512" enable-background="new 0 0 512 512" xml:space="preserve">
<path fill="#000000" opacity="1.000000" stroke="none" 
	d="
M294.000000,513.000000 
	C196.023788,513.000000 98.547569,513.000000 1.071359,513.000000 
	C1.047572,512.857178 1.002938,512.714294 1.002935,512.571472 
	C0.999976,342.113068 1.000000,171.654663 1.000000,1.000000 
	C86.246994,1.000000 171.494125,1.000000 256.741272,1.000000 
	C342.053802,1.000000 427.366302,1.000000 512.839417,1.000000 
	C512.839417,171.666550 512.839417,342.333252 512.839417,513.000000 
	C440.130829,513.000000 367.315399,513.000000 294.000000,513.000000 
M170.004654,84.502083 
	C161.963226,88.352661 153.897110,92.152718 145.887344,96.068115 
	C137.992615,99.927292 130.411545,104.583153 122.232521,107.669640 
	C109.774933,112.370712 98.097664,118.251457 87.205437,125.886002 
	C74.671944,134.670944 64.110756,145.317688 57.584957,159.181732 
	C50.172485,174.929489 47.096596,192.000931 47.258541,209.239044 
	C47.386742,222.884216 49.825527,236.503830 51.088959,250.148605 
	C51.205608,251.408447 50.628857,253.203537 49.718750,254.015839 
	C38.397758,264.120209 29.956949,276.293549 24.135983,290.193665 
	C18.812954,302.904724 15.927279,316.195618 14.676149,330.019470 
	C14.135168,335.996826 14.440999,341.096252 17.486155,346.067108 
	C26.608290,360.957916 35.790344,375.812042 44.910160,390.704224 
	C53.258751,404.337097 61.426483,418.082703 69.926056,431.620331 
	C75.008537,439.715393 82.301308,439.236359 86.579788,430.859833 
	C96.589096,411.263184 102.123207,390.565094 102.010452,368.464264 
	C102.003685,367.139343 101.693283,365.460876 102.353630,364.544952 
	C106.837196,358.325928 111.543732,352.267670 116.386742,345.882568 
	C118.475555,348.754242 119.967995,351.137146 121.781174,353.243988 
	C132.059158,365.186493 137.660583,378.566162 134.985168,394.639984 
	C132.142700,411.717377 129.442474,428.818756 126.522888,445.882751 
	C125.596413,451.297729 127.635674,455.328125 132.880020,456.804688 
	C135.411774,457.517548 138.050552,457.854523 140.644928,458.340118 
	C172.225891,464.251434 203.247223,473.102356 235.384750,476.109924 
	C254.141632,477.865295 272.803741,477.506927 291.355896,474.300323 
	C304.186462,472.082642 316.956726,469.505920 329.729401,466.966248 
	C346.042450,463.722595 362.353699,460.461945 378.618256,456.986450 
	C384.953094,455.632782 386.547943,453.822937 385.874359,447.366364 
	C384.798737,437.056183 382.982819,426.821014 381.398865,416.566681 
	C379.989990,407.446045 378.006989,398.388367 377.099945,389.221466 
	C375.352966,371.565674 385.732544,359.097992 396.273590,346.402679 
	C399.846771,350.868073 402.901855,355.390381 406.669800,359.209351 
	C410.988586,363.586578 411.189728,368.655975 411.091431,374.211548 
	C411.007141,378.975922 411.313324,383.813904 412.084290,388.514771 
	C414.861328,405.446838 420.169037,421.568939 428.989868,436.349640 
	C433.863617,444.516418 441.393280,444.392059 445.902283,436.208221 
	C454.681030,420.274872 463.211365,404.204895 471.935577,388.241241 
	C478.500305,376.229004 485.053284,364.205475 491.903900,352.356018 
	C496.571960,344.281647 499.567261,335.925323 497.868652,326.531494 
	C496.495361,318.936890 495.044739,311.326294 493.037048,303.882263 
	C487.859894,284.686798 478.441711,267.986267 463.383942,254.640976 
	C462.072693,253.478882 461.585052,250.643051 461.757568,248.676132 
	C462.650177,238.499985 464.362305,228.376419 464.846588,218.189743 
	C465.246796,209.771835 464.749786,201.250473 463.915222,192.847977 
	C462.415649,177.750397 458.635010,163.268906 449.968079,150.485153 
	C436.949432,131.282501 418.067841,119.815643 397.545685,110.264946 
	C369.180695,97.064316 341.014038,83.435951 312.844604,69.820824 
	C311.493073,69.167595 310.209290,66.912361 310.131622,65.341972 
	C309.819244,59.023941 310.091858,52.679798 309.960663,46.349190 
	C309.830017,40.044796 303.960052,36.019455 298.123840,38.366436 
	C292.321533,40.699795 286.609161,43.287144 280.981628,46.019146 
	C264.983826,53.785610 248.919662,54.329445 232.658096,46.913975 
	C226.642197,44.170650 220.618393,41.435711 214.517868,38.889347 
	C208.245438,36.271217 203.068008,39.719082 203.016022,46.417088 
	C202.968170,52.583294 202.862564,58.754677 203.063293,64.914627 
	C203.152985,67.667122 202.136078,69.047752 199.701324,70.182846 
	C189.967453,74.720840 180.326096,79.457237 170.004654,84.502083 
z"/>
<path fill="#49506A" opacity="1.000000" stroke="none" 
	d="
M170.327576,84.311157 
	C180.326096,79.457237 189.967453,74.720840 199.701324,70.182846 
	C202.136078,69.047752 203.152985,67.667122 203.063293,64.914627 
	C202.862564,58.754677 202.968170,52.583294 203.016022,46.417088 
	C203.068008,39.719082 208.245438,36.271217 214.517868,38.889347 
	C220.618393,41.435711 226.642197,44.170650 232.658096,46.913975 
	C248.919662,54.329445 264.983826,53.785610 280.981628,46.019146 
	C286.609161,43.287144 292.321533,40.699795 298.123840,38.366436 
	C303.960052,36.019455 309.830017,40.044796 309.960663,46.349190 
	C310.091858,52.679798 309.819244,59.023941 310.131622,65.341972 
	C310.209290,66.912361 311.493073,69.167595 312.844604,69.820824 
	C341.014038,83.435951 369.180695,97.064316 397.545685,110.264946 
	C418.067841,119.815643 436.949432,131.282501 449.968079,150.485153 
	C458.635010,163.268906 462.415649,177.750397 463.915222,192.847977 
	C464.749786,201.250473 465.246796,209.771835 464.846588,218.189743 
	C464.362305,228.376419 462.650177,238.499985 461.757568,248.676132 
	C461.585052,250.643051 462.072693,253.478882 463.383942,254.640976 
	C478.441711,267.986267 487.859894,284.686798 493.037048,303.882263 
	C495.044739,311.326294 496.495361,318.936890 497.868652,326.531494 
	C499.567261,335.925323 496.571960,344.281647 491.903900,352.356018 
	C485.053284,364.205475 478.500305,376.229004 471.935577,388.241241 
	C463.211365,404.204895 454.681030,420.274872 445.902283,436.208221 
	C441.393280,444.392059 433.863617,444.516418 428.989868,436.349640 
	C420.169037,421.568939 414.861328,405.446838 412.084290,388.514771 
	C411.313324,383.813904 411.007141,378.975922 411.091431,374.211548 
	C411.189728,368.655975 410.988586,363.586578 406.669800,359.209351 
	C402.901855,355.390381 399.846771,350.868073 396.273590,346.402679 
	C385.732544,359.097992 375.352966,371.565674 377.099945,389.221466 
	C378.006989,398.388367 379.989990,407.446045 381.398865,416.566681 
	C382.982819,426.821014 384.798737,437.056183 385.874359,447.366364 
	C386.547943,453.822937 384.953094,455.632782 378.618256,456.986450 
	C362.353699,460.461945 346.042450,463.722595 329.729401,466.966248 
	C316.956726,469.505920 304.186462,472.082642 291.355896,474.300323 
	C272.803741,477.506927 254.141632,477.865295 235.384750,476.109924 
	C203.247223,473.102356 172.225891,464.251434 140.644928,458.340118 
	C138.050552,457.854523 135.411774,457.517548 132.880020,456.804688 
	C127.635674,455.328125 125.596413,451.297729 126.522888,445.882751 
	C129.442474,428.818756 132.142700,411.717377 134.985168,394.639984 
	C137.660583,378.566162 132.059158,365.186493 121.781174,353.243988 
	C119.967995,351.137146 118.475555,348.754242 116.386742,345.882568 
	C111.543732,352.267670 106.837196,358.325928 102.353630,364.544952 
	C101.693283,365.460876 102.003685,367.139343 102.010452,368.464264 
	C102.123207,390.565094 96.589096,411.263184 86.579788,430.859833 
	C82.301308,439.236359 75.008537,439.715393 69.926056,431.620331 
	C61.426483,418.082703 53.258751,404.337097 44.910160,390.704224 
	C35.790344,375.812042 26.608290,360.957916 17.486155,346.067108 
	C14.440999,341.096252 14.135168,335.996826 14.676149,330.019470 
	C15.927279,316.195618 18.812954,302.904724 24.135983,290.193665 
	C29.956949,276.293549 38.397758,264.120209 49.718750,254.015839 
	C50.628857,253.203537 51.205608,251.408447 51.088959,250.148605 
	C49.825527,236.503830 47.386742,222.884216 47.258541,209.239044 
	C47.096596,192.000931 50.172485,174.929489 57.584957,159.181732 
	C64.110756,145.317688 74.671944,134.670944 87.205437,125.886002 
	C98.097664,118.251457 109.774933,112.370712 122.232521,107.669640 
	C130.411545,104.583153 137.992615,99.927292 145.887344,96.068115 
	C153.897110,92.152718 161.963226,88.352661 170.327576,84.311157 
M323.304077,250.110611 
	C325.510742,250.853409 327.675751,251.774048 329.932617,252.302536 
	C334.868011,253.458298 339.904114,255.473282 344.801239,255.222992 
	C353.783417,254.763901 360.401062,249.316101 365.883636,242.384644 
	C373.472351,232.790375 383.164398,226.416077 395.252960,223.888672 
	C403.050415,222.258392 404.051880,219.636230 399.352966,212.997086 
	C392.777893,203.707047 387.254456,193.933273 383.944885,182.928909 
	C382.865173,179.338867 380.932434,175.847229 378.736359,172.778183 
	C368.764954,158.842819 356.031525,148.100235 340.549347,140.655029 
	C331.788300,136.441910 322.747162,135.489243 313.343781,138.018173 
	C297.437225,142.296097 282.975250,149.778061 268.986572,158.229279 
	C264.555206,160.906464 262.397430,165.375885 262.354065,170.473450 
	C262.219635,186.293106 262.049652,202.121201 262.430817,217.933075 
	C262.650116,227.030411 268.067841,232.753220 276.885956,235.469315 
	C292.138641,240.167343 307.325867,245.078079 323.304077,250.110611 
M233.918152,152.574951 
	C224.048492,148.186920 214.448624,142.947754 204.216187,139.704163 
	C197.161819,137.468002 188.627808,135.802979 181.802887,137.684174 
	C158.448059,144.121628 140.357483,158.758591 129.874222,180.518311 
	C124.175682,192.346588 119.416527,204.524094 111.741959,215.318344 
	C108.945869,219.251007 110.339577,222.087601 115.135590,223.389786 
	C117.862549,224.130203 120.662804,224.639008 123.335442,225.534470 
	C133.633423,228.984833 141.456726,235.724091 148.219009,244.045517 
	C156.993347,254.842850 167.445099,257.462921 180.575455,253.129425 
	C199.051910,247.031555 217.605988,241.166672 236.159058,235.304077 
	C245.127441,232.470139 250.061035,226.374069 250.139496,216.962769 
	C250.267242,201.638947 250.166565,186.313293 250.175034,170.988403 
	C250.178375,164.950180 247.459351,160.463531 242.380341,157.368469 
	C239.823380,155.810333 237.176025,154.400558 233.918152,152.574951 
M415.241882,133.209351 
	C391.274811,118.845306 367.858368,124.891769 343.546570,134.596024 
	C349.012634,136.788986 353.645325,138.164413 357.781250,140.441956 
	C361.971375,142.749344 365.968933,145.616241 369.531403,148.816330 
	C383.054382,160.963745 392.921082,175.720352 398.465607,193.006454 
	C401.435242,202.264908 405.547729,210.765350 412.230194,217.593643 
	C422.220276,227.801758 432.866730,237.368317 443.268280,247.171371 
	C444.065735,247.922974 445.134369,248.386902 446.423248,249.204117 
	C446.784912,248.072586 447.113800,247.352737 447.241486,246.598801 
	C450.646515,226.494553 452.531891,206.307266 449.688232,185.970886 
	C446.522095,163.328445 436.737610,144.853592 415.241882,133.209351 
M121.906845,175.431259 
	C133.034592,157.013962 146.091919,140.802994 168.472626,134.634232 
	C161.629593,131.821533 154.809464,129.391541 147.869247,127.374763 
	C108.730255,116.001366 71.040726,141.980194 64.182487,178.470749 
	C61.229515,194.182587 61.116383,209.925278 62.594948,225.729538 
	C63.317039,233.447968 64.519272,241.121506 65.587730,249.468002 
	C67.469185,248.351776 68.582016,247.935135 69.377365,247.182846 
	C79.885422,237.243622 90.629379,227.530884 100.723206,217.184784 
	C107.281380,210.462708 111.437813,202.117172 114.169334,192.959946 
	C115.912254,187.116898 119.033440,181.684952 121.906845,175.431259 
M440.659546,252.869400 
	C432.414215,246.938049 424.268005,240.859131 415.840912,235.198395 
	C414.131927,234.050415 410.495331,233.404907 409.258850,234.401993 
	C406.489044,236.635651 402.955170,239.945984 402.772614,242.999603 
	C402.119659,253.921875 401.378235,265.145599 403.158203,275.841248 
	C406.613068,296.601044 413.798767,316.392365 423.346222,335.206665 
	C429.868622,348.059692 437.744690,359.959259 449.004028,369.304504 
	C451.923645,371.727783 455.036957,372.993073 458.662628,371.572479 
	C462.297607,370.148254 463.726532,367.129913 464.120300,363.324463 
	C464.908478,355.707336 465.842224,348.102722 466.863800,340.512848 
	C468.567444,327.855286 469.167664,315.435638 463.920135,303.199707 
	C457.820282,288.976471 452.539703,274.403595 446.615692,260.101715 
	C445.547150,257.522064 443.088684,255.518143 440.659546,252.869400 
M94.501175,323.997650 
	C98.950310,310.759369 103.596802,297.583252 107.793427,284.265381 
	C112.041862,270.783142 109.979385,256.835510 109.987198,243.071609 
	C109.989662,238.715179 107.051903,235.887451 103.145195,234.007339 
	C99.437996,232.223221 97.327141,234.702972 94.773560,236.562576 
	C86.833527,242.344833 78.719109,247.889740 70.840057,253.752121 
	C68.954994,255.154694 67.153763,257.201080 66.278824,259.345062 
	C59.990437,274.754761 53.848469,290.226807 47.902679,305.771881 
	C46.372078,309.773590 44.589088,314.175598 44.842342,318.275085 
	C45.835064,334.344513 47.293777,350.403259 49.242233,366.385193 
	C49.885693,371.663055 56.569763,373.823792 61.235954,370.902893 
	C63.748631,369.329987 66.011230,367.274506 68.140312,365.185669 
	C79.880424,353.667633 87.646957,339.569580 94.501175,323.997650 
M315.688721,260.916718 
	C301.168976,256.049194 286.655090,251.164093 272.126923,246.321838 
	C265.229065,244.022766 262.099365,246.315308 262.062775,253.725403 
	C262.013397,263.720459 262.036133,273.715942 262.053772,283.711212 
	C262.066437,290.868683 263.119476,292.333130 270.314484,293.778839 
	C285.550720,296.840210 300.368134,301.112885 314.502258,307.703064 
	C316.060303,308.429535 319.090912,308.240387 320.272003,307.178497 
	C329.872314,298.546875 335.939941,287.802612 337.560974,274.907104 
	C338.221619,269.651276 335.599609,266.637848 330.792053,265.336151 
	C325.984711,264.034515 321.230499,262.536682 315.688721,260.916718 
M247.880219,246.803238 
	C245.711151,246.504730 243.414154,245.606369 241.400360,246.035889 
	C237.521881,246.863159 233.809372,248.459061 230.017883,249.705338 
	C214.382431,254.844696 198.808990,260.187866 183.072311,264.996429 
	C176.947098,266.868073 174.269592,269.077881 175.109650,275.458344 
	C176.728592,287.754669 182.496124,298.144196 191.318054,306.738312 
	C192.519913,307.909149 195.541061,308.613342 196.965195,307.939240 
	C211.823975,300.906097 227.537201,296.714844 243.523605,293.380829 
	C248.247253,292.395691 250.130508,289.704376 250.054276,284.928497 
	C249.884262,274.279053 250.074417,263.624023 249.930710,252.973816 
	C249.905334,251.092743 248.973007,249.223892 247.880219,246.803238 
M262.240601,393.499908 
	C262.246429,402.655853 262.154388,411.813263 262.294128,420.967163 
	C262.380219,426.607117 264.675842,428.822021 270.281219,428.900757 
	C277.438080,429.001312 284.598358,428.998688 291.755463,428.908142 
	C300.062378,428.803070 304.510559,424.627869 304.622314,416.309052 
	C304.812408,402.161621 304.811554,388.007935 304.620850,373.860535 
	C304.512238,365.801453 300.195740,361.658508 292.095276,361.466888 
	C284.940979,361.297668 277.778351,361.342834 270.621796,361.450897 
	C264.380951,361.545105 262.348877,363.649109 262.270996,370.026459 
	C262.179535,377.516602 262.243896,385.008667 262.240601,393.499908 
M207.999466,379.568176 
	C208.001862,391.882782 207.933884,404.197937 208.032852,416.511749 
	C208.092926,423.985626 212.355545,428.633606 219.546646,428.846313 
	C227.361206,429.077423 235.188522,428.971710 243.008759,428.881683 
	C247.591919,428.828949 250.144531,426.435272 250.150803,421.744385 
	C250.174606,403.938354 250.173676,386.132202 250.139450,368.326202 
	C250.131393,364.129730 247.847168,361.640411 243.731323,361.558929 
	C235.250458,361.391052 226.748734,361.267029 218.283066,361.683624 
	C212.247253,361.980621 208.427612,366.480927 208.048721,372.605286 
	C207.925629,374.595154 208.009995,376.597870 207.999466,379.568176 
M310.594055,347.088043 
	C312.061523,344.480042 313.705048,341.953766 314.961090,339.247620 
	C317.883545,332.951172 316.676697,325.946320 311.421265,321.480927 
	C299.477661,311.332825 285.718414,304.997284 270.074127,303.140167 
	C264.501099,302.478577 262.346069,304.441772 262.292206,310.113007 
	C262.183197,321.592407 262.200409,333.074005 262.280670,344.553864 
	C262.321167,350.348328 264.011871,351.990051 269.727661,352.017395 
	C280.043213,352.066772 290.376831,352.369995 300.664551,351.832642 
	C303.898682,351.663727 307.009888,349.142456 310.594055,347.088043 
M208.503372,315.951355 
	C205.981079,317.848236 203.281357,319.552765 200.973236,321.681854 
	C196.092422,326.184052 194.489090,332.665680 197.392517,338.533752 
	C200.617050,345.050720 202.916550,352.701385 212.936188,352.145599 
	C222.553619,351.612122 232.223862,352.049469 241.870819,352.023895 
	C248.869171,352.005341 250.149139,350.789032 250.173447,344.010101 
	C250.212799,333.032593 250.212555,322.054749 250.173981,311.077240 
	C250.149185,304.019287 248.030975,302.253571 240.961746,303.282288 
	C229.417618,304.962158 218.866058,309.234283 208.503372,315.951355 
M326.712097,126.104683 
	C338.329376,124.016022 349.983917,122.105377 361.532806,119.689804 
	C363.867157,119.201553 365.801910,116.802902 367.920868,115.284988 
	C366.245941,113.278870 364.972656,110.486397 362.831635,109.392746 
	C347.580444,101.602295 332.172424,94.116783 316.771698,86.621864 
	C308.604004,82.646957 303.621277,85.119987 300.834167,93.665375 
	C298.108002,102.023918 294.970398,110.259964 291.695496,118.422234 
	C290.338318,121.804810 288.952576,124.915619 291.354736,128.267120 
	C293.795380,131.672333 297.306488,131.493729 300.848206,130.857529 
	C309.193420,129.358505 317.525757,127.787819 326.712097,126.104683 
M205.607849,85.364471 
	C202.707077,85.601440 199.427948,85.039375 196.966827,86.204788 
	C180.739899,93.888710 164.647964,101.863617 148.640442,109.996376 
	C146.926834,110.866989 144.749207,113.686378 145.084244,115.028030 
	C145.538681,116.847755 148.022018,119.091843 149.961227,119.466682 
	C170.850220,123.504539 191.779526,127.354820 212.769287,130.823883 
	C215.384796,131.256180 219.511078,129.994827 220.941315,128.050201 
	C222.362732,126.117546 222.006454,122.093567 221.137268,119.404434 
	C218.333023,110.728477 215.114960,102.170746 211.663620,93.728012 
	C210.475510,90.821648 208.132950,88.387215 205.607849,85.364471 
M167.896210,389.612000 
	C171.545914,392.766205 175.137619,395.991852 178.882202,399.029144 
	C179.944656,399.890900 181.452606,400.203491 182.756256,400.767914 
	C183.207123,399.440948 184.023102,398.120667 184.047470,396.785919 
	C184.171951,389.968262 184.148071,383.146240 184.070267,376.326935 
	C183.959915,366.652313 180.743698,358.050201 174.574158,350.644653 
	C169.784637,344.895630 164.800156,339.304840 159.769577,333.764252 
	C158.759720,332.652008 157.151367,332.083160 155.818970,331.263763 
	C155.290924,332.723602 154.335266,334.175018 154.306305,335.644684 
	C154.152344,343.459930 154.262329,351.279938 154.221191,359.097992 
	C154.158203,371.066315 158.191864,381.221161 167.896210,389.612000 
M339.905731,348.408600 
	C336.788330,353.654938 331.909882,358.592896 330.925720,364.212830 
	C328.968536,375.389313 328.971405,386.934570 328.567413,398.341766 
	C328.447235,401.736237 330.901703,401.504150 332.970551,399.701691 
	C338.358704,395.007294 343.941711,390.490967 348.935730,385.401917 
	C354.450409,379.782257 357.621674,372.693909 357.947479,364.803314 
	C358.358795,354.841339 358.183441,344.853119 358.136322,334.876831 
	C358.130768,333.698059 357.338745,332.522980 356.911285,331.346222 
	C355.681915,331.986450 354.156403,332.353943 353.273163,333.312988 
	C348.880981,338.082184 344.657928,343.007172 339.905731,348.408600 
M281.133942,74.626343 
	C278.905914,78.118439 275.915253,81.343346 274.581940,85.148918 
	C268.816071,101.605995 263.499695,118.221458 258.111053,134.808945 
	C257.176239,137.686462 257.401184,140.515503 260.555939,142.105499 
	C263.960632,143.821487 266.276154,142.097885 268.133698,139.402176 
	C278.461182,124.414604 287.848206,108.826729 292.219177,91.021019 
	C294.362854,82.288414 294.382812,73.026443 295.203857,63.989498 
	C295.286774,63.076939 294.306519,61.295013 293.740051,61.261490 
	C292.652557,61.197128 291.152710,61.802452 290.448425,62.649315 
	C287.368530,66.352875 284.512482,70.242592 281.133942,74.626343 
M237.601089,128.898483 
	C239.686737,132.103561 241.776337,135.306091 243.856918,138.514465 
	C245.780502,141.480728 248.008911,144.085968 251.957901,142.138062 
	C255.851639,140.217392 255.257126,136.930130 254.132431,133.522614 
	C250.069290,121.212440 245.493561,109.030777 242.226440,96.509644 
	C238.766525,83.249573 230.536224,73.175079 222.373718,62.904205 
	C221.649979,61.993523 220.244919,61.624329 219.156311,61.003647 
	C218.480988,62.211128 217.257080,63.405502 217.227844,64.628410 
	C217.117004,69.268326 216.984726,73.971909 217.595901,78.553581 
	C220.019180,96.719635 227.826538,112.827362 237.601089,128.898483 
M330.119690,417.851440 
	C329.571808,426.255371 328.694122,434.656311 328.617767,443.064514 
	C328.580566,447.158813 332.156586,448.210266 335.224335,445.191223 
	C339.721619,440.765442 343.635498,435.711060 348.347748,431.546661 
	C359.291992,421.874847 358.763367,409.225983 357.994965,396.511597 
	C357.807739,393.413757 355.020569,391.764313 352.664764,393.937866 
	C344.789215,401.204163 335.436096,407.121338 330.119690,417.851440 
M176.353668,444.234772 
	C178.191956,445.003448 180.030243,445.772125 181.868515,446.540802 
	C182.616684,444.668701 183.873856,442.832977 184.010757,440.917175 
	C184.329895,436.450897 184.695236,431.847046 183.956100,427.482788 
	C183.090485,422.371643 182.297089,416.492798 179.286972,412.665955 
	C173.898193,405.815063 167.001801,400.108765 160.470154,394.218353 
	C157.838989,391.845428 154.777420,393.090057 154.555176,396.371552 
	C153.755447,408.179016 152.934540,420.123688 162.481796,429.586456 
	C167.084610,434.148590 171.409210,438.991486 176.353668,444.234772 
M470.656952,301.995209 
	C475.784882,317.885071 474.406738,334.278687 474.410095,350.564331 
	C474.410583,352.894958 474.160248,355.244629 474.399017,357.546783 
	C474.493103,358.453827 475.458069,359.591461 476.316864,359.976807 
	C476.824371,360.204468 478.280151,359.370789 478.661652,358.664520 
	C482.521790,351.517700 487.477631,344.636383 486.930542,336.008606 
	C486.479095,328.888977 485.787079,321.718811 484.368866,314.740326 
	C481.667358,301.446899 476.319794,289.345459 465.961853,280.057251 
	C464.911163,279.115082 463.151611,278.963379 461.721008,278.444855 
	C461.910767,279.965424 461.776825,281.621277 462.345886,282.983368 
	C464.909363,289.119110 467.672180,295.171570 470.656952,301.995209 
M36.704308,292.231232 
	C33.886429,299.480835 30.291424,306.535706 28.416069,314.021454 
	C24.764578,328.596893 23.171368,343.312103 32.802544,356.647522 
	C33.769379,357.986206 35.229813,358.968384 36.461166,360.115997 
	C37.030991,358.565552 38.071323,357.021698 38.093204,355.463531 
	C38.221561,346.324036 38.139526,337.181000 38.076523,328.039490 
	C37.973446,313.083466 41.715618,299.115479 48.766506,285.981995 
	C49.473671,284.664795 50.349770,283.386810 50.759258,281.977783 
	C51.081738,280.868103 50.806000,279.584564 50.795971,278.378265 
	C49.620220,278.725037 48.038849,278.704803 47.337036,279.480438 
	C43.786030,283.404816 40.463688,287.536072 36.704308,292.231232 
M90.706161,345.073181 
	C90.556831,346.160187 90.407509,347.247162 90.168510,348.986877 
	C104.898232,339.465302 117.740074,306.767822 110.862236,298.401459 
	C104.259285,313.683990 97.624741,329.039642 90.706161,345.073181 
M407.428802,311.967224 
	C405.699829,307.270905 403.970856,302.574554 401.902008,296.954987 
	C395.793976,310.066132 409.513519,342.977905 422.127991,348.322327 
	C422.296478,348.050171 422.675629,347.688660 422.603485,347.518646 
	C417.672760,335.895386 412.705811,324.287506 407.428802,311.967224 
z"/>
<path fill="#FE004F" opacity="1.000000" stroke="none" 
	d="
M322.922302,250.005096 
	C307.325867,245.078079 292.138641,240.167343 276.885956,235.469315 
	C268.067841,232.753220 262.650116,227.030411 262.430817,217.933075 
	C262.049652,202.121201 262.219635,186.293106 262.354065,170.473450 
	C262.397430,165.375885 264.555206,160.906464 268.986572,158.229279 
	C282.975250,149.778061 297.437225,142.296097 313.343781,138.018173 
	C322.747162,135.489243 331.788300,136.441910 340.549347,140.655029 
	C356.031525,148.100235 368.764954,158.842819 378.736359,172.778183 
	C380.932434,175.847229 382.865173,179.338867 383.944885,182.928909 
	C387.254456,193.933273 392.777893,203.707047 399.352966,212.997086 
	C404.051880,219.636230 403.050415,222.258392 395.252960,223.888672 
	C383.164398,226.416077 373.472351,232.790375 365.883636,242.384644 
	C360.401062,249.316101 353.783417,254.763901 344.801239,255.222992 
	C339.904114,255.473282 334.868011,253.458298 329.932617,252.302536 
	C327.675751,251.774048 325.510742,250.853409 322.922302,250.005096 
z"/>
<path fill="#FE004F" opacity="1.000000" stroke="none" 
	d="
M234.243851,152.749329 
	C237.176025,154.400558 239.823380,155.810333 242.380341,157.368469 
	C247.459351,160.463531 250.178375,164.950180 250.175034,170.988403 
	C250.166565,186.313293 250.267242,201.638947 250.139496,216.962769 
	C250.061035,226.374069 245.127441,232.470139 236.159058,235.304077 
	C217.605988,241.166672 199.051910,247.031555 180.575455,253.129425 
	C167.445099,257.462921 156.993347,254.842850 148.219009,244.045517 
	C141.456726,235.724091 133.633423,228.984833 123.335442,225.534470 
	C120.662804,224.639008 117.862549,224.130203 115.135590,223.389786 
	C110.339577,222.087601 108.945869,219.251007 111.741959,215.318344 
	C119.416527,204.524094 124.175682,192.346588 129.874222,180.518311 
	C140.357483,158.758591 158.448059,144.121628 181.802887,137.684174 
	C188.627808,135.802979 197.161819,137.468002 204.216187,139.704163 
	C214.448624,142.947754 224.048492,148.186920 234.243851,152.749329 
z"/>
<path fill="#9EAACD" opacity="1.000000" stroke="none" 
	d="
M415.557770,133.396545 
	C436.737610,144.853592 446.522095,163.328445 449.688232,185.970886 
	C452.531891,206.307266 450.646515,226.494553 447.241486,246.598801 
	C447.113800,247.352737 446.784912,248.072586 446.423248,249.204117 
	C445.134369,248.386902 444.065735,247.922974 443.268280,247.171371 
	C432.866730,237.368317 422.220276,227.801758 412.230194,217.593643 
	C405.547729,210.765350 401.435242,202.264908 398.465607,193.006454 
	C392.921082,175.720352 383.054382,160.963745 369.531403,148.816330 
	C365.968933,145.616241 361.971375,142.749344 357.781250,140.441956 
	C353.645325,138.164413 349.012634,136.788986 343.546570,134.596024 
	C367.858368,124.891769 391.274811,118.845306 415.557770,133.396545 
z"/>
<path fill="#9EAACD" opacity="1.000000" stroke="none" 
	d="
M121.721756,175.749969 
	C119.033440,181.684952 115.912254,187.116898 114.169334,192.959946 
	C111.437813,202.117172 107.281380,210.462708 100.723206,217.184784 
	C90.629379,227.530884 79.885422,237.243622 69.377365,247.182846 
	C68.582016,247.935135 67.469185,248.351776 65.587730,249.468002 
	C64.519272,241.121506 63.317039,233.447968 62.594948,225.729538 
	C61.116383,209.925278 61.229515,194.182587 64.182487,178.470749 
	C71.040726,141.980194 108.730255,116.001366 147.869247,127.374763 
	C154.809464,129.391541 161.629593,131.821533 168.472626,134.634232 
	C146.091919,140.802994 133.034592,157.013962 121.721756,175.749969 
z"/>
<path fill="#9EAACD" opacity="1.000000" stroke="none" 
	d="
M440.965729,253.058899 
	C443.088684,255.518143 445.547150,257.522064 446.615692,260.101715 
	C452.539703,274.403595 457.820282,288.976471 463.920135,303.199707 
	C469.167664,315.435638 468.567444,327.855286 466.863800,340.512848 
	C465.842224,348.102722 464.908478,355.707336 464.120300,363.324463 
	C463.726532,367.129913 462.297607,370.148254 458.662628,371.572479 
	C455.036957,372.993073 451.923645,371.727783 449.004028,369.304504 
	C437.744690,359.959259 429.868622,348.059692 423.346222,335.206665 
	C413.798767,316.392365 406.613068,296.601044 403.158203,275.841248 
	C401.378235,265.145599 402.119659,253.921875 402.772614,242.999603 
	C402.955170,239.945984 406.489044,236.635651 409.258850,234.401993 
	C410.495331,233.404907 414.131927,234.050415 415.840912,235.198395 
	C424.268005,240.859131 432.414215,246.938049 440.965729,253.058899 
z"/>
<path fill="#9EAACD" opacity="1.000000" stroke="none" 
	d="
M94.340874,324.343719 
	C87.646957,339.569580 79.880424,353.667633 68.140312,365.185669 
	C66.011230,367.274506 63.748631,369.329987 61.235954,370.902893 
	C56.569763,373.823792 49.885693,371.663055 49.242233,366.385193 
	C47.293777,350.403259 45.835064,334.344513 44.842342,318.275085 
	C44.589088,314.175598 46.372078,309.773590 47.902679,305.771881 
	C53.848469,290.226807 59.990437,274.754761 66.278824,259.345062 
	C67.153763,257.201080 68.954994,255.154694 70.840057,253.752121 
	C78.719109,247.889740 86.833527,242.344833 94.773560,236.562576 
	C97.327141,234.702972 99.437996,232.223221 103.145195,234.007339 
	C107.051903,235.887451 109.989662,238.715179 109.987198,243.071609 
	C109.979385,256.835510 112.041862,270.783142 107.793427,284.265381 
	C103.596802,297.583252 98.950310,310.759369 94.340874,324.343719 
z"/>
<path fill="#9EAACD" opacity="1.000000" stroke="none" 
	d="
M316.070862,261.020782 
	C321.230499,262.536682 325.984711,264.034515 330.792053,265.336151 
	C335.599609,266.637848 338.221619,269.651276 337.560974,274.907104 
	C335.939941,287.802612 329.872314,298.546875 320.272003,307.178497 
	C319.090912,308.240387 316.060303,308.429535 314.502258,307.703064 
	C300.368134,301.112885 285.550720,296.840210 270.314484,293.778839 
	C263.119476,292.333130 262.066437,290.868683 262.053772,283.711212 
	C262.036133,273.715942 262.013397,263.720459 262.062775,253.725403 
	C262.099365,246.315308 265.229065,244.022766 272.126923,246.321838 
	C286.655090,251.164093 301.168976,256.049194 316.070862,261.020782 
z"/>
<path fill="#9EAACD" opacity="1.000000" stroke="none" 
	d="
M248.169861,247.076324 
	C248.973007,249.223892 249.905334,251.092743 249.930710,252.973816 
	C250.074417,263.624023 249.884262,274.279053 250.054276,284.928497 
	C250.130508,289.704376 248.247253,292.395691 243.523605,293.380829 
	C227.537201,296.714844 211.823975,300.906097 196.965195,307.939240 
	C195.541061,308.613342 192.519913,307.909149 191.318054,306.738312 
	C182.496124,298.144196 176.728592,287.754669 175.109650,275.458344 
	C174.269592,269.077881 176.947098,266.868073 183.072311,264.996429 
	C198.808990,260.187866 214.382431,254.844696 230.017883,249.705338 
	C233.809372,248.459061 237.521881,246.863159 241.400360,246.035889 
	C243.414154,245.606369 245.711151,246.504730 248.169861,247.076324 
z"/>
<path fill="#9DA9CC" opacity="1.000000" stroke="none" 
	d="
M262.240631,392.999878 
	C262.243896,385.008667 262.179535,377.516602 262.270996,370.026459 
	C262.348877,363.649109 264.380951,361.545105 270.621796,361.450897 
	C277.778351,361.342834 284.940979,361.297668 292.095276,361.466888 
	C300.195740,361.658508 304.512238,365.801453 304.620850,373.860535 
	C304.811554,388.007935 304.812408,402.161621 304.622314,416.309052 
	C304.510559,424.627869 300.062378,428.803070 291.755463,428.908142 
	C284.598358,428.998688 277.438080,429.001312 270.281219,428.900757 
	C264.675842,428.822021 262.380219,426.607117 262.294128,420.967163 
	C262.154388,411.813263 262.246429,402.655853 262.240631,392.999878 
z"/>
<path fill="#9EAACD" opacity="1.000000" stroke="none" 
	d="
M207.999466,379.081421 
	C208.009995,376.597870 207.925629,374.595154 208.048721,372.605286 
	C208.427612,366.480927 212.247253,361.980621 218.283066,361.683624 
	C226.748734,361.267029 235.250458,361.391052 243.731323,361.558929 
	C247.847168,361.640411 250.131393,364.129730 250.139450,368.326202 
	C250.173676,386.132202 250.174606,403.938354 250.150803,421.744385 
	C250.144531,426.435272 247.591919,428.828949 243.008759,428.881683 
	C235.188522,428.971710 227.361206,429.077423 219.546646,428.846313 
	C212.355545,428.633606 208.092926,423.985626 208.032852,416.511749 
	C207.933884,404.197937 208.001862,391.882782 207.999466,379.081421 
z"/>
<path fill="#9EAACD" opacity="1.000000" stroke="none" 
	d="
M310.385712,347.392944 
	C307.009888,349.142456 303.898682,351.663727 300.664551,351.832642 
	C290.376831,352.369995 280.043213,352.066772 269.727661,352.017395 
	C264.011871,351.990051 262.321167,350.348328 262.280670,344.553864 
	C262.200409,333.074005 262.183197,321.592407 262.292206,310.113007 
	C262.346069,304.441772 264.501099,302.478577 270.074127,303.140167 
	C285.718414,304.997284 299.477661,311.332825 311.421265,321.480927 
	C316.676697,325.946320 317.883545,332.951172 314.961090,339.247620 
	C313.705048,341.953766 312.061523,344.480042 310.385712,347.392944 
z"/>
<path fill="#9FAACD" opacity="1.000000" stroke="none" 
	d="
M208.800995,315.745148 
	C218.866058,309.234283 229.417618,304.962158 240.961746,303.282288 
	C248.030975,302.253571 250.149185,304.019287 250.173981,311.077240 
	C250.212555,322.054749 250.212799,333.032593 250.173447,344.010101 
	C250.149139,350.789032 248.869171,352.005341 241.870819,352.023895 
	C232.223862,352.049469 222.553619,351.612122 212.936188,352.145599 
	C202.916550,352.701385 200.617050,345.050720 197.392517,338.533752 
	C194.489090,332.665680 196.092422,326.184052 200.973236,321.681854 
	C203.281357,319.552765 205.981079,317.848236 208.800995,315.745148 
z"/>
<path fill="#9EAACD" opacity="1.000000" stroke="none" 
	d="
M326.287689,126.175400 
	C317.525757,127.787819 309.193420,129.358505 300.848206,130.857529 
	C297.306488,131.493729 293.795380,131.672333 291.354736,128.267120 
	C288.952576,124.915619 290.338318,121.804810 291.695496,118.422234 
	C294.970398,110.259964 298.108002,102.023918 300.834167,93.665375 
	C303.621277,85.119987 308.604004,82.646957 316.771698,86.621864 
	C332.172424,94.116783 347.580444,101.602295 362.831635,109.392746 
	C364.972656,110.486397 366.245941,113.278870 367.920868,115.284988 
	C365.801910,116.802902 363.867157,119.201553 361.532806,119.689804 
	C349.983917,122.105377 338.329376,124.016022 326.287689,126.175400 
z"/>
<path fill="#9EAACD" opacity="1.000000" stroke="none" 
	d="
M205.962799,85.550827 
	C208.132950,88.387215 210.475510,90.821648 211.663620,93.728012 
	C215.114960,102.170746 218.333023,110.728477 221.137268,119.404434 
	C222.006454,122.093567 222.362732,126.117546 220.941315,128.050201 
	C219.511078,129.994827 215.384796,131.256180 212.769287,130.823883 
	C191.779526,127.354820 170.850220,123.504539 149.961227,119.466682 
	C148.022018,119.091843 145.538681,116.847755 145.084244,115.028030 
	C144.749207,113.686378 146.926834,110.866989 148.640442,109.996376 
	C164.647964,101.863617 180.739899,93.888710 196.966827,86.204788 
	C199.427948,85.039375 202.707077,85.601440 205.962799,85.550827 
z"/>
<path fill="#9EAACC" opacity="1.000000" stroke="none" 
	d="
M167.631805,389.374023 
	C158.191864,381.221161 154.158203,371.066315 154.221191,359.097992 
	C154.262329,351.279938 154.152344,343.459930 154.306305,335.644684 
	C154.335266,334.175018 155.290924,332.723602 155.818970,331.263763 
	C157.151367,332.083160 158.759720,332.652008 159.769577,333.764252 
	C164.800156,339.304840 169.784637,344.895630 174.574158,350.644653 
	C180.743698,358.050201 183.959915,366.652313 184.070267,376.326935 
	C184.148071,383.146240 184.171951,389.968262 184.047470,396.785919 
	C184.023102,398.120667 183.207123,399.440948 182.756256,400.767944 
	C181.452606,400.203491 179.944656,399.890900 178.882202,399.029144 
	C175.137619,395.991852 171.545914,392.766205 167.631805,389.374023 
z"/>
<path fill="#9EA9CC" opacity="1.000000" stroke="none" 
	d="
M340.140503,348.142944 
	C344.657928,343.007172 348.880981,338.082184 353.273163,333.312988 
	C354.156403,332.353943 355.681915,331.986450 356.911316,331.346222 
	C357.338745,332.522980 358.130768,333.698059 358.136322,334.876831 
	C358.183441,344.853119 358.358795,354.841339 357.947479,364.803314 
	C357.621674,372.693909 354.450409,379.782257 348.935730,385.401917 
	C343.941711,390.490967 338.358704,395.007294 332.970551,399.701691 
	C330.901703,401.504150 328.447235,401.736237 328.567413,398.341766 
	C328.971405,386.934570 328.968536,375.389313 330.925720,364.212830 
	C331.909882,358.592896 336.788330,353.654938 340.140503,348.142944 
z"/>
<path fill="#9DA9CC" opacity="1.000000" stroke="none" 
	d="
M281.354584,74.345551 
	C284.512482,70.242592 287.368530,66.352875 290.448425,62.649315 
	C291.152710,61.802452 292.652557,61.197128 293.740051,61.261490 
	C294.306519,61.295013 295.286774,63.076939 295.203857,63.989498 
	C294.382812,73.026443 294.362854,82.288414 292.219177,91.021019 
	C287.848206,108.826729 278.461182,124.414604 268.133698,139.402176 
	C266.276154,142.097885 263.960632,143.821487 260.555939,142.105499 
	C257.401184,140.515503 257.176239,137.686462 258.111053,134.808945 
	C263.499695,118.221458 268.816071,101.605995 274.581940,85.148918 
	C275.915253,81.343346 278.905914,78.118439 281.354584,74.345551 
z"/>
<path fill="#9EA9CC" opacity="1.000000" stroke="none" 
	d="
M237.403503,128.592148 
	C227.826538,112.827362 220.019180,96.719635 217.595901,78.553581 
	C216.984726,73.971909 217.117004,69.268326 217.227844,64.628410 
	C217.257080,63.405502 218.480988,62.211128 219.156311,61.003639 
	C220.244919,61.624329 221.649979,61.993523 222.373718,62.904205 
	C230.536224,73.175079 238.766525,83.249573 242.226440,96.509644 
	C245.493561,109.030777 250.069290,121.212440 254.132431,133.522614 
	C255.257126,136.930130 255.851639,140.217392 251.957901,142.138062 
	C248.008911,144.085968 245.780502,141.480728 243.856918,138.514465 
	C241.776337,135.306091 239.686737,132.103561 237.403503,128.592148 
z"/>
<path fill="#9DA9CC" opacity="1.000000" stroke="none" 
	d="
M330.265198,417.491821 
	C335.436096,407.121338 344.789215,401.204163 352.664764,393.937866 
	C355.020569,391.764313 357.807739,393.413757 357.994965,396.511597 
	C358.763367,409.225983 359.291992,421.874847 348.347748,431.546661 
	C343.635498,435.711060 339.721619,440.765442 335.224335,445.191223 
	C332.156586,448.210266 328.580566,447.158813 328.617767,443.064514 
	C328.694122,434.656311 329.571808,426.255371 330.265198,417.491821 
z"/>
<path fill="#9EA9CC" opacity="1.000000" stroke="none" 
	d="
M176.106735,443.971008 
	C171.409210,438.991486 167.084610,434.148590 162.481796,429.586456 
	C152.934540,420.123688 153.755447,408.179016 154.555176,396.371552 
	C154.777420,393.090057 157.838989,391.845428 160.470154,394.218353 
	C167.001801,400.108765 173.898193,405.815063 179.286972,412.665955 
	C182.297089,416.492798 183.090485,422.371643 183.956100,427.482788 
	C184.695236,431.847046 184.329895,436.450897 184.010757,440.917175 
	C183.873856,442.832977 182.616684,444.668701 181.868530,446.540802 
	C180.030243,445.772125 178.191956,445.003448 176.106735,443.971008 
z"/>
<path fill="#9CA8CB" opacity="1.000000" stroke="none" 
	d="
M470.510071,301.624634 
	C467.672180,295.171570 464.909363,289.119110 462.345886,282.983368 
	C461.776825,281.621277 461.910767,279.965424 461.721008,278.444855 
	C463.151611,278.963379 464.911163,279.115082 465.961853,280.057251 
	C476.319794,289.345459 481.667358,301.446899 484.368866,314.740326 
	C485.787079,321.718811 486.479095,328.888977 486.930542,336.008606 
	C487.477631,344.636383 482.521790,351.517700 478.661652,358.664520 
	C478.280151,359.370789 476.824371,360.204468 476.316864,359.976807 
	C475.458069,359.591461 474.493103,358.453827 474.399017,357.546783 
	C474.160248,355.244629 474.410583,352.894958 474.410095,350.564331 
	C474.406738,334.278687 475.784882,317.885071 470.510071,301.624634 
z"/>
<path fill="#9DA9CC" opacity="1.000000" stroke="none" 
	d="
M36.882744,291.913025 
	C40.463688,287.536072 43.786030,283.404816 47.337036,279.480438 
	C48.038849,278.704803 49.620220,278.725037 50.795971,278.378265 
	C50.806000,279.584564 51.081738,280.868103 50.759258,281.977783 
	C50.349770,283.386810 49.473671,284.664795 48.766506,285.981995 
	C41.715618,299.115479 37.973446,313.083466 38.076523,328.039490 
	C38.139526,337.181000 38.221561,346.324036 38.093204,355.463531 
	C38.071323,357.021698 37.030991,358.565552 36.461166,360.115997 
	C35.229813,358.968384 33.769379,357.986206 32.802544,356.647522 
	C23.171368,343.312103 24.764578,328.596893 28.416069,314.021454 
	C30.291424,306.535706 33.886429,299.480835 36.882744,291.913025 
z"/>
<path fill="#9BA7C9" opacity="1.000000" stroke="none" 
	d="
M90.848175,344.734253 
	C97.624741,329.039642 104.259285,313.683990 110.862236,298.401459 
	C117.740074,306.767822 104.898232,339.465302 90.168510,348.986877 
	C90.407509,347.247162 90.556831,346.160187 90.848175,344.734253 
z"/>
<path fill="#9BA7CA" opacity="1.000000" stroke="none" 
	d="
M407.585388,312.322754 
	C412.705811,324.287506 417.672760,335.895386 422.603485,347.518646 
	C422.675629,347.688660 422.296478,348.050171 422.123108,348.319305 
	C409.513519,342.977905 395.793976,310.066132 401.902008,296.954987 
	C403.970856,302.574554 405.699829,307.270905 407.585388,312.322754 
z"/>
</svg>