<svg version="1.1" id="Layer_1" xmlns="http://www.w3.org/2000/svg" xmlns:xlink="http://www.w3.org/1999/xlink" x="0px" y="0px"
	 width="100%" viewBox="0 0 512 512" enable-background="new 0 0 512 512" xml:space="preserve">
<path fill="#000000" opacity="1.000000" stroke="none" 
	d="
M308.000000,513.000000 
	C205.358261,513.000000 103.216515,513.000000 1.037387,513.000000 
	C1.037387,342.399902 1.037387,171.799789 1.037387,1.099841 
	C171.558426,1.099841 342.116913,1.099841 512.837708,1.099841 
	C512.837708,171.666534 512.837708,342.333252 512.837708,513.000000 
	C444.799774,513.000000 376.649872,513.000000 308.000000,513.000000 
M415.150665,423.719727 
	C425.206116,433.416412 435.251434,443.123627 445.320984,452.805603 
	C450.840820,458.112976 460.130219,459.634125 467.066406,456.423462 
	C471.704712,454.276520 472.619598,450.185211 469.015381,446.567841 
	C465.995758,443.537170 462.594696,440.890747 459.477356,437.952393 
	C452.222839,431.114349 445.015137,424.226105 437.835724,417.309143 
	C435.081055,414.655212 432.454987,411.867737 429.770355,409.141083 
	C431.602112,408.535461 432.709778,408.763397 433.635895,409.302979 
	C442.629333,414.542572 451.697693,419.665283 460.529388,425.166870 
	C467.121063,429.273132 478.086182,429.060333 483.277100,424.212830 
	C487.156464,420.590118 487.155731,417.748199 482.962708,414.437988 
	C477.392609,410.040680 471.690826,405.809509 466.025848,401.533173 
	C453.923309,392.397247 441.770386,383.327393 429.731018,374.109131 
	C427.421021,372.340393 426.091705,372.707977 423.867401,374.483276 
	C414.565582,381.907227 404.407928,387.244049 391.857086,385.779999 
	C398.136627,381.815674 405.024078,378.784180 410.133301,373.894623 
	C415.959686,368.318665 421.691223,366.744843 429.024261,369.101227 
	C431.217194,369.805908 433.482758,370.301422 435.735565,370.800079 
	C442.599060,372.319244 449.625549,372.327393 454.775452,367.243683 
	C457.795807,364.262146 460.117432,359.498199 460.585571,355.294556 
	C461.099487,350.679932 455.885986,350.080719 452.324463,348.996033 
	C439.547668,345.104828 426.873413,340.748352 413.892853,337.710968 
	C407.698669,336.261566 400.880890,337.038574 394.386780,337.452850 
	C389.493988,337.765015 384.614197,340.056549 379.821136,339.791901 
	C369.303009,339.211090 359.402191,335.809113 350.537903,329.987305 
	C334.102966,319.193329 324.114502,302.973328 314.224792,286.628204 
	C304.058289,269.825684 294.312775,252.697327 283.046509,236.649902 
	C269.915710,217.946640 252.588593,204.192520 229.624084,198.876190 
	C228.686996,198.659256 227.701538,197.709839 227.168121,196.838684 
	C222.704300,189.548523 218.843445,181.832962 213.848083,174.935638 
	C201.637436,158.075836 185.560150,146.466675 165.270645,140.886398 
	C163.322586,140.350601 160.945145,138.245956 160.356888,136.370865 
	C152.911896,112.639290 143.496399,89.851196 129.567520,69.096649 
	C121.629555,57.268764 112.469032,46.592133 99.215439,40.653580 
	C81.708328,32.809151 63.113754,29.345163 43.979443,29.046034 
	C29.797115,28.824322 23.003811,35.774593 23.003630,49.937325 
	C23.001881,186.256332 23.002533,322.575348 23.002754,458.894348 
	C23.002756,460.060883 22.977804,461.228271 23.012739,462.393829 
	C23.310919,472.342346 32.137444,482.438965 44.773605,478.916443 
	C48.189064,477.964325 51.286171,475.837402 54.495335,474.183624 
	C69.586937,466.406433 78.845589,454.248962 81.685165,437.447693 
	C83.908913,424.290222 86.058418,411.116180 87.952026,397.908112 
	C89.519638,386.973907 91.450294,376.004395 91.803200,365.005066 
	C92.266098,350.577667 91.139389,336.106720 91.060417,321.652496 
	C90.974037,305.844940 95.925179,292.055420 106.971176,280.197937 
	C112.371101,274.401245 116.545258,267.229370 120.230904,260.137726 
	C123.601440,253.652390 125.566368,246.436554 128.213409,239.375366 
	C129.245667,239.825439 130.270935,240.039246 130.996246,240.624695 
	C138.457047,246.646912 145.912598,252.677536 153.267609,258.827759 
	C155.360641,260.577911 157.657562,262.430145 158.931839,264.746674 
	C162.331528,270.927094 164.802292,277.637756 168.403152,283.684570 
	C178.160233,300.069275 191.019241,313.757782 206.831726,324.384247 
	C223.286911,335.442688 241.748291,342.438232 260.346741,348.900604 
	C276.565155,354.535950 292.999603,359.546570 309.283783,364.996948 
	C317.944641,367.895782 325.238739,373.038666 328.620575,381.676788 
	C332.658661,391.991028 337.195343,401.757874 343.761536,410.858337 
	C359.559814,432.754028 374.673950,455.146576 389.889099,477.457977 
	C394.331604,483.972443 399.947205,487.033264 407.875214,486.068054 
	C413.726379,485.355682 414.923645,483.699463 412.182922,478.534424 
	C406.137970,467.142365 399.916534,455.844086 393.804260,444.487549 
	C393.126801,443.228882 392.690094,441.840668 392.141754,440.512512 
	C401.876343,450.470337 410.695648,460.790131 419.087128,471.446838 
	C424.889893,478.816010 433.668945,482.713379 441.168579,480.380829 
	C446.166901,478.826263 447.216156,476.853302 444.646332,472.412689 
	C441.266602,466.572571 437.475006,460.970215 433.843506,455.276489 
	C427.206879,444.871063 420.557770,434.473572 414.281189,423.677582 
	C414.403168,423.545410 414.525116,423.413208 415.150665,423.719727 
z"/>
<path fill="#494F69" opacity="1.000000" stroke="none" 
	d="
M413.913879,424.072784 
	C420.557770,434.473572 427.206879,444.871063 433.843506,455.276489 
	C437.475006,460.970215 441.266602,466.572571 444.646332,472.412689 
	C447.216156,476.853302 446.166901,478.826263 441.168579,480.380829 
	C433.668945,482.713379 424.889893,478.816010 419.087128,471.446838 
	C410.695648,460.790131 401.876343,450.470337 392.141754,440.512512 
	C392.690094,441.840668 393.126801,443.228882 393.804260,444.487549 
	C399.916534,455.844086 406.137970,467.142365 412.182922,478.534424 
	C414.923645,483.699463 413.726379,485.355682 407.875214,486.068054 
	C399.947205,487.033264 394.331604,483.972443 389.889099,477.457977 
	C374.673950,455.146576 359.559814,432.754028 343.761536,410.858337 
	C337.195343,401.757874 332.658661,391.991028 328.620575,381.676788 
	C325.238739,373.038666 317.944641,367.895782 309.283783,364.996948 
	C292.999603,359.546570 276.565155,354.535950 260.346741,348.900604 
	C241.748291,342.438232 223.286911,335.442688 206.831726,324.384247 
	C191.019241,313.757782 178.160233,300.069275 168.403152,283.684570 
	C164.802292,277.637756 162.331528,270.927094 158.931839,264.746674 
	C157.657562,262.430145 155.360641,260.577911 153.267609,258.827759 
	C145.912598,252.677536 138.457047,246.646912 130.996246,240.624695 
	C130.270935,240.039246 129.245667,239.825439 128.213409,239.375366 
	C125.566368,246.436554 123.601440,253.652390 120.230904,260.137726 
	C116.545258,267.229370 112.371101,274.401245 106.971176,280.197937 
	C95.925179,292.055420 90.974037,305.844940 91.060417,321.652496 
	C91.139389,336.106720 92.266098,350.577667 91.803200,365.005066 
	C91.450294,376.004395 89.519638,386.973907 87.952026,397.908112 
	C86.058418,411.116180 83.908913,424.290222 81.685165,437.447693 
	C78.845589,454.248962 69.586937,466.406433 54.495335,474.183624 
	C51.286171,475.837402 48.189064,477.964325 44.773605,478.916443 
	C32.137444,482.438965 23.310919,472.342346 23.012739,462.393829 
	C22.977804,461.228271 23.002756,460.060883 23.002754,458.894348 
	C23.002533,322.575348 23.001881,186.256332 23.003630,49.937325 
	C23.003811,35.774593 29.797115,28.824322 43.979443,29.046034 
	C63.113754,29.345163 81.708328,32.809151 99.215439,40.653580 
	C112.469032,46.592133 121.629555,57.268764 129.567520,69.096649 
	C143.496399,89.851196 152.911896,112.639290 160.356888,136.370865 
	C160.945145,138.245956 163.322586,140.350601 165.270645,140.886398 
	C185.560150,146.466675 201.637436,158.075836 213.848083,174.935638 
	C218.843445,181.832962 222.704300,189.548523 227.168121,196.838684 
	C227.701538,197.709839 228.686996,198.659256 229.624084,198.876190 
	C252.588593,204.192520 269.915710,217.946640 283.046509,236.649902 
	C294.312775,252.697327 304.058289,269.825684 314.224792,286.628204 
	C324.114502,302.973328 334.102966,319.193329 350.537903,329.987305 
	C359.402191,335.809113 369.303009,339.211090 379.821136,339.791901 
	C384.614197,340.056549 389.493988,337.765015 394.386780,337.452850 
	C400.880890,337.038574 407.698669,336.261566 413.892853,337.710968 
	C426.873413,340.748352 439.547668,345.104828 452.324463,348.996033 
	C455.885986,350.080719 461.099487,350.679932 460.585571,355.294556 
	C460.117432,359.498199 457.795807,364.262146 454.775452,367.243683 
	C449.625549,372.327393 442.599060,372.319244 435.735565,370.800079 
	C433.482758,370.301422 431.217194,369.805908 429.024261,369.101227 
	C421.691223,366.744843 415.959686,368.318665 410.133301,373.894623 
	C405.024078,378.784180 398.136627,381.815674 391.857086,385.779999 
	C404.407928,387.244049 414.565582,381.907227 423.867401,374.483276 
	C426.091705,372.707977 427.421021,372.340393 429.731018,374.109131 
	C441.770386,383.327393 453.923309,392.397247 466.025848,401.533173 
	C471.690826,405.809509 477.392609,410.040680 482.962708,414.437988 
	C487.155731,417.748199 487.156464,420.590118 483.277100,424.212830 
	C478.086182,429.060333 467.121063,429.273132 460.529388,425.166870 
	C451.697693,419.665283 442.629333,414.542572 433.635895,409.302979 
	C432.709778,408.763397 431.602112,408.535461 429.770355,409.141083 
	C432.454987,411.867737 435.081055,414.655212 437.835724,417.309143 
	C445.015137,424.226105 452.222839,431.114349 459.477356,437.952393 
	C462.594696,440.890747 465.995758,443.537170 469.015381,446.567841 
	C472.619598,450.185211 471.704712,454.276520 467.066406,456.423462 
	C460.130219,459.634125 450.840820,458.112976 445.320984,452.805603 
	C435.251434,443.123627 425.206116,433.416412 414.730286,423.327850 
	C414.027222,422.790436 413.744568,422.644928 413.461914,422.499390 
	C413.612579,423.023834 413.763214,423.548309 413.913879,424.072784 
M84.325691,211.717834 
	C89.554665,210.152328 94.692009,208.031723 100.033859,207.149979 
	C108.276764,205.789337 109.355858,203.648712 106.062859,195.866714 
	C101.738548,185.647583 97.172127,175.369308 94.425034,164.675827 
	C87.296524,136.927139 69.919998,118.146835 45.205765,105.210419 
	C44.330540,104.752289 43.345348,104.480003 42.386391,104.209930 
	C34.357105,101.948677 29.135939,105.656563 29.119358,113.987305 
	C29.045483,151.105804 29.057150,188.224579 29.116283,225.343124 
	C29.127100,232.133530 32.364513,235.348373 39.096504,235.974243 
	C49.745892,236.964325 58.481293,233.357468 66.206390,225.963455 
	C71.559135,220.840118 77.804062,216.648895 84.325691,211.717834 
M143.364044,219.134506 
	C145.500061,221.238617 147.585876,223.396713 149.780380,225.437943 
	C162.306870,237.089371 175.704361,247.397720 192.218689,252.902588 
	C196.039276,254.176147 199.715454,254.714722 202.946472,251.587280 
	C206.190399,248.447372 205.673233,244.732910 204.576202,240.887695 
	C201.653732,230.644089 198.784454,220.385269 195.902451,210.130142 
	C193.558395,201.789200 189.420212,194.473495 183.401077,188.235184 
	C171.950775,176.367889 160.549805,164.451843 148.973419,152.708755 
	C147.332474,151.044189 144.958984,149.705032 142.691513,149.122742 
	C132.217819,146.433182 121.687431,143.943268 111.110008,141.699310 
	C109.331100,141.321945 106.803902,141.960464 105.347267,143.076019 
	C101.857971,145.748260 100.555840,149.950714 102.095062,153.869308 
	C106.282135,164.528839 109.768997,175.794250 115.923340,185.266739 
	C123.669472,197.189255 133.786697,207.571259 143.364044,219.134506 
M94.438339,123.081116 
	C110.007820,132.528900 126.937683,138.431915 144.582260,143.327286 
	C144.767517,141.873825 144.970963,141.361710 144.869339,140.919724 
	C139.581696,117.922989 132.650986,95.581268 119.036064,75.884590 
	C103.924637,54.022907 82.399521,45.955631 56.744732,47.191833 
	C46.205235,47.699692 39.230812,54.308521 37.559570,64.312164 
	C36.148903,72.756042 39.875679,80.201149 48.353519,84.959824 
	C60.219913,91.620514 70.877571,99.669563 79.963120,109.903114 
	C84.119438,114.584625 89.169853,118.472343 94.438339,123.081116 
M237.730453,274.704437 
	C244.551987,287.971588 254.115601,298.879639 266.082550,307.735626 
	C284.567780,321.415344 305.661041,329.399475 327.513550,335.610901 
	C329.242004,336.102173 332.570312,335.040039 333.347046,333.672760 
	C334.143921,332.269958 333.338989,329.130493 332.151459,327.582367 
	C328.615845,322.973145 324.497192,318.815979 320.697296,314.403839 
	C307.557312,299.146545 298.489563,281.281128 288.622223,263.946747 
	C276.301025,242.301559 258.884094,226.690018 235.511719,217.779434 
	C226.477936,214.335373 223.072769,216.755249 223.621475,226.462021 
	C224.578201,243.386612 230.011551,258.994202 237.730453,274.704437 
M266.352814,332.108215 
	C285.189545,340.971771 304.195953,349.167389 325.969940,347.630402 
	C326.276367,340.927307 321.483032,340.441223 317.193878,339.207458 
	C285.222015,330.010956 256.232483,316.104065 236.066666,288.091980 
	C232.674347,283.379791 228.764633,279.004395 224.797272,274.750061 
	C218.654129,268.162567 211.025055,264.805328 201.948593,263.786377 
	C195.590179,263.072571 189.417313,260.752655 183.139572,259.241577 
	C181.495392,258.845795 179.769135,258.791046 178.080566,258.579651 
	C178.156921,260.294342 177.811630,262.163483 178.374527,263.699921 
	C184.327560,279.948700 193.552856,293.924652 208.999329,302.410858 
	C227.642868,312.653564 246.748795,322.054626 266.352814,332.108215 
M99.373344,241.868103 
	C95.780098,245.794708 92.481285,250.049515 88.538597,253.586609 
	C76.550728,264.341248 70.009171,278.044769 65.892807,293.259186 
	C64.970673,296.667419 64.798874,299.561737 67.979416,301.631989 
	C71.007881,303.603271 73.629509,302.290649 76.113724,300.210968 
	C97.032585,282.698303 109.100822,259.694275 116.903954,234.121872 
	C117.371826,232.588562 115.809036,230.435593 115.191154,228.570969 
	C113.447983,229.149918 111.250473,229.251587 110.046867,230.397354 
	C106.441292,233.829590 103.224281,237.670013 99.373344,241.868103 
M208.360229,194.160538 
	C201.698425,186.583115 195.479736,178.539093 188.193329,171.619370 
	C184.383453,168.001221 178.741486,166.266464 173.818222,163.908066 
	C172.915817,163.475784 171.490189,164.135773 170.306076,164.291565 
	C170.794586,165.402924 171.069336,166.696136 171.822937,167.581970 
	C172.887253,168.833008 174.307800,169.780273 175.572250,170.861847 
	C185.684738,179.511566 194.198807,189.380814 199.323380,201.858597 
	C203.239410,211.393738 207.121536,220.944504 211.216095,230.402878 
	C211.892960,231.966400 213.584396,233.090714 214.806946,234.418015 
	C215.502838,232.845001 216.502930,231.335464 216.846420,229.688919 
	C219.529236,216.828323 216.016968,205.352646 208.360229,194.160538 
M133.154221,216.335785 
	C129.653198,212.492462 126.152184,208.649124 122.155746,204.261948 
	C120.540062,217.806702 148.358856,245.597168 158.539642,243.835571 
	C150.672684,235.308319 142.156967,226.077881 133.154221,216.335785 
M427.634399,406.621887 
	C427.880920,406.785583 428.122925,406.957886 428.383484,407.095001 
	C428.402191,407.104858 428.556183,406.857605 428.647247,406.729889 
	C428.413391,406.579803 428.179565,406.429718 427.634399,406.621887 
M390.339661,437.959412 
	C390.459869,438.211029 390.559906,438.476807 390.717834,438.701965 
	C390.748505,438.745636 391.004974,438.630951 391.157257,438.589294 
	C391.029633,438.326111 390.902008,438.062897 390.339661,437.959412 
z"/>
<path fill="#9EAACD" opacity="1.000000" stroke="none" 
	d="
M83.988022,211.879501 
	C77.804062,216.648895 71.559135,220.840118 66.206390,225.963455 
	C58.481293,233.357468 49.745892,236.964325 39.096504,235.974243 
	C32.364513,235.348373 29.127100,232.133530 29.116283,225.343124 
	C29.057150,188.224579 29.045483,151.105804 29.119358,113.987305 
	C29.135939,105.656563 34.357105,101.948677 42.386391,104.209930 
	C43.345348,104.480003 44.330540,104.752289 45.205765,105.210419 
	C69.919998,118.146835 87.296524,136.927139 94.425034,164.675827 
	C97.172127,175.369308 101.738548,185.647583 106.062859,195.866714 
	C109.355858,203.648712 108.276764,205.789337 100.033859,207.149979 
	C94.692009,208.031723 89.554665,210.152328 83.988022,211.879501 
z"/>
<path fill="#9EAACD" opacity="1.000000" stroke="none" 
	d="
M143.122452,218.876221 
	C133.786697,207.571259 123.669472,197.189255 115.923340,185.266739 
	C109.768997,175.794250 106.282135,164.528839 102.095062,153.869308 
	C100.555840,149.950714 101.857971,145.748260 105.347267,143.076019 
	C106.803902,141.960464 109.331100,141.321945 111.110008,141.699310 
	C121.687431,143.943268 132.217819,146.433182 142.691513,149.122742 
	C144.958984,149.705032 147.332474,151.044189 148.973419,152.708755 
	C160.549805,164.451843 171.950775,176.367889 183.401077,188.235184 
	C189.420212,194.473495 193.558395,201.789200 195.902451,210.130142 
	C198.784454,220.385269 201.653732,230.644089 204.576202,240.887695 
	C205.673233,244.732910 206.190399,248.447372 202.946472,251.587280 
	C199.715454,254.714722 196.039276,254.176147 192.218689,252.902588 
	C175.704361,247.397720 162.306870,237.089371 149.780380,225.437943 
	C147.585876,223.396713 145.500061,221.238617 143.122452,218.876221 
z"/>
<path fill="#9EAACD" opacity="1.000000" stroke="none" 
	d="
M94.126556,122.900589 
	C89.169853,118.472343 84.119438,114.584625 79.963120,109.903114 
	C70.877571,99.669563 60.219913,91.620514 48.353519,84.959824 
	C39.875679,80.201149 36.148903,72.756042 37.559570,64.312164 
	C39.230812,54.308521 46.205235,47.699692 56.744732,47.191833 
	C82.399521,45.955631 103.924637,54.022907 119.036064,75.884590 
	C132.650986,95.581268 139.581696,117.922989 144.869339,140.919724 
	C144.970963,141.361710 144.767517,141.873825 144.582260,143.327286 
	C126.937683,138.431915 110.007820,132.528900 94.126556,122.900589 
z"/>
<path fill="#FE014F" opacity="1.000000" stroke="none" 
	d="
M237.542603,274.383728 
	C230.011551,258.994202 224.578201,243.386612 223.621475,226.462021 
	C223.072769,216.755249 226.477936,214.335373 235.511719,217.779434 
	C258.884094,226.690018 276.301025,242.301559 288.622223,263.946747 
	C298.489563,281.281128 307.557312,299.146545 320.697296,314.403839 
	C324.497192,318.815979 328.615845,322.973145 332.151459,327.582367 
	C333.338989,329.130493 334.143921,332.269958 333.347046,333.672760 
	C332.570312,335.040039 329.242004,336.102173 327.513550,335.610901 
	C305.661041,329.399475 284.567780,321.415344 266.082550,307.735626 
	C254.115601,298.879639 244.551987,287.971588 237.542603,274.383728 
z"/>
<path fill="#FC014F" opacity="1.000000" stroke="none" 
	d="
M266.003723,331.964081 
	C246.748795,322.054626 227.642868,312.653564 208.999329,302.410858 
	C193.552856,293.924652 184.327560,279.948700 178.374527,263.699921 
	C177.811630,262.163483 178.156921,260.294342 178.080566,258.579651 
	C179.769135,258.791046 181.495392,258.845795 183.139572,259.241577 
	C189.417313,260.752655 195.590179,263.072571 201.948593,263.786377 
	C211.025055,264.805328 218.654129,268.162567 224.797272,274.750061 
	C228.764633,279.004395 232.674347,283.379791 236.066666,288.091980 
	C256.232483,316.104065 285.222015,330.010956 317.193878,339.207458 
	C321.483032,340.441223 326.276367,340.927307 325.969940,347.630402 
	C304.195953,349.167389 285.189545,340.971771 266.003723,331.964081 
z"/>
<path fill="#9EAACC" opacity="1.000000" stroke="none" 
	d="
M99.614471,241.609619 
	C103.224281,237.670013 106.441292,233.829590 110.046867,230.397354 
	C111.250473,229.251587 113.447983,229.149918 115.191154,228.570969 
	C115.809036,230.435593 117.371826,232.588562 116.903954,234.121872 
	C109.100822,259.694275 97.032585,282.698303 76.113724,300.210968 
	C73.629509,302.290649 71.007881,303.603271 67.979416,301.631989 
	C64.798874,299.561737 64.970673,296.667419 65.892807,293.259186 
	C70.009171,278.044769 76.550728,264.341248 88.538597,253.586609 
	C92.481285,250.049515 95.780098,245.794708 99.614471,241.609619 
z"/>
<path fill="#9DA9CB" opacity="1.000000" stroke="none" 
	d="
M208.565491,194.461472 
	C216.016968,205.352646 219.529236,216.828323 216.846420,229.688919 
	C216.502930,231.335464 215.502838,232.845001 214.806946,234.418015 
	C213.584396,233.090714 211.892960,231.966400 211.216095,230.402878 
	C207.121536,220.944504 203.239410,211.393738 199.323380,201.858597 
	C194.198807,189.380814 185.684738,179.511566 175.572250,170.861847 
	C174.307800,169.780273 172.887253,168.833008 171.822937,167.581970 
	C171.069336,166.696136 170.794586,165.402924 170.306076,164.291565 
	C171.490189,164.135773 172.915817,163.475784 173.818222,163.908066 
	C178.741486,166.266464 184.383453,168.001221 188.193329,171.619370 
	C195.479736,178.539093 201.698425,186.583115 208.565491,194.461472 
z"/>
<path fill="#9CA8CB" opacity="1.000000" stroke="none" 
	d="
M133.397736,216.591614 
	C142.156967,226.077881 150.672684,235.308319 158.539642,243.835571 
	C148.358856,245.597168 120.540062,217.806702 122.155746,204.261948 
	C126.152184,208.649124 129.653198,212.492462 133.397736,216.591614 
z"/>
<path fill="#000000" opacity="1.000000" stroke="none" 
	d="
M427.790039,406.450745 
	C428.179565,406.429718 428.413391,406.579803 428.647278,406.729919 
	C428.556183,406.857605 428.402191,407.104858 428.383484,407.095001 
	C428.122925,406.957886 427.880920,406.785583 427.790039,406.450745 
z"/>
<path fill="#000000" opacity="1.000000" stroke="none" 
	d="
M414.097534,423.875183 
	C413.763214,423.548309 413.612579,423.023834 413.461914,422.499390 
	C413.744568,422.644928 414.027222,422.790436 414.478485,423.108521 
	C414.525116,423.413208 414.403168,423.545410 414.097534,423.875183 
z"/>
<path fill="#000000" opacity="1.000000" stroke="none" 
	d="
M390.557037,437.879547 
	C390.902008,438.062897 391.029633,438.326111 391.157257,438.589294 
	C391.004974,438.630951 390.748505,438.745636 390.717834,438.701965 
	C390.559906,438.476807 390.459869,438.211029 390.557037,437.879547 
z"/>
</svg>