<svg version="1.1" id="Layer_1" xmlns="http://www.w3.org/2000/svg" xmlns:xlink="http://www.w3.org/1999/xlink" x="0px" y="0px"
	 width="100%" viewBox="0 0 512 512" enable-background="new 0 0 512 512" xml:space="preserve">
<path fill="#000000" opacity="1.000000" stroke="none" 
	d="
M1.000000,199.000000 
	C1.000000,132.666672 1.000000,66.833336 1.000000,1.000000 
	C171.666672,1.000000 342.333344,1.000000 513.000000,1.000000 
	C513.000000,171.666672 513.000000,342.333344 513.000000,513.000000 
	C342.333344,513.000000 171.666672,513.000000 1.000000,513.000000 
	C1.000000,408.500000 1.000000,304.000000 1.000000,199.000000 
M35.458984,272.083618 
	C30.375088,284.375671 26.838881,297.192841 26.199411,310.400391 
	C25.418503,326.529205 25.964733,342.724762 26.084335,358.890350 
	C26.094978,360.328522 26.813263,362.155914 27.840706,363.129456 
	C35.785477,370.657593 43.944885,377.958679 51.924435,385.450867 
	C59.922218,392.960144 67.765526,400.633789 75.731270,408.177551 
	C77.527657,409.878784 79.403206,411.584930 81.504967,412.853760 
	C84.445740,414.629028 87.441063,415.147217 89.362442,411.221222 
	C90.382652,409.136658 91.432556,407.066193 92.494568,405.002502 
	C100.462563,389.519318 105.378410,373.207306 106.032181,355.707642 
	C106.194862,351.353149 105.188988,346.158142 107.185837,342.827850 
	C111.975174,334.840271 118.228783,327.730682 123.995361,320.129822 
	C127.276718,324.639099 130.026489,328.716309 133.078964,332.552734 
	C140.237503,341.549744 145.651703,351.521515 145.731140,363.093964 
	C145.788254,371.415222 143.775253,379.767578 142.499603,388.077515 
	C139.970322,404.553802 136.053711,420.858398 136.975723,437.731964 
	C137.473633,446.844238 137.986084,455.976990 137.865692,465.092255 
	C137.809723,469.329346 139.554459,471.159424 142.934113,473.071625 
	C159.236862,482.295654 176.238953,489.929077 193.818146,496.332367 
	C214.753998,503.958313 236.295471,509.569855 258.605164,508.665161 
	C272.794464,508.089752 287.024597,505.062225 300.934753,501.834229 
	C324.741394,496.309631 346.721100,485.754303 368.389618,474.741852 
	C371.285095,473.270294 375.945099,472.394501 376.033386,467.218719 
	C376.154907,460.093384 376.554230,452.967987 377.012970,445.854095 
	C378.575897,421.618011 373.258942,398.133606 369.260468,374.512543 
	C367.500793,364.117371 367.995239,353.905396 373.256866,344.742828 
	C378.069427,336.362213 384.062744,328.659668 389.926758,320.086639 
	C394.763306,326.312775 399.710907,332.253479 404.125305,338.567017 
	C405.995270,341.241425 407.906006,344.732422 407.817871,347.795258 
	C407.191010,369.580017 413.529053,389.482330 423.226898,408.579071 
	C426.590302,415.202240 430.350403,415.966888 435.701019,410.770966 
	C452.163788,394.784210 468.520966,378.688293 484.837585,362.552277 
	C485.902893,361.498749 486.885559,359.750122 486.886719,358.324036 
	C486.903351,337.779022 488.198975,317.154480 483.009033,296.919922 
	C477.417786,275.120575 468.054382,255.329834 453.058258,238.312820 
	C451.634613,236.697357 451.370422,233.529190 451.527893,231.145294 
	C452.136414,221.933640 453.652069,212.757339 453.823334,203.549149 
	C453.960571,196.170456 453.334717,188.617447 451.803101,181.406113 
	C449.619965,171.127106 447.351288,160.638275 443.236633,151.046646 
	C435.487976,132.983658 420.854248,121.053520 403.841827,112.039673 
	C396.549286,108.175812 388.509186,105.669037 381.388489,101.544731 
	C358.684357,88.394508 336.242065,74.791611 313.745270,61.285889 
	C312.619781,60.610222 311.336731,59.305786 311.134827,58.122208 
	C309.305603,47.399342 307.748871,36.630444 306.019379,25.889994 
	C303.459351,9.991624 307.083374,13.281436 292.301697,10.348056 
	C281.821350,8.268270 271.128571,7.098289 260.477325,6.078794 
	C244.914322,4.589162 229.977814,9.084148 214.815369,11.466208 
	C210.847580,12.089557 209.577850,14.293346 209.094376,17.568085 
	C207.337891,29.465502 205.834991,41.404140 203.830490,53.258587 
	C203.309830,56.337765 203.531998,59.707653 199.514786,61.970707 
	C184.440994,70.462341 169.747375,79.627304 154.878967,88.485687 
	C146.931335,93.220779 139.254913,98.602753 130.854660,102.341476 
	C118.296661,107.930695 105.909431,113.566521 94.917809,121.992630 
	C82.281235,131.679733 71.891724,143.145981 67.767761,158.805801 
	C64.504837,171.196045 61.849869,183.845078 60.267338,196.546432 
	C59.102596,205.894653 59.710037,215.537018 60.282196,225.002686 
	C60.667103,231.370438 62.681564,236.603607 55.943298,242.251617 
	C46.907906,249.825027 40.534122,260.297974 35.458984,272.083618 
z"/>
<path fill="#49506A" opacity="1.000000" stroke="none" 
	d="
M35.664093,271.759094 
	C40.534122,260.297974 46.907906,249.825027 55.943298,242.251617 
	C62.681564,236.603607 60.667103,231.370438 60.282196,225.002686 
	C59.710037,215.537018 59.102596,205.894653 60.267338,196.546432 
	C61.849869,183.845078 64.504837,171.196045 67.767761,158.805801 
	C71.891724,143.145981 82.281235,131.679733 94.917809,121.992630 
	C105.909431,113.566521 118.296661,107.930695 130.854660,102.341476 
	C139.254913,98.602753 146.931335,93.220779 154.878967,88.485687 
	C169.747375,79.627304 184.440994,70.462341 199.514786,61.970707 
	C203.531998,59.707653 203.309830,56.337765 203.830490,53.258587 
	C205.834991,41.404140 207.337891,29.465502 209.094376,17.568085 
	C209.577850,14.293346 210.847580,12.089557 214.815369,11.466208 
	C229.977814,9.084148 244.914322,4.589162 260.477325,6.078794 
	C271.128571,7.098289 281.821350,8.268270 292.301697,10.348056 
	C307.083374,13.281436 303.459351,9.991624 306.019379,25.889994 
	C307.748871,36.630444 309.305603,47.399342 311.134827,58.122208 
	C311.336731,59.305786 312.619781,60.610222 313.745270,61.285889 
	C336.242065,74.791611 358.684357,88.394508 381.388489,101.544731 
	C388.509186,105.669037 396.549286,108.175812 403.841827,112.039673 
	C420.854248,121.053520 435.487976,132.983658 443.236633,151.046646 
	C447.351288,160.638275 449.619965,171.127106 451.803101,181.406113 
	C453.334717,188.617447 453.960571,196.170456 453.823334,203.549149 
	C453.652069,212.757339 452.136414,221.933640 451.527893,231.145294 
	C451.370422,233.529190 451.634613,236.697357 453.058258,238.312820 
	C468.054382,255.329834 477.417786,275.120575 483.009033,296.919922 
	C488.198975,317.154480 486.903351,337.779022 486.886719,358.324036 
	C486.885559,359.750122 485.902893,361.498749 484.837585,362.552277 
	C468.520966,378.688293 452.163788,394.784210 435.701019,410.770966 
	C430.350403,415.966888 426.590302,415.202240 423.226898,408.579071 
	C413.529053,389.482330 407.191010,369.580017 407.817871,347.795258 
	C407.906006,344.732422 405.995270,341.241425 404.125305,338.567017 
	C399.710907,332.253479 394.763306,326.312775 389.926758,320.086639 
	C384.062744,328.659668 378.069427,336.362213 373.256866,344.742828 
	C367.995239,353.905396 367.500793,364.117371 369.260468,374.512543 
	C373.258942,398.133606 378.575897,421.618011 377.012970,445.854095 
	C376.554230,452.967987 376.154907,460.093384 376.033386,467.218719 
	C375.945099,472.394501 371.285095,473.270294 368.389618,474.741852 
	C346.721100,485.754303 324.741394,496.309631 300.934753,501.834229 
	C287.024597,505.062225 272.794464,508.089752 258.605164,508.665161 
	C236.295471,509.569855 214.753998,503.958313 193.818146,496.332367 
	C176.238953,489.929077 159.236862,482.295654 142.934113,473.071625 
	C139.554459,471.159424 137.809723,469.329346 137.865692,465.092255 
	C137.986084,455.976990 137.473633,446.844238 136.975723,437.731964 
	C136.053711,420.858398 139.970322,404.553802 142.499603,388.077515 
	C143.775253,379.767578 145.788254,371.415222 145.731140,363.093964 
	C145.651703,351.521515 140.237503,341.549744 133.078964,332.552734 
	C130.026489,328.716309 127.276718,324.639099 123.995361,320.129822 
	C118.228783,327.730682 111.975174,334.840271 107.185837,342.827850 
	C105.188988,346.158142 106.194862,351.353149 106.032181,355.707642 
	C105.378410,373.207306 100.462563,389.519318 92.494568,405.002502 
	C91.432556,407.066193 90.382652,409.136658 89.362442,411.221222 
	C87.441063,415.147217 84.445740,414.629028 81.504967,412.853760 
	C79.403206,411.584930 77.527657,409.878784 75.731270,408.177551 
	C67.765526,400.633789 59.922218,392.960144 51.924435,385.450867 
	C43.944885,377.958679 35.785477,370.657593 27.840706,363.129456 
	C26.813263,362.155914 26.094978,360.328522 26.084335,358.890350 
	C25.964733,342.724762 25.418503,326.529205 26.199411,310.400391 
	C26.838881,297.192841 30.375088,284.375671 35.664093,271.759094 
M281.597961,283.100037 
	C293.227905,266.237366 304.764282,249.308899 316.544678,232.552017 
	C320.088684,227.510925 321.258636,222.244507 321.207367,216.155914 
	C321.105255,204.029190 320.638885,191.767807 322.151154,179.792923 
	C325.663208,151.983459 335.832306,127.970245 363.438416,115.188599 
	C365.259491,114.345436 366.788971,110.575851 366.574280,108.348648 
	C366.397949,106.519470 363.692932,104.466736 361.650146,103.358246 
	C344.382507,93.988258 326.946991,84.926407 309.724152,75.476295 
	C306.515900,73.715958 303.483246,71.036186 301.312500,68.086754 
	C291.145721,54.273071 281.303711,40.220242 271.358429,26.243769 
	C269.567047,23.726259 267.371613,20.646349 264.224152,22.604511 
	C262.208099,23.858784 260.576660,27.317469 260.502533,29.838804 
	C260.135498,42.320587 260.266113,54.819977 260.372681,67.311867 
	C260.477417,79.593925 264.930634,90.033974 274.108429,98.327667 
	C275.827393,99.881073 277.654053,101.315376 280.723969,103.888268 
	C278.645966,105.082222 277.415497,105.647636 276.341339,106.428108 
	C264.199799,115.249908 259.919373,127.399994 260.212128,142.090256 
	C260.643494,163.735870 260.322479,185.396454 260.323425,207.050659 
	C260.324799,238.365967 260.284576,269.681488 260.430267,300.996124 
	C260.439575,302.996063 261.894745,304.989258 262.677277,306.985596 
	C264.302399,305.797607 266.347900,304.916779 267.479340,303.368103 
	C272.193451,296.915680 276.632446,290.262299 281.597961,283.100037 
M239.189926,295.306885 
	C241.085663,298.046875 242.797195,300.943878 244.947601,303.466797 
	C246.197540,304.933258 248.151733,305.799408 249.789032,306.935699 
	C250.517242,305.083466 251.877930,303.232513 251.881699,301.378815 
	C251.993134,246.557800 251.991119,191.736496 251.950424,136.915283 
	C251.942032,125.603577 247.591080,116.213547 238.928299,108.861267 
	C236.956314,107.187607 235.060791,105.423843 232.547562,103.181900 
	C234.410355,101.636063 235.845490,100.497627 237.223190,99.293465 
	C247.700714,90.135590 252.288116,78.525627 252.022125,64.695770 
	C251.797882,53.035973 252.192337,41.361115 251.799408,29.710234 
	C251.715195,27.212887 250.028000,23.761536 248.006302,22.569813 
	C244.838196,20.702320 242.696442,23.832376 240.910629,26.344437 
	C230.774918,40.602192 220.701019,54.905434 210.390533,69.035904 
	C208.609360,71.476982 206.070984,73.671638 203.413132,75.117447 
	C185.710831,84.746971 167.827637,94.044754 150.161880,103.739464 
	C148.013992,104.918190 145.696213,107.734352 145.519470,109.955734 
	C145.372101,111.807800 147.830566,114.819122 149.853943,115.743973 
	C169.016113,124.502708 179.885727,140.029022 185.914429,159.439606 
	C191.465408,177.312119 193.081146,195.676956 191.228409,214.282227 
	C190.532547,221.270157 192.050766,227.261398 196.131042,233.061905 
	C210.508087,253.500381 224.598297,274.140625 239.189926,295.306885 
M306.749207,355.748108 
	C316.208710,366.271973 325.640808,376.820801 335.173126,387.278290 
	C336.057007,388.247955 337.577637,388.637238 338.802551,389.296021 
	C339.391449,388.178253 340.329041,387.115356 340.514801,385.934235 
	C342.206268,375.180054 347.105194,365.757019 352.565460,356.575989 
	C358.178772,347.137665 363.909149,337.769012 369.590820,328.371399 
	C382.517731,306.989990 387.995819,283.629333 388.061371,258.833069 
	C388.077332,252.793274 385.958038,249.336243 380.777588,247.716721 
	C365.708221,243.005753 350.601410,238.413986 335.497101,233.815521 
	C330.584564,232.319916 326.467529,233.886902 323.651367,237.949829 
	C307.344360,261.476257 291.118835,285.059570 274.972839,308.696808 
	C271.800903,313.340424 272.408142,317.807037 276.116028,321.901855 
	C286.171631,333.006744 296.222534,344.115906 306.749207,355.748108 
M174.234573,389.463654 
	C176.166229,387.692200 178.267029,386.071716 180.003586,384.126099 
	C198.755005,363.116974 217.445251,342.053314 236.162033,321.013214 
	C240.130768,316.551880 240.369888,311.938629 236.580078,306.488037 
	C220.983047,284.055969 205.349472,261.649261 189.685913,239.263626 
	C185.591919,233.412689 181.688080,232.221390 175.039642,234.283066 
	C160.898239,238.668274 146.741714,243.005127 132.577301,247.315536 
	C127.020149,249.006638 124.042336,252.464630 124.186363,258.230621 
	C124.663559,277.333618 126.520721,296.337219 135.342773,313.610321 
	C142.677078,327.970520 151.195724,341.729706 159.295761,355.693604 
	C165.001495,365.529938 170.326660,375.483551 172.028946,386.949493 
	C172.154770,387.796967 173.011734,388.535858 174.234573,389.463654 
M302.984467,362.517029 
	C292.091797,350.356232 281.286499,338.114655 270.205109,326.128296 
	C268.677216,324.475586 265.248199,322.804962 263.662781,323.463165 
	C261.961304,324.169586 261.291962,327.574524 260.390930,329.887054 
	C260.052155,330.756500 260.323425,331.865143 260.323395,332.864746 
	C260.322693,382.345337 260.322632,431.825958 260.323639,481.306549 
	C260.323669,482.472717 260.021088,483.758484 260.408539,484.780365 
	C261.232635,486.954010 261.929047,489.851898 263.612305,490.808380 
	C264.938263,491.561798 267.989410,490.323975 269.697540,489.139191 
	C273.103210,486.777008 276.238342,483.976776 279.263641,481.122650 
	C291.679260,469.409454 305.813110,461.901306 323.363800,461.519928 
	C330.307404,461.369049 334.306549,456.977570 334.771057,449.943909 
	C335.725922,435.485931 336.668152,421.012054 336.913483,406.532837 
	C336.974640,402.922028 335.205841,398.551880 332.833771,395.756256 
	C323.355438,384.585510 313.307861,373.897766 302.984467,362.517029 
M239.171494,486.338257 
	C240.701996,487.623871 242.144897,489.035950 243.780716,490.169556 
	C247.505463,492.750763 251.173325,491.189819 251.874008,486.773315 
	C252.055023,485.632263 251.972534,484.445770 251.972610,483.280151 
	C251.976257,432.465179 251.978012,381.650208 251.963272,330.835236 
	C251.962845,329.343292 252.036743,327.779114 251.636551,326.373749 
	C250.640747,322.876770 247.008636,321.737915 244.116547,323.937164 
	C243.201172,324.633270 242.475845,325.587280 241.696014,326.452545 
	C220.841217,349.592010 199.859314,372.619934 179.305801,396.024048 
	C176.739746,398.946014 175.249847,403.881256 175.314011,407.850433 
	C175.531891,421.328674 176.533112,434.801941 177.503601,448.257751 
	C178.208832,458.035370 181.834946,461.355865 191.793594,461.801727 
	C204.204391,462.357300 215.201950,466.609955 224.874207,474.285278 
	C229.569534,478.011230 234.050079,482.007874 239.171494,486.338257 
M113.514114,195.836517 
	C114.320381,193.310486 115.491692,190.838058 115.871933,188.249451 
	C117.899231,174.448273 125.376480,164.451416 137.624634,158.432007 
	C146.103867,154.264816 155.211502,151.387573 163.986710,147.807358 
	C169.719376,145.468491 170.397766,143.583435 167.159500,138.400482 
	C158.058105,123.833435 144.074081,116.729744 127.798538,113.726654 
	C124.426117,113.104385 120.311180,113.917885 117.114090,115.352493 
	C95.864769,124.887421 79.905319,139.768906 71.972595,162.162247 
	C65.083588,181.609329 65.519104,201.408691 69.917488,221.273911 
	C71.533501,228.572632 76.046989,229.896622 81.795006,224.967316 
	C90.644798,217.377991 99.534210,209.833755 108.300392,202.148972 
	C110.148293,200.529037 111.536476,198.384689 113.514114,195.836517 
M442.365479,221.636398 
	C443.442566,213.065948 445.313599,204.508911 445.458527,195.922729 
	C446.069214,159.749344 430.777649,132.711288 397.881592,116.612831 
	C393.744659,114.588341 388.374939,113.102142 384.016266,113.868484 
	C368.478119,116.600418 355.049164,123.590630 345.948273,137.126678 
	C341.513245,143.723007 342.111725,145.329590 349.688263,148.289673 
	C356.657104,151.012375 363.826721,153.250381 370.690430,156.206802 
	C385.463379,162.569962 394.965881,173.037125 397.192444,189.709564 
	C397.756866,193.935928 400.528503,198.601730 403.677368,201.608414 
	C412.451904,209.986816 421.918884,217.645050 431.188568,225.497803 
	C436.052277,229.618118 439.658020,228.537155 442.365479,221.636398 
M149.989700,235.488144 
	C158.174377,232.698318 166.348358,229.876511 174.548218,227.132080 
	C178.676788,225.750275 181.480530,223.238083 182.107849,218.767517 
	C184.896774,198.892197 183.513702,179.242584 178.588516,159.845047 
	C177.138947,154.136063 173.181351,152.343170 167.447113,154.326965 
	C161.319260,156.446945 155.176712,158.544327 149.142563,160.911499 
	C131.919113,167.668152 122.455582,180.330521 121.623703,198.835770 
	C121.085838,210.800598 121.300850,222.804291 121.371346,234.789429 
	C121.409172,241.220612 125.095558,243.764374 131.283371,241.810608 
	C137.307724,239.908493 143.268280,237.804291 149.989700,235.488144 
M385.175323,242.533615 
	C389.599945,241.687820 391.026550,238.749039 390.994690,234.560089 
	C390.905975,222.903748 391.057037,211.244446 390.869720,199.590256 
	C390.588684,182.104385 380.219696,167.358856 363.928925,161.123413 
	C357.716675,158.745621 351.418060,156.589417 345.131500,154.411026 
	C338.891693,152.248840 335.195129,154.135330 333.562866,160.567429 
	C328.718262,179.658264 327.418945,199.025681 330.316681,218.502396 
	C330.748016,221.401703 333.592957,225.321503 336.230042,226.286896 
	C352.146332,232.113602 368.327148,237.217636 385.175323,242.533615 
M414.222473,232.302887 
	C410.194336,226.402496 406.266113,220.428925 402.048279,214.667389 
	C401.264832,213.597198 399.048798,212.616684 397.980560,212.989441 
	C396.955627,213.347076 396.042542,215.498627 395.994781,216.893173 
	C395.875641,220.370468 396.511597,223.871231 396.428009,227.352585 
	C396.045746,243.282043 395.321747,259.205902 395.147919,275.136444 
	C395.081940,281.181274 395.003174,287.639954 396.931152,293.218536 
	C404.071075,313.877808 417.314819,330.402222 434.212921,344.009491 
	C435.733398,345.233856 438.621613,344.759735 440.874634,345.074402 
	C441.173431,342.800995 442.145599,340.358856 441.627319,338.290131 
	C440.624542,334.287872 438.788116,330.493591 437.286438,326.617310 
	C432.736176,314.871399 430.196411,302.721985 430.063629,290.109283 
	C429.848877,269.708008 424.474304,250.713776 414.222473,232.302887 
M90.824104,247.381363 
	C88.127876,258.670227 83.799454,269.858917 83.099106,281.270233 
	C81.900795,300.795288 78.801498,319.556213 71.052261,337.565613 
	C70.157768,339.644440 71.411232,342.647552 71.668823,345.222168 
	C74.192436,344.603302 77.320518,344.729004 79.144394,343.248260 
	C94.254150,330.981049 106.159615,316.029022 113.644432,298.041626 
	C116.191437,291.920715 118.377785,284.593018 117.469109,278.286407 
	C114.590500,258.307465 115.193756,238.435425 116.295815,218.462784 
	C116.397324,216.623047 115.117447,214.707062 114.479012,212.826492 
	C112.743019,213.804733 110.301910,214.347244 109.384674,215.831467 
	C103.103897,225.994904 97.142693,236.355820 90.824104,247.381363 
M439.564117,288.787537 
	C441.731049,292.883972 443.938446,296.959625 446.054596,301.082123 
	C448.619629,306.079102 451.822632,310.893463 453.467041,316.185333 
	C456.161438,324.856049 460.528687,332.350647 466.747314,338.750092 
	C468.240692,340.286835 471.497559,341.844910 472.999115,341.198761 
	C474.869476,340.393890 476.874908,337.320953 476.887115,335.216125 
	C476.947693,324.768982 477.394989,314.161682 475.826782,303.897980 
	C471.167358,273.402374 455.422668,249.418167 430.487457,231.453949 
	C429.057098,230.423492 426.612854,230.800385 424.640472,230.522278 
	C424.455231,232.343918 423.543427,234.494003 424.195770,235.936996 
	C431.725098,252.592468 436.559052,269.997711 439.564117,288.787537 
M57.805218,254.316589 
	C39.492226,278.035980 32.975037,305.121521 35.245285,334.580811 
	C35.428356,336.956390 37.324902,340.456055 39.209419,341.085510 
	C41.036037,341.695618 44.845833,339.929504 46.093712,338.071381 
	C50.588596,331.378296 54.500145,324.277222 58.378044,317.191254 
	C61.386127,311.694672 64.101768,306.031738 66.787537,300.366974 
	C69.262283,295.147308 72.763451,290.025360 73.647293,284.513214 
	C76.306732,267.927490 81.175346,252.143982 87.792824,236.780533 
	C88.549690,235.023346 87.708694,232.577942 87.608566,230.451630 
	C85.501198,230.878998 82.767471,230.609909 81.389931,231.848801 
	C73.492912,238.950928 65.917847,246.411041 57.805218,254.316589 
M351.395660,386.859314 
	C348.069214,407.898285 344.691681,428.929352 341.441956,449.980164 
	C340.180115,458.154022 342.124664,460.357849 350.580139,461.018555 
	C352.406128,461.161255 354.233276,461.454163 356.056641,461.430237 
	C359.677948,461.382843 362.229370,459.526398 362.841156,455.978790 
	C365.166290,442.495667 367.024261,428.978088 364.524353,415.272797 
	C362.881653,406.267029 361.404724,397.231110 359.841003,388.210876 
	C358.749634,381.915283 357.637085,375.623383 356.533997,369.329803 
	C356.114380,369.317963 355.694763,369.306091 355.275146,369.294250 
	C354.054688,374.876038 352.834229,380.457855 351.395660,386.859314 
M146.914795,423.645508 
	C147.675308,434.065918 148.326111,444.496155 149.255768,454.901459 
	C149.581467,458.546875 151.748566,461.571381 155.641891,461.290588 
	C160.861252,460.914215 166.925323,462.633148 170.669937,456.986847 
	C171.090942,456.352020 171.174591,455.388885 171.152679,454.585114 
	C171.093872,452.427216 171.044601,450.250336 170.724442,448.121155 
	C168.130722,430.872498 165.648697,413.604095 162.769882,396.402405 
	C161.208405,387.072144 158.939331,377.860260 156.989426,368.594971 
	C156.565842,368.619507 156.142242,368.644043 155.718643,368.668579 
	C152.802216,386.675751 149.885803,404.682953 146.914795,423.645508 
z"/>
<path fill="#9EAACD" opacity="1.000000" stroke="none" 
	d="
M281.385162,283.391327 
	C276.632446,290.262299 272.193451,296.915680 267.479340,303.368103 
	C266.347900,304.916779 264.302399,305.797607 262.677277,306.985596 
	C261.894745,304.989258 260.439575,302.996063 260.430267,300.996124 
	C260.284576,269.681488 260.324799,238.365967 260.323425,207.050659 
	C260.322479,185.396454 260.643494,163.735870 260.212128,142.090256 
	C259.919373,127.399994 264.199799,115.249908 276.341339,106.428108 
	C277.415497,105.647636 278.645966,105.082222 280.723969,103.888268 
	C277.654053,101.315376 275.827393,99.881073 274.108429,98.327667 
	C264.930634,90.033974 260.477417,79.593925 260.372681,67.311867 
	C260.266113,54.819977 260.135498,42.320587 260.502533,29.838804 
	C260.576660,27.317469 262.208099,23.858784 264.224152,22.604511 
	C267.371613,20.646349 269.567047,23.726259 271.358429,26.243769 
	C281.303711,40.220242 291.145721,54.273071 301.312500,68.086754 
	C303.483246,71.036186 306.515900,73.715958 309.724152,75.476295 
	C326.946991,84.926407 344.382507,93.988258 361.650146,103.358246 
	C363.692932,104.466736 366.397949,106.519470 366.574280,108.348648 
	C366.788971,110.575851 365.259491,114.345436 363.438416,115.188599 
	C335.832306,127.970245 325.663208,151.983459 322.151154,179.792923 
	C320.638885,191.767807 321.105255,204.029190 321.207367,216.155914 
	C321.258636,222.244507 320.088684,227.510925 316.544678,232.552017 
	C304.764282,249.308899 293.227905,266.237366 281.385162,283.391327 
z"/>
<path fill="#9FABCE" opacity="1.000000" stroke="none" 
	d="
M238.993622,295.005615 
	C224.598297,274.140625 210.508087,253.500381 196.131042,233.061905 
	C192.050766,227.261398 190.532547,221.270157 191.228409,214.282227 
	C193.081146,195.676956 191.465408,177.312119 185.914429,159.439606 
	C179.885727,140.029022 169.016113,124.502708 149.853943,115.743973 
	C147.830566,114.819122 145.372101,111.807800 145.519470,109.955734 
	C145.696213,107.734352 148.013992,104.918190 150.161880,103.739464 
	C167.827637,94.044754 185.710831,84.746971 203.413132,75.117447 
	C206.070984,73.671638 208.609360,71.476982 210.390533,69.035904 
	C220.701019,54.905434 230.774918,40.602192 240.910629,26.344437 
	C242.696442,23.832376 244.838196,20.702320 248.006302,22.569813 
	C250.028000,23.761536 251.715195,27.212887 251.799408,29.710234 
	C252.192337,41.361115 251.797882,53.035973 252.022125,64.695770 
	C252.288116,78.525627 247.700714,90.135590 237.223190,99.293465 
	C235.845490,100.497627 234.410355,101.636063 232.547562,103.181900 
	C235.060791,105.423843 236.956314,107.187607 238.928299,108.861267 
	C247.591080,116.213547 251.942032,125.603577 251.950424,136.915283 
	C251.991119,191.736496 251.993134,246.557800 251.881699,301.378815 
	C251.877930,303.232513 250.517242,305.083466 249.789032,306.935699 
	C248.151733,305.799408 246.197540,304.933258 244.947601,303.466797 
	C242.797195,300.943878 241.085663,298.046875 238.993622,295.005615 
z"/>
<path fill="#FE004F" opacity="1.000000" stroke="none" 
	d="
M306.512268,355.485718 
	C296.222534,344.115906 286.171631,333.006744 276.116028,321.901855 
	C272.408142,317.807037 271.800903,313.340424 274.972839,308.696808 
	C291.118835,285.059570 307.344360,261.476257 323.651367,237.949829 
	C326.467529,233.886902 330.584564,232.319916 335.497101,233.815521 
	C350.601410,238.413986 365.708221,243.005753 380.777588,247.716721 
	C385.958038,249.336243 388.077332,252.793274 388.061371,258.833069 
	C387.995819,283.629333 382.517731,306.989990 369.590820,328.371399 
	C363.909149,337.769012 358.178772,347.137665 352.565460,356.575989 
	C347.105194,365.757019 342.206268,375.180054 340.514801,385.934235 
	C340.329041,387.115356 339.391449,388.178253 338.802551,389.296021 
	C337.577637,388.637238 336.057007,388.247955 335.173126,387.278290 
	C325.640808,376.820801 316.208710,366.271973 306.512268,355.485718 
z"/>
<path fill="#FE004F" opacity="1.000000" stroke="none" 
	d="
M173.881683,389.394440 
	C173.011734,388.535858 172.154770,387.796967 172.028946,386.949493 
	C170.326660,375.483551 165.001495,365.529938 159.295761,355.693604 
	C151.195724,341.729706 142.677078,327.970520 135.342773,313.610321 
	C126.520721,296.337219 124.663559,277.333618 124.186363,258.230621 
	C124.042336,252.464630 127.020149,249.006638 132.577301,247.315536 
	C146.741714,243.005127 160.898239,238.668274 175.039642,234.283066 
	C181.688080,232.221390 185.591919,233.412689 189.685913,239.263626 
	C205.349472,261.649261 220.983047,284.055969 236.580078,306.488037 
	C240.369888,311.938629 240.130768,316.551880 236.162033,321.013214 
	C217.445251,342.053314 198.755005,363.116974 180.003586,384.126099 
	C178.267029,386.071716 176.166229,387.692200 173.881683,389.394440 
z"/>
<path fill="#9EAACD" opacity="1.000000" stroke="none" 
	d="
M303.227661,362.774170 
	C313.307861,373.897766 323.355438,384.585510 332.833771,395.756256 
	C335.205841,398.551880 336.974640,402.922028 336.913483,406.532837 
	C336.668152,421.012054 335.725922,435.485931 334.771057,449.943909 
	C334.306549,456.977570 330.307404,461.369049 323.363800,461.519928 
	C305.813110,461.901306 291.679260,469.409454 279.263641,481.122650 
	C276.238342,483.976776 273.103210,486.777008 269.697540,489.139191 
	C267.989410,490.323975 264.938263,491.561798 263.612305,490.808380 
	C261.929047,489.851898 261.232635,486.954010 260.408539,484.780365 
	C260.021088,483.758484 260.323669,482.472717 260.323639,481.306549 
	C260.322632,431.825958 260.322693,382.345337 260.323395,332.864746 
	C260.323425,331.865143 260.052155,330.756500 260.390930,329.887054 
	C261.291962,327.574524 261.961304,324.169586 263.662781,323.463165 
	C265.248199,322.804962 268.677216,324.475586 270.205109,326.128296 
	C281.286499,338.114655 292.091797,350.356232 303.227661,362.774170 
z"/>
<path fill="#9FABCE" opacity="1.000000" stroke="none" 
	d="
M238.899673,486.110107 
	C234.050079,482.007874 229.569534,478.011230 224.874207,474.285278 
	C215.201950,466.609955 204.204391,462.357300 191.793594,461.801727 
	C181.834946,461.355865 178.208832,458.035370 177.503601,448.257751 
	C176.533112,434.801941 175.531891,421.328674 175.314011,407.850433 
	C175.249847,403.881256 176.739746,398.946014 179.305801,396.024048 
	C199.859314,372.619934 220.841217,349.592010 241.696014,326.452545 
	C242.475845,325.587280 243.201172,324.633270 244.116547,323.937164 
	C247.008636,321.737915 250.640747,322.876770 251.636551,326.373749 
	C252.036743,327.779114 251.962845,329.343292 251.963272,330.835236 
	C251.978012,381.650208 251.976257,432.465179 251.972610,483.280151 
	C251.972534,484.445770 252.055023,485.632263 251.874008,486.773315 
	C251.173325,491.189819 247.505463,492.750763 243.780716,490.169556 
	C242.144897,489.035950 240.701996,487.623871 238.899673,486.110107 
z"/>
<path fill="#9EAACD" opacity="1.000000" stroke="none" 
	d="
M113.325302,196.159241 
	C111.536476,198.384689 110.148293,200.529037 108.300392,202.148972 
	C99.534210,209.833755 90.644798,217.377991 81.795006,224.967316 
	C76.046989,229.896622 71.533501,228.572632 69.917488,221.273911 
	C65.519104,201.408691 65.083588,181.609329 71.972595,162.162247 
	C79.905319,139.768906 95.864769,124.887421 117.114090,115.352493 
	C120.311180,113.917885 124.426117,113.104385 127.798538,113.726654 
	C144.074081,116.729744 158.058105,123.833435 167.159500,138.400482 
	C170.397766,143.583435 169.719376,145.468491 163.986710,147.807358 
	C155.211502,151.387573 146.103867,154.264816 137.624634,158.432007 
	C125.376480,164.451416 117.899231,174.448273 115.871933,188.249451 
	C115.491692,190.838058 114.320381,193.310486 113.325302,196.159241 
z"/>
<path fill="#9EAACD" opacity="1.000000" stroke="none" 
	d="
M442.265198,222.027191 
	C439.658020,228.537155 436.052277,229.618118 431.188568,225.497803 
	C421.918884,217.645050 412.451904,209.986816 403.677368,201.608414 
	C400.528503,198.601730 397.756866,193.935928 397.192444,189.709564 
	C394.965881,173.037125 385.463379,162.569962 370.690430,156.206802 
	C363.826721,153.250381 356.657104,151.012375 349.688263,148.289673 
	C342.111725,145.329590 341.513245,143.723007 345.948273,137.126678 
	C355.049164,123.590630 368.478119,116.600418 384.016266,113.868484 
	C388.374939,113.102142 393.744659,114.588341 397.881592,116.612831 
	C430.777649,132.711288 446.069214,159.749344 445.458527,195.922729 
	C445.313599,204.508911 443.442566,213.065948 442.265198,222.027191 
z"/>
<path fill="#FD014F" opacity="1.000000" stroke="none" 
	d="
M149.623291,235.638489 
	C143.268280,237.804291 137.307724,239.908493 131.283371,241.810608 
	C125.095558,243.764374 121.409172,241.220612 121.371346,234.789429 
	C121.300850,222.804291 121.085838,210.800598 121.623703,198.835770 
	C122.455582,180.330521 131.919113,167.668152 149.142563,160.911499 
	C155.176712,158.544327 161.319260,156.446945 167.447113,154.326965 
	C173.181351,152.343170 177.138947,154.136063 178.588516,159.845047 
	C183.513702,179.242584 184.896774,198.892197 182.107849,218.767517 
	C181.480530,223.238083 178.676788,225.750275 174.548218,227.132080 
	C166.348358,229.876511 158.174377,232.698318 149.623291,235.638489 
z"/>
<path fill="#FE014F" opacity="1.000000" stroke="none" 
	d="
M384.797424,242.548523 
	C368.327148,237.217636 352.146332,232.113602 336.230042,226.286896 
	C333.592957,225.321503 330.748016,221.401703 330.316681,218.502396 
	C327.418945,199.025681 328.718262,179.658264 333.562866,160.567429 
	C335.195129,154.135330 338.891693,152.248840 345.131500,154.411026 
	C351.418060,156.589417 357.716675,158.745621 363.928925,161.123413 
	C380.219696,167.358856 390.588684,182.104385 390.869720,199.590256 
	C391.057037,211.244446 390.905975,222.903748 390.994690,234.560089 
	C391.026550,238.749039 389.599945,241.687820 384.797424,242.548523 
z"/>
<path fill="#9EAACD" opacity="1.000000" stroke="none" 
	d="
M414.413086,232.616058 
	C424.474304,250.713776 429.848877,269.708008 430.063629,290.109283 
	C430.196411,302.721985 432.736176,314.871399 437.286438,326.617310 
	C438.788116,330.493591 440.624542,334.287872 441.627319,338.290131 
	C442.145599,340.358856 441.173431,342.800995 440.874634,345.074402 
	C438.621613,344.759735 435.733398,345.233856 434.212921,344.009491 
	C417.314819,330.402222 404.071075,313.877808 396.931152,293.218536 
	C395.003174,287.639954 395.081940,281.181274 395.147919,275.136444 
	C395.321747,259.205902 396.045746,243.282043 396.428009,227.352585 
	C396.511597,223.871231 395.875641,220.370468 395.994781,216.893173 
	C396.042542,215.498627 396.955627,213.347076 397.980560,212.989441 
	C399.048798,212.616684 401.264832,213.597198 402.048279,214.667389 
	C406.266113,220.428925 410.194336,226.402496 414.413086,232.616058 
z"/>
<path fill="#9EAACD" opacity="1.000000" stroke="none" 
	d="
M90.951317,247.017242 
	C97.142693,236.355820 103.103897,225.994904 109.384674,215.831467 
	C110.301910,214.347244 112.743019,213.804733 114.479012,212.826492 
	C115.117447,214.707062 116.397324,216.623047 116.295815,218.462784 
	C115.193756,238.435425 114.590500,258.307465 117.469109,278.286407 
	C118.377785,284.593018 116.191437,291.920715 113.644432,298.041626 
	C106.159615,316.029022 94.254150,330.981049 79.144394,343.248260 
	C77.320518,344.729004 74.192436,344.603302 71.668823,345.222168 
	C71.411232,342.647552 70.157768,339.644440 71.052261,337.565613 
	C78.801498,319.556213 81.900795,300.795288 83.099106,281.270233 
	C83.799454,269.858917 88.127876,258.670227 90.951317,247.017242 
z"/>
<path fill="#9EAACD" opacity="1.000000" stroke="none" 
	d="
M439.427612,288.407349 
	C436.559052,269.997711 431.725098,252.592468 424.195770,235.936996 
	C423.543427,234.494003 424.455231,232.343918 424.640472,230.522278 
	C426.612854,230.800385 429.057098,230.423492 430.487457,231.453949 
	C455.422668,249.418167 471.167358,273.402374 475.826782,303.897980 
	C477.394989,314.161682 476.947693,324.768982 476.887115,335.216125 
	C476.874908,337.320953 474.869476,340.393890 472.999115,341.198761 
	C471.497559,341.844910 468.240692,340.286835 466.747314,338.750092 
	C460.528687,332.350647 456.161438,324.856049 453.467041,316.185333 
	C451.822632,310.893463 448.619629,306.079102 446.054596,301.082123 
	C443.938446,296.959625 441.731049,292.883972 439.427612,288.407349 
z"/>
<path fill="#9EAACD" opacity="1.000000" stroke="none" 
	d="
M58.019379,254.033142 
	C65.917847,246.411041 73.492912,238.950928 81.389931,231.848801 
	C82.767471,230.609909 85.501198,230.878998 87.608566,230.451630 
	C87.708694,232.577942 88.549690,235.023346 87.792824,236.780533 
	C81.175346,252.143982 76.306732,267.927490 73.647293,284.513214 
	C72.763451,290.025360 69.262283,295.147308 66.787537,300.366974 
	C64.101768,306.031738 61.386127,311.694672 58.378044,317.191254 
	C54.500145,324.277222 50.588596,331.378296 46.093712,338.071381 
	C44.845833,339.929504 41.036037,341.695618 39.209419,341.085510 
	C37.324902,340.456055 35.428356,336.956390 35.245285,334.580811 
	C32.975037,305.121521 39.492226,278.035980 58.019379,254.033142 
z"/>
<path fill="#9DA9CC" opacity="1.000000" stroke="none" 
	d="
M351.504700,386.449493 
	C352.834229,380.457855 354.054688,374.876038 355.275146,369.294250 
	C355.694763,369.306091 356.114380,369.317963 356.533997,369.329803 
	C357.637085,375.623383 358.749634,381.915283 359.841003,388.210876 
	C361.404724,397.231110 362.881653,406.267029 364.524353,415.272797 
	C367.024261,428.978088 365.166290,442.495667 362.841156,455.978790 
	C362.229370,459.526398 359.677948,461.382843 356.056641,461.430237 
	C354.233276,461.454163 352.406128,461.161255 350.580139,461.018555 
	C342.124664,460.357849 340.180115,458.154022 341.441956,449.980164 
	C344.691681,428.929352 348.069214,407.898285 351.504700,386.449493 
z"/>
<path fill="#9EA9CC" opacity="1.000000" stroke="none" 
	d="
M146.942093,423.167816 
	C149.885803,404.682953 152.802216,386.675751 155.718643,368.668579 
	C156.142242,368.644043 156.565842,368.619507 156.989426,368.594971 
	C158.939331,377.860260 161.208405,387.072144 162.769882,396.402405 
	C165.648697,413.604095 168.130722,430.872498 170.724442,448.121155 
	C171.044601,450.250336 171.093872,452.427216 171.152679,454.585114 
	C171.174591,455.388885 171.090942,456.352020 170.669937,456.986847 
	C166.925323,462.633148 160.861252,460.914215 155.641891,461.290588 
	C151.748566,461.571381 149.581467,458.546875 149.255768,454.901459 
	C148.326111,444.496155 147.675308,434.065918 146.942093,423.167816 
z"/>
</svg>