<svg version="1.1" id="Layer_1" xmlns="http://www.w3.org/2000/svg" xmlns:xlink="http://www.w3.org/1999/xlink" x="0px" y="0px"
	 width="100%" viewBox="0 0 512 512" enable-background="new 0 0 512 512" xml:space="preserve">
<path fill="#000000" opacity="1.000000" stroke="none" 
	d="
M1.000000,184.000000 
	C1.000000,122.666664 1.000000,61.833332 1.000000,1.000000 
	C171.666672,1.000000 342.333344,1.000000 513.000000,1.000000 
	C513.000000,171.666672 513.000000,342.333344 513.000000,513.000000 
	C342.333344,513.000000 171.666672,513.000000 1.000000,513.000000 
	C1.000000,403.500000 1.000000,294.000000 1.000000,184.000000 
M415.011871,391.605927 
	C415.335449,389.821869 415.751038,388.048920 415.967651,386.251984 
	C417.369995,374.618896 418.932312,363.000092 420.052124,351.339172 
	C421.551788,335.723114 423.549286,320.085419 423.775757,304.434479 
	C424.046722,285.711456 423.247162,266.920959 421.822266,248.242752 
	C420.784607,234.640305 418.574463,221.051651 415.843964,207.669678 
	C410.057831,179.312668 401.512817,151.780975 388.889038,125.630287 
	C386.057281,119.764168 384.743103,113.725136 384.882874,107.055984 
	C385.482391,78.446861 385.688080,49.829208 385.978607,21.214069 
	C386.056580,13.534585 382.792084,10.039890 375.292480,10.035751 
	C295.477325,9.991707 215.662155,9.981241 135.847076,10.052775 
	C128.822784,10.059072 125.679352,13.585386 125.899208,20.039066 
	C126.527473,38.480888 126.739998,56.938522 126.966713,75.391777 
	C127.114090,87.387268 127.177689,99.390160 126.893250,111.380600 
	C126.810204,114.881668 125.855240,118.536942 124.517914,121.801155 
	C120.203651,132.331619 114.637939,142.428757 111.184273,153.214752 
	C105.259750,171.717346 99.911652,190.462646 95.531700,209.386139 
	C90.647293,230.489120 87.784286,252.018204 88.084938,273.755157 
	C88.385651,295.496979 89.234032,317.233978 90.077827,338.963959 
	C90.365509,346.372498 91.096954,353.790283 92.099953,361.139130 
	C94.238571,376.808411 96.508301,392.464630 99.057922,408.071686 
	C101.790192,424.796783 104.978477,441.446869 107.827682,458.153564 
	C109.682510,469.029572 111.650352,479.907532 112.878899,490.861816 
	C113.725525,498.410645 115.728310,500.987488 123.296951,500.991455 
	C146.791595,501.003815 170.286301,500.975647 193.780823,501.029755 
	C196.075394,501.035034 198.363098,501.596405 200.663895,501.735321 
	C212.107925,502.426178 217.660202,502.480560 221.422440,492.337311 
	C223.809891,485.900635 227.416824,479.927429 230.086884,473.582275 
	C237.719955,455.442932 243.142380,436.609131 247.072876,417.344910 
	C250.044464,402.780487 252.884384,388.189178 255.833160,373.357117 
	C256.234955,374.008667 256.765411,374.508148 256.863556,375.081604 
	C258.612915,385.303101 260.023529,395.591278 262.071777,405.751251 
	C268.183746,436.069244 276.242157,465.751587 290.615082,493.431976 
	C293.818054,499.600494 298.233551,502.224030 304.788208,501.980408 
	C312.075989,501.709595 319.358246,501.087708 326.645508,501.042419 
	C347.639923,500.911926 368.635712,501.009094 389.630890,500.983795 
	C394.666046,500.977722 397.180359,498.837097 398.019989,493.899414 
	C400.587036,478.803619 403.134399,463.704468 405.660278,448.601715 
	C408.787537,429.903320 411.885590,411.200073 415.011871,391.605927 
z"/>
<path fill="#494F69" opacity="1.000000" stroke="none" 
	d="
M415.004059,392.052429 
	C411.885590,411.200073 408.787537,429.903320 405.660278,448.601715 
	C403.134399,463.704468 400.587036,478.803619 398.019989,493.899414 
	C397.180359,498.837097 394.666046,500.977722 389.630890,500.983795 
	C368.635712,501.009094 347.639923,500.911926 326.645508,501.042419 
	C319.358246,501.087708 312.075989,501.709595 304.788208,501.980408 
	C298.233551,502.224030 293.818054,499.600494 290.615082,493.431976 
	C276.242157,465.751587 268.183746,436.069244 262.071777,405.751251 
	C260.023529,395.591278 258.612915,385.303101 256.863556,375.081604 
	C256.765411,374.508148 256.234955,374.008667 255.833160,373.357117 
	C252.884384,388.189178 250.044464,402.780487 247.072876,417.344910 
	C243.142380,436.609131 237.719955,455.442932 230.086884,473.582275 
	C227.416824,479.927429 223.809891,485.900635 221.422440,492.337311 
	C217.660202,502.480560 212.107925,502.426178 200.663895,501.735321 
	C198.363098,501.596405 196.075394,501.035034 193.780823,501.029755 
	C170.286301,500.975647 146.791595,501.003815 123.296951,500.991455 
	C115.728310,500.987488 113.725525,498.410645 112.878899,490.861816 
	C111.650352,479.907532 109.682510,469.029572 107.827682,458.153564 
	C104.978477,441.446869 101.790192,424.796783 99.057922,408.071686 
	C96.508301,392.464630 94.238571,376.808411 92.099953,361.139130 
	C91.096954,353.790283 90.365509,346.372498 90.077827,338.963959 
	C89.234032,317.233978 88.385651,295.496979 88.084938,273.755157 
	C87.784286,252.018204 90.647293,230.489120 95.531700,209.386139 
	C99.911652,190.462646 105.259750,171.717346 111.184273,153.214752 
	C114.637939,142.428757 120.203651,132.331619 124.517914,121.801155 
	C125.855240,118.536942 126.810204,114.881668 126.893250,111.380600 
	C127.177689,99.390160 127.114090,87.387268 126.966713,75.391777 
	C126.739998,56.938522 126.527473,38.480888 125.899208,20.039066 
	C125.679352,13.585386 128.822784,10.059072 135.847076,10.052775 
	C215.662155,9.981241 295.477325,9.991707 375.292480,10.035751 
	C382.792084,10.039890 386.056580,13.534585 385.978607,21.214069 
	C385.688080,49.829208 385.482391,78.446861 384.882874,107.055984 
	C384.743103,113.725136 386.057281,119.764168 388.889038,125.630287 
	C401.512817,151.780975 410.057831,179.312668 415.843964,207.669678 
	C418.574463,221.051651 420.784607,234.640305 421.822266,248.242752 
	C423.247162,266.920959 424.046722,285.711456 423.775757,304.434479 
	C423.549286,320.085419 421.551788,335.723114 420.052124,351.339172 
	C418.932312,363.000092 417.369995,374.618896 415.967651,386.251984 
	C415.751038,388.048920 415.335449,389.821869 415.004059,392.052429 
M132.320160,221.831451 
	C124.950661,254.578903 123.452629,287.630280 130.214737,320.492706 
	C133.887619,338.342133 140.446335,355.596710 145.682144,373.125946 
	C148.393936,382.204865 154.703354,387.513580 163.111038,387.719910 
	C171.132721,387.916718 178.041748,382.898468 180.831406,374.139954 
	C195.409714,328.369080 200.461594,281.472748 193.240417,234.020264 
	C188.542450,203.148483 180.573318,172.774353 174.062775,142.178741 
	C173.223129,138.232849 171.123306,135.416031 166.854630,135.021271 
	C162.266495,134.596970 159.675537,137.320114 158.382095,141.292419 
	C149.731461,167.859833 141.161118,194.453400 132.320160,221.831451 
M385.933411,298.269745 
	C385.840057,283.284851 386.785431,268.206879 385.452332,253.333115 
	C381.906982,213.777145 367.703278,177.018005 353.924164,140.222733 
	C352.393372,136.134903 348.901367,133.680649 344.863281,135.396240 
	C342.283752,136.492142 339.617645,139.658279 338.873688,142.406143 
	C335.701904,154.121521 333.505096,166.097717 330.457062,177.850250 
	C318.737549,223.037598 312.392639,268.756134 319.242493,315.306122 
	C322.162079,335.147034 327.497345,354.646515 332.076294,374.221283 
	C333.564575,380.583649 337.913025,385.028381 344.354828,386.923676 
	C354.378143,389.872711 363.766541,384.258972 366.998291,373.513947 
	C370.015961,363.480774 372.667755,353.319580 376.130646,343.442596 
	C381.173370,329.059570 384.745667,314.423950 385.933411,298.269745 
M321.307892,381.116974 
	C318.553284,372.054749 314.654114,363.161194 313.288239,353.894287 
	C310.647400,335.977356 309.475708,317.845551 307.558929,299.817322 
	C307.389648,298.225372 306.219910,296.739777 305.514832,295.204803 
	C304.509369,296.356140 303.044556,297.343506 302.566284,298.683075 
	C293.031830,325.386963 286.768738,352.872711 287.290741,381.272278 
	C287.681671,402.541229 290.009064,423.794312 291.974640,445.008087 
	C293.399811,460.389618 306.542328,470.516815 322.083160,469.030426 
	C336.220886,467.678223 347.221466,454.707581 345.861420,440.050079 
	C344.396118,424.258270 339.837738,409.406860 330.482086,396.251801 
	C327.216583,391.660156 324.576355,386.623779 321.307892,381.116974 
M203.001709,321.433411 
	C201.950195,330.189667 201.246918,339.004974 199.774796,347.689941 
	C196.690338,365.887115 191.454742,383.199585 180.023834,398.325958 
	C171.181168,410.027313 167.560303,424.010956 166.013565,438.414825 
	C164.299561,454.376190 174.994064,467.814423 189.952103,469.057739 
	C206.058197,470.396484 218.523697,459.630371 220.050888,443.200195 
	C221.098648,431.927887 222.342316,420.673981 223.455231,409.407532 
	C227.219666,371.299042 221.930786,334.354279 209.005066,298.426849 
	C208.553986,297.173065 206.951950,296.333374 205.886353,295.300659 
	C205.285263,296.549408 204.245438,297.767578 204.155899,299.051971 
	C203.658035,306.193115 203.390808,313.350281 203.001709,321.433411 
M210.959015,77.526459 
	C214.408279,107.137276 225.485764,134.063782 239.877655,159.832947 
	C241.392593,162.545502 243.923248,164.273514 246.339447,162.564270 
	C248.208878,161.241791 249.681351,158.062576 249.731186,155.675400 
	C250.036835,141.035934 249.888443,126.386948 249.888458,111.741135 
	C249.888504,83.448074 249.902573,55.155006 249.873703,26.861975 
	C249.867065,20.355253 248.417801,18.925848 241.975616,18.886831 
	C235.318726,18.846512 228.659378,18.785053 222.004715,18.916340 
	C214.177536,19.070761 209.210648,23.506834 209.314819,31.276089 
	C209.517624,46.399353 210.319016,61.514591 210.959015,77.526459 
M261.930267,77.499992 
	C261.932892,103.820961 261.853241,130.142685 262.091553,156.461517 
	C262.110992,158.605621 263.792603,161.674789 265.599823,162.649933 
	C268.568420,164.251755 270.618683,161.832932 272.214722,159.120316 
	C295.475311,119.586609 304.949097,76.829948 302.325104,31.210566 
	C301.874115,23.369982 297.533447,19.059460 289.569641,18.917768 
	C282.908173,18.799246 276.242737,18.846308 269.579590,18.892252 
	C263.236115,18.935993 261.958221,20.196457 261.945099,26.523386 
	C261.910553,43.182190 261.931458,59.841110 261.930267,77.499992 
M226.252029,193.242889 
	C219.351425,183.437210 212.466827,173.620193 205.538818,163.833923 
	C203.839096,161.432938 201.697510,159.510406 199.228958,162.693390 
	C198.389374,163.775955 198.580139,165.875443 198.725677,167.471436 
	C200.842545,190.683746 202.962540,213.896240 205.238663,237.093307 
	C206.114883,246.023544 206.298187,255.219193 208.688278,263.765045 
	C214.916885,286.035553 222.180344,308.017059 229.072739,330.100830 
	C229.576263,331.714142 230.414673,333.222961 231.097382,334.780365 
	C231.675156,334.728546 232.252930,334.676727 232.830704,334.624878 
	C233.176910,331.124664 233.603928,327.630280 233.856689,324.123322 
	C236.154892,292.235992 238.381744,260.343414 240.726883,228.459564 
	C241.349472,219.994980 239.587830,212.255829 234.712204,205.273254 
	C232.042648,201.450089 229.358337,197.637192 226.252029,193.242889 
M278.220123,329.908844 
	C278.624023,331.512268 279.027954,333.115692 279.431854,334.719116 
	C279.865753,334.725769 280.299652,334.732422 280.733551,334.739105 
	C281.445404,332.962067 282.281586,331.223785 282.849670,329.401947 
	C288.049957,312.725433 293.067261,295.990479 298.419281,279.363159 
	C301.945923,268.406769 304.778442,257.420319 305.725586,245.847351 
	C307.815887,220.305908 310.575562,194.819672 312.808441,169.288742 
	C313.034271,166.706726 311.529449,163.973343 310.827789,161.310181 
	C308.643372,163.022598 305.933563,164.352615 304.362366,166.511353 
	C296.036804,177.949921 288.340332,189.858887 279.754303,201.091522 
	C272.400696,210.711838 270.226318,221.081802 271.190613,232.931335 
	C273.795959,264.947144 275.873535,297.005890 278.220123,329.908844 
M362.222260,416.831848 
	C362.478180,421.818298 362.818146,426.802246 362.965057,431.791901 
	C363.097321,436.283386 364.158173,440.185913 369.026428,441.562775 
	C373.719818,442.890167 376.481842,440.029236 378.922363,436.573822 
	C386.868622,425.323212 392.642242,413.004456 397.088867,400.017334 
	C406.808533,371.629578 409.544128,342.186951 410.437469,312.448883 
	C411.239716,285.744598 410.642975,259.137665 405.089691,232.878845 
	C404.726715,231.162415 402.919769,229.751343 401.784454,228.198242 
	C401.096619,230.035843 399.856476,231.861862 399.817749,233.713043 
	C399.660889,241.206390 399.874390,248.707489 399.950073,256.205719 
	C400.452789,305.998352 391.395752,353.556519 367.598938,397.857117 
	C364.692017,403.268768 364.016724,409.879242 362.222260,416.831848 
M105.495117,270.968506 
	C104.850220,283.938995 103.860733,296.903381 103.632019,309.881195 
	C103.152740,337.076630 104.296982,364.168457 111.088928,390.709076 
	C115.281418,407.091888 121.178085,422.758575 130.652802,436.917633 
	C132.796875,440.121735 135.504990,441.906708 139.463318,441.162323 
	C143.264084,440.447632 145.131882,437.837524 145.720703,434.269531 
	C148.038040,420.227570 147.524628,406.768127 141.317032,393.324280 
	C132.390778,373.992554 124.799698,354.028381 120.965584,332.921021 
	C114.907669,299.571289 115.237213,265.990021 117.532349,232.337677 
	C117.654572,230.545502 116.368935,228.657303 115.738693,226.813812 
	C114.504921,228.271988 112.464081,229.582153 112.165222,231.211777 
	C109.796776,244.126785 107.759804,257.102570 105.495117,270.968506 
M329.674683,101.180923 
	C336.508331,93.224068 343.050781,84.992500 350.240417,77.371483 
	C362.587830,64.283203 367.017303,49.090900 364.272095,31.443140 
	C363.504883,26.511154 361.595276,22.787289 356.807343,21.255219 
	C352.090759,19.745977 347.951782,21.131523 344.669495,24.910603 
	C343.687286,26.041449 342.630707,27.107536 341.645172,28.235598 
	C322.422119,50.238258 314.045013,76.068237 314.812988,105.024719 
	C314.860443,106.814499 316.244263,109.479782 317.685394,110.064743 
	C319.118439,110.646416 321.788635,109.583008 323.235748,108.404953 
	C325.524567,106.541718 327.245636,103.981094 329.674683,101.180923 
M149.962860,24.539152 
	C149.291229,25.862017 148.245102,27.120750 148.005905,28.517662 
	C145.612427,42.495815 145.446548,56.515614 154.494263,68.242081 
	C165.257385,82.191826 177.090164,95.321815 188.648422,108.643059 
	C189.689377,109.842796 192.561020,110.762672 193.779816,110.167839 
	C195.298340,109.426735 196.853500,106.999405 196.898376,105.261620 
	C197.694580,74.421745 188.255539,47.311764 166.832397,24.751560 
	C161.781204,19.432272 156.593109,19.294668 149.962860,24.539152 
M400.998383,204.711014 
	C398.887360,195.489212 397.604523,185.977478 394.498169,177.104141 
	C387.352692,156.693039 379.062286,136.684387 371.801117,116.311195 
	C369.558685,110.019501 368.623749,103.124008 368.026245,96.421524 
	C367.392944,89.316948 367.958466,82.111046 367.786865,74.954529 
	C367.757080,73.712303 366.667908,72.495491 366.068085,71.266930 
	C365.059540,72.012459 363.786530,72.567162 363.087463,73.536011 
	C359.776123,78.125481 356.833496,82.993225 353.360291,87.450790 
	C348.403473,93.812431 348.266907,99.997299 351.441040,107.426582 
	C365.690369,140.778305 379.492737,174.321106 393.419891,207.810135 
	C394.440216,210.263596 394.982758,212.928391 396.132538,215.308929 
	C396.573975,216.222839 398.069519,217.021927 399.131409,217.084793 
	C399.710938,217.119095 400.861755,215.541687 400.934143,214.626221 
	C401.169647,211.649246 401.026672,208.642349 400.998383,204.711014 
M153.272049,76.199791 
	C151.812561,74.373268 150.353058,72.546745 148.893570,70.720222 
	C148.349884,70.900154 147.806198,71.080093 147.262512,71.260025 
	C147.080566,73.604889 146.566132,75.978958 146.769073,78.290024 
	C148.442291,97.343529 144.383499,115.178978 136.794647,132.644379 
	C130.366730,147.437897 125.068069,162.731964 119.536583,177.901840 
	C115.406425,189.228622 112.764999,200.919601 113.275726,213.081543 
	C113.336624,214.531677 114.876122,215.919708 115.730263,217.336533 
	C116.787155,216.236954 118.289444,215.317398 118.819908,214.005051 
	C120.626778,209.534821 121.861450,204.829956 123.723030,200.385757 
	C136.842407,169.065582 149.956238,137.742020 163.338623,106.533943 
	C166.199051,99.863403 166.024979,94.090019 161.651276,88.296280 
	C158.844193,84.577789 156.339371,80.631104 153.272049,76.199791 
z"/>
<path fill="#FE004F" opacity="1.000000" stroke="none" 
	d="
M132.442444,221.434967 
	C141.161118,194.453400 149.731461,167.859833 158.382095,141.292419 
	C159.675537,137.320114 162.266495,134.596970 166.854630,135.021271 
	C171.123306,135.416031 173.223129,138.232849 174.062775,142.178741 
	C180.573318,172.774353 188.542450,203.148483 193.240417,234.020264 
	C200.461594,281.472748 195.409714,328.369080 180.831406,374.139954 
	C178.041748,382.898468 171.132721,387.916718 163.111038,387.719910 
	C154.703354,387.513580 148.393936,382.204865 145.682144,373.125946 
	C140.446335,355.596710 133.887619,338.342133 130.214737,320.492706 
	C123.452629,287.630280 124.950661,254.578903 132.442444,221.434967 
z"/>
<path fill="#FE004F" opacity="1.000000" stroke="none" 
	d="
M385.906494,298.741821 
	C384.745667,314.423950 381.173370,329.059570 376.130646,343.442596 
	C372.667755,353.319580 370.015961,363.480774 366.998291,373.513947 
	C363.766541,384.258972 354.378143,389.872711 344.354828,386.923676 
	C337.913025,385.028381 333.564575,380.583649 332.076294,374.221283 
	C327.497345,354.646515 322.162079,335.147034 319.242493,315.306122 
	C312.392639,268.756134 318.737549,223.037598 330.457062,177.850250 
	C333.505096,166.097717 335.701904,154.121521 338.873688,142.406143 
	C339.617645,139.658279 342.283752,136.492142 344.863281,135.396240 
	C348.901367,133.680649 352.393372,136.134903 353.924164,140.222733 
	C367.703278,177.018005 381.906982,213.777145 385.452332,253.333115 
	C386.785431,268.206879 385.840057,283.284851 385.906494,298.741821 
z"/>
<path fill="#FD8564" opacity="1.000000" stroke="none" 
	d="
M321.479218,381.453735 
	C324.576355,386.623779 327.216583,391.660156 330.482086,396.251801 
	C339.837738,409.406860 344.396118,424.258270 345.861420,440.050079 
	C347.221466,454.707581 336.220886,467.678223 322.083160,469.030426 
	C306.542328,470.516815 293.399811,460.389618 291.974640,445.008087 
	C290.009064,423.794312 287.681671,402.541229 287.290741,381.272278 
	C286.768738,352.872711 293.031830,325.386963 302.566284,298.683075 
	C303.044556,297.343506 304.509369,296.356140 305.514832,295.204803 
	C306.219910,296.739777 307.389648,298.225372 307.558929,299.817322 
	C309.475708,317.845551 310.647400,335.977356 313.288239,353.894287 
	C314.654114,363.161194 318.553284,372.054749 321.479218,381.453735 
z"/>
<path fill="#FD8564" opacity="1.000000" stroke="none" 
	d="
M203.023178,320.967712 
	C203.390808,313.350281 203.658035,306.193115 204.155899,299.051971 
	C204.245438,297.767578 205.285263,296.549408 205.886353,295.300659 
	C206.951950,296.333374 208.553986,297.173065 209.005066,298.426849 
	C221.930786,334.354279 227.219666,371.299042 223.455231,409.407532 
	C222.342316,420.673981 221.098648,431.927887 220.050888,443.200195 
	C218.523697,459.630371 206.058197,470.396484 189.952103,469.057739 
	C174.994064,467.814423 164.299561,454.376190 166.013565,438.414825 
	C167.560303,424.010956 171.181168,410.027313 180.023834,398.325958 
	C191.454742,383.199585 196.690338,365.887115 199.774796,347.689941 
	C201.246918,339.004974 201.950195,330.189667 203.023178,320.967712 
z"/>
<path fill="#9EAACD" opacity="1.000000" stroke="none" 
	d="
M210.915741,77.079803 
	C210.319016,61.514591 209.517624,46.399353 209.314819,31.276089 
	C209.210648,23.506834 214.177536,19.070761 222.004715,18.916340 
	C228.659378,18.785053 235.318726,18.846512 241.975616,18.886831 
	C248.417801,18.925848 249.867065,20.355253 249.873703,26.861975 
	C249.902573,55.155006 249.888504,83.448074 249.888458,111.741135 
	C249.888443,126.386948 250.036835,141.035934 249.731186,155.675400 
	C249.681351,158.062576 248.208878,161.241791 246.339447,162.564270 
	C243.923248,164.273514 241.392593,162.545502 239.877655,159.832947 
	C225.485764,134.063782 214.408279,107.137276 210.915741,77.079803 
z"/>
<path fill="#9FABCE" opacity="1.000000" stroke="none" 
	d="
M261.930267,76.999985 
	C261.931458,59.841110 261.910553,43.182190 261.945099,26.523386 
	C261.958221,20.196457 263.236115,18.935993 269.579590,18.892252 
	C276.242737,18.846308 282.908173,18.799246 289.569641,18.917768 
	C297.533447,19.059460 301.874115,23.369982 302.325104,31.210566 
	C304.949097,76.829948 295.475311,119.586609 272.214722,159.120316 
	C270.618683,161.832932 268.568420,164.251755 265.599823,162.649933 
	C263.792603,161.674789 262.110992,158.605621 262.091553,156.461517 
	C261.853241,130.142685 261.932892,103.820961 261.930267,76.999985 
z"/>
<path fill="#9EAACD" opacity="1.000000" stroke="none" 
	d="
M226.466354,193.531281 
	C229.358337,197.637192 232.042648,201.450089 234.712204,205.273254 
	C239.587830,212.255829 241.349472,219.994980 240.726883,228.459564 
	C238.381744,260.343414 236.154892,292.235992 233.856689,324.123322 
	C233.603928,327.630280 233.176910,331.124664 232.830704,334.624878 
	C232.252930,334.676727 231.675156,334.728546 231.097382,334.780365 
	C230.414673,333.222961 229.576263,331.714142 229.072739,330.100830 
	C222.180344,308.017059 214.916885,286.035553 208.688278,263.765045 
	C206.298187,255.219193 206.114883,246.023544 205.238663,237.093307 
	C202.962540,213.896240 200.842545,190.683746 198.725677,167.471436 
	C198.580139,165.875443 198.389374,163.775955 199.228958,162.693390 
	C201.697510,159.510406 203.839096,161.432938 205.538818,163.833923 
	C212.466827,173.620193 219.351425,183.437210 226.466354,193.531281 
z"/>
<path fill="#9EAACD" opacity="1.000000" stroke="none" 
	d="
M278.190308,329.478210 
	C275.873535,297.005890 273.795959,264.947144 271.190613,232.931335 
	C270.226318,221.081802 272.400696,210.711838 279.754303,201.091522 
	C288.340332,189.858887 296.036804,177.949921 304.362366,166.511353 
	C305.933563,164.352615 308.643372,163.022598 310.827789,161.310181 
	C311.529449,163.973343 313.034271,166.706726 312.808441,169.288742 
	C310.575562,194.819672 307.815887,220.305908 305.725586,245.847351 
	C304.778442,257.420319 301.945923,268.406769 298.419281,279.363159 
	C293.067261,295.990479 288.049957,312.725433 282.849670,329.401947 
	C282.281586,331.223785 281.445404,332.962067 280.733551,334.739105 
	C280.299652,334.732422 279.865753,334.725769 279.431854,334.719116 
	C279.027954,333.115692 278.624023,331.512268 278.190308,329.478210 
z"/>
<path fill="#FC8464" opacity="1.000000" stroke="none" 
	d="
M362.264709,416.382996 
	C364.016724,409.879242 364.692017,403.268768 367.598938,397.857117 
	C391.395752,353.556519 400.452789,305.998352 399.950073,256.205719 
	C399.874390,248.707489 399.660889,241.206390 399.817749,233.713043 
	C399.856476,231.861862 401.096619,230.035843 401.784454,228.198242 
	C402.919769,229.751343 404.726715,231.162415 405.089691,232.878845 
	C410.642975,259.137665 411.239716,285.744598 410.437469,312.448883 
	C409.544128,342.186951 406.808533,371.629578 397.088867,400.017334 
	C392.642242,413.004456 386.868622,425.323212 378.922363,436.573822 
	C376.481842,440.029236 373.719818,442.890167 369.026428,441.562775 
	C364.158173,440.185913 363.097321,436.283386 362.965057,431.791901 
	C362.818146,426.802246 362.478180,421.818298 362.264709,416.382996 
z"/>
<path fill="#FD8464" opacity="1.000000" stroke="none" 
	d="
M105.558067,270.514099 
	C107.759804,257.102570 109.796776,244.126785 112.165222,231.211777 
	C112.464081,229.582153 114.504921,228.271988 115.738693,226.813812 
	C116.368935,228.657303 117.654572,230.545502 117.532349,232.337677 
	C115.237213,265.990021 114.907669,299.571289 120.965584,332.921021 
	C124.799698,354.028381 132.390778,373.992554 141.317032,393.324280 
	C147.524628,406.768127 148.038040,420.227570 145.720703,434.269531 
	C145.131882,437.837524 143.264084,440.447632 139.463318,441.162323 
	C135.504990,441.906708 132.796875,440.121735 130.652802,436.917633 
	C121.178085,422.758575 115.281418,407.091888 111.088928,390.709076 
	C104.296982,364.168457 103.152740,337.076630 103.632019,309.881195 
	C103.860733,296.903381 104.850220,283.938995 105.558067,270.514099 
z"/>
<path fill="#9EAACD" opacity="1.000000" stroke="none" 
	d="
M329.440796,101.448250 
	C327.245636,103.981094 325.524567,106.541718 323.235748,108.404953 
	C321.788635,109.583008 319.118439,110.646416 317.685394,110.064743 
	C316.244263,109.479782 314.860443,106.814499 314.812988,105.024719 
	C314.045013,76.068237 322.422119,50.238258 341.645172,28.235598 
	C342.630707,27.107536 343.687286,26.041449 344.669495,24.910603 
	C347.951782,21.131523 352.090759,19.745977 356.807343,21.255219 
	C361.595276,22.787289 363.504883,26.511154 364.272095,31.443140 
	C367.017303,49.090900 362.587830,64.283203 350.240417,77.371483 
	C343.050781,84.992500 336.508331,93.224068 329.440796,101.448250 
z"/>
<path fill="#9EAACD" opacity="1.000000" stroke="none" 
	d="
M150.221085,24.252464 
	C156.593109,19.294668 161.781204,19.432272 166.832397,24.751560 
	C188.255539,47.311764 197.694580,74.421745 196.898376,105.261620 
	C196.853500,106.999405 195.298340,109.426735 193.779816,110.167839 
	C192.561020,110.762672 189.689377,109.842796 188.648422,108.643059 
	C177.090164,95.321815 165.257385,82.191826 154.494263,68.242081 
	C145.446548,56.515614 145.612427,42.495815 148.005905,28.517662 
	C148.245102,27.120750 149.291229,25.862017 150.221085,24.252464 
z"/>
<path fill="#9DA9CC" opacity="1.000000" stroke="none" 
	d="
M401.013885,205.178986 
	C401.026672,208.642349 401.169647,211.649246 400.934143,214.626221 
	C400.861755,215.541687 399.710938,217.119095 399.131409,217.084793 
	C398.069519,217.021927 396.573975,216.222839 396.132538,215.308929 
	C394.982758,212.928391 394.440216,210.263596 393.419891,207.810135 
	C379.492737,174.321106 365.690369,140.778305 351.441040,107.426582 
	C348.266907,99.997299 348.403473,93.812431 353.360291,87.450790 
	C356.833496,82.993225 359.776123,78.125481 363.087463,73.536011 
	C363.786530,72.567162 365.059540,72.012459 366.068085,71.266937 
	C366.667908,72.495491 367.757080,73.712303 367.786865,74.954529 
	C367.958466,82.111046 367.392944,89.316948 368.026245,96.421524 
	C368.623749,103.124008 369.558685,110.019501 371.801117,116.311195 
	C379.062286,136.684387 387.352692,156.693039 394.498169,177.104141 
	C397.604523,185.977478 398.887360,195.489212 401.013885,205.178986 
z"/>
<path fill="#9DA9CC" opacity="1.000000" stroke="none" 
	d="
M153.485565,76.493248 
	C156.339371,80.631104 158.844193,84.577789 161.651276,88.296280 
	C166.024979,94.090019 166.199051,99.863403 163.338623,106.533943 
	C149.956238,137.742020 136.842407,169.065582 123.723030,200.385757 
	C121.861450,204.829956 120.626778,209.534821 118.819908,214.005051 
	C118.289444,215.317398 116.787155,216.236954 115.730255,217.336533 
	C114.876122,215.919708 113.336624,214.531677 113.275726,213.081543 
	C112.764999,200.919601 115.406425,189.228622 119.536583,177.901840 
	C125.068069,162.731964 130.366730,147.437897 136.794647,132.644379 
	C144.383499,115.178978 148.442291,97.343529 146.769073,78.290024 
	C146.566132,75.978958 147.080566,73.604889 147.262512,71.260025 
	C147.806198,71.080093 148.349884,70.900154 148.893570,70.720222 
	C150.353058,72.546745 151.812561,74.373268 153.485565,76.493248 
z"/>
</svg>