<svg version="1.1" id="Layer_1" xmlns="http://www.w3.org/2000/svg" xmlns:xlink="http://www.w3.org/1999/xlink" x="0px" y="0px"
	 width="100%" viewBox="0 0 512 512" enable-background="new 0 0 512 512" xml:space="preserve">
<path fill="#000000" opacity="1.000000" stroke="none" 
	d="
M1.000000,199.000000 
	C1.000000,132.666672 1.000000,66.833336 1.000000,1.000000 
	C171.666672,1.000000 342.333344,1.000000 513.000000,1.000000 
	C513.000000,171.666672 513.000000,342.333344 513.000000,513.000000 
	C342.333344,513.000000 171.666672,513.000000 1.000000,513.000000 
	C1.000000,408.500000 1.000000,304.000000 1.000000,199.000000 
M35.013847,272.554871 
	C28.307707,288.242126 25.397917,304.718842 25.042452,321.677246 
	C24.846920,331.005676 25.752968,340.418671 24.798223,349.652466 
	C23.839491,358.924744 28.097992,364.775543 34.572399,369.999329 
	C35.856297,371.035217 37.299591,371.892853 38.491127,373.020996 
	C52.003330,385.814362 65.488449,398.636353 78.963150,411.469269 
	C83.317978,415.616730 86.767357,415.102509 89.588104,409.834473 
	C100.222282,389.974274 106.560707,369.013214 106.044556,346.256073 
	C106.009079,344.691711 106.213875,342.767578 107.089409,341.595032 
	C112.407478,334.472687 117.952637,327.519928 123.774315,320.058990 
	C126.250473,323.691956 128.145721,327.195618 130.709274,330.111786 
	C143.534668,344.701355 147.019241,360.937744 143.488800,380.258728 
	C139.841446,400.219574 134.381866,420.203461 136.904587,440.977173 
	C137.582687,446.561127 136.574326,452.339966 137.127029,457.951813 
	C137.740692,464.182251 136.645294,471.078766 144.770676,474.523743 
	C157.710327,480.009918 169.981094,487.125946 183.041855,492.263397 
	C210.225525,502.956055 237.980499,511.053314 267.885773,508.111847 
	C284.753265,506.452759 301.190094,502.988281 316.825073,496.841248 
	C334.955322,489.713165 352.488281,481.077271 370.406952,473.390747 
	C374.442780,471.659546 375.832916,468.938232 375.968048,465.065613 
	C376.344421,454.280060 377.615906,443.415985 376.767761,432.722992 
	C375.478943,416.474060 372.583710,400.357574 370.604645,384.156250 
	C369.566772,375.659790 367.975494,367.038696 368.488831,358.586517 
	C369.446075,342.825470 381.869263,332.863007 389.353790,320.012878 
	C394.695282,326.735809 399.693176,332.847687 404.453125,339.139557 
	C405.683411,340.765778 406.682495,342.899689 406.903625,344.898224 
	C407.793762,352.943024 407.801910,361.115112 409.124725,369.075897 
	C411.606598,384.012085 416.551819,398.188080 424.588501,411.133911 
	C426.839874,414.760559 430.060394,415.141510 433.144775,412.300079 
	C438.747467,407.138763 444.292633,401.913971 449.809052,396.660248 
	C459.185181,387.730652 468.605682,378.844513 477.824066,369.754089 
	C480.828674,366.791168 485.549683,363.267212 485.576752,359.967743 
	C485.729095,341.420197 486.066650,322.685638 483.710114,304.353058 
	C480.674652,280.738647 470.520599,259.616943 454.951965,241.282150 
	C452.599701,238.511993 449.587830,235.983124 450.802307,231.053284 
	C452.250305,225.175430 452.951965,218.948685 452.854645,212.891098 
	C452.676697,201.813461 452.084351,190.706360 450.937714,179.687210 
	C447.606628,147.675674 429.780151,125.730003 402.010284,111.126472 
	C395.460266,107.681969 388.106262,105.706383 381.722748,102.016029 
	C359.427216,89.126808 337.354156,75.849571 315.326294,62.505535 
	C313.173340,61.201313 311.346008,58.648781 310.391602,56.265564 
	C309.319061,53.587494 309.449066,50.437504 308.986450,47.503780 
	C307.343689,37.086548 305.811798,26.647566 303.863556,16.287230 
	C303.560089,14.673368 301.503204,12.494102 299.922363,12.159896 
	C289.137970,9.879941 278.337830,7.268935 267.402466,6.199558 
	C248.936798,4.393790 230.794601,7.626673 212.923141,12.145216 
	C211.408157,12.528261 209.440704,14.469517 209.183746,15.947671 
	C207.238586,27.137985 205.959747,38.449005 203.834579,49.600689 
	C203.008667,53.934570 204.334305,59.025028 198.799026,62.199574 
	C168.390335,79.639343 138.826401,98.493393 107.131004,113.751602 
	C91.114868,121.461792 77.790207,133.679047 70.565407,150.321335 
	C59.467194,175.886002 57.520668,202.941025 60.612858,230.480484 
	C60.894691,232.990540 60.813923,236.657730 59.299355,238.073105 
	C48.959274,247.735947 41.093884,259.038940 35.013847,272.554871 
z"/>
<path fill="#4A506A" opacity="1.000000" stroke="none" 
	d="
M35.099068,272.179382 
	C41.093884,259.038940 48.959274,247.735947 59.299355,238.073105 
	C60.813923,236.657730 60.894691,232.990540 60.612858,230.480484 
	C57.520668,202.941025 59.467194,175.886002 70.565407,150.321335 
	C77.790207,133.679047 91.114868,121.461792 107.131004,113.751602 
	C138.826401,98.493393 168.390335,79.639343 198.799026,62.199574 
	C204.334305,59.025028 203.008667,53.934570 203.834579,49.600689 
	C205.959747,38.449005 207.238586,27.137985 209.183746,15.947671 
	C209.440704,14.469517 211.408157,12.528261 212.923141,12.145216 
	C230.794601,7.626673 248.936798,4.393790 267.402466,6.199558 
	C278.337830,7.268935 289.137970,9.879941 299.922363,12.159896 
	C301.503204,12.494102 303.560089,14.673368 303.863556,16.287230 
	C305.811798,26.647566 307.343689,37.086548 308.986450,47.503780 
	C309.449066,50.437504 309.319061,53.587494 310.391602,56.265564 
	C311.346008,58.648781 313.173340,61.201313 315.326294,62.505535 
	C337.354156,75.849571 359.427216,89.126808 381.722748,102.016029 
	C388.106262,105.706383 395.460266,107.681969 402.010284,111.126472 
	C429.780151,125.730003 447.606628,147.675674 450.937714,179.687210 
	C452.084351,190.706360 452.676697,201.813461 452.854645,212.891098 
	C452.951965,218.948685 452.250305,225.175430 450.802307,231.053284 
	C449.587830,235.983124 452.599701,238.511993 454.951965,241.282150 
	C470.520599,259.616943 480.674652,280.738647 483.710114,304.353058 
	C486.066650,322.685638 485.729095,341.420197 485.576752,359.967743 
	C485.549683,363.267212 480.828674,366.791168 477.824066,369.754089 
	C468.605682,378.844513 459.185181,387.730652 449.809052,396.660248 
	C444.292633,401.913971 438.747467,407.138763 433.144775,412.300079 
	C430.060394,415.141510 426.839874,414.760559 424.588501,411.133911 
	C416.551819,398.188080 411.606598,384.012085 409.124725,369.075897 
	C407.801910,361.115112 407.793762,352.943024 406.903625,344.898224 
	C406.682495,342.899689 405.683411,340.765778 404.453125,339.139557 
	C399.693176,332.847687 394.695282,326.735809 389.353790,320.012878 
	C381.869263,332.863007 369.446075,342.825470 368.488831,358.586517 
	C367.975494,367.038696 369.566772,375.659790 370.604645,384.156250 
	C372.583710,400.357574 375.478943,416.474060 376.767761,432.722992 
	C377.615906,443.415985 376.344421,454.280060 375.968048,465.065613 
	C375.832916,468.938232 374.442780,471.659546 370.406952,473.390747 
	C352.488281,481.077271 334.955322,489.713165 316.825073,496.841248 
	C301.190094,502.988281 284.753265,506.452759 267.885773,508.111847 
	C237.980499,511.053314 210.225525,502.956055 183.041855,492.263397 
	C169.981094,487.125946 157.710327,480.009918 144.770676,474.523743 
	C136.645294,471.078766 137.740692,464.182251 137.127029,457.951813 
	C136.574326,452.339966 137.582687,446.561127 136.904587,440.977173 
	C134.381866,420.203461 139.841446,400.219574 143.488800,380.258728 
	C147.019241,360.937744 143.534668,344.701355 130.709274,330.111786 
	C128.145721,327.195618 126.250473,323.691956 123.774315,320.058990 
	C117.952637,327.519928 112.407478,334.472687 107.089409,341.595032 
	C106.213875,342.767578 106.009079,344.691711 106.044556,346.256073 
	C106.560707,369.013214 100.222282,389.974274 89.588104,409.834473 
	C86.767357,415.102509 83.317978,415.616730 78.963150,411.469269 
	C65.488449,398.636353 52.003330,385.814362 38.491127,373.020996 
	C37.299591,371.892853 35.856297,371.035217 34.572399,369.999329 
	C28.097992,364.775543 23.839491,358.924744 24.798223,349.652466 
	C25.752968,340.418671 24.846920,331.005676 25.042452,321.677246 
	C25.397917,304.718842 28.307707,288.242126 35.099068,272.179382 
M259.970856,288.497925 
	C259.974731,293.328247 259.824036,298.166809 260.080261,302.983734 
	C260.153442,304.359192 261.406799,305.671875 262.118988,307.013367 
	C263.459839,306.269775 264.846222,305.594727 266.119415,304.749268 
	C266.636292,304.406006 266.910492,303.694366 267.288971,303.146088 
	C283.748169,279.302673 300.170166,255.433411 316.696045,231.636337 
	C319.998596,226.880707 321.376221,221.802521 320.762726,216.090408 
	C318.949188,199.204819 319.995605,182.460648 324.094086,166.009613 
	C329.598419,143.915817 340.358215,125.683273 362.136688,115.714203 
	C364.145325,114.794746 366.411652,111.839989 366.402863,109.839752 
	C366.394073,107.825706 364.122864,105.043564 362.107758,103.938049 
	C344.307434,94.172478 326.302673,84.780121 308.471619,75.069420 
	C305.817139,73.623810 303.271088,71.446503 301.493958,69.010246 
	C291.092499,54.750843 281.039703,40.236317 270.569000,26.029167 
	C269.175446,24.138319 265.672729,22.138613 263.884308,22.670290 
	C262.098907,23.201069 260.205383,26.822701 260.146088,29.135117 
	C259.804657,42.451363 259.852661,55.783268 260.048096,69.105766 
	C260.198242,79.340614 263.938995,88.273338 271.045898,95.684174 
	C273.563141,98.309082 276.320526,100.703682 279.374634,103.587067 
	C278.055786,104.648598 277.181274,105.416679 276.243500,106.097610 
	C263.977783,115.003929 259.680328,127.108337 259.811951,142.087921 
	C260.237732,190.554947 259.970856,239.028076 259.970856,288.497925 
M190.345520,183.200211 
	C190.486816,194.343597 190.836349,205.489868 190.681259,216.629135 
	C190.604141,222.166687 191.558594,227.047943 194.784424,231.682098 
	C211.245575,255.329910 227.556122,279.082550 243.920776,302.797577 
	C244.488083,303.619690 244.913406,304.654663 245.682602,305.195312 
	C246.795792,305.977722 248.408752,307.106628 249.353546,306.778351 
	C250.328506,306.439606 251.034943,304.600616 251.352936,303.294800 
	C251.698532,301.875610 251.476135,300.314575 251.476349,298.815369 
	C251.479660,276.323395 251.479553,253.831406 251.478836,231.339432 
	C251.477875,200.517090 251.358002,169.694107 251.530212,138.872742 
	C251.602249,125.984024 247.092606,115.521637 236.932343,107.528526 
	C235.433395,106.349312 234.068542,104.999649 231.984161,103.143272 
	C233.591934,101.933449 234.698029,101.180199 235.716354,100.322701 
	C247.091171,90.744247 251.999298,78.470619 251.545547,63.674355 
	C251.203522,52.522114 251.473846,41.351055 251.474213,30.188374 
	C251.474319,26.952526 251.516037,23.583641 247.670395,22.351103 
	C243.713364,21.082870 242.002808,24.164116 240.171829,26.731812 
	C230.018295,40.970779 219.945572,55.267986 209.689850,69.432793 
	C208.190735,71.503296 206.110107,73.433746 203.873917,74.645119 
	C186.163467,84.239037 168.289841,93.533302 150.638672,103.233231 
	C148.218445,104.563225 145.754379,107.359451 145.074341,109.941368 
	C144.097290,113.650955 147.701691,115.136093 150.652252,116.492500 
	C159.768799,120.683495 167.316940,126.847672 173.278137,134.904037 
	C183.699265,148.987869 188.181473,165.217758 190.345520,183.200211 
M294.189789,342.305786 
	C307.553375,357.152313 320.893127,372.020508 334.329376,386.800964 
	C335.318787,387.889374 337.003754,388.345490 338.365356,389.095551 
	C338.959503,387.808350 339.625977,386.549072 340.135956,385.229401 
	C343.180786,377.349976 345.482697,369.086243 349.376770,361.655182 
	C355.159698,350.619598 361.964874,340.110992 368.506378,329.483551 
	C381.803070,307.881439 387.343292,284.197693 387.706909,259.089203 
	C387.795319,252.984161 385.426910,249.300766 380.076752,247.632446 
	C365.315979,243.029633 350.532715,238.498032 335.736542,234.010086 
	C330.354767,232.377686 326.183777,233.637512 323.026031,238.198257 
	C306.824890,261.597687 290.687439,285.041687 274.631409,308.540924 
	C271.424988,313.233795 272.100464,317.989532 275.927551,322.185699 
	C281.871887,328.703308 287.792847,335.242249 294.189789,342.305786 
M182.883804,380.381470 
	C200.137115,360.936035 217.348038,341.452759 234.669891,322.068573 
	C239.788712,316.340271 240.296814,312.485443 235.837402,306.074066 
	C220.424255,283.914154 204.974548,261.779663 189.505478,239.658783 
	C185.057434,233.298035 181.357941,232.212921 174.074326,234.488266 
	C160.253464,238.805801 146.404007,243.033401 132.539612,247.209366 
	C126.514046,249.024261 123.581093,252.205948 123.938995,258.357697 
	C124.499161,267.985992 125.122078,277.655396 126.569504,287.178009 
	C129.591125,307.057373 139.487213,324.086365 149.762680,340.936432 
	C158.580032,355.395416 168.720245,369.256897 171.514847,386.624756 
	C171.995041,389.609009 173.863251,390.207703 176.058029,387.968414 
	C178.271988,385.709686 180.299652,383.268372 182.883804,380.381470 
M281.004913,338.498688 
	C276.883850,333.915497 272.856018,329.243591 268.609070,324.780182 
	C265.755798,321.781494 261.775421,322.282379 260.531494,325.738647 
	C259.935791,327.393860 260.004059,329.336975 260.002441,331.149902 
	C259.974060,363.135162 259.980255,395.120422 259.981354,427.105713 
	C259.982025,446.430145 259.905762,465.755432 260.112579,485.077698 
	C260.133759,487.056183 261.402771,489.996613 262.926361,490.709808 
	C264.454651,491.425232 267.402802,490.442505 269.065338,489.266327 
	C272.857788,486.583313 276.364105,483.455200 279.774506,480.280029 
	C291.895844,468.994751 305.717072,461.950317 322.681885,461.550476 
	C329.972473,461.378601 333.682892,457.147583 334.208862,449.643494 
	C335.187012,435.688141 336.302185,421.724884 336.583160,407.749329 
	C336.662598,403.799377 335.063934,398.905975 332.496613,395.960144 
	C315.755737,376.750671 298.536407,357.958191 281.004913,338.498688 
M179.449478,456.867645 
	C182.168213,460.598663 186.103363,461.645844 190.418060,461.767181 
	C204.491165,462.163116 216.612427,467.398926 227.199493,476.495789 
	C232.250473,480.835785 237.211014,485.295502 242.466385,489.373901 
	C243.956909,490.530640 246.865204,491.518646 248.181427,490.817017 
	C249.782303,489.963654 250.630646,487.326874 251.337128,485.298767 
	C251.803970,483.958588 251.459320,482.331970 251.459366,480.833588 
	C251.461304,431.716370 251.488647,382.599060 251.404114,333.481995 
	C251.397903,329.872223 252.993484,325.144257 248.382950,323.281586 
	C243.356400,321.250854 241.500412,326.267609 239.016068,329.015594 
	C220.258942,349.763519 201.936478,370.913910 182.820114,391.322083 
	C176.670959,397.886810 174.068008,404.418915 174.891785,413.203186 
	C176.025558,425.293365 176.296249,437.462585 177.133255,449.584351 
	C177.288223,451.828705 178.373688,454.008820 179.449478,456.867645 
M138.039780,116.372063 
	C131.065613,113.348213 123.844421,112.044334 116.711395,115.263504 
	C94.946121,125.086304 78.827560,140.444351 71.032822,163.507523 
	C64.657150,182.371933 65.181122,201.529053 69.266853,220.734619 
	C70.959618,228.691666 75.467644,230.042389 81.676064,224.689453 
	C90.254707,217.292877 99.188660,210.265396 107.297943,202.387573 
	C110.791199,198.994019 113.025780,194.054520 115.055382,189.473221 
	C117.189545,184.655853 117.746651,179.093582 120.137466,174.445557 
	C125.549828,163.923233 135.344971,158.424866 145.879181,154.193085 
	C151.282227,152.022614 156.868271,150.312225 162.315002,148.244812 
	C169.716293,145.435516 170.214767,143.736694 165.894379,136.994629 
	C159.383377,126.834084 149.601456,121.045929 138.039780,116.372063 
M410.418854,124.057594 
	C405.667786,121.318871 401.158539,117.933777 396.092010,116.038216 
	C391.743683,114.411346 386.481812,113.151268 382.105347,114.056549 
	C367.943329,116.986000 355.428497,123.402565 346.614594,135.442688 
	C340.694885,143.529175 341.397766,145.359055 350.693268,148.928040 
	C358.910553,152.083038 367.321686,154.888916 375.177155,158.794479 
	C387.245056,164.794373 394.272461,174.629196 396.439209,188.308197 
	C397.189178,193.043091 399.892090,198.271118 403.318420,201.622116 
	C411.984558,210.097733 421.524384,217.686890 430.800232,225.529465 
	C435.769226,229.730698 440.464447,228.219009 441.846527,221.853165 
	C443.044067,216.337128 444.078033,210.737183 444.554382,205.120911 
	C447.323181,172.475266 438.725403,144.472015 410.418854,124.057594 
M121.008728,216.500000 
	C120.999580,222.495743 120.937347,228.492020 120.995338,234.487106 
	C121.060852,241.260071 124.571274,243.853745 131.082657,241.692551 
	C145.454590,236.922333 159.760269,231.952774 174.115173,227.130661 
	C179.162460,225.435181 181.633423,221.949768 181.978241,216.743835 
	C182.121185,214.585785 182.436676,212.439713 182.612595,210.283218 
	C183.993164,193.359955 182.392166,176.683823 178.186478,160.268143 
	C176.614716,154.133179 172.888580,152.288956 166.872665,154.389023 
	C159.960052,156.802109 152.966415,159.055191 146.248077,161.937454 
	C132.914658,167.657700 124.382996,177.782715 122.013237,192.108383 
	C120.748848,199.751877 121.285110,207.693222 121.008728,216.500000 
M389.258484,190.559708 
	C385.826324,176.629333 377.436493,166.873566 364.215424,161.459488 
	C357.597443,158.749405 350.782074,156.507584 344.004852,154.204376 
	C338.801270,152.435959 334.822815,154.187836 333.468811,159.385056 
	C328.332367,179.100754 326.643799,199.109512 330.079529,219.279373 
	C330.525513,221.897400 333.206879,225.319153 335.646240,226.219971 
	C350.942902,231.868652 366.426636,237.024323 381.934875,242.078018 
	C386.575104,243.590134 390.273499,241.080597 390.260498,236.318207 
	C390.219696,221.342987 389.765564,206.368912 389.258484,190.559708 
M87.551147,255.116486 
	C85.940506,262.420837 83.837769,269.659058 82.844856,277.046417 
	C81.627480,286.103790 82.326126,295.500458 80.401978,304.360748 
	C77.908409,315.843109 73.686630,326.954468 70.111977,338.194733 
	C69.256012,340.886292 68.328392,343.928192 71.438385,345.117706 
	C73.247955,345.809845 76.394569,345.031006 78.055061,343.759186 
	C88.740837,335.574738 97.346077,325.407410 104.664452,314.170776 
	C113.584862,300.474335 118.696739,286.384491 116.410233,269.047516 
	C114.232468,252.534988 116.038643,235.505951 115.884285,218.705933 
	C115.865860,216.700867 114.535126,214.707870 113.812668,212.709274 
	C112.106636,213.782852 109.961212,214.502090 108.764320,215.986252 
	C99.477806,227.501709 92.434273,240.283463 87.551147,255.116486 
M430.590881,302.793396 
	C430.316406,298.977966 429.871704,295.165955 429.795349,291.346558 
	C429.321075,267.617828 422.820862,245.731903 409.829773,225.843826 
	C407.284637,221.947418 404.511047,218.175140 401.537720,214.599304 
	C400.678650,213.566193 398.446808,212.654404 397.407104,213.075729 
	C396.346344,213.505554 395.802917,215.592010 395.371216,217.053101 
	C395.107971,217.944199 395.509583,219.022430 395.567780,220.019226 
	C396.684753,239.145950 397.707977,258.260376 394.269226,277.300354 
	C393.777802,280.021240 393.806061,283.045746 394.443115,285.728027 
	C400.331635,310.520935 415.523651,329.055176 434.674805,344.862091 
	C435.054749,345.175659 435.506073,345.438538 435.966553,345.612976 
	C439.211090,346.842133 442.254028,344.794312 441.986420,341.333710 
	C441.849304,339.560333 440.989532,337.844055 440.466034,336.099121 
	C437.223480,325.291016 433.983673,314.482086 430.590881,302.793396 
M50.549110,264.096680 
	C37.342487,286.139374 32.326424,310.006836 34.981552,335.471466 
	C35.199032,337.557251 36.932152,340.527435 38.642895,341.120819 
	C40.341053,341.709839 43.499130,340.404755 44.978565,338.905640 
	C51.125706,332.676666 55.438389,325.326630 58.217995,316.877686 
	C60.056728,311.288605 63.459736,306.229218 65.957886,300.837921 
	C68.659271,295.007996 72.421501,289.282349 73.436836,283.134003 
	C76.065559,267.215790 80.871590,252.114685 87.089775,237.327774 
	C87.906403,235.385834 87.203819,232.805038 87.204857,230.520126 
	C84.967667,231.004684 82.278610,230.855179 80.565933,232.075729 
	C68.643219,240.572556 58.722630,251.042252 50.549110,264.096680 
M477.102203,326.455231 
	C477.556671,287.536713 462.666473,256.051270 431.543457,232.437012 
	C430.487549,231.635849 429.435333,230.741806 428.236084,230.234451 
	C424.976105,228.855209 422.436462,230.874435 423.112671,234.322983 
	C423.395477,235.765152 424.119934,237.130920 424.715881,238.499954 
	C430.913971,252.738541 435.223846,267.475830 438.012329,282.799957 
	C439.159637,289.105072 442.835480,294.979462 445.559113,300.959656 
	C448.017731,306.358093 451.346130,311.432465 453.216736,317.010010 
	C456.093506,325.587830 460.561279,333.021271 466.840057,339.355927 
	C468.139313,340.666779 470.942719,341.831726 472.400177,341.294128 
	C474.149628,340.648834 475.854218,338.291412 476.397736,336.345581 
	C477.184448,333.529236 476.911835,330.416992 477.102203,326.455231 
M150.254730,398.828430 
	C149.958740,400.636261 149.778305,402.472046 149.348816,404.247589 
	C145.281433,421.062714 145.384186,437.911469 148.829834,454.800262 
	C149.855515,459.827667 152.093674,461.646545 157.122894,461.379364 
	C159.450974,461.255676 161.790970,461.117065 164.091522,460.763641 
	C169.330215,459.958801 171.529068,457.341064 170.688126,452.162292 
	C166.446060,426.038330 162.061356,399.937439 157.679413,373.836365 
	C157.442032,372.422485 156.776962,371.080383 156.310974,369.704865 
	C155.937927,369.791290 155.564880,369.877686 155.191833,369.964081 
	C153.604874,379.302795 152.017929,388.641510 150.254730,398.828430 
M362.926025,453.190338 
	C369.443420,424.201294 359.526428,396.662994 355.995911,367.302368 
	C355.158691,368.998322 354.825500,369.410828 354.748535,369.866669 
	C350.072968,397.558228 345.390076,425.248688 340.788696,452.952637 
	C339.988342,457.771271 342.796356,460.032867 347.162354,460.738800 
	C349.127594,461.056549 351.137238,461.102509 353.127533,461.261871 
	C359.448517,461.768097 361.167633,460.481659 362.926025,453.190338 
z"/>
<path fill="#FE004F" opacity="1.000000" stroke="none" 
	d="
M259.970856,287.998383 
	C259.970856,239.028076 260.237732,190.554947 259.811951,142.087921 
	C259.680328,127.108337 263.977783,115.003929 276.243500,106.097610 
	C277.181274,105.416679 278.055786,104.648598 279.374634,103.587067 
	C276.320526,100.703682 273.563141,98.309082 271.045898,95.684174 
	C263.938995,88.273338 260.198242,79.340614 260.048096,69.105766 
	C259.852661,55.783268 259.804657,42.451363 260.146088,29.135117 
	C260.205383,26.822701 262.098907,23.201069 263.884308,22.670290 
	C265.672729,22.138613 269.175446,24.138319 270.569000,26.029167 
	C281.039703,40.236317 291.092499,54.750843 301.493958,69.010246 
	C303.271088,71.446503 305.817139,73.623810 308.471619,75.069420 
	C326.302673,84.780121 344.307434,94.172478 362.107758,103.938049 
	C364.122864,105.043564 366.394073,107.825706 366.402863,109.839752 
	C366.411652,111.839989 364.145325,114.794746 362.136688,115.714203 
	C340.358215,125.683273 329.598419,143.915817 324.094086,166.009613 
	C319.995605,182.460648 318.949188,199.204819 320.762726,216.090408 
	C321.376221,221.802521 319.998596,226.880707 316.696045,231.636337 
	C300.170166,255.433411 283.748169,279.302673 267.288971,303.146088 
	C266.910492,303.694366 266.636292,304.406006 266.119415,304.749268 
	C264.846222,305.594727 263.459839,306.269775 262.118988,307.013367 
	C261.406799,305.671875 260.153442,304.359192 260.080261,302.983734 
	C259.824036,298.166809 259.974731,293.328247 259.970856,287.998383 
z"/>
<path fill="#FE004F" opacity="1.000000" stroke="none" 
	d="
M190.289520,182.753342 
	C188.181473,165.217758 183.699265,148.987869 173.278137,134.904037 
	C167.316940,126.847672 159.768799,120.683495 150.652252,116.492500 
	C147.701691,115.136093 144.097290,113.650955 145.074341,109.941368 
	C145.754379,107.359451 148.218445,104.563225 150.638672,103.233231 
	C168.289841,93.533302 186.163467,84.239037 203.873917,74.645119 
	C206.110107,73.433746 208.190735,71.503296 209.689850,69.432793 
	C219.945572,55.267986 230.018295,40.970779 240.171829,26.731812 
	C242.002808,24.164116 243.713364,21.082870 247.670395,22.351103 
	C251.516037,23.583641 251.474319,26.952526 251.474213,30.188374 
	C251.473846,41.351055 251.203522,52.522114 251.545547,63.674355 
	C251.999298,78.470619 247.091171,90.744247 235.716354,100.322701 
	C234.698029,101.180199 233.591934,101.933449 231.984161,103.143272 
	C234.068542,104.999649 235.433395,106.349312 236.932343,107.528526 
	C247.092606,115.521637 251.602249,125.984024 251.530212,138.872742 
	C251.358002,169.694107 251.477875,200.517090 251.478836,231.339432 
	C251.479553,253.831406 251.479660,276.323395 251.476349,298.815369 
	C251.476135,300.314575 251.698532,301.875610 251.352936,303.294800 
	C251.034943,304.600616 250.328506,306.439606 249.353546,306.778351 
	C248.408752,307.106628 246.795792,305.977722 245.682602,305.195312 
	C244.913406,304.654663 244.488083,303.619690 243.920776,302.797577 
	C227.556122,279.082550 211.245575,255.329910 194.784424,231.682098 
	C191.558594,227.047943 190.604141,222.166687 190.681259,216.629135 
	C190.836349,205.489868 190.486816,194.343597 190.289520,182.753342 
z"/>
<path fill="#9FABCE" opacity="1.000000" stroke="none" 
	d="
M293.956757,342.038971 
	C287.792847,335.242249 281.871887,328.703308 275.927551,322.185699 
	C272.100464,317.989532 271.424988,313.233795 274.631409,308.540924 
	C290.687439,285.041687 306.824890,261.597687 323.026031,238.198257 
	C326.183777,233.637512 330.354767,232.377686 335.736542,234.010086 
	C350.532715,238.498032 365.315979,243.029633 380.076752,247.632446 
	C385.426910,249.300766 387.795319,252.984161 387.706909,259.089203 
	C387.343292,284.197693 381.803070,307.881439 368.506378,329.483551 
	C361.964874,340.110992 355.159698,350.619598 349.376770,361.655182 
	C345.482697,369.086243 343.180786,377.349976 340.135956,385.229401 
	C339.625977,386.549072 338.959503,387.808350 338.365356,389.095551 
	C337.003754,388.345490 335.318787,387.889374 334.329376,386.800964 
	C320.893127,372.020508 307.553375,357.152313 293.956757,342.038971 
z"/>
<path fill="#9FABCE" opacity="1.000000" stroke="none" 
	d="
M182.646362,380.644257 
	C180.299652,383.268372 178.271988,385.709686 176.058029,387.968414 
	C173.863251,390.207703 171.995041,389.609009 171.514847,386.624756 
	C168.720245,369.256897 158.580032,355.395416 149.762680,340.936432 
	C139.487213,324.086365 129.591125,307.057373 126.569504,287.178009 
	C125.122078,277.655396 124.499161,267.985992 123.938995,258.357697 
	C123.581093,252.205948 126.514046,249.024261 132.539612,247.209366 
	C146.404007,243.033401 160.253464,238.805801 174.074326,234.488266 
	C181.357941,232.212921 185.057434,233.298035 189.505478,239.658783 
	C204.974548,261.779663 220.424255,283.914154 235.837402,306.074066 
	C240.296814,312.485443 239.788712,316.340271 234.669891,322.068573 
	C217.348038,341.452759 200.137115,360.936035 182.646362,380.644257 
z"/>
<path fill="#9FABCE" opacity="1.000000" stroke="none" 
	d="
M281.239258,338.764008 
	C298.536407,357.958191 315.755737,376.750671 332.496613,395.960144 
	C335.063934,398.905975 336.662598,403.799377 336.583160,407.749329 
	C336.302185,421.724884 335.187012,435.688141 334.208862,449.643494 
	C333.682892,457.147583 329.972473,461.378601 322.681885,461.550476 
	C305.717072,461.950317 291.895844,468.994751 279.774506,480.280029 
	C276.364105,483.455200 272.857788,486.583313 269.065338,489.266327 
	C267.402802,490.442505 264.454651,491.425232 262.926361,490.709808 
	C261.402771,489.996613 260.133759,487.056183 260.112579,485.077698 
	C259.905762,465.755432 259.982025,446.430145 259.981354,427.105713 
	C259.980255,395.120422 259.974060,363.135162 260.002441,331.149902 
	C260.004059,329.336975 259.935791,327.393860 260.531494,325.738647 
	C261.775421,322.282379 265.755798,321.781494 268.609070,324.780182 
	C272.856018,329.243591 276.883850,333.915497 281.239258,338.764008 
z"/>
<path fill="#9FABCE" opacity="1.000000" stroke="none" 
	d="
M179.239578,456.543091 
	C178.373688,454.008820 177.288223,451.828705 177.133255,449.584351 
	C176.296249,437.462585 176.025558,425.293365 174.891785,413.203186 
	C174.068008,404.418915 176.670959,397.886810 182.820114,391.322083 
	C201.936478,370.913910 220.258942,349.763519 239.016068,329.015594 
	C241.500412,326.267609 243.356400,321.250854 248.382950,323.281586 
	C252.993484,325.144257 251.397903,329.872223 251.404114,333.481995 
	C251.488647,382.599060 251.461304,431.716370 251.459366,480.833588 
	C251.459320,482.331970 251.803970,483.958588 251.337128,485.298767 
	C250.630646,487.326874 249.782303,489.963654 248.181427,490.817017 
	C246.865204,491.518646 243.956909,490.530640 242.466385,489.373901 
	C237.211014,485.295502 232.250473,480.835785 227.199493,476.495789 
	C216.612427,467.398926 204.491165,462.163116 190.418060,461.767181 
	C186.103363,461.645844 182.168213,460.598663 179.239578,456.543091 
z"/>
<path fill="#9EAACD" opacity="1.000000" stroke="none" 
	d="
M138.391571,116.535553 
	C149.601456,121.045929 159.383377,126.834084 165.894379,136.994629 
	C170.214767,143.736694 169.716293,145.435516 162.315002,148.244812 
	C156.868271,150.312225 151.282227,152.022614 145.879181,154.193085 
	C135.344971,158.424866 125.549828,163.923233 120.137466,174.445557 
	C117.746651,179.093582 117.189545,184.655853 115.055382,189.473221 
	C113.025780,194.054520 110.791199,198.994019 107.297943,202.387573 
	C99.188660,210.265396 90.254707,217.292877 81.676064,224.689453 
	C75.467644,230.042389 70.959618,228.691666 69.266853,220.734619 
	C65.181122,201.529053 64.657150,182.371933 71.032822,163.507523 
	C78.827560,140.444351 94.946121,125.086304 116.711395,115.263504 
	C123.844421,112.044334 131.065613,113.348213 138.391571,116.535553 
z"/>
<path fill="#9EAACD" opacity="1.000000" stroke="none" 
	d="
M410.713806,124.261749 
	C438.725403,144.472015 447.323181,172.475266 444.554382,205.120911 
	C444.078033,210.737183 443.044067,216.337128 441.846527,221.853165 
	C440.464447,228.219009 435.769226,229.730698 430.800232,225.529465 
	C421.524384,217.686890 411.984558,210.097733 403.318420,201.622116 
	C399.892090,198.271118 397.189178,193.043091 396.439209,188.308197 
	C394.272461,174.629196 387.245056,164.794373 375.177155,158.794479 
	C367.321686,154.888916 358.910553,152.083038 350.693268,148.928040 
	C341.397766,145.359055 340.694885,143.529175 346.614594,135.442688 
	C355.428497,123.402565 367.943329,116.986000 382.105347,114.056549 
	C386.481812,113.151268 391.743683,114.411346 396.092010,116.038216 
	C401.158539,117.933777 405.667786,121.318871 410.713806,124.261749 
z"/>
<path fill="#9EAACD" opacity="1.000000" stroke="none" 
	d="
M121.008698,216.000061 
	C121.285110,207.693222 120.748848,199.751877 122.013237,192.108383 
	C124.382996,177.782715 132.914658,167.657700 146.248077,161.937454 
	C152.966415,159.055191 159.960052,156.802109 166.872665,154.389023 
	C172.888580,152.288956 176.614716,154.133179 178.186478,160.268143 
	C182.392166,176.683823 183.993164,193.359955 182.612595,210.283218 
	C182.436676,212.439713 182.121185,214.585785 181.978241,216.743835 
	C181.633423,221.949768 179.162460,225.435181 174.115173,227.130661 
	C159.760269,231.952774 145.454590,236.922333 131.082657,241.692551 
	C124.571274,243.853745 121.060852,241.260071 120.995338,234.487106 
	C120.937347,228.492020 120.999580,222.495743 121.008698,216.000061 
z"/>
<path fill="#9EAACD" opacity="1.000000" stroke="none" 
	d="
M389.364990,190.977051 
	C389.765564,206.368912 390.219696,221.342987 390.260498,236.318207 
	C390.273499,241.080597 386.575104,243.590134 381.934875,242.078018 
	C366.426636,237.024323 350.942902,231.868652 335.646240,226.219971 
	C333.206879,225.319153 330.525513,221.897400 330.079529,219.279373 
	C326.643799,199.109512 328.332367,179.100754 333.468811,159.385056 
	C334.822815,154.187836 338.801270,152.435959 344.004852,154.204376 
	C350.782074,156.507584 357.597443,158.749405 364.215424,161.459488 
	C377.436493,166.873566 385.826324,176.629333 389.364990,190.977051 
z"/>
<path fill="#9EAACD" opacity="1.000000" stroke="none" 
	d="
M87.685226,254.742828 
	C92.434273,240.283463 99.477806,227.501709 108.764320,215.986252 
	C109.961212,214.502090 112.106636,213.782852 113.812668,212.709274 
	C114.535126,214.707870 115.865860,216.700867 115.884285,218.705933 
	C116.038643,235.505951 114.232468,252.534988 116.410233,269.047516 
	C118.696739,286.384491 113.584862,300.474335 104.664452,314.170776 
	C97.346077,325.407410 88.740837,335.574738 78.055061,343.759186 
	C76.394569,345.031006 73.247955,345.809845 71.438385,345.117706 
	C68.328392,343.928192 69.256012,340.886292 70.111977,338.194733 
	C73.686630,326.954468 77.908409,315.843109 80.401978,304.360748 
	C82.326126,295.500458 81.627480,286.103790 82.844856,277.046417 
	C83.837769,269.659058 85.940506,262.420837 87.685226,254.742828 
z"/>
<path fill="#9EAACD" opacity="1.000000" stroke="none" 
	d="
M430.666901,303.233398 
	C433.983673,314.482086 437.223480,325.291016 440.466034,336.099121 
	C440.989532,337.844055 441.849304,339.560333 441.986420,341.333710 
	C442.254028,344.794312 439.211090,346.842133 435.966553,345.612976 
	C435.506073,345.438538 435.054749,345.175659 434.674805,344.862091 
	C415.523651,329.055176 400.331635,310.520935 394.443115,285.728027 
	C393.806061,283.045746 393.777802,280.021240 394.269226,277.300354 
	C397.707977,258.260376 396.684753,239.145950 395.567780,220.019226 
	C395.509583,219.022430 395.107971,217.944199 395.371216,217.053101 
	C395.802917,215.592010 396.346344,213.505554 397.407104,213.075729 
	C398.446808,212.654404 400.678650,213.566193 401.537720,214.599304 
	C404.511047,218.175140 407.284637,221.947418 409.829773,225.843826 
	C422.820862,245.731903 429.321075,267.617828 429.795349,291.346558 
	C429.871704,295.165955 430.316406,298.977966 430.666901,303.233398 
z"/>
<path fill="#9EAACD" opacity="1.000000" stroke="none" 
	d="
M50.739326,263.787476 
	C58.722630,251.042252 68.643219,240.572556 80.565933,232.075729 
	C82.278610,230.855179 84.967667,231.004684 87.204865,230.520126 
	C87.203819,232.805038 87.906403,235.385834 87.089775,237.327774 
	C80.871590,252.114685 76.065559,267.215790 73.436836,283.134003 
	C72.421501,289.282349 68.659271,295.007996 65.957886,300.837921 
	C63.459736,306.229218 60.056728,311.288605 58.217995,316.877686 
	C55.438389,325.326630 51.125706,332.676666 44.978565,338.905640 
	C43.499130,340.404755 40.341053,341.709839 38.642895,341.120819 
	C36.932152,340.527435 35.199032,337.557251 34.981552,335.471466 
	C32.326424,310.006836 37.342487,286.139374 50.739326,263.787476 
z"/>
<path fill="#9EAACD" opacity="1.000000" stroke="none" 
	d="
M477.096649,326.943115 
	C476.911835,330.416992 477.184448,333.529236 476.397736,336.345581 
	C475.854218,338.291412 474.149628,340.648834 472.400177,341.294128 
	C470.942719,341.831726 468.139313,340.666779 466.840057,339.355927 
	C460.561279,333.021271 456.093506,325.587830 453.216736,317.010010 
	C451.346130,311.432465 448.017731,306.358093 445.559113,300.959656 
	C442.835480,294.979462 439.159637,289.105072 438.012329,282.799957 
	C435.223846,267.475830 430.913971,252.738541 424.715881,238.499954 
	C424.119934,237.130920 423.395477,235.765152 423.112671,234.322983 
	C422.436462,230.874435 424.976105,228.855209 428.236084,230.234451 
	C429.435333,230.741806 430.487549,231.635849 431.543457,232.437012 
	C462.666473,256.051270 477.556671,287.536713 477.096649,326.943115 
z"/>
<path fill="#9DA9CC" opacity="1.000000" stroke="none" 
	d="
M150.342865,398.404327 
	C152.017929,388.641510 153.604874,379.302795 155.191833,369.964081 
	C155.564880,369.877686 155.937927,369.791290 156.310974,369.704865 
	C156.776962,371.080383 157.442032,372.422485 157.679413,373.836365 
	C162.061356,399.937439 166.446060,426.038330 170.688126,452.162292 
	C171.529068,457.341064 169.330215,459.958801 164.091522,460.763641 
	C161.790970,461.117065 159.450974,461.255676 157.122894,461.379364 
	C152.093674,461.646545 149.855515,459.827667 148.829834,454.800262 
	C145.384186,437.911469 145.281433,421.062714 149.348816,404.247589 
	C149.778305,402.472046 149.958740,400.636261 150.342865,398.404327 
z"/>
<path fill="#9EA9CC" opacity="1.000000" stroke="none" 
	d="
M362.875549,453.603149 
	C361.167633,460.481659 359.448517,461.768097 353.127533,461.261871 
	C351.137238,461.102509 349.127594,461.056549 347.162354,460.738800 
	C342.796356,460.032867 339.988342,457.771271 340.788696,452.952637 
	C345.390076,425.248688 350.072968,397.558228 354.748535,369.866669 
	C354.825500,369.410828 355.158691,368.998322 355.995911,367.302368 
	C359.526428,396.662994 369.443420,424.201294 362.875549,453.603149 
z"/>
</svg>